%TF.GenerationSoftware,KiCad,Pcbnew,5.1.6-c6e7f7d~87~ubuntu18.04.1*%
%TF.CreationDate,2020-10-12T23:52:10-07:00*%
%TF.ProjectId,faceplate,66616365-706c-4617-9465-2e6b69636164,rev?*%
%TF.SameCoordinates,Original*%
%TF.FileFunction,Legend,Top*%
%TF.FilePolarity,Positive*%
%FSLAX46Y46*%
G04 Gerber Fmt 4.6, Leading zero omitted, Abs format (unit mm)*
G04 Created by KiCad (PCBNEW 5.1.6-c6e7f7d~87~ubuntu18.04.1) date 2020-10-12 23:52:10*
%MOMM*%
%LPD*%
G01*
G04 APERTURE LIST*
%ADD10C,0.010000*%
G04 APERTURE END LIST*
D10*
%TO.C,G\u002A\u002A\u002A*%
G36*
X132401052Y-133978695D02*
G01*
X132435698Y-134032904D01*
X132441248Y-134047336D01*
X132529095Y-134169069D01*
X132697073Y-134325603D01*
X132834242Y-134429936D01*
X133646641Y-135021014D01*
X134344808Y-135587172D01*
X134951553Y-136151307D01*
X135489685Y-136736313D01*
X135982012Y-137365086D01*
X136451345Y-138060522D01*
X136451666Y-138061030D01*
X136716851Y-138480632D01*
X136295854Y-138670515D01*
X136074419Y-138771668D01*
X135912965Y-138847827D01*
X135850212Y-138880320D01*
X135868711Y-138953166D01*
X135965573Y-139116297D01*
X136125272Y-139349311D01*
X136332283Y-139631807D01*
X136571081Y-139943383D01*
X136826141Y-140263638D01*
X137081938Y-140572169D01*
X137322946Y-140848576D01*
X137464063Y-141001083D01*
X137761714Y-141312737D01*
X137756223Y-142343654D01*
X137718312Y-143176358D01*
X137606626Y-143914695D01*
X137409975Y-144595255D01*
X137117168Y-145254625D01*
X136717018Y-145929395D01*
X136611741Y-146086067D01*
X136381718Y-146435288D01*
X136232667Y-146700389D01*
X136153160Y-146909180D01*
X136131766Y-147089473D01*
X136146223Y-147218786D01*
X136157174Y-147307801D01*
X136133004Y-147369256D01*
X136049108Y-147413486D01*
X135880880Y-147450826D01*
X135603713Y-147491612D01*
X135446931Y-147512517D01*
X135091575Y-147559514D01*
X135136340Y-147099900D01*
X135154159Y-146870676D01*
X135174664Y-146532224D01*
X135195955Y-146120387D01*
X135216135Y-145671009D01*
X135227959Y-145370286D01*
X135232940Y-143925363D01*
X135136297Y-142581484D01*
X134936326Y-141334419D01*
X134631321Y-140179937D01*
X134219577Y-139113807D01*
X133699388Y-138131797D01*
X133069050Y-137229678D01*
X132326855Y-136403218D01*
X131471099Y-135648186D01*
X131236441Y-135468019D01*
X130662026Y-135038957D01*
X130892063Y-134846913D01*
X131055583Y-134725538D01*
X131303815Y-134558922D01*
X131595656Y-134374185D01*
X131754571Y-134277834D01*
X132040933Y-134109353D01*
X132227948Y-134008770D01*
X132339895Y-133967933D01*
X132401052Y-133978695D01*
G37*
X132401052Y-133978695D02*
X132435698Y-134032904D01*
X132441248Y-134047336D01*
X132529095Y-134169069D01*
X132697073Y-134325603D01*
X132834242Y-134429936D01*
X133646641Y-135021014D01*
X134344808Y-135587172D01*
X134951553Y-136151307D01*
X135489685Y-136736313D01*
X135982012Y-137365086D01*
X136451345Y-138060522D01*
X136451666Y-138061030D01*
X136716851Y-138480632D01*
X136295854Y-138670515D01*
X136074419Y-138771668D01*
X135912965Y-138847827D01*
X135850212Y-138880320D01*
X135868711Y-138953166D01*
X135965573Y-139116297D01*
X136125272Y-139349311D01*
X136332283Y-139631807D01*
X136571081Y-139943383D01*
X136826141Y-140263638D01*
X137081938Y-140572169D01*
X137322946Y-140848576D01*
X137464063Y-141001083D01*
X137761714Y-141312737D01*
X137756223Y-142343654D01*
X137718312Y-143176358D01*
X137606626Y-143914695D01*
X137409975Y-144595255D01*
X137117168Y-145254625D01*
X136717018Y-145929395D01*
X136611741Y-146086067D01*
X136381718Y-146435288D01*
X136232667Y-146700389D01*
X136153160Y-146909180D01*
X136131766Y-147089473D01*
X136146223Y-147218786D01*
X136157174Y-147307801D01*
X136133004Y-147369256D01*
X136049108Y-147413486D01*
X135880880Y-147450826D01*
X135603713Y-147491612D01*
X135446931Y-147512517D01*
X135091575Y-147559514D01*
X135136340Y-147099900D01*
X135154159Y-146870676D01*
X135174664Y-146532224D01*
X135195955Y-146120387D01*
X135216135Y-145671009D01*
X135227959Y-145370286D01*
X135232940Y-143925363D01*
X135136297Y-142581484D01*
X134936326Y-141334419D01*
X134631321Y-140179937D01*
X134219577Y-139113807D01*
X133699388Y-138131797D01*
X133069050Y-137229678D01*
X132326855Y-136403218D01*
X131471099Y-135648186D01*
X131236441Y-135468019D01*
X130662026Y-135038957D01*
X130892063Y-134846913D01*
X131055583Y-134725538D01*
X131303815Y-134558922D01*
X131595656Y-134374185D01*
X131754571Y-134277834D01*
X132040933Y-134109353D01*
X132227948Y-134008770D01*
X132339895Y-133967933D01*
X132401052Y-133978695D01*
G36*
X140095254Y-131966059D02*
G01*
X140192857Y-131968956D01*
X140875296Y-132008825D01*
X141431027Y-132078415D01*
X141855518Y-132176816D01*
X142144237Y-132303114D01*
X142240545Y-132380930D01*
X142408758Y-132509300D01*
X142530831Y-132565850D01*
X142767920Y-132673536D01*
X143072124Y-132859844D01*
X143408330Y-133100360D01*
X143741425Y-133370671D01*
X143918560Y-133530727D01*
X144480321Y-134132544D01*
X145002966Y-134828710D01*
X145474573Y-135593519D01*
X145883220Y-136401265D01*
X146216987Y-137226242D01*
X146463950Y-138042745D01*
X146612189Y-138825068D01*
X146651714Y-139423990D01*
X146581550Y-140346449D01*
X146374832Y-141282409D01*
X146037224Y-142216372D01*
X145574389Y-143132839D01*
X144991989Y-144016312D01*
X144956327Y-144064000D01*
X144723071Y-144377178D01*
X144506040Y-144674430D01*
X144328757Y-144923165D01*
X144214748Y-145090790D01*
X144210976Y-145096701D01*
X144090880Y-145338504D01*
X144042992Y-145553039D01*
X144071619Y-145705421D01*
X144129857Y-145753446D01*
X144184917Y-145784910D01*
X144170088Y-145822525D01*
X144070651Y-145872301D01*
X143871886Y-145940248D01*
X143559076Y-146032376D01*
X143207299Y-146130138D01*
X142293951Y-146361907D01*
X141255078Y-146591984D01*
X140110284Y-146816514D01*
X138879171Y-147031638D01*
X137652857Y-147222995D01*
X137398857Y-147260433D01*
X137616571Y-147102453D01*
X137892657Y-146873200D01*
X138215456Y-146560689D01*
X138550967Y-146202291D01*
X138865193Y-145835381D01*
X139124135Y-145497332D01*
X139247127Y-145310055D01*
X139641958Y-144507226D01*
X139910581Y-143649907D01*
X139981727Y-143287544D01*
X140066438Y-142765088D01*
X140292933Y-142815830D01*
X140467438Y-142838692D01*
X140739053Y-142856205D01*
X141059768Y-142865656D01*
X141190746Y-142866572D01*
X141482736Y-142868223D01*
X141710522Y-142872654D01*
X141842165Y-142879081D01*
X141862032Y-142883058D01*
X141831260Y-142997451D01*
X141745654Y-143219775D01*
X141614965Y-143527982D01*
X141448948Y-143900023D01*
X141257354Y-144313850D01*
X141049938Y-144747414D01*
X140923968Y-145003789D01*
X140687656Y-145493025D01*
X140511074Y-145887644D01*
X140398149Y-146178164D01*
X140352811Y-146355100D01*
X140352722Y-146382646D01*
X140378183Y-146492678D01*
X140447314Y-146547072D01*
X140599612Y-146564591D01*
X140737143Y-146565282D01*
X141216973Y-146490579D01*
X141717138Y-146273419D01*
X142235831Y-145914791D01*
X142694827Y-145494506D01*
X142971993Y-145202286D01*
X143186403Y-144943392D01*
X143370006Y-144672213D01*
X143554748Y-144343140D01*
X143696843Y-144064000D01*
X144064292Y-143239071D01*
X144327638Y-142436231D01*
X144504244Y-141598117D01*
X144556511Y-141223589D01*
X144617760Y-140803629D01*
X144688830Y-140496090D01*
X144778126Y-140268258D01*
X144821999Y-140190223D01*
X144926968Y-140006623D01*
X145072617Y-139733530D01*
X145237146Y-139412460D01*
X145354300Y-139176446D01*
X145512400Y-138845863D01*
X145612737Y-138609729D01*
X145665236Y-138434100D01*
X145679820Y-138285031D01*
X145666414Y-138128577D01*
X145664523Y-138115366D01*
X145532347Y-137654827D01*
X145290215Y-137270660D01*
X144954383Y-136980354D01*
X144541108Y-136801399D01*
X144418051Y-136774387D01*
X144178998Y-136726140D01*
X144012347Y-136663850D01*
X143887318Y-136559457D01*
X143773130Y-136384898D01*
X143639005Y-136112114D01*
X143600493Y-136029052D01*
X143184896Y-135247103D01*
X142690043Y-134515887D01*
X142134711Y-133856645D01*
X141537677Y-133290620D01*
X140917717Y-132839055D01*
X140641456Y-132681551D01*
X140180330Y-132470892D01*
X139682126Y-132292463D01*
X139194247Y-132160478D01*
X138764098Y-132089149D01*
X138639106Y-132081231D01*
X138479543Y-132075078D01*
X138437061Y-132064538D01*
X138520300Y-132043037D01*
X138737904Y-132004000D01*
X138741429Y-132003388D01*
X138962670Y-131980320D01*
X139288775Y-131965776D01*
X139679663Y-131960705D01*
X140095254Y-131966059D01*
G37*
X140095254Y-131966059D02*
X140192857Y-131968956D01*
X140875296Y-132008825D01*
X141431027Y-132078415D01*
X141855518Y-132176816D01*
X142144237Y-132303114D01*
X142240545Y-132380930D01*
X142408758Y-132509300D01*
X142530831Y-132565850D01*
X142767920Y-132673536D01*
X143072124Y-132859844D01*
X143408330Y-133100360D01*
X143741425Y-133370671D01*
X143918560Y-133530727D01*
X144480321Y-134132544D01*
X145002966Y-134828710D01*
X145474573Y-135593519D01*
X145883220Y-136401265D01*
X146216987Y-137226242D01*
X146463950Y-138042745D01*
X146612189Y-138825068D01*
X146651714Y-139423990D01*
X146581550Y-140346449D01*
X146374832Y-141282409D01*
X146037224Y-142216372D01*
X145574389Y-143132839D01*
X144991989Y-144016312D01*
X144956327Y-144064000D01*
X144723071Y-144377178D01*
X144506040Y-144674430D01*
X144328757Y-144923165D01*
X144214748Y-145090790D01*
X144210976Y-145096701D01*
X144090880Y-145338504D01*
X144042992Y-145553039D01*
X144071619Y-145705421D01*
X144129857Y-145753446D01*
X144184917Y-145784910D01*
X144170088Y-145822525D01*
X144070651Y-145872301D01*
X143871886Y-145940248D01*
X143559076Y-146032376D01*
X143207299Y-146130138D01*
X142293951Y-146361907D01*
X141255078Y-146591984D01*
X140110284Y-146816514D01*
X138879171Y-147031638D01*
X137652857Y-147222995D01*
X137398857Y-147260433D01*
X137616571Y-147102453D01*
X137892657Y-146873200D01*
X138215456Y-146560689D01*
X138550967Y-146202291D01*
X138865193Y-145835381D01*
X139124135Y-145497332D01*
X139247127Y-145310055D01*
X139641958Y-144507226D01*
X139910581Y-143649907D01*
X139981727Y-143287544D01*
X140066438Y-142765088D01*
X140292933Y-142815830D01*
X140467438Y-142838692D01*
X140739053Y-142856205D01*
X141059768Y-142865656D01*
X141190746Y-142866572D01*
X141482736Y-142868223D01*
X141710522Y-142872654D01*
X141842165Y-142879081D01*
X141862032Y-142883058D01*
X141831260Y-142997451D01*
X141745654Y-143219775D01*
X141614965Y-143527982D01*
X141448948Y-143900023D01*
X141257354Y-144313850D01*
X141049938Y-144747414D01*
X140923968Y-145003789D01*
X140687656Y-145493025D01*
X140511074Y-145887644D01*
X140398149Y-146178164D01*
X140352811Y-146355100D01*
X140352722Y-146382646D01*
X140378183Y-146492678D01*
X140447314Y-146547072D01*
X140599612Y-146564591D01*
X140737143Y-146565282D01*
X141216973Y-146490579D01*
X141717138Y-146273419D01*
X142235831Y-145914791D01*
X142694827Y-145494506D01*
X142971993Y-145202286D01*
X143186403Y-144943392D01*
X143370006Y-144672213D01*
X143554748Y-144343140D01*
X143696843Y-144064000D01*
X144064292Y-143239071D01*
X144327638Y-142436231D01*
X144504244Y-141598117D01*
X144556511Y-141223589D01*
X144617760Y-140803629D01*
X144688830Y-140496090D01*
X144778126Y-140268258D01*
X144821999Y-140190223D01*
X144926968Y-140006623D01*
X145072617Y-139733530D01*
X145237146Y-139412460D01*
X145354300Y-139176446D01*
X145512400Y-138845863D01*
X145612737Y-138609729D01*
X145665236Y-138434100D01*
X145679820Y-138285031D01*
X145666414Y-138128577D01*
X145664523Y-138115366D01*
X145532347Y-137654827D01*
X145290215Y-137270660D01*
X144954383Y-136980354D01*
X144541108Y-136801399D01*
X144418051Y-136774387D01*
X144178998Y-136726140D01*
X144012347Y-136663850D01*
X143887318Y-136559457D01*
X143773130Y-136384898D01*
X143639005Y-136112114D01*
X143600493Y-136029052D01*
X143184896Y-135247103D01*
X142690043Y-134515887D01*
X142134711Y-133856645D01*
X141537677Y-133290620D01*
X140917717Y-132839055D01*
X140641456Y-132681551D01*
X140180330Y-132470892D01*
X139682126Y-132292463D01*
X139194247Y-132160478D01*
X138764098Y-132089149D01*
X138639106Y-132081231D01*
X138479543Y-132075078D01*
X138437061Y-132064538D01*
X138520300Y-132043037D01*
X138737904Y-132004000D01*
X138741429Y-132003388D01*
X138962670Y-131980320D01*
X139288775Y-131965776D01*
X139679663Y-131960705D01*
X140095254Y-131966059D01*
G36*
X126999152Y-143738944D02*
G01*
X127182655Y-143837232D01*
X127366974Y-143951867D01*
X127877133Y-144205543D01*
X128421080Y-144322751D01*
X128981038Y-144302699D01*
X129539234Y-144144593D01*
X129729494Y-144057206D01*
X130031162Y-143917087D01*
X130234458Y-143857645D01*
X130359732Y-143876066D01*
X130424236Y-143961079D01*
X130456815Y-144230957D01*
X130355073Y-144492767D01*
X130129706Y-144732394D01*
X129791411Y-144935724D01*
X129636903Y-145000003D01*
X129300504Y-145098118D01*
X128923462Y-145165473D01*
X128564879Y-145194251D01*
X128291143Y-145178014D01*
X127812049Y-145058376D01*
X127388032Y-144891513D01*
X127038797Y-144690077D01*
X126784048Y-144466719D01*
X126643492Y-144234091D01*
X126622000Y-144106356D01*
X126664985Y-143871252D01*
X126782134Y-143730013D01*
X126891631Y-143701143D01*
X126999152Y-143738944D01*
G37*
X126999152Y-143738944D02*
X127182655Y-143837232D01*
X127366974Y-143951867D01*
X127877133Y-144205543D01*
X128421080Y-144322751D01*
X128981038Y-144302699D01*
X129539234Y-144144593D01*
X129729494Y-144057206D01*
X130031162Y-143917087D01*
X130234458Y-143857645D01*
X130359732Y-143876066D01*
X130424236Y-143961079D01*
X130456815Y-144230957D01*
X130355073Y-144492767D01*
X130129706Y-144732394D01*
X129791411Y-144935724D01*
X129636903Y-145000003D01*
X129300504Y-145098118D01*
X128923462Y-145165473D01*
X128564879Y-145194251D01*
X128291143Y-145178014D01*
X127812049Y-145058376D01*
X127388032Y-144891513D01*
X127038797Y-144690077D01*
X126784048Y-144466719D01*
X126643492Y-144234091D01*
X126622000Y-144106356D01*
X126664985Y-143871252D01*
X126782134Y-143730013D01*
X126891631Y-143701143D01*
X126999152Y-143738944D01*
G36*
X132754286Y-141522975D02*
G01*
X133047125Y-141652717D01*
X133300002Y-141877316D01*
X133466413Y-142152293D01*
X133489732Y-142226367D01*
X133494061Y-142506381D01*
X133395364Y-142803374D01*
X133216839Y-143062671D01*
X133088268Y-143172635D01*
X132809533Y-143290588D01*
X132471266Y-143337147D01*
X132143704Y-143305920D01*
X132028571Y-143269051D01*
X131762401Y-143084057D01*
X131579340Y-142797564D01*
X131502042Y-142481552D01*
X131492069Y-142250104D01*
X131533630Y-142087881D01*
X131650224Y-141921697D01*
X131700525Y-141863339D01*
X132006233Y-141612964D01*
X132360575Y-141498888D01*
X132754286Y-141522975D01*
G37*
X132754286Y-141522975D02*
X133047125Y-141652717D01*
X133300002Y-141877316D01*
X133466413Y-142152293D01*
X133489732Y-142226367D01*
X133494061Y-142506381D01*
X133395364Y-142803374D01*
X133216839Y-143062671D01*
X133088268Y-143172635D01*
X132809533Y-143290588D01*
X132471266Y-143337147D01*
X132143704Y-143305920D01*
X132028571Y-143269051D01*
X131762401Y-143084057D01*
X131579340Y-142797564D01*
X131502042Y-142481552D01*
X131492069Y-142250104D01*
X131533630Y-142087881D01*
X131650224Y-141921697D01*
X131700525Y-141863339D01*
X132006233Y-141612964D01*
X132360575Y-141498888D01*
X132754286Y-141522975D01*
G36*
X125894196Y-141149941D02*
G01*
X126052767Y-141295316D01*
X126212656Y-141571404D01*
X126260910Y-141885472D01*
X126204170Y-142197902D01*
X126049078Y-142469078D01*
X125826090Y-142647629D01*
X125654533Y-142731283D01*
X125564922Y-142749769D01*
X125511858Y-142707560D01*
X125494169Y-142680331D01*
X125458905Y-142539910D01*
X125446807Y-142303411D01*
X125456117Y-142017742D01*
X125485079Y-141729810D01*
X125531936Y-141486526D01*
X125539922Y-141458374D01*
X125638356Y-141215362D01*
X125752611Y-141113771D01*
X125894196Y-141149941D01*
G37*
X125894196Y-141149941D02*
X126052767Y-141295316D01*
X126212656Y-141571404D01*
X126260910Y-141885472D01*
X126204170Y-142197902D01*
X126049078Y-142469078D01*
X125826090Y-142647629D01*
X125654533Y-142731283D01*
X125564922Y-142749769D01*
X125511858Y-142707560D01*
X125494169Y-142680331D01*
X125458905Y-142539910D01*
X125446807Y-142303411D01*
X125456117Y-142017742D01*
X125485079Y-141729810D01*
X125531936Y-141486526D01*
X125539922Y-141458374D01*
X125638356Y-141215362D01*
X125752611Y-141113771D01*
X125894196Y-141149941D01*
G36*
X143856420Y-137067482D02*
G01*
X144364620Y-137156761D01*
X144761921Y-137323878D01*
X145045233Y-137569023D01*
X145211468Y-137892381D01*
X145254266Y-138130728D01*
X145261423Y-138312556D01*
X145243672Y-138474251D01*
X145189834Y-138651796D01*
X145088732Y-138881175D01*
X144929188Y-139198371D01*
X144912704Y-139230284D01*
X144402317Y-140128628D01*
X143874335Y-140883873D01*
X143328985Y-141495816D01*
X142766491Y-141964255D01*
X142187080Y-142288985D01*
X141590975Y-142469804D01*
X141276281Y-142506789D01*
X140901006Y-142508223D01*
X140547950Y-142475739D01*
X140374286Y-142441285D01*
X139738100Y-142217437D01*
X139113500Y-141880559D01*
X138485042Y-141420960D01*
X137895175Y-140886341D01*
X137659167Y-140642897D01*
X137401408Y-140358616D01*
X137140342Y-140056126D01*
X136894414Y-139758056D01*
X136682067Y-139487036D01*
X136521746Y-139265694D01*
X136431894Y-139116660D01*
X136419143Y-139075390D01*
X136483103Y-139028699D01*
X136659477Y-138940998D01*
X136925003Y-138822841D01*
X137256420Y-138684781D01*
X137453286Y-138606184D01*
X138651296Y-138155867D01*
X139760029Y-137782070D01*
X140776396Y-137484982D01*
X141697307Y-137264791D01*
X142519674Y-137121685D01*
X143240408Y-137055852D01*
X143856420Y-137067482D01*
G37*
X143856420Y-137067482D02*
X144364620Y-137156761D01*
X144761921Y-137323878D01*
X145045233Y-137569023D01*
X145211468Y-137892381D01*
X145254266Y-138130728D01*
X145261423Y-138312556D01*
X145243672Y-138474251D01*
X145189834Y-138651796D01*
X145088732Y-138881175D01*
X144929188Y-139198371D01*
X144912704Y-139230284D01*
X144402317Y-140128628D01*
X143874335Y-140883873D01*
X143328985Y-141495816D01*
X142766491Y-141964255D01*
X142187080Y-142288985D01*
X141590975Y-142469804D01*
X141276281Y-142506789D01*
X140901006Y-142508223D01*
X140547950Y-142475739D01*
X140374286Y-142441285D01*
X139738100Y-142217437D01*
X139113500Y-141880559D01*
X138485042Y-141420960D01*
X137895175Y-140886341D01*
X137659167Y-140642897D01*
X137401408Y-140358616D01*
X137140342Y-140056126D01*
X136894414Y-139758056D01*
X136682067Y-139487036D01*
X136521746Y-139265694D01*
X136431894Y-139116660D01*
X136419143Y-139075390D01*
X136483103Y-139028699D01*
X136659477Y-138940998D01*
X136925003Y-138822841D01*
X137256420Y-138684781D01*
X137453286Y-138606184D01*
X138651296Y-138155867D01*
X139760029Y-137782070D01*
X140776396Y-137484982D01*
X141697307Y-137264791D01*
X142519674Y-137121685D01*
X143240408Y-137055852D01*
X143856420Y-137067482D01*
G36*
X126765838Y-134828759D02*
G01*
X127371185Y-135005243D01*
X128044593Y-135280605D01*
X128109714Y-135310458D01*
X128478685Y-135482275D01*
X128734190Y-135606781D01*
X128895091Y-135696292D01*
X128980248Y-135763127D01*
X129008525Y-135819605D01*
X128998782Y-135878045D01*
X128994891Y-135888568D01*
X128875306Y-136013425D01*
X128661854Y-136060172D01*
X128385081Y-136025453D01*
X128224188Y-135973275D01*
X127669588Y-135777532D01*
X127181354Y-135657389D01*
X126707934Y-135603818D01*
X126197775Y-135607795D01*
X126151844Y-135610449D01*
X125695110Y-135652003D01*
X125354887Y-135719245D01*
X125103412Y-135822027D01*
X124912918Y-135970202D01*
X124816971Y-136084143D01*
X124576811Y-136419956D01*
X124419252Y-136670108D01*
X124331381Y-136858222D01*
X124300284Y-137007923D01*
X124299714Y-137030416D01*
X124276273Y-137194203D01*
X124227143Y-137278572D01*
X124179377Y-137374377D01*
X124155004Y-137552733D01*
X124154217Y-137591283D01*
X124118269Y-137804260D01*
X124022111Y-138078034D01*
X123882587Y-138382960D01*
X123716544Y-138689392D01*
X123540824Y-138967682D01*
X123372273Y-139188186D01*
X123227736Y-139321257D01*
X123156714Y-139346855D01*
X123072412Y-139392699D01*
X123066000Y-139419429D01*
X123023236Y-139492323D01*
X122917921Y-139471292D01*
X122784520Y-139370364D01*
X122700565Y-139270665D01*
X122620008Y-139139290D01*
X122577611Y-139001711D01*
X122566736Y-138813654D01*
X122580749Y-138530844D01*
X122583636Y-138490523D01*
X122627380Y-137989445D01*
X122678190Y-137577886D01*
X122733501Y-137271274D01*
X122790747Y-137085037D01*
X122825198Y-137037338D01*
X122893849Y-136951780D01*
X123002400Y-136772559D01*
X123128350Y-136537057D01*
X123138671Y-136516572D01*
X123467743Y-135956326D01*
X123848303Y-135478842D01*
X124009762Y-135346993D01*
X124260252Y-135192351D01*
X124551820Y-135040095D01*
X124836512Y-134915405D01*
X125053107Y-134846243D01*
X125637305Y-134753892D01*
X126198047Y-134746520D01*
X126765838Y-134828759D01*
G37*
X126765838Y-134828759D02*
X127371185Y-135005243D01*
X128044593Y-135280605D01*
X128109714Y-135310458D01*
X128478685Y-135482275D01*
X128734190Y-135606781D01*
X128895091Y-135696292D01*
X128980248Y-135763127D01*
X129008525Y-135819605D01*
X128998782Y-135878045D01*
X128994891Y-135888568D01*
X128875306Y-136013425D01*
X128661854Y-136060172D01*
X128385081Y-136025453D01*
X128224188Y-135973275D01*
X127669588Y-135777532D01*
X127181354Y-135657389D01*
X126707934Y-135603818D01*
X126197775Y-135607795D01*
X126151844Y-135610449D01*
X125695110Y-135652003D01*
X125354887Y-135719245D01*
X125103412Y-135822027D01*
X124912918Y-135970202D01*
X124816971Y-136084143D01*
X124576811Y-136419956D01*
X124419252Y-136670108D01*
X124331381Y-136858222D01*
X124300284Y-137007923D01*
X124299714Y-137030416D01*
X124276273Y-137194203D01*
X124227143Y-137278572D01*
X124179377Y-137374377D01*
X124155004Y-137552733D01*
X124154217Y-137591283D01*
X124118269Y-137804260D01*
X124022111Y-138078034D01*
X123882587Y-138382960D01*
X123716544Y-138689392D01*
X123540824Y-138967682D01*
X123372273Y-139188186D01*
X123227736Y-139321257D01*
X123156714Y-139346855D01*
X123072412Y-139392699D01*
X123066000Y-139419429D01*
X123023236Y-139492323D01*
X122917921Y-139471292D01*
X122784520Y-139370364D01*
X122700565Y-139270665D01*
X122620008Y-139139290D01*
X122577611Y-139001711D01*
X122566736Y-138813654D01*
X122580749Y-138530844D01*
X122583636Y-138490523D01*
X122627380Y-137989445D01*
X122678190Y-137577886D01*
X122733501Y-137271274D01*
X122790747Y-137085037D01*
X122825198Y-137037338D01*
X122893849Y-136951780D01*
X123002400Y-136772559D01*
X123128350Y-136537057D01*
X123138671Y-136516572D01*
X123467743Y-135956326D01*
X123848303Y-135478842D01*
X124009762Y-135346993D01*
X124260252Y-135192351D01*
X124551820Y-135040095D01*
X124836512Y-134915405D01*
X125053107Y-134846243D01*
X125637305Y-134753892D01*
X126198047Y-134746520D01*
X126765838Y-134828759D01*
G36*
X136738531Y-132358129D02*
G01*
X136694117Y-132450120D01*
X136673294Y-132607445D01*
X136785651Y-132783931D01*
X137021865Y-132971197D01*
X137372611Y-133160862D01*
X137588738Y-133254264D01*
X138426867Y-133668338D01*
X139211715Y-134207669D01*
X139927273Y-134857241D01*
X140557534Y-135602036D01*
X141086489Y-136427038D01*
X141199990Y-136642018D01*
X141355364Y-136948893D01*
X141155111Y-136993314D01*
X141012715Y-137029886D01*
X140763680Y-137098777D01*
X140440457Y-137190833D01*
X140075498Y-137296898D01*
X139992028Y-137321440D01*
X139593319Y-137438834D01*
X139313082Y-137520039D01*
X139130464Y-137569544D01*
X139024613Y-137591838D01*
X138974674Y-137591408D01*
X138959794Y-137572743D01*
X138959143Y-137543762D01*
X138921193Y-137463185D01*
X138817502Y-137287046D01*
X138663302Y-137040234D01*
X138473829Y-136747641D01*
X138446545Y-136706243D01*
X138089502Y-136209811D01*
X137659688Y-135682384D01*
X137189355Y-135159057D01*
X136710757Y-134674927D01*
X136256145Y-134265087D01*
X136056286Y-134105333D01*
X135682781Y-133848383D01*
X135271179Y-133608835D01*
X134862091Y-133407285D01*
X134496132Y-133264328D01*
X134293045Y-133211169D01*
X134124967Y-133173486D01*
X134044354Y-133141335D01*
X134043680Y-133134701D01*
X134139258Y-133086446D01*
X134347077Y-133007861D01*
X134639527Y-132907454D01*
X134988997Y-132793729D01*
X135367878Y-132675195D01*
X135748560Y-132560357D01*
X136103433Y-132457723D01*
X136404886Y-132375798D01*
X136625311Y-132323089D01*
X136728186Y-132307612D01*
X136738531Y-132358129D01*
G37*
X136738531Y-132358129D02*
X136694117Y-132450120D01*
X136673294Y-132607445D01*
X136785651Y-132783931D01*
X137021865Y-132971197D01*
X137372611Y-133160862D01*
X137588738Y-133254264D01*
X138426867Y-133668338D01*
X139211715Y-134207669D01*
X139927273Y-134857241D01*
X140557534Y-135602036D01*
X141086489Y-136427038D01*
X141199990Y-136642018D01*
X141355364Y-136948893D01*
X141155111Y-136993314D01*
X141012715Y-137029886D01*
X140763680Y-137098777D01*
X140440457Y-137190833D01*
X140075498Y-137296898D01*
X139992028Y-137321440D01*
X139593319Y-137438834D01*
X139313082Y-137520039D01*
X139130464Y-137569544D01*
X139024613Y-137591838D01*
X138974674Y-137591408D01*
X138959794Y-137572743D01*
X138959143Y-137543762D01*
X138921193Y-137463185D01*
X138817502Y-137287046D01*
X138663302Y-137040234D01*
X138473829Y-136747641D01*
X138446545Y-136706243D01*
X138089502Y-136209811D01*
X137659688Y-135682384D01*
X137189355Y-135159057D01*
X136710757Y-134674927D01*
X136256145Y-134265087D01*
X136056286Y-134105333D01*
X135682781Y-133848383D01*
X135271179Y-133608835D01*
X134862091Y-133407285D01*
X134496132Y-133264328D01*
X134293045Y-133211169D01*
X134124967Y-133173486D01*
X134044354Y-133141335D01*
X134043680Y-133134701D01*
X134139258Y-133086446D01*
X134347077Y-133007861D01*
X134639527Y-132907454D01*
X134988997Y-132793729D01*
X135367878Y-132675195D01*
X135748560Y-132560357D01*
X136103433Y-132457723D01*
X136404886Y-132375798D01*
X136625311Y-132323089D01*
X136728186Y-132307612D01*
X136738531Y-132358129D01*
G36*
X126041428Y-132997039D02*
G01*
X126436229Y-133034645D01*
X126743664Y-133088445D01*
X127021484Y-133171804D01*
X127311428Y-133290922D01*
X127482962Y-133367183D01*
X127736978Y-133479822D01*
X128023200Y-133606549D01*
X128069765Y-133627147D01*
X128713320Y-133986172D01*
X129262041Y-134453888D01*
X129552400Y-134793628D01*
X129731304Y-135059132D01*
X129800820Y-135257515D01*
X129762710Y-135415002D01*
X129618732Y-135557816D01*
X129604368Y-135568202D01*
X129374169Y-135696625D01*
X129201519Y-135698714D01*
X129063723Y-135569076D01*
X128986365Y-135421376D01*
X128825898Y-135168443D01*
X128645827Y-135051420D01*
X128498518Y-134981311D01*
X128436296Y-134914448D01*
X128436286Y-134913811D01*
X128380791Y-134839634D01*
X128239253Y-134722078D01*
X128135144Y-134648768D01*
X127908757Y-134498748D01*
X127759030Y-134403269D01*
X127641956Y-134336206D01*
X127513530Y-134271437D01*
X127438428Y-134235174D01*
X127204681Y-134119886D01*
X126988015Y-134009117D01*
X126772600Y-133929083D01*
X126513620Y-133874712D01*
X126461872Y-133868968D01*
X126230691Y-133848248D01*
X125921013Y-133820135D01*
X125598866Y-133790623D01*
X125591047Y-133789903D01*
X125325005Y-133770352D01*
X125108340Y-133772578D01*
X124894710Y-133803294D01*
X124637774Y-133869212D01*
X124291194Y-133977045D01*
X124284762Y-133979117D01*
X123946393Y-134096318D01*
X123633369Y-134219196D01*
X123388505Y-134330217D01*
X123285011Y-134388493D01*
X123108671Y-134494325D01*
X122976445Y-134552975D01*
X122952605Y-134557143D01*
X122863648Y-134603341D01*
X122703076Y-134725165D01*
X122503722Y-134897458D01*
X122479594Y-134919554D01*
X122276126Y-135096404D01*
X122105509Y-135225584D01*
X122001517Y-135281774D01*
X121995571Y-135282411D01*
X121915208Y-135341319D01*
X121904857Y-135391715D01*
X121847244Y-135474724D01*
X121708499Y-135500273D01*
X121539767Y-135470651D01*
X121392189Y-135388147D01*
X121371819Y-135367857D01*
X121283415Y-135180982D01*
X121251714Y-134899637D01*
X121266712Y-134679228D01*
X121331431Y-134516969D01*
X121475458Y-134347578D01*
X121523338Y-134300333D01*
X121935022Y-133978543D01*
X122462107Y-133688060D01*
X123076729Y-133436923D01*
X123751024Y-133233168D01*
X124457127Y-133084833D01*
X125167173Y-132999957D01*
X125853299Y-132986577D01*
X126041428Y-132997039D01*
G37*
X126041428Y-132997039D02*
X126436229Y-133034645D01*
X126743664Y-133088445D01*
X127021484Y-133171804D01*
X127311428Y-133290922D01*
X127482962Y-133367183D01*
X127736978Y-133479822D01*
X128023200Y-133606549D01*
X128069765Y-133627147D01*
X128713320Y-133986172D01*
X129262041Y-134453888D01*
X129552400Y-134793628D01*
X129731304Y-135059132D01*
X129800820Y-135257515D01*
X129762710Y-135415002D01*
X129618732Y-135557816D01*
X129604368Y-135568202D01*
X129374169Y-135696625D01*
X129201519Y-135698714D01*
X129063723Y-135569076D01*
X128986365Y-135421376D01*
X128825898Y-135168443D01*
X128645827Y-135051420D01*
X128498518Y-134981311D01*
X128436296Y-134914448D01*
X128436286Y-134913811D01*
X128380791Y-134839634D01*
X128239253Y-134722078D01*
X128135144Y-134648768D01*
X127908757Y-134498748D01*
X127759030Y-134403269D01*
X127641956Y-134336206D01*
X127513530Y-134271437D01*
X127438428Y-134235174D01*
X127204681Y-134119886D01*
X126988015Y-134009117D01*
X126772600Y-133929083D01*
X126513620Y-133874712D01*
X126461872Y-133868968D01*
X126230691Y-133848248D01*
X125921013Y-133820135D01*
X125598866Y-133790623D01*
X125591047Y-133789903D01*
X125325005Y-133770352D01*
X125108340Y-133772578D01*
X124894710Y-133803294D01*
X124637774Y-133869212D01*
X124291194Y-133977045D01*
X124284762Y-133979117D01*
X123946393Y-134096318D01*
X123633369Y-134219196D01*
X123388505Y-134330217D01*
X123285011Y-134388493D01*
X123108671Y-134494325D01*
X122976445Y-134552975D01*
X122952605Y-134557143D01*
X122863648Y-134603341D01*
X122703076Y-134725165D01*
X122503722Y-134897458D01*
X122479594Y-134919554D01*
X122276126Y-135096404D01*
X122105509Y-135225584D01*
X122001517Y-135281774D01*
X121995571Y-135282411D01*
X121915208Y-135341319D01*
X121904857Y-135391715D01*
X121847244Y-135474724D01*
X121708499Y-135500273D01*
X121539767Y-135470651D01*
X121392189Y-135388147D01*
X121371819Y-135367857D01*
X121283415Y-135180982D01*
X121251714Y-134899637D01*
X121266712Y-134679228D01*
X121331431Y-134516969D01*
X121475458Y-134347578D01*
X121523338Y-134300333D01*
X121935022Y-133978543D01*
X122462107Y-133688060D01*
X123076729Y-133436923D01*
X123751024Y-133233168D01*
X124457127Y-133084833D01*
X125167173Y-132999957D01*
X125853299Y-132986577D01*
X126041428Y-132997039D01*
G36*
X142370000Y-132343715D02*
G01*
X142333714Y-132380000D01*
X142297428Y-132343715D01*
X142333714Y-132307429D01*
X142370000Y-132343715D01*
G37*
X142370000Y-132343715D02*
X142333714Y-132380000D01*
X142297428Y-132343715D01*
X142333714Y-132307429D01*
X142370000Y-132343715D01*
%TD*%
M02*
