%TF.GenerationSoftware,KiCad,Pcbnew,5.1.6-c6e7f7d~87~ubuntu18.04.1*%
%TF.CreationDate,2020-10-12T23:52:10-07:00*%
%TF.ProjectId,faceplate,66616365-706c-4617-9465-2e6b69636164,rev?*%
%TF.SameCoordinates,Original*%
%TF.FileFunction,Copper,L2,Bot*%
%TF.FilePolarity,Positive*%
%FSLAX46Y46*%
G04 Gerber Fmt 4.6, Leading zero omitted, Abs format (unit mm)*
G04 Created by KiCad (PCBNEW 5.1.6-c6e7f7d~87~ubuntu18.04.1) date 2020-10-12 23:52:10*
%MOMM*%
%LPD*%
G01*
G04 APERTURE LIST*
%TA.AperFunction,NonConductor*%
%ADD10C,0.254000*%
%TD*%
G04 APERTURE END LIST*
D10*
G36*
X157265001Y-153265000D02*
G01*
X58735000Y-153265000D01*
X58735000Y-149764269D01*
X59606581Y-149764269D01*
X59606581Y-150235731D01*
X59698558Y-150698135D01*
X59878979Y-151133709D01*
X60140910Y-151525716D01*
X60474284Y-151859090D01*
X60866291Y-152121021D01*
X61301865Y-152301442D01*
X61764269Y-152393419D01*
X62235731Y-152393419D01*
X62698135Y-152301442D01*
X63133709Y-152121021D01*
X63525716Y-151859090D01*
X63859090Y-151525716D01*
X64121021Y-151133709D01*
X64301442Y-150698135D01*
X64393419Y-150235731D01*
X64393419Y-149764269D01*
X151606581Y-149764269D01*
X151606581Y-150235731D01*
X151698558Y-150698135D01*
X151878979Y-151133709D01*
X152140910Y-151525716D01*
X152474284Y-151859090D01*
X152866291Y-152121021D01*
X153301865Y-152301442D01*
X153764269Y-152393419D01*
X154235731Y-152393419D01*
X154698135Y-152301442D01*
X155133709Y-152121021D01*
X155525716Y-151859090D01*
X155859090Y-151525716D01*
X156121021Y-151133709D01*
X156301442Y-150698135D01*
X156393419Y-150235731D01*
X156393419Y-149764269D01*
X156301442Y-149301865D01*
X156121021Y-148866291D01*
X155859090Y-148474284D01*
X155525716Y-148140910D01*
X155133709Y-147878979D01*
X154698135Y-147698558D01*
X154235731Y-147606581D01*
X153764269Y-147606581D01*
X153301865Y-147698558D01*
X152866291Y-147878979D01*
X152474284Y-148140910D01*
X152140910Y-148474284D01*
X151878979Y-148866291D01*
X151698558Y-149301865D01*
X151606581Y-149764269D01*
X64393419Y-149764269D01*
X64301442Y-149301865D01*
X64121021Y-148866291D01*
X63859090Y-148474284D01*
X63525716Y-148140910D01*
X63133709Y-147878979D01*
X62698135Y-147698558D01*
X62235731Y-147606581D01*
X61764269Y-147606581D01*
X61301865Y-147698558D01*
X60866291Y-147878979D01*
X60474284Y-148140910D01*
X60140910Y-148474284D01*
X59878979Y-148866291D01*
X59698558Y-149301865D01*
X59606581Y-149764269D01*
X58735000Y-149764269D01*
X58735000Y-140517697D01*
X91103094Y-140517697D01*
X91103094Y-141482303D01*
X91291279Y-142428375D01*
X91660418Y-143319555D01*
X92196325Y-144121596D01*
X92878404Y-144803675D01*
X93680445Y-145339582D01*
X94571625Y-145708721D01*
X95517697Y-145896906D01*
X96482303Y-145896906D01*
X97428375Y-145708721D01*
X98319555Y-145339582D01*
X99121596Y-144803675D01*
X99803675Y-144121596D01*
X100339582Y-143319555D01*
X100708721Y-142428375D01*
X100896906Y-141482303D01*
X100896906Y-140517697D01*
X100708721Y-139571625D01*
X100339582Y-138680445D01*
X99803675Y-137878404D01*
X99121596Y-137196325D01*
X98319555Y-136660418D01*
X97428375Y-136291279D01*
X96482303Y-136103094D01*
X95517697Y-136103094D01*
X94571625Y-136291279D01*
X93680445Y-136660418D01*
X92878404Y-137196325D01*
X92196325Y-137878404D01*
X91660418Y-138680445D01*
X91291279Y-139571625D01*
X91103094Y-140517697D01*
X58735000Y-140517697D01*
X58735000Y-127269170D01*
X74656340Y-127269170D01*
X74656340Y-127730830D01*
X74746406Y-128183620D01*
X74923075Y-128610139D01*
X75179560Y-128993996D01*
X75506004Y-129320440D01*
X75889861Y-129576925D01*
X76316380Y-129753594D01*
X76769170Y-129843660D01*
X77230830Y-129843660D01*
X77683620Y-129753594D01*
X78110139Y-129576925D01*
X78493996Y-129320440D01*
X78820440Y-128993996D01*
X79076925Y-128610139D01*
X79253594Y-128183620D01*
X79343660Y-127730830D01*
X79343660Y-127269170D01*
X79253594Y-126816380D01*
X79076925Y-126389861D01*
X78820440Y-126006004D01*
X78493996Y-125679560D01*
X78110139Y-125423075D01*
X77683620Y-125246406D01*
X77230830Y-125156340D01*
X76769170Y-125156340D01*
X76316380Y-125246406D01*
X75889861Y-125423075D01*
X75506004Y-125679560D01*
X75179560Y-126006004D01*
X74923075Y-126389861D01*
X74746406Y-126816380D01*
X74656340Y-127269170D01*
X58735000Y-127269170D01*
X58735000Y-117769170D01*
X65156340Y-117769170D01*
X65156340Y-118230830D01*
X65246406Y-118683620D01*
X65423075Y-119110139D01*
X65679560Y-119493996D01*
X66006004Y-119820440D01*
X66389861Y-120076925D01*
X66816380Y-120253594D01*
X67269170Y-120343660D01*
X67730830Y-120343660D01*
X68183620Y-120253594D01*
X68610139Y-120076925D01*
X68993996Y-119820440D01*
X69320440Y-119493996D01*
X69576925Y-119110139D01*
X69753594Y-118683620D01*
X69843660Y-118230830D01*
X69843660Y-118000000D01*
X71345000Y-118000000D01*
X71435878Y-119009739D01*
X71705592Y-119987025D01*
X72145472Y-120900445D01*
X72741381Y-121720643D01*
X73474165Y-122421257D01*
X74320273Y-122979768D01*
X75252509Y-123378225D01*
X76240911Y-123603821D01*
X77253711Y-123649306D01*
X78258356Y-123513217D01*
X79222557Y-123199930D01*
X80115322Y-122719512D01*
X80390581Y-122500000D01*
X112261443Y-122500000D01*
X112275634Y-122644085D01*
X112317662Y-122782633D01*
X112385912Y-122910320D01*
X112477761Y-123022238D01*
X112589679Y-123114087D01*
X112717366Y-123182337D01*
X112855914Y-123224365D01*
X112963894Y-123235000D01*
X112963904Y-123235000D01*
X112999999Y-123238555D01*
X113036096Y-123235000D01*
X114293176Y-123235000D01*
X114066291Y-123328979D01*
X113674284Y-123590910D01*
X113340910Y-123924284D01*
X113078979Y-124316291D01*
X112898558Y-124751865D01*
X112806581Y-125214269D01*
X112806581Y-125685731D01*
X112898558Y-126148135D01*
X113078979Y-126583709D01*
X113340910Y-126975716D01*
X113674284Y-127309090D01*
X114066291Y-127571021D01*
X114501865Y-127751442D01*
X114964269Y-127843419D01*
X115435731Y-127843419D01*
X115898135Y-127751442D01*
X116333709Y-127571021D01*
X116725716Y-127309090D01*
X117059090Y-126975716D01*
X117321021Y-126583709D01*
X117501442Y-126148135D01*
X117593419Y-125685731D01*
X117593419Y-125214269D01*
X117501442Y-124751865D01*
X117321021Y-124316291D01*
X117059090Y-123924284D01*
X116725716Y-123590910D01*
X116333709Y-123328979D01*
X116106824Y-123235000D01*
X149893179Y-123235000D01*
X149666291Y-123328980D01*
X149274285Y-123590911D01*
X148940911Y-123924285D01*
X148678980Y-124316291D01*
X148498559Y-124751866D01*
X148406582Y-125214269D01*
X148406582Y-125685731D01*
X148498559Y-126148134D01*
X148678980Y-126583709D01*
X148940911Y-126975715D01*
X149274285Y-127309089D01*
X149666291Y-127571020D01*
X150101866Y-127751441D01*
X150564269Y-127843418D01*
X151035731Y-127843418D01*
X151498134Y-127751441D01*
X151933709Y-127571020D01*
X152325715Y-127309089D01*
X152659089Y-126975715D01*
X152921020Y-126583709D01*
X153101441Y-126148134D01*
X153193418Y-125685731D01*
X153193418Y-125214269D01*
X153101441Y-124751866D01*
X152921020Y-124316291D01*
X152659089Y-123924285D01*
X152325715Y-123590911D01*
X151933709Y-123328980D01*
X151706821Y-123235000D01*
X152963895Y-123235000D01*
X153000000Y-123238556D01*
X153036105Y-123235000D01*
X153144085Y-123224365D01*
X153282633Y-123182337D01*
X153410320Y-123114087D01*
X153522238Y-123022238D01*
X153614087Y-122910320D01*
X153682337Y-122782633D01*
X153724365Y-122644085D01*
X153738556Y-122500000D01*
X153735000Y-122463895D01*
X153735000Y-105536105D01*
X153738556Y-105500000D01*
X153724365Y-105355915D01*
X153682337Y-105217367D01*
X153614087Y-105089680D01*
X153522238Y-104977762D01*
X153410320Y-104885913D01*
X153282633Y-104817663D01*
X153144085Y-104775635D01*
X153036105Y-104765000D01*
X153000000Y-104761444D01*
X152963895Y-104765000D01*
X151706824Y-104765000D01*
X151933709Y-104671021D01*
X152325715Y-104409090D01*
X152659089Y-104075716D01*
X152921020Y-103683710D01*
X153101441Y-103248135D01*
X153193418Y-102785732D01*
X153193418Y-102314270D01*
X153101441Y-101851867D01*
X152921020Y-101416292D01*
X152659089Y-101024286D01*
X152325715Y-100690912D01*
X151933709Y-100428981D01*
X151498134Y-100248560D01*
X151035731Y-100156583D01*
X150564269Y-100156583D01*
X150101866Y-100248560D01*
X149666291Y-100428981D01*
X149274285Y-100690912D01*
X148940911Y-101024286D01*
X148678980Y-101416292D01*
X148498559Y-101851867D01*
X148406582Y-102314270D01*
X148406582Y-102785732D01*
X148498559Y-103248135D01*
X148678980Y-103683710D01*
X148940911Y-104075716D01*
X149274285Y-104409090D01*
X149666291Y-104671021D01*
X149893176Y-104765000D01*
X116106825Y-104765000D01*
X116333708Y-104671022D01*
X116725715Y-104409091D01*
X117059089Y-104075717D01*
X117321020Y-103683710D01*
X117501441Y-103248136D01*
X117593418Y-102785732D01*
X117593418Y-102314270D01*
X117501441Y-101851866D01*
X117321020Y-101416292D01*
X117059089Y-101024285D01*
X116725715Y-100690911D01*
X116333708Y-100428980D01*
X115898134Y-100248559D01*
X115435730Y-100156582D01*
X114964268Y-100156582D01*
X114501864Y-100248559D01*
X114066290Y-100428980D01*
X113674283Y-100690911D01*
X113340909Y-101024285D01*
X113078978Y-101416292D01*
X112898557Y-101851866D01*
X112806580Y-102314270D01*
X112806580Y-102785732D01*
X112898557Y-103248136D01*
X113078978Y-103683710D01*
X113340909Y-104075717D01*
X113674283Y-104409091D01*
X114066290Y-104671022D01*
X114293173Y-104765000D01*
X113036095Y-104765000D01*
X113000000Y-104761445D01*
X112963903Y-104765000D01*
X112963895Y-104765000D01*
X112855915Y-104775635D01*
X112717367Y-104817663D01*
X112589680Y-104885913D01*
X112477762Y-104977762D01*
X112385913Y-105089680D01*
X112317663Y-105217367D01*
X112275635Y-105355915D01*
X112261444Y-105500000D01*
X112265001Y-105536115D01*
X112264999Y-122463895D01*
X112261443Y-122500000D01*
X80390581Y-122500000D01*
X80907959Y-122087405D01*
X81574991Y-121323926D01*
X82094979Y-120453613D01*
X82451210Y-119504438D01*
X82632235Y-118506910D01*
X82632235Y-117769170D01*
X84156340Y-117769170D01*
X84156340Y-118230830D01*
X84246406Y-118683620D01*
X84423075Y-119110139D01*
X84679560Y-119493996D01*
X85006004Y-119820440D01*
X85389861Y-120076925D01*
X85816380Y-120253594D01*
X86269170Y-120343660D01*
X86730830Y-120343660D01*
X87183620Y-120253594D01*
X87610139Y-120076925D01*
X87993996Y-119820440D01*
X88320440Y-119493996D01*
X88576925Y-119110139D01*
X88753594Y-118683620D01*
X88843660Y-118230830D01*
X88843660Y-117769170D01*
X88753594Y-117316380D01*
X88576925Y-116889861D01*
X88320440Y-116506004D01*
X87993996Y-116179560D01*
X87610139Y-115923075D01*
X87183620Y-115746406D01*
X86730830Y-115656340D01*
X86269170Y-115656340D01*
X85816380Y-115746406D01*
X85389861Y-115923075D01*
X85006004Y-116179560D01*
X84679560Y-116506004D01*
X84423075Y-116889861D01*
X84246406Y-117316380D01*
X84156340Y-117769170D01*
X82632235Y-117769170D01*
X82632235Y-117493090D01*
X82451210Y-116495562D01*
X82094979Y-115546387D01*
X81574991Y-114676074D01*
X80907959Y-113912595D01*
X80115322Y-113280488D01*
X79222557Y-112800070D01*
X78258356Y-112486783D01*
X77253711Y-112350694D01*
X76240911Y-112396179D01*
X75252509Y-112621775D01*
X74320273Y-113020232D01*
X73474165Y-113578743D01*
X72741381Y-114279357D01*
X72145472Y-115099555D01*
X71705592Y-116012975D01*
X71435878Y-116990261D01*
X71345000Y-118000000D01*
X69843660Y-118000000D01*
X69843660Y-117769170D01*
X69753594Y-117316380D01*
X69576925Y-116889861D01*
X69320440Y-116506004D01*
X68993996Y-116179560D01*
X68610139Y-115923075D01*
X68183620Y-115746406D01*
X67730830Y-115656340D01*
X67269170Y-115656340D01*
X66816380Y-115746406D01*
X66389861Y-115923075D01*
X66006004Y-116179560D01*
X65679560Y-116506004D01*
X65423075Y-116889861D01*
X65246406Y-117316380D01*
X65156340Y-117769170D01*
X58735000Y-117769170D01*
X58735000Y-108269170D01*
X74656340Y-108269170D01*
X74656340Y-108730830D01*
X74746406Y-109183620D01*
X74923075Y-109610139D01*
X75179560Y-109993996D01*
X75506004Y-110320440D01*
X75889861Y-110576925D01*
X76316380Y-110753594D01*
X76769170Y-110843660D01*
X77230830Y-110843660D01*
X77683620Y-110753594D01*
X78110139Y-110576925D01*
X78493996Y-110320440D01*
X78820440Y-109993996D01*
X79076925Y-109610139D01*
X79253594Y-109183620D01*
X79343660Y-108730830D01*
X79343660Y-108269170D01*
X79253594Y-107816380D01*
X79076925Y-107389861D01*
X78820440Y-107006004D01*
X78493996Y-106679560D01*
X78110139Y-106423075D01*
X77683620Y-106246406D01*
X77230830Y-106156340D01*
X76769170Y-106156340D01*
X76316380Y-106246406D01*
X75889861Y-106423075D01*
X75506004Y-106679560D01*
X75179560Y-107006004D01*
X74923075Y-107389861D01*
X74746406Y-107816380D01*
X74656340Y-108269170D01*
X58735000Y-108269170D01*
X58735000Y-75442177D01*
X71268072Y-75442177D01*
X71268072Y-76557823D01*
X71451701Y-77658254D01*
X71813951Y-78713453D01*
X72344940Y-79694635D01*
X73030185Y-80575037D01*
X73850993Y-81330644D01*
X74784975Y-81940845D01*
X75806655Y-82388995D01*
X76888164Y-82662871D01*
X78000000Y-82755000D01*
X79111836Y-82662871D01*
X80193345Y-82388995D01*
X81215025Y-81940845D01*
X82149007Y-81330644D01*
X82969815Y-80575037D01*
X83655060Y-79694635D01*
X84186049Y-78713453D01*
X84548299Y-77658254D01*
X84731928Y-76557823D01*
X84731928Y-75442177D01*
X84548299Y-74341746D01*
X84259328Y-73500001D01*
X112261444Y-73500001D01*
X112265001Y-73536116D01*
X112265000Y-90463896D01*
X112261444Y-90500001D01*
X112275635Y-90644086D01*
X112317663Y-90782634D01*
X112385913Y-90910321D01*
X112477762Y-91022239D01*
X112589680Y-91114088D01*
X112717367Y-91182338D01*
X112855915Y-91224366D01*
X113000000Y-91238557D01*
X113036105Y-91235001D01*
X114293176Y-91235001D01*
X114066291Y-91328980D01*
X113674284Y-91590911D01*
X113340910Y-91924285D01*
X113078979Y-92316292D01*
X112898558Y-92751866D01*
X112806581Y-93214270D01*
X112806581Y-93685732D01*
X112898558Y-94148136D01*
X113078979Y-94583710D01*
X113340910Y-94975717D01*
X113674284Y-95309091D01*
X114066291Y-95571022D01*
X114501865Y-95751443D01*
X114964269Y-95843420D01*
X115435731Y-95843420D01*
X115898135Y-95751443D01*
X116333709Y-95571022D01*
X116725716Y-95309091D01*
X117059090Y-94975717D01*
X117321021Y-94583710D01*
X117501442Y-94148136D01*
X117593419Y-93685732D01*
X117593419Y-93214270D01*
X117501442Y-92751866D01*
X117321021Y-92316292D01*
X117059090Y-91924285D01*
X116725716Y-91590911D01*
X116333709Y-91328980D01*
X116106824Y-91235001D01*
X149893176Y-91235001D01*
X149666291Y-91328980D01*
X149274284Y-91590911D01*
X148940910Y-91924285D01*
X148678979Y-92316292D01*
X148498558Y-92751866D01*
X148406581Y-93214270D01*
X148406581Y-93685732D01*
X148498558Y-94148136D01*
X148678979Y-94583710D01*
X148940910Y-94975717D01*
X149274284Y-95309091D01*
X149666291Y-95571022D01*
X150101865Y-95751443D01*
X150564269Y-95843420D01*
X151035731Y-95843420D01*
X151498135Y-95751443D01*
X151933709Y-95571022D01*
X152325716Y-95309091D01*
X152659090Y-94975717D01*
X152921021Y-94583710D01*
X153101442Y-94148136D01*
X153193419Y-93685732D01*
X153193419Y-93214270D01*
X153101442Y-92751866D01*
X152921021Y-92316292D01*
X152659090Y-91924285D01*
X152325716Y-91590911D01*
X151933709Y-91328980D01*
X151706824Y-91235001D01*
X152963895Y-91235001D01*
X153000000Y-91238557D01*
X153036105Y-91235001D01*
X153144085Y-91224366D01*
X153282633Y-91182338D01*
X153410320Y-91114088D01*
X153522238Y-91022239D01*
X153614087Y-90910321D01*
X153682337Y-90782634D01*
X153724365Y-90644086D01*
X153738556Y-90500001D01*
X153735000Y-90463896D01*
X153735000Y-73536106D01*
X153738556Y-73500001D01*
X153724365Y-73355916D01*
X153682337Y-73217368D01*
X153614087Y-73089681D01*
X153522238Y-72977763D01*
X153410320Y-72885914D01*
X153282633Y-72817664D01*
X153144085Y-72775636D01*
X153036105Y-72765001D01*
X153000000Y-72761445D01*
X152963895Y-72765001D01*
X151706824Y-72765001D01*
X151933709Y-72671022D01*
X152325716Y-72409091D01*
X152659090Y-72075717D01*
X152921021Y-71683710D01*
X153101442Y-71248136D01*
X153193419Y-70785732D01*
X153193419Y-70314270D01*
X153101442Y-69851866D01*
X152921021Y-69416292D01*
X152659090Y-69024285D01*
X152325716Y-68690911D01*
X151933709Y-68428980D01*
X151498135Y-68248559D01*
X151035731Y-68156582D01*
X150564269Y-68156582D01*
X150101865Y-68248559D01*
X149666291Y-68428980D01*
X149274284Y-68690911D01*
X148940910Y-69024285D01*
X148678979Y-69416292D01*
X148498558Y-69851866D01*
X148406581Y-70314270D01*
X148406581Y-70785732D01*
X148498558Y-71248136D01*
X148678979Y-71683710D01*
X148940910Y-72075717D01*
X149274284Y-72409091D01*
X149666291Y-72671022D01*
X149893176Y-72765001D01*
X116106824Y-72765001D01*
X116333709Y-72671022D01*
X116725716Y-72409091D01*
X117059090Y-72075717D01*
X117321021Y-71683710D01*
X117501442Y-71248136D01*
X117593419Y-70785732D01*
X117593419Y-70314270D01*
X117501442Y-69851866D01*
X117321021Y-69416292D01*
X117059090Y-69024285D01*
X116725716Y-68690911D01*
X116333709Y-68428980D01*
X115898135Y-68248559D01*
X115435731Y-68156582D01*
X114964269Y-68156582D01*
X114501865Y-68248559D01*
X114066291Y-68428980D01*
X113674284Y-68690911D01*
X113340910Y-69024285D01*
X113078979Y-69416292D01*
X112898558Y-69851866D01*
X112806581Y-70314270D01*
X112806581Y-70785732D01*
X112898558Y-71248136D01*
X113078979Y-71683710D01*
X113340910Y-72075717D01*
X113674284Y-72409091D01*
X114066291Y-72671022D01*
X114293176Y-72765001D01*
X113036105Y-72765001D01*
X113000000Y-72761445D01*
X112963895Y-72765001D01*
X112855915Y-72775636D01*
X112717367Y-72817664D01*
X112589680Y-72885914D01*
X112477762Y-72977763D01*
X112385913Y-73089681D01*
X112317663Y-73217368D01*
X112275635Y-73355916D01*
X112261444Y-73500001D01*
X84259328Y-73500001D01*
X84186049Y-73286547D01*
X83655060Y-72305365D01*
X82969815Y-71424963D01*
X82149007Y-70669356D01*
X81215025Y-70059155D01*
X80193345Y-69611005D01*
X79111836Y-69337129D01*
X78000000Y-69245000D01*
X76888164Y-69337129D01*
X75806655Y-69611005D01*
X74784975Y-70059155D01*
X73850993Y-70669356D01*
X73030185Y-71424963D01*
X72344940Y-72305365D01*
X71813951Y-73286547D01*
X71451701Y-74341746D01*
X71268072Y-75442177D01*
X58735000Y-75442177D01*
X58735000Y-57764270D01*
X59606582Y-57764270D01*
X59606582Y-58235732D01*
X59698559Y-58698136D01*
X59878980Y-59133710D01*
X60140911Y-59525717D01*
X60474285Y-59859091D01*
X60866292Y-60121022D01*
X61301866Y-60301443D01*
X61764270Y-60393420D01*
X62235732Y-60393420D01*
X62698136Y-60301443D01*
X63133710Y-60121022D01*
X63525717Y-59859091D01*
X63859091Y-59525717D01*
X64121022Y-59133710D01*
X64301443Y-58698136D01*
X64393420Y-58235732D01*
X64393420Y-57764269D01*
X151606581Y-57764269D01*
X151606581Y-58235731D01*
X151698558Y-58698135D01*
X151878979Y-59133709D01*
X152140910Y-59525716D01*
X152474284Y-59859090D01*
X152866291Y-60121021D01*
X153301865Y-60301442D01*
X153764269Y-60393419D01*
X154235731Y-60393419D01*
X154698135Y-60301442D01*
X155133709Y-60121021D01*
X155525716Y-59859090D01*
X155859090Y-59525716D01*
X156121021Y-59133709D01*
X156301442Y-58698135D01*
X156393419Y-58235731D01*
X156393419Y-57764269D01*
X156301442Y-57301865D01*
X156121021Y-56866291D01*
X155859090Y-56474284D01*
X155525716Y-56140910D01*
X155133709Y-55878979D01*
X154698135Y-55698558D01*
X154235731Y-55606581D01*
X153764269Y-55606581D01*
X153301865Y-55698558D01*
X152866291Y-55878979D01*
X152474284Y-56140910D01*
X152140910Y-56474284D01*
X151878979Y-56866291D01*
X151698558Y-57301865D01*
X151606581Y-57764269D01*
X64393420Y-57764269D01*
X64301443Y-57301866D01*
X64121022Y-56866292D01*
X63859091Y-56474285D01*
X63525717Y-56140911D01*
X63133710Y-55878980D01*
X62698136Y-55698559D01*
X62235732Y-55606582D01*
X61764270Y-55606582D01*
X61301866Y-55698559D01*
X60866292Y-55878980D01*
X60474285Y-56140911D01*
X60140911Y-56474285D01*
X59878980Y-56866292D01*
X59698559Y-57301866D01*
X59606582Y-57764270D01*
X58735000Y-57764270D01*
X58735000Y-54735001D01*
X157265000Y-54734999D01*
X157265001Y-153265000D01*
G37*
X157265001Y-153265000D02*
X58735000Y-153265000D01*
X58735000Y-149764269D01*
X59606581Y-149764269D01*
X59606581Y-150235731D01*
X59698558Y-150698135D01*
X59878979Y-151133709D01*
X60140910Y-151525716D01*
X60474284Y-151859090D01*
X60866291Y-152121021D01*
X61301865Y-152301442D01*
X61764269Y-152393419D01*
X62235731Y-152393419D01*
X62698135Y-152301442D01*
X63133709Y-152121021D01*
X63525716Y-151859090D01*
X63859090Y-151525716D01*
X64121021Y-151133709D01*
X64301442Y-150698135D01*
X64393419Y-150235731D01*
X64393419Y-149764269D01*
X151606581Y-149764269D01*
X151606581Y-150235731D01*
X151698558Y-150698135D01*
X151878979Y-151133709D01*
X152140910Y-151525716D01*
X152474284Y-151859090D01*
X152866291Y-152121021D01*
X153301865Y-152301442D01*
X153764269Y-152393419D01*
X154235731Y-152393419D01*
X154698135Y-152301442D01*
X155133709Y-152121021D01*
X155525716Y-151859090D01*
X155859090Y-151525716D01*
X156121021Y-151133709D01*
X156301442Y-150698135D01*
X156393419Y-150235731D01*
X156393419Y-149764269D01*
X156301442Y-149301865D01*
X156121021Y-148866291D01*
X155859090Y-148474284D01*
X155525716Y-148140910D01*
X155133709Y-147878979D01*
X154698135Y-147698558D01*
X154235731Y-147606581D01*
X153764269Y-147606581D01*
X153301865Y-147698558D01*
X152866291Y-147878979D01*
X152474284Y-148140910D01*
X152140910Y-148474284D01*
X151878979Y-148866291D01*
X151698558Y-149301865D01*
X151606581Y-149764269D01*
X64393419Y-149764269D01*
X64301442Y-149301865D01*
X64121021Y-148866291D01*
X63859090Y-148474284D01*
X63525716Y-148140910D01*
X63133709Y-147878979D01*
X62698135Y-147698558D01*
X62235731Y-147606581D01*
X61764269Y-147606581D01*
X61301865Y-147698558D01*
X60866291Y-147878979D01*
X60474284Y-148140910D01*
X60140910Y-148474284D01*
X59878979Y-148866291D01*
X59698558Y-149301865D01*
X59606581Y-149764269D01*
X58735000Y-149764269D01*
X58735000Y-140517697D01*
X91103094Y-140517697D01*
X91103094Y-141482303D01*
X91291279Y-142428375D01*
X91660418Y-143319555D01*
X92196325Y-144121596D01*
X92878404Y-144803675D01*
X93680445Y-145339582D01*
X94571625Y-145708721D01*
X95517697Y-145896906D01*
X96482303Y-145896906D01*
X97428375Y-145708721D01*
X98319555Y-145339582D01*
X99121596Y-144803675D01*
X99803675Y-144121596D01*
X100339582Y-143319555D01*
X100708721Y-142428375D01*
X100896906Y-141482303D01*
X100896906Y-140517697D01*
X100708721Y-139571625D01*
X100339582Y-138680445D01*
X99803675Y-137878404D01*
X99121596Y-137196325D01*
X98319555Y-136660418D01*
X97428375Y-136291279D01*
X96482303Y-136103094D01*
X95517697Y-136103094D01*
X94571625Y-136291279D01*
X93680445Y-136660418D01*
X92878404Y-137196325D01*
X92196325Y-137878404D01*
X91660418Y-138680445D01*
X91291279Y-139571625D01*
X91103094Y-140517697D01*
X58735000Y-140517697D01*
X58735000Y-127269170D01*
X74656340Y-127269170D01*
X74656340Y-127730830D01*
X74746406Y-128183620D01*
X74923075Y-128610139D01*
X75179560Y-128993996D01*
X75506004Y-129320440D01*
X75889861Y-129576925D01*
X76316380Y-129753594D01*
X76769170Y-129843660D01*
X77230830Y-129843660D01*
X77683620Y-129753594D01*
X78110139Y-129576925D01*
X78493996Y-129320440D01*
X78820440Y-128993996D01*
X79076925Y-128610139D01*
X79253594Y-128183620D01*
X79343660Y-127730830D01*
X79343660Y-127269170D01*
X79253594Y-126816380D01*
X79076925Y-126389861D01*
X78820440Y-126006004D01*
X78493996Y-125679560D01*
X78110139Y-125423075D01*
X77683620Y-125246406D01*
X77230830Y-125156340D01*
X76769170Y-125156340D01*
X76316380Y-125246406D01*
X75889861Y-125423075D01*
X75506004Y-125679560D01*
X75179560Y-126006004D01*
X74923075Y-126389861D01*
X74746406Y-126816380D01*
X74656340Y-127269170D01*
X58735000Y-127269170D01*
X58735000Y-117769170D01*
X65156340Y-117769170D01*
X65156340Y-118230830D01*
X65246406Y-118683620D01*
X65423075Y-119110139D01*
X65679560Y-119493996D01*
X66006004Y-119820440D01*
X66389861Y-120076925D01*
X66816380Y-120253594D01*
X67269170Y-120343660D01*
X67730830Y-120343660D01*
X68183620Y-120253594D01*
X68610139Y-120076925D01*
X68993996Y-119820440D01*
X69320440Y-119493996D01*
X69576925Y-119110139D01*
X69753594Y-118683620D01*
X69843660Y-118230830D01*
X69843660Y-118000000D01*
X71345000Y-118000000D01*
X71435878Y-119009739D01*
X71705592Y-119987025D01*
X72145472Y-120900445D01*
X72741381Y-121720643D01*
X73474165Y-122421257D01*
X74320273Y-122979768D01*
X75252509Y-123378225D01*
X76240911Y-123603821D01*
X77253711Y-123649306D01*
X78258356Y-123513217D01*
X79222557Y-123199930D01*
X80115322Y-122719512D01*
X80390581Y-122500000D01*
X112261443Y-122500000D01*
X112275634Y-122644085D01*
X112317662Y-122782633D01*
X112385912Y-122910320D01*
X112477761Y-123022238D01*
X112589679Y-123114087D01*
X112717366Y-123182337D01*
X112855914Y-123224365D01*
X112963894Y-123235000D01*
X112963904Y-123235000D01*
X112999999Y-123238555D01*
X113036096Y-123235000D01*
X114293176Y-123235000D01*
X114066291Y-123328979D01*
X113674284Y-123590910D01*
X113340910Y-123924284D01*
X113078979Y-124316291D01*
X112898558Y-124751865D01*
X112806581Y-125214269D01*
X112806581Y-125685731D01*
X112898558Y-126148135D01*
X113078979Y-126583709D01*
X113340910Y-126975716D01*
X113674284Y-127309090D01*
X114066291Y-127571021D01*
X114501865Y-127751442D01*
X114964269Y-127843419D01*
X115435731Y-127843419D01*
X115898135Y-127751442D01*
X116333709Y-127571021D01*
X116725716Y-127309090D01*
X117059090Y-126975716D01*
X117321021Y-126583709D01*
X117501442Y-126148135D01*
X117593419Y-125685731D01*
X117593419Y-125214269D01*
X117501442Y-124751865D01*
X117321021Y-124316291D01*
X117059090Y-123924284D01*
X116725716Y-123590910D01*
X116333709Y-123328979D01*
X116106824Y-123235000D01*
X149893179Y-123235000D01*
X149666291Y-123328980D01*
X149274285Y-123590911D01*
X148940911Y-123924285D01*
X148678980Y-124316291D01*
X148498559Y-124751866D01*
X148406582Y-125214269D01*
X148406582Y-125685731D01*
X148498559Y-126148134D01*
X148678980Y-126583709D01*
X148940911Y-126975715D01*
X149274285Y-127309089D01*
X149666291Y-127571020D01*
X150101866Y-127751441D01*
X150564269Y-127843418D01*
X151035731Y-127843418D01*
X151498134Y-127751441D01*
X151933709Y-127571020D01*
X152325715Y-127309089D01*
X152659089Y-126975715D01*
X152921020Y-126583709D01*
X153101441Y-126148134D01*
X153193418Y-125685731D01*
X153193418Y-125214269D01*
X153101441Y-124751866D01*
X152921020Y-124316291D01*
X152659089Y-123924285D01*
X152325715Y-123590911D01*
X151933709Y-123328980D01*
X151706821Y-123235000D01*
X152963895Y-123235000D01*
X153000000Y-123238556D01*
X153036105Y-123235000D01*
X153144085Y-123224365D01*
X153282633Y-123182337D01*
X153410320Y-123114087D01*
X153522238Y-123022238D01*
X153614087Y-122910320D01*
X153682337Y-122782633D01*
X153724365Y-122644085D01*
X153738556Y-122500000D01*
X153735000Y-122463895D01*
X153735000Y-105536105D01*
X153738556Y-105500000D01*
X153724365Y-105355915D01*
X153682337Y-105217367D01*
X153614087Y-105089680D01*
X153522238Y-104977762D01*
X153410320Y-104885913D01*
X153282633Y-104817663D01*
X153144085Y-104775635D01*
X153036105Y-104765000D01*
X153000000Y-104761444D01*
X152963895Y-104765000D01*
X151706824Y-104765000D01*
X151933709Y-104671021D01*
X152325715Y-104409090D01*
X152659089Y-104075716D01*
X152921020Y-103683710D01*
X153101441Y-103248135D01*
X153193418Y-102785732D01*
X153193418Y-102314270D01*
X153101441Y-101851867D01*
X152921020Y-101416292D01*
X152659089Y-101024286D01*
X152325715Y-100690912D01*
X151933709Y-100428981D01*
X151498134Y-100248560D01*
X151035731Y-100156583D01*
X150564269Y-100156583D01*
X150101866Y-100248560D01*
X149666291Y-100428981D01*
X149274285Y-100690912D01*
X148940911Y-101024286D01*
X148678980Y-101416292D01*
X148498559Y-101851867D01*
X148406582Y-102314270D01*
X148406582Y-102785732D01*
X148498559Y-103248135D01*
X148678980Y-103683710D01*
X148940911Y-104075716D01*
X149274285Y-104409090D01*
X149666291Y-104671021D01*
X149893176Y-104765000D01*
X116106825Y-104765000D01*
X116333708Y-104671022D01*
X116725715Y-104409091D01*
X117059089Y-104075717D01*
X117321020Y-103683710D01*
X117501441Y-103248136D01*
X117593418Y-102785732D01*
X117593418Y-102314270D01*
X117501441Y-101851866D01*
X117321020Y-101416292D01*
X117059089Y-101024285D01*
X116725715Y-100690911D01*
X116333708Y-100428980D01*
X115898134Y-100248559D01*
X115435730Y-100156582D01*
X114964268Y-100156582D01*
X114501864Y-100248559D01*
X114066290Y-100428980D01*
X113674283Y-100690911D01*
X113340909Y-101024285D01*
X113078978Y-101416292D01*
X112898557Y-101851866D01*
X112806580Y-102314270D01*
X112806580Y-102785732D01*
X112898557Y-103248136D01*
X113078978Y-103683710D01*
X113340909Y-104075717D01*
X113674283Y-104409091D01*
X114066290Y-104671022D01*
X114293173Y-104765000D01*
X113036095Y-104765000D01*
X113000000Y-104761445D01*
X112963903Y-104765000D01*
X112963895Y-104765000D01*
X112855915Y-104775635D01*
X112717367Y-104817663D01*
X112589680Y-104885913D01*
X112477762Y-104977762D01*
X112385913Y-105089680D01*
X112317663Y-105217367D01*
X112275635Y-105355915D01*
X112261444Y-105500000D01*
X112265001Y-105536115D01*
X112264999Y-122463895D01*
X112261443Y-122500000D01*
X80390581Y-122500000D01*
X80907959Y-122087405D01*
X81574991Y-121323926D01*
X82094979Y-120453613D01*
X82451210Y-119504438D01*
X82632235Y-118506910D01*
X82632235Y-117769170D01*
X84156340Y-117769170D01*
X84156340Y-118230830D01*
X84246406Y-118683620D01*
X84423075Y-119110139D01*
X84679560Y-119493996D01*
X85006004Y-119820440D01*
X85389861Y-120076925D01*
X85816380Y-120253594D01*
X86269170Y-120343660D01*
X86730830Y-120343660D01*
X87183620Y-120253594D01*
X87610139Y-120076925D01*
X87993996Y-119820440D01*
X88320440Y-119493996D01*
X88576925Y-119110139D01*
X88753594Y-118683620D01*
X88843660Y-118230830D01*
X88843660Y-117769170D01*
X88753594Y-117316380D01*
X88576925Y-116889861D01*
X88320440Y-116506004D01*
X87993996Y-116179560D01*
X87610139Y-115923075D01*
X87183620Y-115746406D01*
X86730830Y-115656340D01*
X86269170Y-115656340D01*
X85816380Y-115746406D01*
X85389861Y-115923075D01*
X85006004Y-116179560D01*
X84679560Y-116506004D01*
X84423075Y-116889861D01*
X84246406Y-117316380D01*
X84156340Y-117769170D01*
X82632235Y-117769170D01*
X82632235Y-117493090D01*
X82451210Y-116495562D01*
X82094979Y-115546387D01*
X81574991Y-114676074D01*
X80907959Y-113912595D01*
X80115322Y-113280488D01*
X79222557Y-112800070D01*
X78258356Y-112486783D01*
X77253711Y-112350694D01*
X76240911Y-112396179D01*
X75252509Y-112621775D01*
X74320273Y-113020232D01*
X73474165Y-113578743D01*
X72741381Y-114279357D01*
X72145472Y-115099555D01*
X71705592Y-116012975D01*
X71435878Y-116990261D01*
X71345000Y-118000000D01*
X69843660Y-118000000D01*
X69843660Y-117769170D01*
X69753594Y-117316380D01*
X69576925Y-116889861D01*
X69320440Y-116506004D01*
X68993996Y-116179560D01*
X68610139Y-115923075D01*
X68183620Y-115746406D01*
X67730830Y-115656340D01*
X67269170Y-115656340D01*
X66816380Y-115746406D01*
X66389861Y-115923075D01*
X66006004Y-116179560D01*
X65679560Y-116506004D01*
X65423075Y-116889861D01*
X65246406Y-117316380D01*
X65156340Y-117769170D01*
X58735000Y-117769170D01*
X58735000Y-108269170D01*
X74656340Y-108269170D01*
X74656340Y-108730830D01*
X74746406Y-109183620D01*
X74923075Y-109610139D01*
X75179560Y-109993996D01*
X75506004Y-110320440D01*
X75889861Y-110576925D01*
X76316380Y-110753594D01*
X76769170Y-110843660D01*
X77230830Y-110843660D01*
X77683620Y-110753594D01*
X78110139Y-110576925D01*
X78493996Y-110320440D01*
X78820440Y-109993996D01*
X79076925Y-109610139D01*
X79253594Y-109183620D01*
X79343660Y-108730830D01*
X79343660Y-108269170D01*
X79253594Y-107816380D01*
X79076925Y-107389861D01*
X78820440Y-107006004D01*
X78493996Y-106679560D01*
X78110139Y-106423075D01*
X77683620Y-106246406D01*
X77230830Y-106156340D01*
X76769170Y-106156340D01*
X76316380Y-106246406D01*
X75889861Y-106423075D01*
X75506004Y-106679560D01*
X75179560Y-107006004D01*
X74923075Y-107389861D01*
X74746406Y-107816380D01*
X74656340Y-108269170D01*
X58735000Y-108269170D01*
X58735000Y-75442177D01*
X71268072Y-75442177D01*
X71268072Y-76557823D01*
X71451701Y-77658254D01*
X71813951Y-78713453D01*
X72344940Y-79694635D01*
X73030185Y-80575037D01*
X73850993Y-81330644D01*
X74784975Y-81940845D01*
X75806655Y-82388995D01*
X76888164Y-82662871D01*
X78000000Y-82755000D01*
X79111836Y-82662871D01*
X80193345Y-82388995D01*
X81215025Y-81940845D01*
X82149007Y-81330644D01*
X82969815Y-80575037D01*
X83655060Y-79694635D01*
X84186049Y-78713453D01*
X84548299Y-77658254D01*
X84731928Y-76557823D01*
X84731928Y-75442177D01*
X84548299Y-74341746D01*
X84259328Y-73500001D01*
X112261444Y-73500001D01*
X112265001Y-73536116D01*
X112265000Y-90463896D01*
X112261444Y-90500001D01*
X112275635Y-90644086D01*
X112317663Y-90782634D01*
X112385913Y-90910321D01*
X112477762Y-91022239D01*
X112589680Y-91114088D01*
X112717367Y-91182338D01*
X112855915Y-91224366D01*
X113000000Y-91238557D01*
X113036105Y-91235001D01*
X114293176Y-91235001D01*
X114066291Y-91328980D01*
X113674284Y-91590911D01*
X113340910Y-91924285D01*
X113078979Y-92316292D01*
X112898558Y-92751866D01*
X112806581Y-93214270D01*
X112806581Y-93685732D01*
X112898558Y-94148136D01*
X113078979Y-94583710D01*
X113340910Y-94975717D01*
X113674284Y-95309091D01*
X114066291Y-95571022D01*
X114501865Y-95751443D01*
X114964269Y-95843420D01*
X115435731Y-95843420D01*
X115898135Y-95751443D01*
X116333709Y-95571022D01*
X116725716Y-95309091D01*
X117059090Y-94975717D01*
X117321021Y-94583710D01*
X117501442Y-94148136D01*
X117593419Y-93685732D01*
X117593419Y-93214270D01*
X117501442Y-92751866D01*
X117321021Y-92316292D01*
X117059090Y-91924285D01*
X116725716Y-91590911D01*
X116333709Y-91328980D01*
X116106824Y-91235001D01*
X149893176Y-91235001D01*
X149666291Y-91328980D01*
X149274284Y-91590911D01*
X148940910Y-91924285D01*
X148678979Y-92316292D01*
X148498558Y-92751866D01*
X148406581Y-93214270D01*
X148406581Y-93685732D01*
X148498558Y-94148136D01*
X148678979Y-94583710D01*
X148940910Y-94975717D01*
X149274284Y-95309091D01*
X149666291Y-95571022D01*
X150101865Y-95751443D01*
X150564269Y-95843420D01*
X151035731Y-95843420D01*
X151498135Y-95751443D01*
X151933709Y-95571022D01*
X152325716Y-95309091D01*
X152659090Y-94975717D01*
X152921021Y-94583710D01*
X153101442Y-94148136D01*
X153193419Y-93685732D01*
X153193419Y-93214270D01*
X153101442Y-92751866D01*
X152921021Y-92316292D01*
X152659090Y-91924285D01*
X152325716Y-91590911D01*
X151933709Y-91328980D01*
X151706824Y-91235001D01*
X152963895Y-91235001D01*
X153000000Y-91238557D01*
X153036105Y-91235001D01*
X153144085Y-91224366D01*
X153282633Y-91182338D01*
X153410320Y-91114088D01*
X153522238Y-91022239D01*
X153614087Y-90910321D01*
X153682337Y-90782634D01*
X153724365Y-90644086D01*
X153738556Y-90500001D01*
X153735000Y-90463896D01*
X153735000Y-73536106D01*
X153738556Y-73500001D01*
X153724365Y-73355916D01*
X153682337Y-73217368D01*
X153614087Y-73089681D01*
X153522238Y-72977763D01*
X153410320Y-72885914D01*
X153282633Y-72817664D01*
X153144085Y-72775636D01*
X153036105Y-72765001D01*
X153000000Y-72761445D01*
X152963895Y-72765001D01*
X151706824Y-72765001D01*
X151933709Y-72671022D01*
X152325716Y-72409091D01*
X152659090Y-72075717D01*
X152921021Y-71683710D01*
X153101442Y-71248136D01*
X153193419Y-70785732D01*
X153193419Y-70314270D01*
X153101442Y-69851866D01*
X152921021Y-69416292D01*
X152659090Y-69024285D01*
X152325716Y-68690911D01*
X151933709Y-68428980D01*
X151498135Y-68248559D01*
X151035731Y-68156582D01*
X150564269Y-68156582D01*
X150101865Y-68248559D01*
X149666291Y-68428980D01*
X149274284Y-68690911D01*
X148940910Y-69024285D01*
X148678979Y-69416292D01*
X148498558Y-69851866D01*
X148406581Y-70314270D01*
X148406581Y-70785732D01*
X148498558Y-71248136D01*
X148678979Y-71683710D01*
X148940910Y-72075717D01*
X149274284Y-72409091D01*
X149666291Y-72671022D01*
X149893176Y-72765001D01*
X116106824Y-72765001D01*
X116333709Y-72671022D01*
X116725716Y-72409091D01*
X117059090Y-72075717D01*
X117321021Y-71683710D01*
X117501442Y-71248136D01*
X117593419Y-70785732D01*
X117593419Y-70314270D01*
X117501442Y-69851866D01*
X117321021Y-69416292D01*
X117059090Y-69024285D01*
X116725716Y-68690911D01*
X116333709Y-68428980D01*
X115898135Y-68248559D01*
X115435731Y-68156582D01*
X114964269Y-68156582D01*
X114501865Y-68248559D01*
X114066291Y-68428980D01*
X113674284Y-68690911D01*
X113340910Y-69024285D01*
X113078979Y-69416292D01*
X112898558Y-69851866D01*
X112806581Y-70314270D01*
X112806581Y-70785732D01*
X112898558Y-71248136D01*
X113078979Y-71683710D01*
X113340910Y-72075717D01*
X113674284Y-72409091D01*
X114066291Y-72671022D01*
X114293176Y-72765001D01*
X113036105Y-72765001D01*
X113000000Y-72761445D01*
X112963895Y-72765001D01*
X112855915Y-72775636D01*
X112717367Y-72817664D01*
X112589680Y-72885914D01*
X112477762Y-72977763D01*
X112385913Y-73089681D01*
X112317663Y-73217368D01*
X112275635Y-73355916D01*
X112261444Y-73500001D01*
X84259328Y-73500001D01*
X84186049Y-73286547D01*
X83655060Y-72305365D01*
X82969815Y-71424963D01*
X82149007Y-70669356D01*
X81215025Y-70059155D01*
X80193345Y-69611005D01*
X79111836Y-69337129D01*
X78000000Y-69245000D01*
X76888164Y-69337129D01*
X75806655Y-69611005D01*
X74784975Y-70059155D01*
X73850993Y-70669356D01*
X73030185Y-71424963D01*
X72344940Y-72305365D01*
X71813951Y-73286547D01*
X71451701Y-74341746D01*
X71268072Y-75442177D01*
X58735000Y-75442177D01*
X58735000Y-57764270D01*
X59606582Y-57764270D01*
X59606582Y-58235732D01*
X59698559Y-58698136D01*
X59878980Y-59133710D01*
X60140911Y-59525717D01*
X60474285Y-59859091D01*
X60866292Y-60121022D01*
X61301866Y-60301443D01*
X61764270Y-60393420D01*
X62235732Y-60393420D01*
X62698136Y-60301443D01*
X63133710Y-60121022D01*
X63525717Y-59859091D01*
X63859091Y-59525717D01*
X64121022Y-59133710D01*
X64301443Y-58698136D01*
X64393420Y-58235732D01*
X64393420Y-57764269D01*
X151606581Y-57764269D01*
X151606581Y-58235731D01*
X151698558Y-58698135D01*
X151878979Y-59133709D01*
X152140910Y-59525716D01*
X152474284Y-59859090D01*
X152866291Y-60121021D01*
X153301865Y-60301442D01*
X153764269Y-60393419D01*
X154235731Y-60393419D01*
X154698135Y-60301442D01*
X155133709Y-60121021D01*
X155525716Y-59859090D01*
X155859090Y-59525716D01*
X156121021Y-59133709D01*
X156301442Y-58698135D01*
X156393419Y-58235731D01*
X156393419Y-57764269D01*
X156301442Y-57301865D01*
X156121021Y-56866291D01*
X155859090Y-56474284D01*
X155525716Y-56140910D01*
X155133709Y-55878979D01*
X154698135Y-55698558D01*
X154235731Y-55606581D01*
X153764269Y-55606581D01*
X153301865Y-55698558D01*
X152866291Y-55878979D01*
X152474284Y-56140910D01*
X152140910Y-56474284D01*
X151878979Y-56866291D01*
X151698558Y-57301865D01*
X151606581Y-57764269D01*
X64393420Y-57764269D01*
X64301443Y-57301866D01*
X64121022Y-56866292D01*
X63859091Y-56474285D01*
X63525717Y-56140911D01*
X63133710Y-55878980D01*
X62698136Y-55698559D01*
X62235732Y-55606582D01*
X61764270Y-55606582D01*
X61301866Y-55698559D01*
X60866292Y-55878980D01*
X60474285Y-56140911D01*
X60140911Y-56474285D01*
X59878980Y-56866292D01*
X59698559Y-57301866D01*
X59606582Y-57764270D01*
X58735000Y-57764270D01*
X58735000Y-54735001D01*
X157265000Y-54734999D01*
X157265001Y-153265000D01*
M02*
