%TF.GenerationSoftware,KiCad,Pcbnew,5.1.6-c6e7f7d~87~ubuntu18.04.1*%
%TF.CreationDate,2020-10-12T23:52:10-07:00*%
%TF.ProjectId,faceplate,66616365-706c-4617-9465-2e6b69636164,rev?*%
%TF.SameCoordinates,Original*%
%TF.FileFunction,Profile,NP*%
%FSLAX46Y46*%
G04 Gerber Fmt 4.6, Leading zero omitted, Abs format (unit mm)*
G04 Created by KiCad (PCBNEW 5.1.6-c6e7f7d~87~ubuntu18.04.1) date 2020-10-12 23:52:10*
%MOMM*%
%LPD*%
G01*
G04 APERTURE LIST*
%TA.AperFunction,Profile*%
%ADD10C,0.200000*%
%TD*%
G04 APERTURE END LIST*
D10*
X155650000Y-58000000D02*
G75*
G03*
X155650000Y-58000000I-1650000J0D01*
G01*
X152450000Y-93450001D02*
G75*
G03*
X152450000Y-93450001I-1650000J0D01*
G01*
X81900000Y-118000000D02*
G75*
G03*
X81900000Y-118000000I-4900000J0D01*
G01*
X116850000Y-93450001D02*
G75*
G03*
X116850000Y-93450001I-1650000J0D01*
G01*
X113000000Y-90500001D02*
X113000000Y-73500001D01*
X100165600Y-141000000D02*
G75*
G03*
X100165600Y-141000000I-4165600J0D01*
G01*
X78600000Y-127500000D02*
G75*
G03*
X78600000Y-127500000I-1600000J0D01*
G01*
X158000000Y-54000000D02*
X158000000Y-154000000D01*
X116850000Y-70550001D02*
G75*
G03*
X116850000Y-70550001I-1650000J0D01*
G01*
X116849999Y-102550001D02*
G75*
G03*
X116849999Y-102550001I-1650000J0D01*
G01*
X63650000Y-150000000D02*
G75*
G03*
X63650000Y-150000000I-1650000J0D01*
G01*
X153000000Y-105500000D02*
X153000000Y-122500000D01*
X88100000Y-118000000D02*
G75*
G03*
X88100000Y-118000000I-1600000J0D01*
G01*
X113000000Y-73500001D02*
X153000000Y-73500001D01*
X112999999Y-122500000D02*
X113000000Y-105500000D01*
X152450000Y-70550001D02*
G75*
G03*
X152450000Y-70550001I-1650000J0D01*
G01*
X63650001Y-58000001D02*
G75*
G03*
X63650001Y-58000001I-1650000J0D01*
G01*
X78600000Y-108500000D02*
G75*
G03*
X78600000Y-108500000I-1600000J0D01*
G01*
X58000000Y-154000000D02*
X58000000Y-54000001D01*
X58000000Y-54000001D02*
X158000000Y-54000000D01*
X84000000Y-76000000D02*
G75*
G03*
X84000000Y-76000000I-6000000J0D01*
G01*
X69100000Y-118000000D02*
G75*
G03*
X69100000Y-118000000I-1600000J0D01*
G01*
X116850000Y-125450000D02*
G75*
G03*
X116850000Y-125450000I-1650000J0D01*
G01*
X158000000Y-154000000D02*
X58000000Y-154000000D01*
X113000000Y-105500000D02*
X153000000Y-105500000D01*
X155650000Y-150000000D02*
G75*
G03*
X155650000Y-150000000I-1650000J0D01*
G01*
X153000000Y-73500001D02*
X153000000Y-90500001D01*
X153000000Y-122500000D02*
X112999999Y-122500000D01*
X153000000Y-90500001D02*
X113000000Y-90500001D01*
X152449999Y-102550001D02*
G75*
G03*
X152449999Y-102550001I-1649999J0D01*
G01*
X152449999Y-125450000D02*
G75*
G03*
X152449999Y-125450000I-1649999J0D01*
G01*
M02*
