G04 #@! TF.GenerationSoftware,KiCad,Pcbnew,5.0.2-bee76a0~70~ubuntu18.04.1*
G04 #@! TF.CreationDate,2020-06-16T15:13:01-07:00*
G04 #@! TF.ProjectId,secondary_topload_mount,7365636f-6e64-4617-9279-5f746f706c6f,rev?*
G04 #@! TF.SameCoordinates,Original*
G04 #@! TF.FileFunction,Soldermask,Top*
G04 #@! TF.FilePolarity,Negative*
%FSLAX46Y46*%
G04 Gerber Fmt 4.6, Leading zero omitted, Abs format (unit mm)*
G04 Created by KiCad (PCBNEW 5.0.2-bee76a0~70~ubuntu18.04.1) date Tue 16 Jun 2020 03:13:01 PM PDT*
%MOMM*%
%LPD*%
G01*
G04 APERTURE LIST*
%ADD10C,0.150000*%
%ADD11C,0.100000*%
G04 APERTURE END LIST*
D10*
G36*
X60000000Y-60000000D02*
X140000000Y-60000000D01*
X140000000Y-139000000D01*
X140000000Y-140000000D01*
X60000000Y-140000000D01*
X60000000Y-60000000D01*
G37*
X60000000Y-60000000D02*
X140000000Y-60000000D01*
X140000000Y-139000000D01*
X140000000Y-140000000D01*
X60000000Y-140000000D01*
X60000000Y-60000000D01*
D11*
G36*
X126145845Y-89519215D02*
X126236839Y-89556906D01*
X126317640Y-89610896D01*
X126318734Y-89611627D01*
X126388373Y-89681266D01*
X126443095Y-89763163D01*
X126480785Y-89854155D01*
X126500000Y-89950755D01*
X126500000Y-90049245D01*
X126480785Y-90145845D01*
X126443095Y-90236837D01*
X126388373Y-90318734D01*
X126318734Y-90388373D01*
X126318731Y-90388375D01*
X126236839Y-90443094D01*
X126145845Y-90480785D01*
X126049246Y-90500000D01*
X125950754Y-90500000D01*
X125854155Y-90480785D01*
X125763161Y-90443094D01*
X125681269Y-90388375D01*
X125681266Y-90388373D01*
X125611627Y-90318734D01*
X125556905Y-90236837D01*
X125519215Y-90145845D01*
X125500000Y-90049245D01*
X125500000Y-89950755D01*
X125519215Y-89854155D01*
X125556905Y-89763163D01*
X125611627Y-89681266D01*
X125681266Y-89611627D01*
X125682360Y-89610896D01*
X125763161Y-89556906D01*
X125854155Y-89519215D01*
X125950754Y-89500000D01*
X126049246Y-89500000D01*
X126145845Y-89519215D01*
X126145845Y-89519215D01*
G37*
M02*
