G04 #@! TF.GenerationSoftware,KiCad,Pcbnew,5.1.4-e60b266~84~ubuntu18.04.1*
G04 #@! TF.CreationDate,2019-11-06T15:58:43-08:00*
G04 #@! TF.ProjectId,integrated,696e7465-6772-4617-9465-642e6b696361,rev?*
G04 #@! TF.SameCoordinates,Original*
G04 #@! TF.FileFunction,Legend,Top*
G04 #@! TF.FilePolarity,Positive*
%FSLAX46Y46*%
G04 Gerber Fmt 4.6, Leading zero omitted, Abs format (unit mm)*
G04 Created by KiCad (PCBNEW 5.1.4-e60b266~84~ubuntu18.04.1) date 2019-11-06 15:58:43*
%MOMM*%
%LPD*%
G04 APERTURE LIST*
%ADD10C,0.300000*%
%ADD11C,0.200000*%
%ADD12C,0.150000*%
%ADD13C,0.120000*%
%ADD14C,0.127000*%
G04 APERTURE END LIST*
D10*
X178988095Y-109642857D02*
X180511904Y-109642857D01*
X174488095Y-109642857D02*
X176011904Y-109642857D01*
X175250000Y-110404761D02*
X175250000Y-108880952D01*
X178571428Y-71083333D02*
X179523809Y-71083333D01*
X178380952Y-71654761D02*
X179047619Y-69654761D01*
X179714285Y-71654761D01*
X181523809Y-71464285D02*
X181428571Y-71559523D01*
X181142857Y-71654761D01*
X180952380Y-71654761D01*
X180666666Y-71559523D01*
X180476190Y-71369047D01*
X180380952Y-71178571D01*
X180285714Y-70797619D01*
X180285714Y-70511904D01*
X180380952Y-70130952D01*
X180476190Y-69940476D01*
X180666666Y-69750000D01*
X180952380Y-69654761D01*
X181142857Y-69654761D01*
X181428571Y-69750000D01*
X181523809Y-69845238D01*
X182285714Y-69845238D02*
X182380952Y-69750000D01*
X182571428Y-69654761D01*
X183047619Y-69654761D01*
X183238095Y-69750000D01*
X183333333Y-69845238D01*
X183428571Y-70035714D01*
X183428571Y-70226190D01*
X183333333Y-70511904D01*
X182190476Y-71654761D01*
X183428571Y-71654761D01*
X177821428Y-130083333D02*
X178773809Y-130083333D01*
X177630952Y-130654761D02*
X178297619Y-128654761D01*
X178964285Y-130654761D01*
X180773809Y-130464285D02*
X180678571Y-130559523D01*
X180392857Y-130654761D01*
X180202380Y-130654761D01*
X179916666Y-130559523D01*
X179726190Y-130369047D01*
X179630952Y-130178571D01*
X179535714Y-129797619D01*
X179535714Y-129511904D01*
X179630952Y-129130952D01*
X179726190Y-128940476D01*
X179916666Y-128750000D01*
X180202380Y-128654761D01*
X180392857Y-128654761D01*
X180678571Y-128750000D01*
X180773809Y-128845238D01*
X182678571Y-130654761D02*
X181535714Y-130654761D01*
X182107142Y-130654761D02*
X182107142Y-128654761D01*
X181916666Y-128940476D01*
X181726190Y-129130952D01*
X181535714Y-129226190D01*
D11*
X219607142Y-66228571D02*
X220107142Y-67728571D01*
X220607142Y-66228571D01*
X221107142Y-67728571D02*
X221107142Y-66228571D01*
X221821428Y-67728571D02*
X221821428Y-66228571D01*
X222678571Y-67728571D01*
X222678571Y-66228571D01*
X220107142Y-68750000D02*
X219964285Y-68678571D01*
X219750000Y-68678571D01*
X219535714Y-68750000D01*
X219392857Y-68892857D01*
X219321428Y-69035714D01*
X219250000Y-69321428D01*
X219250000Y-69535714D01*
X219321428Y-69821428D01*
X219392857Y-69964285D01*
X219535714Y-70107142D01*
X219750000Y-70178571D01*
X219892857Y-70178571D01*
X220107142Y-70107142D01*
X220178571Y-70035714D01*
X220178571Y-69535714D01*
X219892857Y-69535714D01*
X220821428Y-70178571D02*
X220821428Y-68678571D01*
X221678571Y-70178571D01*
X221678571Y-68678571D01*
X222392857Y-70178571D02*
X222392857Y-68678571D01*
X222750000Y-68678571D01*
X222964285Y-68750000D01*
X223107142Y-68892857D01*
X223178571Y-69035714D01*
X223250000Y-69321428D01*
X223250000Y-69535714D01*
X223178571Y-69821428D01*
X223107142Y-69964285D01*
X222964285Y-70107142D01*
X222750000Y-70178571D01*
X222392857Y-70178571D01*
X218178571Y-71842857D02*
X218678571Y-71842857D01*
X218892857Y-72628571D02*
X218178571Y-72628571D01*
X218178571Y-71128571D01*
X218892857Y-71128571D01*
X219464285Y-72200000D02*
X220178571Y-72200000D01*
X219321428Y-72628571D02*
X219821428Y-71128571D01*
X220321428Y-72628571D01*
X221678571Y-72628571D02*
X221178571Y-71914285D01*
X220821428Y-72628571D02*
X220821428Y-71128571D01*
X221392857Y-71128571D01*
X221535714Y-71200000D01*
X221607142Y-71271428D01*
X221678571Y-71414285D01*
X221678571Y-71628571D01*
X221607142Y-71771428D01*
X221535714Y-71842857D01*
X221392857Y-71914285D01*
X220821428Y-71914285D01*
X222107142Y-71128571D02*
X222964285Y-71128571D01*
X222535714Y-72628571D02*
X222535714Y-71128571D01*
X223464285Y-72628571D02*
X223464285Y-71128571D01*
X223464285Y-71842857D02*
X224321428Y-71842857D01*
X224321428Y-72628571D02*
X224321428Y-71128571D01*
D12*
X67727380Y-119488095D02*
X67727380Y-118869047D01*
X68108333Y-119202380D01*
X68108333Y-119059523D01*
X68155952Y-118964285D01*
X68203571Y-118916666D01*
X68298809Y-118869047D01*
X68536904Y-118869047D01*
X68632142Y-118916666D01*
X68679761Y-118964285D01*
X68727380Y-119059523D01*
X68727380Y-119345238D01*
X68679761Y-119440476D01*
X68632142Y-119488095D01*
X67727380Y-118583333D02*
X68727380Y-118250000D01*
X67727380Y-117916666D01*
X67727380Y-117678571D02*
X67727380Y-117059523D01*
X68108333Y-117392857D01*
X68108333Y-117250000D01*
X68155952Y-117154761D01*
X68203571Y-117107142D01*
X68298809Y-117059523D01*
X68536904Y-117059523D01*
X68632142Y-117107142D01*
X68679761Y-117154761D01*
X68727380Y-117250000D01*
X68727380Y-117535714D01*
X68679761Y-117630952D01*
X68632142Y-117678571D01*
X69377380Y-119011904D02*
X69377380Y-118440476D01*
X70377380Y-118726190D02*
X69377380Y-118726190D01*
X69377380Y-118202380D02*
X70377380Y-117535714D01*
X69377380Y-117535714D02*
X70377380Y-118202380D01*
X72027380Y-118416666D02*
X71551190Y-118750000D01*
X72027380Y-118988095D02*
X71027380Y-118988095D01*
X71027380Y-118607142D01*
X71075000Y-118511904D01*
X71122619Y-118464285D01*
X71217857Y-118416666D01*
X71360714Y-118416666D01*
X71455952Y-118464285D01*
X71503571Y-118511904D01*
X71551190Y-118607142D01*
X71551190Y-118988095D01*
X71027380Y-118083333D02*
X72027380Y-117416666D01*
X71027380Y-117416666D02*
X72027380Y-118083333D01*
X72725000Y-119011904D02*
X72677380Y-119107142D01*
X72677380Y-119250000D01*
X72725000Y-119392857D01*
X72820238Y-119488095D01*
X72915476Y-119535714D01*
X73105952Y-119583333D01*
X73248809Y-119583333D01*
X73439285Y-119535714D01*
X73534523Y-119488095D01*
X73629761Y-119392857D01*
X73677380Y-119250000D01*
X73677380Y-119154761D01*
X73629761Y-119011904D01*
X73582142Y-118964285D01*
X73248809Y-118964285D01*
X73248809Y-119154761D01*
X73677380Y-118535714D02*
X72677380Y-118535714D01*
X73677380Y-117964285D01*
X72677380Y-117964285D01*
X73677380Y-117488095D02*
X72677380Y-117488095D01*
X72677380Y-117250000D01*
X72725000Y-117107142D01*
X72820238Y-117011904D01*
X72915476Y-116964285D01*
X73105952Y-116916666D01*
X73248809Y-116916666D01*
X73439285Y-116964285D01*
X73534523Y-117011904D01*
X73629761Y-117107142D01*
X73677380Y-117250000D01*
X73677380Y-117488095D01*
X51050000Y-125511904D02*
X51002380Y-125607142D01*
X51002380Y-125750000D01*
X51050000Y-125892857D01*
X51145238Y-125988095D01*
X51240476Y-126035714D01*
X51430952Y-126083333D01*
X51573809Y-126083333D01*
X51764285Y-126035714D01*
X51859523Y-125988095D01*
X51954761Y-125892857D01*
X52002380Y-125750000D01*
X52002380Y-125654761D01*
X51954761Y-125511904D01*
X51907142Y-125464285D01*
X51573809Y-125464285D01*
X51573809Y-125654761D01*
X52002380Y-125035714D02*
X51002380Y-125035714D01*
X52002380Y-124464285D01*
X51002380Y-124464285D01*
X52002380Y-123988095D02*
X51002380Y-123988095D01*
X51002380Y-123750000D01*
X51050000Y-123607142D01*
X51145238Y-123511904D01*
X51240476Y-123464285D01*
X51430952Y-123416666D01*
X51573809Y-123416666D01*
X51764285Y-123464285D01*
X51859523Y-123511904D01*
X51954761Y-123607142D01*
X52002380Y-123750000D01*
X52002380Y-123988095D01*
X52652380Y-126059523D02*
X52652380Y-125488095D01*
X53652380Y-125773809D02*
X52652380Y-125773809D01*
X53652380Y-125154761D02*
X52652380Y-125154761D01*
X52652380Y-124916666D01*
X52700000Y-124773809D01*
X52795238Y-124678571D01*
X52890476Y-124630952D01*
X53080952Y-124583333D01*
X53223809Y-124583333D01*
X53414285Y-124630952D01*
X53509523Y-124678571D01*
X53604761Y-124773809D01*
X53652380Y-124916666D01*
X53652380Y-125154761D01*
X52652380Y-123964285D02*
X52652380Y-123773809D01*
X52700000Y-123678571D01*
X52795238Y-123583333D01*
X52985714Y-123535714D01*
X53319047Y-123535714D01*
X53509523Y-123583333D01*
X53604761Y-123678571D01*
X53652380Y-123773809D01*
X53652380Y-123964285D01*
X53604761Y-124059523D01*
X53509523Y-124154761D01*
X53319047Y-124202380D01*
X52985714Y-124202380D01*
X52795238Y-124154761D01*
X52700000Y-124059523D01*
X52652380Y-123964285D01*
X54302380Y-126083333D02*
X54302380Y-125511904D01*
X55302380Y-125797619D02*
X54302380Y-125797619D01*
X55302380Y-125178571D02*
X54302380Y-125178571D01*
X55016666Y-124845238D01*
X54302380Y-124511904D01*
X55302380Y-124511904D01*
X55254761Y-124083333D02*
X55302380Y-123940476D01*
X55302380Y-123702380D01*
X55254761Y-123607142D01*
X55207142Y-123559523D01*
X55111904Y-123511904D01*
X55016666Y-123511904D01*
X54921428Y-123559523D01*
X54873809Y-123607142D01*
X54826190Y-123702380D01*
X54778571Y-123892857D01*
X54730952Y-123988095D01*
X54683333Y-124035714D01*
X54588095Y-124083333D01*
X54492857Y-124083333D01*
X54397619Y-124035714D01*
X54350000Y-123988095D01*
X54302380Y-123892857D01*
X54302380Y-123654761D01*
X54350000Y-123511904D01*
X55952380Y-125773809D02*
X55952380Y-125202380D01*
X56952380Y-125488095D02*
X55952380Y-125488095D01*
X56952380Y-124869047D02*
X55952380Y-124869047D01*
X55952380Y-124630952D01*
X56000000Y-124488095D01*
X56095238Y-124392857D01*
X56190476Y-124345238D01*
X56380952Y-124297619D01*
X56523809Y-124297619D01*
X56714285Y-124345238D01*
X56809523Y-124392857D01*
X56904761Y-124488095D01*
X56952380Y-124630952D01*
X56952380Y-124869047D01*
X56952380Y-123869047D02*
X55952380Y-123869047D01*
X57602380Y-126035714D02*
X57602380Y-125464285D01*
X58602380Y-125750000D02*
X57602380Y-125750000D01*
X58507142Y-124559523D02*
X58554761Y-124607142D01*
X58602380Y-124750000D01*
X58602380Y-124845238D01*
X58554761Y-124988095D01*
X58459523Y-125083333D01*
X58364285Y-125130952D01*
X58173809Y-125178571D01*
X58030952Y-125178571D01*
X57840476Y-125130952D01*
X57745238Y-125083333D01*
X57650000Y-124988095D01*
X57602380Y-124845238D01*
X57602380Y-124750000D01*
X57650000Y-124607142D01*
X57697619Y-124559523D01*
X58602380Y-124130952D02*
X57602380Y-124130952D01*
X58602380Y-123559523D02*
X58030952Y-123988095D01*
X57602380Y-123559523D02*
X58173809Y-124130952D01*
X59252380Y-125988095D02*
X59252380Y-125369047D01*
X59633333Y-125702380D01*
X59633333Y-125559523D01*
X59680952Y-125464285D01*
X59728571Y-125416666D01*
X59823809Y-125369047D01*
X60061904Y-125369047D01*
X60157142Y-125416666D01*
X60204761Y-125464285D01*
X60252380Y-125559523D01*
X60252380Y-125845238D01*
X60204761Y-125940476D01*
X60157142Y-125988095D01*
X59252380Y-125083333D02*
X60252380Y-124750000D01*
X59252380Y-124416666D01*
X59252380Y-124178571D02*
X59252380Y-123559523D01*
X59633333Y-123892857D01*
X59633333Y-123750000D01*
X59680952Y-123654761D01*
X59728571Y-123607142D01*
X59823809Y-123559523D01*
X60061904Y-123559523D01*
X60157142Y-123607142D01*
X60204761Y-123654761D01*
X60252380Y-123750000D01*
X60252380Y-124035714D01*
X60204761Y-124130952D01*
X60157142Y-124178571D01*
X64833333Y-112952380D02*
X64500000Y-112476190D01*
X64261904Y-112952380D02*
X64261904Y-111952380D01*
X64642857Y-111952380D01*
X64738095Y-112000000D01*
X64785714Y-112047619D01*
X64833333Y-112142857D01*
X64833333Y-112285714D01*
X64785714Y-112380952D01*
X64738095Y-112428571D01*
X64642857Y-112476190D01*
X64261904Y-112476190D01*
X65166666Y-111952380D02*
X65833333Y-112952380D01*
X65833333Y-111952380D02*
X65166666Y-112952380D01*
X64488095Y-98452380D02*
X65059523Y-98452380D01*
X64773809Y-99452380D02*
X64773809Y-98452380D01*
X65297619Y-98452380D02*
X65964285Y-99452380D01*
X65964285Y-98452380D02*
X65297619Y-99452380D01*
D11*
X65749999Y-141442857D02*
X65964285Y-141514285D01*
X66035714Y-141585714D01*
X66107142Y-141728571D01*
X66107142Y-141942857D01*
X66035714Y-142085714D01*
X65964285Y-142157142D01*
X65821428Y-142228571D01*
X65249999Y-142228571D01*
X65249999Y-140728571D01*
X65749999Y-140728571D01*
X65892857Y-140800000D01*
X65964285Y-140871428D01*
X66035714Y-141014285D01*
X66035714Y-141157142D01*
X65964285Y-141300000D01*
X65892857Y-141371428D01*
X65749999Y-141442857D01*
X65249999Y-141442857D01*
X66749999Y-142228571D02*
X66749999Y-141228571D01*
X66749999Y-140728571D02*
X66678571Y-140800000D01*
X66749999Y-140871428D01*
X66821428Y-140800000D01*
X66749999Y-140728571D01*
X66749999Y-140871428D01*
X67464285Y-142228571D02*
X67464285Y-140728571D01*
X67607142Y-141657142D02*
X68035714Y-142228571D01*
X68035714Y-141228571D02*
X67464285Y-141800000D01*
X69249999Y-142157142D02*
X69107142Y-142228571D01*
X68821428Y-142228571D01*
X68678571Y-142157142D01*
X68607142Y-142014285D01*
X68607142Y-141442857D01*
X68678571Y-141300000D01*
X68821428Y-141228571D01*
X69107142Y-141228571D01*
X69249999Y-141300000D01*
X69321428Y-141442857D01*
X69321428Y-141585714D01*
X68607142Y-141728571D01*
X72107142Y-142371428D02*
X71964285Y-142300000D01*
X71821428Y-142157142D01*
X71607142Y-141942857D01*
X71464285Y-141871428D01*
X71321428Y-141871428D01*
X71392857Y-142228571D02*
X71249999Y-142157142D01*
X71107142Y-142014285D01*
X71035714Y-141728571D01*
X71035714Y-141228571D01*
X71107142Y-140942857D01*
X71249999Y-140800000D01*
X71392857Y-140728571D01*
X71678571Y-140728571D01*
X71821428Y-140800000D01*
X71964285Y-140942857D01*
X72035714Y-141228571D01*
X72035714Y-141728571D01*
X71964285Y-142014285D01*
X71821428Y-142157142D01*
X71678571Y-142228571D01*
X71392857Y-142228571D01*
X73535714Y-142085714D02*
X73464285Y-142157142D01*
X73249999Y-142228571D01*
X73107142Y-142228571D01*
X72892857Y-142157142D01*
X72749999Y-142014285D01*
X72678571Y-141871428D01*
X72607142Y-141585714D01*
X72607142Y-141371428D01*
X72678571Y-141085714D01*
X72749999Y-140942857D01*
X72892857Y-140800000D01*
X73107142Y-140728571D01*
X73249999Y-140728571D01*
X73464285Y-140800000D01*
X73535714Y-140871428D01*
X74035714Y-140728571D02*
X74392857Y-142228571D01*
X74678571Y-141157142D01*
X74964285Y-142228571D01*
X75321428Y-140728571D01*
X76821428Y-140728571D02*
X77678571Y-140728571D01*
X77249999Y-142228571D02*
X77249999Y-140728571D01*
X78749999Y-142157142D02*
X78607142Y-142228571D01*
X78321428Y-142228571D01*
X78178571Y-142157142D01*
X78107142Y-142014285D01*
X78107142Y-141442857D01*
X78178571Y-141300000D01*
X78321428Y-141228571D01*
X78607142Y-141228571D01*
X78749999Y-141300000D01*
X78821428Y-141442857D01*
X78821428Y-141585714D01*
X78107142Y-141728571D01*
X79392857Y-142157142D02*
X79535714Y-142228571D01*
X79821428Y-142228571D01*
X79964285Y-142157142D01*
X80035714Y-142014285D01*
X80035714Y-141942857D01*
X79964285Y-141800000D01*
X79821428Y-141728571D01*
X79607142Y-141728571D01*
X79464285Y-141657142D01*
X79392857Y-141514285D01*
X79392857Y-141442857D01*
X79464285Y-141300000D01*
X79607142Y-141228571D01*
X79821428Y-141228571D01*
X79964285Y-141300000D01*
X80892857Y-142228571D02*
X80749999Y-142157142D01*
X80678571Y-142014285D01*
X80678571Y-140728571D01*
X82107142Y-142228571D02*
X82107142Y-141442857D01*
X82035714Y-141300000D01*
X81892857Y-141228571D01*
X81607142Y-141228571D01*
X81464285Y-141300000D01*
X82107142Y-142157142D02*
X81964285Y-142228571D01*
X81607142Y-142228571D01*
X81464285Y-142157142D01*
X81392857Y-142014285D01*
X81392857Y-141871428D01*
X81464285Y-141728571D01*
X81607142Y-141657142D01*
X81964285Y-141657142D01*
X82107142Y-141585714D01*
X84821428Y-142085714D02*
X84749999Y-142157142D01*
X84535714Y-142228571D01*
X84392857Y-142228571D01*
X84178571Y-142157142D01*
X84035714Y-142014285D01*
X83964285Y-141871428D01*
X83892857Y-141585714D01*
X83892857Y-141371428D01*
X83964285Y-141085714D01*
X84035714Y-140942857D01*
X84178571Y-140800000D01*
X84392857Y-140728571D01*
X84535714Y-140728571D01*
X84749999Y-140800000D01*
X84821428Y-140871428D01*
X85678571Y-142228571D02*
X85535714Y-142157142D01*
X85464285Y-142085714D01*
X85392857Y-141942857D01*
X85392857Y-141514285D01*
X85464285Y-141371428D01*
X85535714Y-141300000D01*
X85678571Y-141228571D01*
X85892857Y-141228571D01*
X86035714Y-141300000D01*
X86107142Y-141371428D01*
X86178571Y-141514285D01*
X86178571Y-141942857D01*
X86107142Y-142085714D01*
X86035714Y-142157142D01*
X85892857Y-142228571D01*
X85678571Y-142228571D01*
X86821428Y-142228571D02*
X86821428Y-141228571D01*
X86821428Y-140728571D02*
X86749999Y-140800000D01*
X86821428Y-140871428D01*
X86892857Y-140800000D01*
X86821428Y-140728571D01*
X86821428Y-140871428D01*
X87749999Y-142228571D02*
X87607142Y-142157142D01*
X87535714Y-142014285D01*
X87535714Y-140728571D01*
X89464285Y-142228571D02*
X89464285Y-140728571D01*
X89821428Y-140728571D01*
X90035714Y-140800000D01*
X90178571Y-140942857D01*
X90249999Y-141085714D01*
X90321428Y-141371428D01*
X90321428Y-141585714D01*
X90249999Y-141871428D01*
X90178571Y-142014285D01*
X90035714Y-142157142D01*
X89821428Y-142228571D01*
X89464285Y-142228571D01*
X90964285Y-142228571D02*
X90964285Y-141228571D01*
X90964285Y-141514285D02*
X91035714Y-141371428D01*
X91107142Y-141300000D01*
X91249999Y-141228571D01*
X91392857Y-141228571D01*
X91892857Y-142228571D02*
X91892857Y-141228571D01*
X91892857Y-140728571D02*
X91821428Y-140800000D01*
X91892857Y-140871428D01*
X91964285Y-140800000D01*
X91892857Y-140728571D01*
X91892857Y-140871428D01*
X92464285Y-141228571D02*
X92821428Y-142228571D01*
X93178571Y-141228571D01*
X94321428Y-142157142D02*
X94178571Y-142228571D01*
X93892857Y-142228571D01*
X93749999Y-142157142D01*
X93678571Y-142014285D01*
X93678571Y-141442857D01*
X93749999Y-141300000D01*
X93892857Y-141228571D01*
X94178571Y-141228571D01*
X94321428Y-141300000D01*
X94392857Y-141442857D01*
X94392857Y-141585714D01*
X93678571Y-141728571D01*
X95035714Y-142228571D02*
X95035714Y-141228571D01*
X95035714Y-141514285D02*
X95107142Y-141371428D01*
X95178571Y-141300000D01*
X95321428Y-141228571D01*
X95464285Y-141228571D01*
X70357142Y-143678571D02*
X70642857Y-144678571D01*
X70928571Y-143964285D01*
X71214285Y-144678571D01*
X71500000Y-143678571D01*
X72714285Y-144678571D02*
X72714285Y-143178571D01*
X72714285Y-144607142D02*
X72571428Y-144678571D01*
X72285714Y-144678571D01*
X72142857Y-144607142D01*
X72071428Y-144535714D01*
X72000000Y-144392857D01*
X72000000Y-143964285D01*
X72071428Y-143821428D01*
X72142857Y-143750000D01*
X72285714Y-143678571D01*
X72571428Y-143678571D01*
X72714285Y-143750000D01*
X73428571Y-144678571D02*
X73428571Y-143178571D01*
X73428571Y-143750000D02*
X73571428Y-143678571D01*
X73857142Y-143678571D01*
X74000000Y-143750000D01*
X74071428Y-143821428D01*
X74142857Y-143964285D01*
X74142857Y-144392857D01*
X74071428Y-144535714D01*
X74000000Y-144607142D01*
X73857142Y-144678571D01*
X73571428Y-144678571D01*
X73428571Y-144607142D01*
X75714285Y-143964285D02*
X75642857Y-143892857D01*
X75500000Y-143821428D01*
X75357142Y-143821428D01*
X75214285Y-143892857D01*
X75142857Y-143964285D01*
X75071428Y-144107142D01*
X75071428Y-144250000D01*
X75142857Y-144392857D01*
X75214285Y-144464285D01*
X75357142Y-144535714D01*
X75500000Y-144535714D01*
X75642857Y-144464285D01*
X75714285Y-144392857D01*
X75714285Y-143821428D02*
X75714285Y-144392857D01*
X75785714Y-144464285D01*
X75857142Y-144464285D01*
X76000000Y-144392857D01*
X76071428Y-144250000D01*
X76071428Y-143892857D01*
X75928571Y-143678571D01*
X75714285Y-143535714D01*
X75428571Y-143464285D01*
X75142857Y-143535714D01*
X74928571Y-143678571D01*
X74785714Y-143892857D01*
X74714285Y-144178571D01*
X74785714Y-144464285D01*
X74928571Y-144678571D01*
X75142857Y-144821428D01*
X75428571Y-144892857D01*
X75714285Y-144821428D01*
X75928571Y-144678571D01*
X76642857Y-144607142D02*
X76785714Y-144678571D01*
X77071428Y-144678571D01*
X77214285Y-144607142D01*
X77285714Y-144464285D01*
X77285714Y-144392857D01*
X77214285Y-144250000D01*
X77071428Y-144178571D01*
X76857142Y-144178571D01*
X76714285Y-144107142D01*
X76642857Y-143964285D01*
X76642857Y-143892857D01*
X76714285Y-143750000D01*
X76857142Y-143678571D01*
X77071428Y-143678571D01*
X77214285Y-143750000D01*
X77714285Y-143678571D02*
X78285714Y-143678571D01*
X77928571Y-143178571D02*
X77928571Y-144464285D01*
X78000000Y-144607142D01*
X78142857Y-144678571D01*
X78285714Y-144678571D01*
X79428571Y-144678571D02*
X79428571Y-143892857D01*
X79357142Y-143750000D01*
X79214285Y-143678571D01*
X78928571Y-143678571D01*
X78785714Y-143750000D01*
X79428571Y-144607142D02*
X79285714Y-144678571D01*
X78928571Y-144678571D01*
X78785714Y-144607142D01*
X78714285Y-144464285D01*
X78714285Y-144321428D01*
X78785714Y-144178571D01*
X78928571Y-144107142D01*
X79285714Y-144107142D01*
X79428571Y-144035714D01*
X80142857Y-143678571D02*
X80142857Y-144678571D01*
X80142857Y-143821428D02*
X80214285Y-143750000D01*
X80357142Y-143678571D01*
X80571428Y-143678571D01*
X80714285Y-143750000D01*
X80785714Y-143892857D01*
X80785714Y-144678571D01*
X81285714Y-143678571D02*
X81857142Y-143678571D01*
X81500000Y-144678571D02*
X81500000Y-143392857D01*
X81571428Y-143250000D01*
X81714285Y-143178571D01*
X81857142Y-143178571D01*
X82571428Y-144678571D02*
X82428571Y-144607142D01*
X82357142Y-144535714D01*
X82285714Y-144392857D01*
X82285714Y-143964285D01*
X82357142Y-143821428D01*
X82428571Y-143750000D01*
X82571428Y-143678571D01*
X82785714Y-143678571D01*
X82928571Y-143750000D01*
X83000000Y-143821428D01*
X83071428Y-143964285D01*
X83071428Y-144392857D01*
X83000000Y-144535714D01*
X82928571Y-144607142D01*
X82785714Y-144678571D01*
X82571428Y-144678571D01*
X83714285Y-144678571D02*
X83714285Y-143678571D01*
X83714285Y-143964285D02*
X83785714Y-143821428D01*
X83857142Y-143750000D01*
X84000000Y-143678571D01*
X84142857Y-143678571D01*
X85285714Y-144678571D02*
X85285714Y-143178571D01*
X85285714Y-144607142D02*
X85142857Y-144678571D01*
X84857142Y-144678571D01*
X84714285Y-144607142D01*
X84642857Y-144535714D01*
X84571428Y-144392857D01*
X84571428Y-143964285D01*
X84642857Y-143821428D01*
X84714285Y-143750000D01*
X84857142Y-143678571D01*
X85142857Y-143678571D01*
X85285714Y-143750000D01*
X86000000Y-144535714D02*
X86071428Y-144607142D01*
X86000000Y-144678571D01*
X85928571Y-144607142D01*
X86000000Y-144535714D01*
X86000000Y-144678571D01*
X87285714Y-144607142D02*
X87142857Y-144678571D01*
X86857142Y-144678571D01*
X86714285Y-144607142D01*
X86642857Y-144464285D01*
X86642857Y-143892857D01*
X86714285Y-143750000D01*
X86857142Y-143678571D01*
X87142857Y-143678571D01*
X87285714Y-143750000D01*
X87357142Y-143892857D01*
X87357142Y-144035714D01*
X86642857Y-144178571D01*
X88642857Y-144678571D02*
X88642857Y-143178571D01*
X88642857Y-144607142D02*
X88500000Y-144678571D01*
X88214285Y-144678571D01*
X88071428Y-144607142D01*
X88000000Y-144535714D01*
X87928571Y-144392857D01*
X87928571Y-143964285D01*
X88000000Y-143821428D01*
X88071428Y-143750000D01*
X88214285Y-143678571D01*
X88500000Y-143678571D01*
X88642857Y-143750000D01*
X90000000Y-143678571D02*
X90000000Y-144678571D01*
X89357142Y-143678571D02*
X89357142Y-144464285D01*
X89428571Y-144607142D01*
X89571428Y-144678571D01*
X89785714Y-144678571D01*
X89928571Y-144607142D01*
X90000000Y-144535714D01*
X61821428Y-146128571D02*
X61821428Y-147342857D01*
X61749999Y-147485714D01*
X61678571Y-147557142D01*
X61535714Y-147628571D01*
X61321428Y-147628571D01*
X61178571Y-147557142D01*
X61821428Y-147057142D02*
X61678571Y-147128571D01*
X61392857Y-147128571D01*
X61249999Y-147057142D01*
X61178571Y-146985714D01*
X61107142Y-146842857D01*
X61107142Y-146414285D01*
X61178571Y-146271428D01*
X61249999Y-146200000D01*
X61392857Y-146128571D01*
X61678571Y-146128571D01*
X61821428Y-146200000D01*
X62535714Y-147128571D02*
X62535714Y-146128571D01*
X62535714Y-145628571D02*
X62464285Y-145700000D01*
X62535714Y-145771428D01*
X62607142Y-145700000D01*
X62535714Y-145628571D01*
X62535714Y-145771428D01*
X63035714Y-146128571D02*
X63607142Y-146128571D01*
X63249999Y-145628571D02*
X63249999Y-146914285D01*
X63321428Y-147057142D01*
X63464285Y-147128571D01*
X63607142Y-147128571D01*
X64107142Y-147128571D02*
X64107142Y-145628571D01*
X64749999Y-147128571D02*
X64749999Y-146342857D01*
X64678571Y-146200000D01*
X64535714Y-146128571D01*
X64321428Y-146128571D01*
X64178571Y-146200000D01*
X64107142Y-146271428D01*
X66107142Y-146128571D02*
X66107142Y-147128571D01*
X65464285Y-146128571D02*
X65464285Y-146914285D01*
X65535714Y-147057142D01*
X65678571Y-147128571D01*
X65892857Y-147128571D01*
X66035714Y-147057142D01*
X66107142Y-146985714D01*
X66821428Y-147128571D02*
X66821428Y-145628571D01*
X66821428Y-146200000D02*
X66964285Y-146128571D01*
X67250000Y-146128571D01*
X67392857Y-146200000D01*
X67464285Y-146271428D01*
X67535714Y-146414285D01*
X67535714Y-146842857D01*
X67464285Y-146985714D01*
X67392857Y-147057142D01*
X67250000Y-147128571D01*
X66964285Y-147128571D01*
X66821428Y-147057142D01*
X68178571Y-146985714D02*
X68250000Y-147057142D01*
X68178571Y-147128571D01*
X68107142Y-147057142D01*
X68178571Y-146985714D01*
X68178571Y-147128571D01*
X69535714Y-147057142D02*
X69392857Y-147128571D01*
X69107142Y-147128571D01*
X68964285Y-147057142D01*
X68892857Y-146985714D01*
X68821428Y-146842857D01*
X68821428Y-146414285D01*
X68892857Y-146271428D01*
X68964285Y-146200000D01*
X69107142Y-146128571D01*
X69392857Y-146128571D01*
X69535714Y-146200000D01*
X70392857Y-147128571D02*
X70250000Y-147057142D01*
X70178571Y-146985714D01*
X70107142Y-146842857D01*
X70107142Y-146414285D01*
X70178571Y-146271428D01*
X70250000Y-146200000D01*
X70392857Y-146128571D01*
X70607142Y-146128571D01*
X70750000Y-146200000D01*
X70821428Y-146271428D01*
X70892857Y-146414285D01*
X70892857Y-146842857D01*
X70821428Y-146985714D01*
X70750000Y-147057142D01*
X70607142Y-147128571D01*
X70392857Y-147128571D01*
X71535714Y-147128571D02*
X71535714Y-146128571D01*
X71535714Y-146271428D02*
X71607142Y-146200000D01*
X71750000Y-146128571D01*
X71964285Y-146128571D01*
X72107142Y-146200000D01*
X72178571Y-146342857D01*
X72178571Y-147128571D01*
X72178571Y-146342857D02*
X72250000Y-146200000D01*
X72392857Y-146128571D01*
X72607142Y-146128571D01*
X72750000Y-146200000D01*
X72821428Y-146342857D01*
X72821428Y-147128571D01*
X74607142Y-145557142D02*
X73321428Y-147485714D01*
X74964285Y-146128571D02*
X75250000Y-147128571D01*
X75535714Y-146414285D01*
X75821428Y-147128571D01*
X76107142Y-146128571D01*
X77250000Y-147057142D02*
X77107142Y-147128571D01*
X76821428Y-147128571D01*
X76678571Y-147057142D01*
X76607142Y-146914285D01*
X76607142Y-146342857D01*
X76678571Y-146200000D01*
X76821428Y-146128571D01*
X77107142Y-146128571D01*
X77250000Y-146200000D01*
X77321428Y-146342857D01*
X77321428Y-146485714D01*
X76607142Y-146628571D01*
X77892857Y-147057142D02*
X78035714Y-147128571D01*
X78321428Y-147128571D01*
X78464285Y-147057142D01*
X78535714Y-146914285D01*
X78535714Y-146842857D01*
X78464285Y-146700000D01*
X78321428Y-146628571D01*
X78107142Y-146628571D01*
X77964285Y-146557142D01*
X77892857Y-146414285D01*
X77892857Y-146342857D01*
X77964285Y-146200000D01*
X78107142Y-146128571D01*
X78321428Y-146128571D01*
X78464285Y-146200000D01*
X78964285Y-146128571D02*
X79535714Y-146128571D01*
X79178571Y-145628571D02*
X79178571Y-146914285D01*
X79250000Y-147057142D01*
X79392857Y-147128571D01*
X79535714Y-147128571D01*
X80250000Y-147128571D02*
X80107142Y-147057142D01*
X80035714Y-146985714D01*
X79964285Y-146842857D01*
X79964285Y-146414285D01*
X80035714Y-146271428D01*
X80107142Y-146200000D01*
X80250000Y-146128571D01*
X80464285Y-146128571D01*
X80607142Y-146200000D01*
X80678571Y-146271428D01*
X80750000Y-146414285D01*
X80750000Y-146842857D01*
X80678571Y-146985714D01*
X80607142Y-147057142D01*
X80464285Y-147128571D01*
X80250000Y-147128571D01*
X81392857Y-146128571D02*
X81392857Y-147128571D01*
X81392857Y-146271428D02*
X81464285Y-146200000D01*
X81607142Y-146128571D01*
X81821428Y-146128571D01*
X81964285Y-146200000D01*
X82035714Y-146342857D01*
X82035714Y-147128571D01*
X82750000Y-147128571D02*
X82750000Y-145628571D01*
X82750000Y-146200000D02*
X82892857Y-146128571D01*
X83178571Y-146128571D01*
X83321428Y-146200000D01*
X83392857Y-146271428D01*
X83464285Y-146414285D01*
X83464285Y-146842857D01*
X83392857Y-146985714D01*
X83321428Y-147057142D01*
X83178571Y-147128571D01*
X82892857Y-147128571D01*
X82750000Y-147057142D01*
X85178571Y-145557142D02*
X83892857Y-147485714D01*
X85678571Y-147128571D02*
X85678571Y-145628571D01*
X85678571Y-146200000D02*
X85821428Y-146128571D01*
X86107142Y-146128571D01*
X86250000Y-146200000D01*
X86321428Y-146271428D01*
X86392857Y-146414285D01*
X86392857Y-146842857D01*
X86321428Y-146985714D01*
X86250000Y-147057142D01*
X86107142Y-147128571D01*
X85821428Y-147128571D01*
X85678571Y-147057142D01*
X87035714Y-147128571D02*
X87035714Y-146128571D01*
X87035714Y-145628571D02*
X86964285Y-145700000D01*
X87035714Y-145771428D01*
X87107142Y-145700000D01*
X87035714Y-145628571D01*
X87035714Y-145771428D01*
X87607142Y-146128571D02*
X87892857Y-147128571D01*
X88178571Y-146414285D01*
X88464285Y-147128571D01*
X88750000Y-146128571D01*
X89321428Y-147128571D02*
X89321428Y-145628571D01*
X89964285Y-147128571D02*
X89964285Y-146342857D01*
X89892857Y-146200000D01*
X89750000Y-146128571D01*
X89535714Y-146128571D01*
X89392857Y-146200000D01*
X89321428Y-146271428D01*
X91250000Y-147057142D02*
X91107142Y-147128571D01*
X90821428Y-147128571D01*
X90678571Y-147057142D01*
X90607142Y-146914285D01*
X90607142Y-146342857D01*
X90678571Y-146200000D01*
X90821428Y-146128571D01*
X91107142Y-146128571D01*
X91250000Y-146200000D01*
X91321428Y-146342857D01*
X91321428Y-146485714D01*
X90607142Y-146628571D01*
X92535714Y-147057142D02*
X92392857Y-147128571D01*
X92107142Y-147128571D01*
X91964285Y-147057142D01*
X91892857Y-146914285D01*
X91892857Y-146342857D01*
X91964285Y-146200000D01*
X92107142Y-146128571D01*
X92392857Y-146128571D01*
X92535714Y-146200000D01*
X92607142Y-146342857D01*
X92607142Y-146485714D01*
X91892857Y-146628571D01*
X93464285Y-147128571D02*
X93321428Y-147057142D01*
X93250000Y-146914285D01*
X93250000Y-145628571D01*
X94035714Y-146557142D02*
X95178571Y-146557142D01*
X96535714Y-147057142D02*
X96392857Y-147128571D01*
X96107142Y-147128571D01*
X95964285Y-147057142D01*
X95892857Y-146985714D01*
X95821428Y-146842857D01*
X95821428Y-146414285D01*
X95892857Y-146271428D01*
X95964285Y-146200000D01*
X96107142Y-146128571D01*
X96392857Y-146128571D01*
X96535714Y-146200000D01*
X97392857Y-147128571D02*
X97250000Y-147057142D01*
X97178571Y-146985714D01*
X97107142Y-146842857D01*
X97107142Y-146414285D01*
X97178571Y-146271428D01*
X97250000Y-146200000D01*
X97392857Y-146128571D01*
X97607142Y-146128571D01*
X97750000Y-146200000D01*
X97821428Y-146271428D01*
X97892857Y-146414285D01*
X97892857Y-146842857D01*
X97821428Y-146985714D01*
X97750000Y-147057142D01*
X97607142Y-147128571D01*
X97392857Y-147128571D01*
X98535714Y-147128571D02*
X98535714Y-146128571D01*
X98535714Y-145628571D02*
X98464285Y-145700000D01*
X98535714Y-145771428D01*
X98607142Y-145700000D01*
X98535714Y-145628571D01*
X98535714Y-145771428D01*
X99464285Y-147128571D02*
X99321428Y-147057142D01*
X99250000Y-146914285D01*
X99250000Y-145628571D01*
D13*
X199162779Y-142490000D02*
X198837221Y-142490000D01*
X199162779Y-143510000D02*
X198837221Y-143510000D01*
D12*
X239000000Y-75500000D02*
X250000000Y-75500000D01*
X250000000Y-70500000D02*
X239000000Y-70500000D01*
X239000000Y-81500000D02*
X250000000Y-81500000D01*
X239000000Y-64500000D02*
X250000000Y-64500000D01*
X239000000Y-81500000D02*
X239000000Y-64500000D01*
D13*
X70815000Y-109210000D02*
X73500000Y-109210000D01*
X70815000Y-107290000D02*
X70815000Y-109210000D01*
X73500000Y-107290000D02*
X70815000Y-107290000D01*
X70815000Y-106710000D02*
X73500000Y-106710000D01*
X70815000Y-104790000D02*
X70815000Y-106710000D01*
X73500000Y-104790000D02*
X70815000Y-104790000D01*
X195837221Y-143510000D02*
X196162779Y-143510000D01*
X195837221Y-142490000D02*
X196162779Y-142490000D01*
D12*
X180250000Y-83500000D02*
X181250000Y-83500000D01*
X180250000Y-75500000D02*
X181250000Y-75500000D01*
X182552776Y-79500000D02*
G75*
G03X182552776Y-79500000I-1802776J0D01*
G01*
X180250000Y-124500000D02*
X181250000Y-124500000D01*
X180250000Y-116500000D02*
X181250000Y-116500000D01*
X182552776Y-120500000D02*
G75*
G03X182552776Y-120500000I-1802776J0D01*
G01*
X129500000Y-98750000D02*
X109500000Y-98750000D01*
X129500000Y-108750000D02*
X129500000Y-98750000D01*
X109500000Y-108750000D02*
X129500000Y-108750000D01*
X109500000Y-98750000D02*
X109500000Y-108750000D01*
X129500000Y-84000000D02*
X109500000Y-84000000D01*
X129500000Y-94000000D02*
X129500000Y-84000000D01*
X109500000Y-94000000D02*
X129500000Y-94000000D01*
X109500000Y-84000000D02*
X109500000Y-94000000D01*
X129500000Y-69750000D02*
X109500000Y-69750000D01*
X129500000Y-79750000D02*
X129500000Y-69750000D01*
X109500000Y-79750000D02*
X129500000Y-79750000D01*
X109500000Y-69750000D02*
X109500000Y-79750000D01*
X97750000Y-106750000D02*
X96750000Y-105750000D01*
X97750000Y-105750000D02*
X97750000Y-106750000D01*
X82250000Y-105750000D02*
X97750000Y-105750000D01*
X82250000Y-121250000D02*
X82250000Y-105750000D01*
X97750000Y-121250000D02*
X82250000Y-121250000D01*
X97750000Y-105750000D02*
X97750000Y-121250000D01*
D13*
X93741422Y-104460000D02*
X94258578Y-104460000D01*
X93741422Y-103040000D02*
X94258578Y-103040000D01*
X90508578Y-103040000D02*
X89991422Y-103040000D01*
X90508578Y-104460000D02*
X89991422Y-104460000D01*
X97491422Y-104460000D02*
X98008578Y-104460000D01*
X97491422Y-103040000D02*
X98008578Y-103040000D01*
X102008578Y-103040000D02*
X101491422Y-103040000D01*
X102008578Y-104460000D02*
X101491422Y-104460000D01*
X86241422Y-104460000D02*
X86758578Y-104460000D01*
X86241422Y-103040000D02*
X86758578Y-103040000D01*
X72229646Y-59625000D02*
X72229646Y-58625000D01*
X72729646Y-59125000D02*
X71729646Y-59125000D01*
X62169000Y-56849000D02*
X62169000Y-55651000D01*
X62209000Y-57112000D02*
X62209000Y-55388000D01*
X62249000Y-57312000D02*
X62249000Y-55188000D01*
X62289000Y-57480000D02*
X62289000Y-55020000D01*
X62329000Y-57628000D02*
X62329000Y-54872000D01*
X62369000Y-57760000D02*
X62369000Y-54740000D01*
X62409000Y-57880000D02*
X62409000Y-54620000D01*
X62449000Y-57992000D02*
X62449000Y-54508000D01*
X62489000Y-58096000D02*
X62489000Y-54404000D01*
X62529000Y-58194000D02*
X62529000Y-54306000D01*
X62569000Y-58287000D02*
X62569000Y-54213000D01*
X62609000Y-58375000D02*
X62609000Y-54125000D01*
X62649000Y-58459000D02*
X62649000Y-54041000D01*
X62689000Y-58539000D02*
X62689000Y-53961000D01*
X62729000Y-58615000D02*
X62729000Y-53885000D01*
X62769000Y-58689000D02*
X62769000Y-53811000D01*
X62809000Y-58760000D02*
X62809000Y-53740000D01*
X62849000Y-58829000D02*
X62849000Y-53671000D01*
X62889000Y-58895000D02*
X62889000Y-53605000D01*
X62929000Y-58959000D02*
X62929000Y-53541000D01*
X62969000Y-59020000D02*
X62969000Y-53480000D01*
X63009000Y-59080000D02*
X63009000Y-53420000D01*
X63049000Y-59139000D02*
X63049000Y-53361000D01*
X63089000Y-59195000D02*
X63089000Y-53305000D01*
X63129000Y-59250000D02*
X63129000Y-53250000D01*
X63169000Y-59304000D02*
X63169000Y-53196000D01*
X63209000Y-59356000D02*
X63209000Y-53144000D01*
X63249000Y-59406000D02*
X63249000Y-53094000D01*
X63289000Y-59456000D02*
X63289000Y-53044000D01*
X63329000Y-59504000D02*
X63329000Y-52996000D01*
X63369000Y-59551000D02*
X63369000Y-52949000D01*
X63409000Y-59597000D02*
X63409000Y-52903000D01*
X63449000Y-59642000D02*
X63449000Y-52858000D01*
X63489000Y-59686000D02*
X63489000Y-52814000D01*
X63529000Y-55009000D02*
X63529000Y-52772000D01*
X63529000Y-59728000D02*
X63529000Y-57491000D01*
X63569000Y-55009000D02*
X63569000Y-52730000D01*
X63569000Y-59770000D02*
X63569000Y-57491000D01*
X63609000Y-55009000D02*
X63609000Y-52689000D01*
X63609000Y-59811000D02*
X63609000Y-57491000D01*
X63649000Y-55009000D02*
X63649000Y-52649000D01*
X63649000Y-59851000D02*
X63649000Y-57491000D01*
X63689000Y-55009000D02*
X63689000Y-52610000D01*
X63689000Y-59890000D02*
X63689000Y-57491000D01*
X63729000Y-55009000D02*
X63729000Y-52571000D01*
X63729000Y-59929000D02*
X63729000Y-57491000D01*
X63769000Y-55009000D02*
X63769000Y-52534000D01*
X63769000Y-59966000D02*
X63769000Y-57491000D01*
X63809000Y-55009000D02*
X63809000Y-52497000D01*
X63809000Y-60003000D02*
X63809000Y-57491000D01*
X63849000Y-55009000D02*
X63849000Y-52461000D01*
X63849000Y-60039000D02*
X63849000Y-57491000D01*
X63889000Y-55009000D02*
X63889000Y-52426000D01*
X63889000Y-60074000D02*
X63889000Y-57491000D01*
X63929000Y-55009000D02*
X63929000Y-52392000D01*
X63929000Y-60108000D02*
X63929000Y-57491000D01*
X63969000Y-55009000D02*
X63969000Y-52358000D01*
X63969000Y-60142000D02*
X63969000Y-57491000D01*
X64009000Y-55009000D02*
X64009000Y-52325000D01*
X64009000Y-60175000D02*
X64009000Y-57491000D01*
X64049000Y-55009000D02*
X64049000Y-52293000D01*
X64049000Y-60207000D02*
X64049000Y-57491000D01*
X64089000Y-55009000D02*
X64089000Y-52261000D01*
X64089000Y-60239000D02*
X64089000Y-57491000D01*
X64129000Y-55009000D02*
X64129000Y-52230000D01*
X64129000Y-60270000D02*
X64129000Y-57491000D01*
X64169000Y-55009000D02*
X64169000Y-52200000D01*
X64169000Y-60300000D02*
X64169000Y-57491000D01*
X64209000Y-55009000D02*
X64209000Y-52170000D01*
X64209000Y-60330000D02*
X64209000Y-57491000D01*
X64249000Y-55009000D02*
X64249000Y-52140000D01*
X64249000Y-60360000D02*
X64249000Y-57491000D01*
X64289000Y-55009000D02*
X64289000Y-52112000D01*
X64289000Y-60388000D02*
X64289000Y-57491000D01*
X64329000Y-55009000D02*
X64329000Y-52084000D01*
X64329000Y-60416000D02*
X64329000Y-57491000D01*
X64369000Y-55009000D02*
X64369000Y-52056000D01*
X64369000Y-60444000D02*
X64369000Y-57491000D01*
X64409000Y-55009000D02*
X64409000Y-52029000D01*
X64409000Y-60471000D02*
X64409000Y-57491000D01*
X64449000Y-55009000D02*
X64449000Y-52003000D01*
X64449000Y-60497000D02*
X64449000Y-57491000D01*
X64489000Y-55009000D02*
X64489000Y-51977000D01*
X64489000Y-60523000D02*
X64489000Y-57491000D01*
X64529000Y-55009000D02*
X64529000Y-51952000D01*
X64529000Y-60548000D02*
X64529000Y-57491000D01*
X64569000Y-55009000D02*
X64569000Y-51927000D01*
X64569000Y-60573000D02*
X64569000Y-57491000D01*
X64609000Y-55009000D02*
X64609000Y-51903000D01*
X64609000Y-60597000D02*
X64609000Y-57491000D01*
X64649000Y-55009000D02*
X64649000Y-51879000D01*
X64649000Y-60621000D02*
X64649000Y-57491000D01*
X64689000Y-55009000D02*
X64689000Y-51855000D01*
X64689000Y-60645000D02*
X64689000Y-57491000D01*
X64729000Y-55009000D02*
X64729000Y-51833000D01*
X64729000Y-60667000D02*
X64729000Y-57491000D01*
X64769000Y-55009000D02*
X64769000Y-51810000D01*
X64769000Y-60690000D02*
X64769000Y-57491000D01*
X64809000Y-55009000D02*
X64809000Y-51788000D01*
X64809000Y-60712000D02*
X64809000Y-57491000D01*
X64849000Y-55009000D02*
X64849000Y-51767000D01*
X64849000Y-60733000D02*
X64849000Y-57491000D01*
X64889000Y-55009000D02*
X64889000Y-51746000D01*
X64889000Y-60754000D02*
X64889000Y-57491000D01*
X64929000Y-55009000D02*
X64929000Y-51725000D01*
X64929000Y-60775000D02*
X64929000Y-57491000D01*
X64969000Y-55009000D02*
X64969000Y-51705000D01*
X64969000Y-60795000D02*
X64969000Y-57491000D01*
X65009000Y-55009000D02*
X65009000Y-51686000D01*
X65009000Y-60814000D02*
X65009000Y-57491000D01*
X65049000Y-55009000D02*
X65049000Y-51666000D01*
X65049000Y-60834000D02*
X65049000Y-57491000D01*
X65089000Y-55009000D02*
X65089000Y-51647000D01*
X65089000Y-60853000D02*
X65089000Y-57491000D01*
X65129000Y-55009000D02*
X65129000Y-51629000D01*
X65129000Y-60871000D02*
X65129000Y-57491000D01*
X65169000Y-55009000D02*
X65169000Y-51611000D01*
X65169000Y-60889000D02*
X65169000Y-57491000D01*
X65209000Y-55009000D02*
X65209000Y-51593000D01*
X65209000Y-60907000D02*
X65209000Y-57491000D01*
X65249000Y-55009000D02*
X65249000Y-51576000D01*
X65249000Y-60924000D02*
X65249000Y-57491000D01*
X65289000Y-55009000D02*
X65289000Y-51560000D01*
X65289000Y-60940000D02*
X65289000Y-57491000D01*
X65329000Y-55009000D02*
X65329000Y-51543000D01*
X65329000Y-60957000D02*
X65329000Y-57491000D01*
X65369000Y-55009000D02*
X65369000Y-51527000D01*
X65369000Y-60973000D02*
X65369000Y-57491000D01*
X65409000Y-55009000D02*
X65409000Y-51512000D01*
X65409000Y-60988000D02*
X65409000Y-57491000D01*
X65449000Y-55009000D02*
X65449000Y-51496000D01*
X65449000Y-61004000D02*
X65449000Y-57491000D01*
X65489000Y-55009000D02*
X65489000Y-51482000D01*
X65489000Y-61018000D02*
X65489000Y-57491000D01*
X65529000Y-55009000D02*
X65529000Y-51467000D01*
X65529000Y-61033000D02*
X65529000Y-57491000D01*
X65569000Y-55009000D02*
X65569000Y-51453000D01*
X65569000Y-61047000D02*
X65569000Y-57491000D01*
X65609000Y-55009000D02*
X65609000Y-51439000D01*
X65609000Y-61061000D02*
X65609000Y-57491000D01*
X65649000Y-55009000D02*
X65649000Y-51426000D01*
X65649000Y-61074000D02*
X65649000Y-57491000D01*
X65689000Y-55009000D02*
X65689000Y-51413000D01*
X65689000Y-61087000D02*
X65689000Y-57491000D01*
X65729000Y-55009000D02*
X65729000Y-51400000D01*
X65729000Y-61100000D02*
X65729000Y-57491000D01*
X65769000Y-55009000D02*
X65769000Y-51388000D01*
X65769000Y-61112000D02*
X65769000Y-57491000D01*
X65809000Y-55009000D02*
X65809000Y-51376000D01*
X65809000Y-61124000D02*
X65809000Y-57491000D01*
X65849000Y-55009000D02*
X65849000Y-51365000D01*
X65849000Y-61135000D02*
X65849000Y-57491000D01*
X65889000Y-55009000D02*
X65889000Y-51353000D01*
X65889000Y-61147000D02*
X65889000Y-57491000D01*
X65929000Y-55009000D02*
X65929000Y-51343000D01*
X65929000Y-61157000D02*
X65929000Y-57491000D01*
X65969000Y-55009000D02*
X65969000Y-51332000D01*
X65969000Y-61168000D02*
X65969000Y-57491000D01*
X66009000Y-61178000D02*
X66009000Y-51322000D01*
X66049000Y-61188000D02*
X66049000Y-51312000D01*
X66089000Y-61197000D02*
X66089000Y-51303000D01*
X66129000Y-61206000D02*
X66129000Y-51294000D01*
X66169000Y-61215000D02*
X66169000Y-51285000D01*
X66209000Y-61224000D02*
X66209000Y-51276000D01*
X66249000Y-61232000D02*
X66249000Y-51268000D01*
X66289000Y-61240000D02*
X66289000Y-51260000D01*
X66329000Y-61247000D02*
X66329000Y-51253000D01*
X66369000Y-61254000D02*
X66369000Y-51246000D01*
X66409000Y-61261000D02*
X66409000Y-51239000D01*
X66449000Y-61268000D02*
X66449000Y-51232000D01*
X66489000Y-61274000D02*
X66489000Y-51226000D01*
X66529000Y-61280000D02*
X66529000Y-51220000D01*
X66570000Y-61285000D02*
X66570000Y-51215000D01*
X66610000Y-61290000D02*
X66610000Y-51210000D01*
X66650000Y-61295000D02*
X66650000Y-51205000D01*
X66690000Y-61300000D02*
X66690000Y-51200000D01*
X66730000Y-61304000D02*
X66730000Y-51196000D01*
X66770000Y-61308000D02*
X66770000Y-51192000D01*
X66810000Y-61312000D02*
X66810000Y-51188000D01*
X66850000Y-61315000D02*
X66850000Y-51185000D01*
X66890000Y-61318000D02*
X66890000Y-51182000D01*
X66930000Y-61320000D02*
X66930000Y-51180000D01*
X66970000Y-61323000D02*
X66970000Y-51177000D01*
X67010000Y-61325000D02*
X67010000Y-51175000D01*
X67050000Y-61327000D02*
X67050000Y-51173000D01*
X67090000Y-61328000D02*
X67090000Y-51172000D01*
X67130000Y-61329000D02*
X67130000Y-51171000D01*
X67170000Y-61330000D02*
X67170000Y-51170000D01*
X67210000Y-61330000D02*
X67210000Y-51170000D01*
X67250000Y-61330000D02*
X67250000Y-51170000D01*
X72370000Y-56250000D02*
G75*
G03X72370000Y-56250000I-5120000J0D01*
G01*
X72571078Y-98790000D02*
X72053922Y-98790000D01*
X72571078Y-100210000D02*
X72053922Y-100210000D01*
X84008578Y-98790000D02*
X83491422Y-98790000D01*
X84008578Y-100210000D02*
X83491422Y-100210000D01*
X119880000Y-66120000D02*
X119880000Y-52880000D01*
X151620000Y-66120000D02*
X151620000Y-52880000D01*
X151620000Y-52880000D02*
X119880000Y-52880000D01*
X151620000Y-66120000D02*
X119880000Y-66120000D01*
X120130000Y-147120000D02*
X120130000Y-133880000D01*
X151870000Y-147120000D02*
X151870000Y-133880000D01*
X151870000Y-133880000D02*
X120130000Y-133880000D01*
X151870000Y-147120000D02*
X120130000Y-147120000D01*
X184620000Y-52880000D02*
X184620000Y-66120000D01*
X152880000Y-52880000D02*
X152880000Y-66120000D01*
X152880000Y-66120000D02*
X184620000Y-66120000D01*
X152880000Y-52880000D02*
X184620000Y-52880000D01*
X184620000Y-133880000D02*
X184620000Y-147120000D01*
X152880000Y-133880000D02*
X152880000Y-147120000D01*
X152880000Y-147120000D02*
X184620000Y-147120000D01*
X152880000Y-133880000D02*
X184620000Y-133880000D01*
X235800000Y-79500000D02*
X233000000Y-79500000D01*
X235800000Y-79500000D02*
X235800000Y-57000000D01*
X226200000Y-79500000D02*
X226200000Y-57000000D01*
X229000000Y-79500000D02*
X226200000Y-79500000D01*
X229000000Y-57000000D02*
X226200000Y-57000000D01*
X235800000Y-57000000D02*
X233000000Y-57000000D01*
X69170000Y-122830000D02*
X69170000Y-121500000D01*
X70500000Y-122830000D02*
X69170000Y-122830000D01*
X71770000Y-122830000D02*
X71770000Y-120170000D01*
X71770000Y-120170000D02*
X79450000Y-120170000D01*
X71770000Y-122830000D02*
X79450000Y-122830000D01*
X79450000Y-122830000D02*
X79450000Y-120170000D01*
X66330000Y-120170000D02*
X66330000Y-121500000D01*
X65000000Y-120170000D02*
X66330000Y-120170000D01*
X63730000Y-120170000D02*
X63730000Y-122830000D01*
X63730000Y-122830000D02*
X50970000Y-122830000D01*
X63730000Y-120170000D02*
X50970000Y-120170000D01*
X50970000Y-120170000D02*
X50970000Y-122830000D01*
X52950000Y-127320000D02*
X56550000Y-127320000D01*
X52950000Y-134680000D02*
X56550000Y-134680000D01*
X58430000Y-129200000D02*
X58430000Y-132800000D01*
X51070000Y-129200000D02*
X51070000Y-132800000D01*
D12*
X218500000Y-147000000D02*
X238500000Y-147000000D01*
X218500000Y-127000000D02*
X218500000Y-147000000D01*
X218500000Y-101500000D02*
X218500000Y-121500000D01*
X238500000Y-101500000D02*
X218500000Y-101500000D01*
X238500000Y-121500000D02*
X238500000Y-101500000D01*
X238500000Y-147000000D02*
X238500000Y-127000000D01*
D13*
X63960000Y-133552064D02*
X63960000Y-129447936D01*
X60540000Y-133552064D02*
X60540000Y-129447936D01*
X93741422Y-100460000D02*
X94258578Y-100460000D01*
X93741422Y-99040000D02*
X94258578Y-99040000D01*
X101741422Y-100460000D02*
X102258578Y-100460000D01*
X101741422Y-99040000D02*
X102258578Y-99040000D01*
X100250000Y-122890000D02*
X103250000Y-122890000D01*
X97250000Y-128110000D02*
X103250000Y-128110000D01*
D14*
X77108580Y-116920000D02*
G75*
G03X77108580Y-116920000I-108580J0D01*
G01*
D13*
X78150000Y-125390000D02*
X75700000Y-125390000D01*
X76350000Y-128610000D02*
X78150000Y-128610000D01*
D10*
X94080278Y-134200000D02*
G75*
G03X94080278Y-134200000I-180278J0D01*
G01*
D13*
X91885000Y-130360000D02*
X92360000Y-130360000D01*
X87140000Y-125140000D02*
X87140000Y-125615000D01*
X87615000Y-125140000D02*
X87140000Y-125140000D01*
X92360000Y-125140000D02*
X92360000Y-125615000D01*
X91885000Y-125140000D02*
X92360000Y-125140000D01*
X87140000Y-130360000D02*
X87140000Y-129885000D01*
X87615000Y-130360000D02*
X87140000Y-130360000D01*
D12*
X62350000Y-95400000D02*
X50150000Y-95400000D01*
X62350000Y-105600000D02*
X62350000Y-95400000D01*
X62350000Y-105600000D02*
X50150000Y-105600000D01*
X62350000Y-105650000D02*
X50150000Y-105650000D01*
X62350000Y-115850000D02*
X62350000Y-105650000D01*
X62350000Y-115850000D02*
X50150000Y-115850000D01*
X60475000Y-65720000D02*
X92225000Y-65720000D01*
X60475000Y-86040000D02*
X60475000Y-65720000D01*
X92225000Y-86040000D02*
X60475000Y-86040000D01*
X92225000Y-65720000D02*
X92225000Y-86040000D01*
X104500000Y-62500000D02*
X104500000Y-90000000D01*
X52000000Y-62500000D02*
X104500000Y-62500000D01*
X52000000Y-90000000D02*
X52000000Y-62500000D01*
X104500000Y-90000000D02*
X52000000Y-90000000D01*
D11*
X95000000Y-95750000D02*
G75*
G03X95000000Y-95750000I-100000J0D01*
G01*
D14*
X90950000Y-93200000D02*
X90950000Y-93440000D01*
X91880000Y-93200000D02*
X90950000Y-93200000D01*
X94050000Y-93200000D02*
X93120000Y-93200000D01*
X94050000Y-93440000D02*
X94050000Y-93200000D01*
X90950000Y-96300000D02*
X90950000Y-96060000D01*
X91880000Y-96300000D02*
X90950000Y-96300000D01*
X94050000Y-96300000D02*
X93120000Y-96300000D01*
X94050000Y-96060000D02*
X94050000Y-96300000D01*
D11*
X103000000Y-95750000D02*
G75*
G03X103000000Y-95750000I-100000J0D01*
G01*
D14*
X98950000Y-93200000D02*
X98950000Y-93440000D01*
X99880000Y-93200000D02*
X98950000Y-93200000D01*
X102050000Y-93200000D02*
X101120000Y-93200000D01*
X102050000Y-93440000D02*
X102050000Y-93200000D01*
X98950000Y-96300000D02*
X98950000Y-96060000D01*
X99880000Y-96300000D02*
X98950000Y-96300000D01*
X102050000Y-96300000D02*
X101120000Y-96300000D01*
X102050000Y-96060000D02*
X102050000Y-96300000D01*
D12*
X129500000Y-113500000D02*
X109500000Y-113500000D01*
X129500000Y-123500000D02*
X129500000Y-113500000D01*
X109500000Y-123500000D02*
X129500000Y-123500000D01*
X109500000Y-113500000D02*
X109500000Y-123500000D01*
D13*
X205630000Y-61120000D02*
X205630000Y-53880000D01*
X223870000Y-61120000D02*
X223870000Y-53880000D01*
X223870000Y-53880000D02*
X205630000Y-53880000D01*
X223870000Y-61120000D02*
X205630000Y-61120000D01*
X204620000Y-53880000D02*
X204620000Y-61120000D01*
X186380000Y-53880000D02*
X186380000Y-61120000D01*
X186380000Y-61120000D02*
X204620000Y-61120000D01*
X186380000Y-53880000D02*
X204620000Y-53880000D01*
D10*
X71816422Y-94041422D02*
G75*
G03X71816422Y-94041422I-141421J0D01*
G01*
X83091421Y-94100000D02*
G75*
G03X83091421Y-94100000I-141421J0D01*
G01*
D13*
X71000000Y-127500000D02*
X71000000Y-131400000D01*
X69000000Y-127500000D02*
X69000000Y-131400000D01*
X71000000Y-127500000D02*
X69000000Y-127500000D01*
X66250000Y-132000000D02*
X66250000Y-128100000D01*
X68250000Y-132000000D02*
X68250000Y-128100000D01*
X66250000Y-132000000D02*
X68250000Y-132000000D01*
X64352064Y-124840000D02*
X63147936Y-124840000D01*
X64352064Y-126660000D02*
X63147936Y-126660000D01*
X68102064Y-133090000D02*
X66897936Y-133090000D01*
X68102064Y-134910000D02*
X66897936Y-134910000D01*
X72852064Y-133090000D02*
X71647936Y-133090000D01*
X72852064Y-134910000D02*
X71647936Y-134910000D01*
X79800000Y-133160000D02*
X81200000Y-133160000D01*
X81200000Y-130840000D02*
X79300000Y-130840000D01*
X103700000Y-134340000D02*
X102300000Y-134340000D01*
X102300000Y-136660000D02*
X104200000Y-136660000D01*
X104150000Y-129640000D02*
X101700000Y-129640000D01*
X102350000Y-132860000D02*
X104150000Y-132860000D01*
X68090000Y-95647936D02*
X68090000Y-96852064D01*
X69910000Y-95647936D02*
X69910000Y-96852064D01*
X79340000Y-95647936D02*
X79340000Y-96852064D01*
X81160000Y-95647936D02*
X81160000Y-96852064D01*
X90912779Y-97490000D02*
X90587221Y-97490000D01*
X90912779Y-98510000D02*
X90587221Y-98510000D01*
X98912779Y-97490000D02*
X98587221Y-97490000D01*
X98912779Y-98510000D02*
X98587221Y-98510000D01*
X94087221Y-98510000D02*
X94412779Y-98510000D01*
X94087221Y-97490000D02*
X94412779Y-97490000D01*
X102087221Y-98510000D02*
X102412779Y-98510000D01*
X102087221Y-97490000D02*
X102412779Y-97490000D01*
X104790000Y-95491422D02*
X104790000Y-96008578D01*
X106210000Y-95491422D02*
X106210000Y-96008578D01*
X76710000Y-99508578D02*
X76710000Y-98991422D01*
X75290000Y-99508578D02*
X75290000Y-98991422D01*
X87960000Y-99508578D02*
X87960000Y-98991422D01*
X86540000Y-99508578D02*
X86540000Y-98991422D01*
X94729646Y-59625000D02*
X94729646Y-58625000D01*
X95229646Y-59125000D02*
X94229646Y-59125000D01*
X84669000Y-56849000D02*
X84669000Y-55651000D01*
X84709000Y-57112000D02*
X84709000Y-55388000D01*
X84749000Y-57312000D02*
X84749000Y-55188000D01*
X84789000Y-57480000D02*
X84789000Y-55020000D01*
X84829000Y-57628000D02*
X84829000Y-54872000D01*
X84869000Y-57760000D02*
X84869000Y-54740000D01*
X84909000Y-57880000D02*
X84909000Y-54620000D01*
X84949000Y-57992000D02*
X84949000Y-54508000D01*
X84989000Y-58096000D02*
X84989000Y-54404000D01*
X85029000Y-58194000D02*
X85029000Y-54306000D01*
X85069000Y-58287000D02*
X85069000Y-54213000D01*
X85109000Y-58375000D02*
X85109000Y-54125000D01*
X85149000Y-58459000D02*
X85149000Y-54041000D01*
X85189000Y-58539000D02*
X85189000Y-53961000D01*
X85229000Y-58615000D02*
X85229000Y-53885000D01*
X85269000Y-58689000D02*
X85269000Y-53811000D01*
X85309000Y-58760000D02*
X85309000Y-53740000D01*
X85349000Y-58829000D02*
X85349000Y-53671000D01*
X85389000Y-58895000D02*
X85389000Y-53605000D01*
X85429000Y-58959000D02*
X85429000Y-53541000D01*
X85469000Y-59020000D02*
X85469000Y-53480000D01*
X85509000Y-59080000D02*
X85509000Y-53420000D01*
X85549000Y-59139000D02*
X85549000Y-53361000D01*
X85589000Y-59195000D02*
X85589000Y-53305000D01*
X85629000Y-59250000D02*
X85629000Y-53250000D01*
X85669000Y-59304000D02*
X85669000Y-53196000D01*
X85709000Y-59356000D02*
X85709000Y-53144000D01*
X85749000Y-59406000D02*
X85749000Y-53094000D01*
X85789000Y-59456000D02*
X85789000Y-53044000D01*
X85829000Y-59504000D02*
X85829000Y-52996000D01*
X85869000Y-59551000D02*
X85869000Y-52949000D01*
X85909000Y-59597000D02*
X85909000Y-52903000D01*
X85949000Y-59642000D02*
X85949000Y-52858000D01*
X85989000Y-59686000D02*
X85989000Y-52814000D01*
X86029000Y-55009000D02*
X86029000Y-52772000D01*
X86029000Y-59728000D02*
X86029000Y-57491000D01*
X86069000Y-55009000D02*
X86069000Y-52730000D01*
X86069000Y-59770000D02*
X86069000Y-57491000D01*
X86109000Y-55009000D02*
X86109000Y-52689000D01*
X86109000Y-59811000D02*
X86109000Y-57491000D01*
X86149000Y-55009000D02*
X86149000Y-52649000D01*
X86149000Y-59851000D02*
X86149000Y-57491000D01*
X86189000Y-55009000D02*
X86189000Y-52610000D01*
X86189000Y-59890000D02*
X86189000Y-57491000D01*
X86229000Y-55009000D02*
X86229000Y-52571000D01*
X86229000Y-59929000D02*
X86229000Y-57491000D01*
X86269000Y-55009000D02*
X86269000Y-52534000D01*
X86269000Y-59966000D02*
X86269000Y-57491000D01*
X86309000Y-55009000D02*
X86309000Y-52497000D01*
X86309000Y-60003000D02*
X86309000Y-57491000D01*
X86349000Y-55009000D02*
X86349000Y-52461000D01*
X86349000Y-60039000D02*
X86349000Y-57491000D01*
X86389000Y-55009000D02*
X86389000Y-52426000D01*
X86389000Y-60074000D02*
X86389000Y-57491000D01*
X86429000Y-55009000D02*
X86429000Y-52392000D01*
X86429000Y-60108000D02*
X86429000Y-57491000D01*
X86469000Y-55009000D02*
X86469000Y-52358000D01*
X86469000Y-60142000D02*
X86469000Y-57491000D01*
X86509000Y-55009000D02*
X86509000Y-52325000D01*
X86509000Y-60175000D02*
X86509000Y-57491000D01*
X86549000Y-55009000D02*
X86549000Y-52293000D01*
X86549000Y-60207000D02*
X86549000Y-57491000D01*
X86589000Y-55009000D02*
X86589000Y-52261000D01*
X86589000Y-60239000D02*
X86589000Y-57491000D01*
X86629000Y-55009000D02*
X86629000Y-52230000D01*
X86629000Y-60270000D02*
X86629000Y-57491000D01*
X86669000Y-55009000D02*
X86669000Y-52200000D01*
X86669000Y-60300000D02*
X86669000Y-57491000D01*
X86709000Y-55009000D02*
X86709000Y-52170000D01*
X86709000Y-60330000D02*
X86709000Y-57491000D01*
X86749000Y-55009000D02*
X86749000Y-52140000D01*
X86749000Y-60360000D02*
X86749000Y-57491000D01*
X86789000Y-55009000D02*
X86789000Y-52112000D01*
X86789000Y-60388000D02*
X86789000Y-57491000D01*
X86829000Y-55009000D02*
X86829000Y-52084000D01*
X86829000Y-60416000D02*
X86829000Y-57491000D01*
X86869000Y-55009000D02*
X86869000Y-52056000D01*
X86869000Y-60444000D02*
X86869000Y-57491000D01*
X86909000Y-55009000D02*
X86909000Y-52029000D01*
X86909000Y-60471000D02*
X86909000Y-57491000D01*
X86949000Y-55009000D02*
X86949000Y-52003000D01*
X86949000Y-60497000D02*
X86949000Y-57491000D01*
X86989000Y-55009000D02*
X86989000Y-51977000D01*
X86989000Y-60523000D02*
X86989000Y-57491000D01*
X87029000Y-55009000D02*
X87029000Y-51952000D01*
X87029000Y-60548000D02*
X87029000Y-57491000D01*
X87069000Y-55009000D02*
X87069000Y-51927000D01*
X87069000Y-60573000D02*
X87069000Y-57491000D01*
X87109000Y-55009000D02*
X87109000Y-51903000D01*
X87109000Y-60597000D02*
X87109000Y-57491000D01*
X87149000Y-55009000D02*
X87149000Y-51879000D01*
X87149000Y-60621000D02*
X87149000Y-57491000D01*
X87189000Y-55009000D02*
X87189000Y-51855000D01*
X87189000Y-60645000D02*
X87189000Y-57491000D01*
X87229000Y-55009000D02*
X87229000Y-51833000D01*
X87229000Y-60667000D02*
X87229000Y-57491000D01*
X87269000Y-55009000D02*
X87269000Y-51810000D01*
X87269000Y-60690000D02*
X87269000Y-57491000D01*
X87309000Y-55009000D02*
X87309000Y-51788000D01*
X87309000Y-60712000D02*
X87309000Y-57491000D01*
X87349000Y-55009000D02*
X87349000Y-51767000D01*
X87349000Y-60733000D02*
X87349000Y-57491000D01*
X87389000Y-55009000D02*
X87389000Y-51746000D01*
X87389000Y-60754000D02*
X87389000Y-57491000D01*
X87429000Y-55009000D02*
X87429000Y-51725000D01*
X87429000Y-60775000D02*
X87429000Y-57491000D01*
X87469000Y-55009000D02*
X87469000Y-51705000D01*
X87469000Y-60795000D02*
X87469000Y-57491000D01*
X87509000Y-55009000D02*
X87509000Y-51686000D01*
X87509000Y-60814000D02*
X87509000Y-57491000D01*
X87549000Y-55009000D02*
X87549000Y-51666000D01*
X87549000Y-60834000D02*
X87549000Y-57491000D01*
X87589000Y-55009000D02*
X87589000Y-51647000D01*
X87589000Y-60853000D02*
X87589000Y-57491000D01*
X87629000Y-55009000D02*
X87629000Y-51629000D01*
X87629000Y-60871000D02*
X87629000Y-57491000D01*
X87669000Y-55009000D02*
X87669000Y-51611000D01*
X87669000Y-60889000D02*
X87669000Y-57491000D01*
X87709000Y-55009000D02*
X87709000Y-51593000D01*
X87709000Y-60907000D02*
X87709000Y-57491000D01*
X87749000Y-55009000D02*
X87749000Y-51576000D01*
X87749000Y-60924000D02*
X87749000Y-57491000D01*
X87789000Y-55009000D02*
X87789000Y-51560000D01*
X87789000Y-60940000D02*
X87789000Y-57491000D01*
X87829000Y-55009000D02*
X87829000Y-51543000D01*
X87829000Y-60957000D02*
X87829000Y-57491000D01*
X87869000Y-55009000D02*
X87869000Y-51527000D01*
X87869000Y-60973000D02*
X87869000Y-57491000D01*
X87909000Y-55009000D02*
X87909000Y-51512000D01*
X87909000Y-60988000D02*
X87909000Y-57491000D01*
X87949000Y-55009000D02*
X87949000Y-51496000D01*
X87949000Y-61004000D02*
X87949000Y-57491000D01*
X87989000Y-55009000D02*
X87989000Y-51482000D01*
X87989000Y-61018000D02*
X87989000Y-57491000D01*
X88029000Y-55009000D02*
X88029000Y-51467000D01*
X88029000Y-61033000D02*
X88029000Y-57491000D01*
X88069000Y-55009000D02*
X88069000Y-51453000D01*
X88069000Y-61047000D02*
X88069000Y-57491000D01*
X88109000Y-55009000D02*
X88109000Y-51439000D01*
X88109000Y-61061000D02*
X88109000Y-57491000D01*
X88149000Y-55009000D02*
X88149000Y-51426000D01*
X88149000Y-61074000D02*
X88149000Y-57491000D01*
X88189000Y-55009000D02*
X88189000Y-51413000D01*
X88189000Y-61087000D02*
X88189000Y-57491000D01*
X88229000Y-55009000D02*
X88229000Y-51400000D01*
X88229000Y-61100000D02*
X88229000Y-57491000D01*
X88269000Y-55009000D02*
X88269000Y-51388000D01*
X88269000Y-61112000D02*
X88269000Y-57491000D01*
X88309000Y-55009000D02*
X88309000Y-51376000D01*
X88309000Y-61124000D02*
X88309000Y-57491000D01*
X88349000Y-55009000D02*
X88349000Y-51365000D01*
X88349000Y-61135000D02*
X88349000Y-57491000D01*
X88389000Y-55009000D02*
X88389000Y-51353000D01*
X88389000Y-61147000D02*
X88389000Y-57491000D01*
X88429000Y-55009000D02*
X88429000Y-51343000D01*
X88429000Y-61157000D02*
X88429000Y-57491000D01*
X88469000Y-55009000D02*
X88469000Y-51332000D01*
X88469000Y-61168000D02*
X88469000Y-57491000D01*
X88509000Y-61178000D02*
X88509000Y-51322000D01*
X88549000Y-61188000D02*
X88549000Y-51312000D01*
X88589000Y-61197000D02*
X88589000Y-51303000D01*
X88629000Y-61206000D02*
X88629000Y-51294000D01*
X88669000Y-61215000D02*
X88669000Y-51285000D01*
X88709000Y-61224000D02*
X88709000Y-51276000D01*
X88749000Y-61232000D02*
X88749000Y-51268000D01*
X88789000Y-61240000D02*
X88789000Y-51260000D01*
X88829000Y-61247000D02*
X88829000Y-51253000D01*
X88869000Y-61254000D02*
X88869000Y-51246000D01*
X88909000Y-61261000D02*
X88909000Y-51239000D01*
X88949000Y-61268000D02*
X88949000Y-51232000D01*
X88989000Y-61274000D02*
X88989000Y-51226000D01*
X89029000Y-61280000D02*
X89029000Y-51220000D01*
X89070000Y-61285000D02*
X89070000Y-51215000D01*
X89110000Y-61290000D02*
X89110000Y-51210000D01*
X89150000Y-61295000D02*
X89150000Y-51205000D01*
X89190000Y-61300000D02*
X89190000Y-51200000D01*
X89230000Y-61304000D02*
X89230000Y-51196000D01*
X89270000Y-61308000D02*
X89270000Y-51192000D01*
X89310000Y-61312000D02*
X89310000Y-51188000D01*
X89350000Y-61315000D02*
X89350000Y-51185000D01*
X89390000Y-61318000D02*
X89390000Y-51182000D01*
X89430000Y-61320000D02*
X89430000Y-51180000D01*
X89470000Y-61323000D02*
X89470000Y-51177000D01*
X89510000Y-61325000D02*
X89510000Y-51175000D01*
X89550000Y-61327000D02*
X89550000Y-51173000D01*
X89590000Y-61328000D02*
X89590000Y-51172000D01*
X89630000Y-61329000D02*
X89630000Y-51171000D01*
X89670000Y-61330000D02*
X89670000Y-51170000D01*
X89710000Y-61330000D02*
X89710000Y-51170000D01*
X89750000Y-61330000D02*
X89750000Y-51170000D01*
X94870000Y-56250000D02*
G75*
G03X94870000Y-56250000I-5120000J0D01*
G01*
X83479646Y-59625000D02*
X83479646Y-58625000D01*
X83979646Y-59125000D02*
X82979646Y-59125000D01*
X73419000Y-56849000D02*
X73419000Y-55651000D01*
X73459000Y-57112000D02*
X73459000Y-55388000D01*
X73499000Y-57312000D02*
X73499000Y-55188000D01*
X73539000Y-57480000D02*
X73539000Y-55020000D01*
X73579000Y-57628000D02*
X73579000Y-54872000D01*
X73619000Y-57760000D02*
X73619000Y-54740000D01*
X73659000Y-57880000D02*
X73659000Y-54620000D01*
X73699000Y-57992000D02*
X73699000Y-54508000D01*
X73739000Y-58096000D02*
X73739000Y-54404000D01*
X73779000Y-58194000D02*
X73779000Y-54306000D01*
X73819000Y-58287000D02*
X73819000Y-54213000D01*
X73859000Y-58375000D02*
X73859000Y-54125000D01*
X73899000Y-58459000D02*
X73899000Y-54041000D01*
X73939000Y-58539000D02*
X73939000Y-53961000D01*
X73979000Y-58615000D02*
X73979000Y-53885000D01*
X74019000Y-58689000D02*
X74019000Y-53811000D01*
X74059000Y-58760000D02*
X74059000Y-53740000D01*
X74099000Y-58829000D02*
X74099000Y-53671000D01*
X74139000Y-58895000D02*
X74139000Y-53605000D01*
X74179000Y-58959000D02*
X74179000Y-53541000D01*
X74219000Y-59020000D02*
X74219000Y-53480000D01*
X74259000Y-59080000D02*
X74259000Y-53420000D01*
X74299000Y-59139000D02*
X74299000Y-53361000D01*
X74339000Y-59195000D02*
X74339000Y-53305000D01*
X74379000Y-59250000D02*
X74379000Y-53250000D01*
X74419000Y-59304000D02*
X74419000Y-53196000D01*
X74459000Y-59356000D02*
X74459000Y-53144000D01*
X74499000Y-59406000D02*
X74499000Y-53094000D01*
X74539000Y-59456000D02*
X74539000Y-53044000D01*
X74579000Y-59504000D02*
X74579000Y-52996000D01*
X74619000Y-59551000D02*
X74619000Y-52949000D01*
X74659000Y-59597000D02*
X74659000Y-52903000D01*
X74699000Y-59642000D02*
X74699000Y-52858000D01*
X74739000Y-59686000D02*
X74739000Y-52814000D01*
X74779000Y-55009000D02*
X74779000Y-52772000D01*
X74779000Y-59728000D02*
X74779000Y-57491000D01*
X74819000Y-55009000D02*
X74819000Y-52730000D01*
X74819000Y-59770000D02*
X74819000Y-57491000D01*
X74859000Y-55009000D02*
X74859000Y-52689000D01*
X74859000Y-59811000D02*
X74859000Y-57491000D01*
X74899000Y-55009000D02*
X74899000Y-52649000D01*
X74899000Y-59851000D02*
X74899000Y-57491000D01*
X74939000Y-55009000D02*
X74939000Y-52610000D01*
X74939000Y-59890000D02*
X74939000Y-57491000D01*
X74979000Y-55009000D02*
X74979000Y-52571000D01*
X74979000Y-59929000D02*
X74979000Y-57491000D01*
X75019000Y-55009000D02*
X75019000Y-52534000D01*
X75019000Y-59966000D02*
X75019000Y-57491000D01*
X75059000Y-55009000D02*
X75059000Y-52497000D01*
X75059000Y-60003000D02*
X75059000Y-57491000D01*
X75099000Y-55009000D02*
X75099000Y-52461000D01*
X75099000Y-60039000D02*
X75099000Y-57491000D01*
X75139000Y-55009000D02*
X75139000Y-52426000D01*
X75139000Y-60074000D02*
X75139000Y-57491000D01*
X75179000Y-55009000D02*
X75179000Y-52392000D01*
X75179000Y-60108000D02*
X75179000Y-57491000D01*
X75219000Y-55009000D02*
X75219000Y-52358000D01*
X75219000Y-60142000D02*
X75219000Y-57491000D01*
X75259000Y-55009000D02*
X75259000Y-52325000D01*
X75259000Y-60175000D02*
X75259000Y-57491000D01*
X75299000Y-55009000D02*
X75299000Y-52293000D01*
X75299000Y-60207000D02*
X75299000Y-57491000D01*
X75339000Y-55009000D02*
X75339000Y-52261000D01*
X75339000Y-60239000D02*
X75339000Y-57491000D01*
X75379000Y-55009000D02*
X75379000Y-52230000D01*
X75379000Y-60270000D02*
X75379000Y-57491000D01*
X75419000Y-55009000D02*
X75419000Y-52200000D01*
X75419000Y-60300000D02*
X75419000Y-57491000D01*
X75459000Y-55009000D02*
X75459000Y-52170000D01*
X75459000Y-60330000D02*
X75459000Y-57491000D01*
X75499000Y-55009000D02*
X75499000Y-52140000D01*
X75499000Y-60360000D02*
X75499000Y-57491000D01*
X75539000Y-55009000D02*
X75539000Y-52112000D01*
X75539000Y-60388000D02*
X75539000Y-57491000D01*
X75579000Y-55009000D02*
X75579000Y-52084000D01*
X75579000Y-60416000D02*
X75579000Y-57491000D01*
X75619000Y-55009000D02*
X75619000Y-52056000D01*
X75619000Y-60444000D02*
X75619000Y-57491000D01*
X75659000Y-55009000D02*
X75659000Y-52029000D01*
X75659000Y-60471000D02*
X75659000Y-57491000D01*
X75699000Y-55009000D02*
X75699000Y-52003000D01*
X75699000Y-60497000D02*
X75699000Y-57491000D01*
X75739000Y-55009000D02*
X75739000Y-51977000D01*
X75739000Y-60523000D02*
X75739000Y-57491000D01*
X75779000Y-55009000D02*
X75779000Y-51952000D01*
X75779000Y-60548000D02*
X75779000Y-57491000D01*
X75819000Y-55009000D02*
X75819000Y-51927000D01*
X75819000Y-60573000D02*
X75819000Y-57491000D01*
X75859000Y-55009000D02*
X75859000Y-51903000D01*
X75859000Y-60597000D02*
X75859000Y-57491000D01*
X75899000Y-55009000D02*
X75899000Y-51879000D01*
X75899000Y-60621000D02*
X75899000Y-57491000D01*
X75939000Y-55009000D02*
X75939000Y-51855000D01*
X75939000Y-60645000D02*
X75939000Y-57491000D01*
X75979000Y-55009000D02*
X75979000Y-51833000D01*
X75979000Y-60667000D02*
X75979000Y-57491000D01*
X76019000Y-55009000D02*
X76019000Y-51810000D01*
X76019000Y-60690000D02*
X76019000Y-57491000D01*
X76059000Y-55009000D02*
X76059000Y-51788000D01*
X76059000Y-60712000D02*
X76059000Y-57491000D01*
X76099000Y-55009000D02*
X76099000Y-51767000D01*
X76099000Y-60733000D02*
X76099000Y-57491000D01*
X76139000Y-55009000D02*
X76139000Y-51746000D01*
X76139000Y-60754000D02*
X76139000Y-57491000D01*
X76179000Y-55009000D02*
X76179000Y-51725000D01*
X76179000Y-60775000D02*
X76179000Y-57491000D01*
X76219000Y-55009000D02*
X76219000Y-51705000D01*
X76219000Y-60795000D02*
X76219000Y-57491000D01*
X76259000Y-55009000D02*
X76259000Y-51686000D01*
X76259000Y-60814000D02*
X76259000Y-57491000D01*
X76299000Y-55009000D02*
X76299000Y-51666000D01*
X76299000Y-60834000D02*
X76299000Y-57491000D01*
X76339000Y-55009000D02*
X76339000Y-51647000D01*
X76339000Y-60853000D02*
X76339000Y-57491000D01*
X76379000Y-55009000D02*
X76379000Y-51629000D01*
X76379000Y-60871000D02*
X76379000Y-57491000D01*
X76419000Y-55009000D02*
X76419000Y-51611000D01*
X76419000Y-60889000D02*
X76419000Y-57491000D01*
X76459000Y-55009000D02*
X76459000Y-51593000D01*
X76459000Y-60907000D02*
X76459000Y-57491000D01*
X76499000Y-55009000D02*
X76499000Y-51576000D01*
X76499000Y-60924000D02*
X76499000Y-57491000D01*
X76539000Y-55009000D02*
X76539000Y-51560000D01*
X76539000Y-60940000D02*
X76539000Y-57491000D01*
X76579000Y-55009000D02*
X76579000Y-51543000D01*
X76579000Y-60957000D02*
X76579000Y-57491000D01*
X76619000Y-55009000D02*
X76619000Y-51527000D01*
X76619000Y-60973000D02*
X76619000Y-57491000D01*
X76659000Y-55009000D02*
X76659000Y-51512000D01*
X76659000Y-60988000D02*
X76659000Y-57491000D01*
X76699000Y-55009000D02*
X76699000Y-51496000D01*
X76699000Y-61004000D02*
X76699000Y-57491000D01*
X76739000Y-55009000D02*
X76739000Y-51482000D01*
X76739000Y-61018000D02*
X76739000Y-57491000D01*
X76779000Y-55009000D02*
X76779000Y-51467000D01*
X76779000Y-61033000D02*
X76779000Y-57491000D01*
X76819000Y-55009000D02*
X76819000Y-51453000D01*
X76819000Y-61047000D02*
X76819000Y-57491000D01*
X76859000Y-55009000D02*
X76859000Y-51439000D01*
X76859000Y-61061000D02*
X76859000Y-57491000D01*
X76899000Y-55009000D02*
X76899000Y-51426000D01*
X76899000Y-61074000D02*
X76899000Y-57491000D01*
X76939000Y-55009000D02*
X76939000Y-51413000D01*
X76939000Y-61087000D02*
X76939000Y-57491000D01*
X76979000Y-55009000D02*
X76979000Y-51400000D01*
X76979000Y-61100000D02*
X76979000Y-57491000D01*
X77019000Y-55009000D02*
X77019000Y-51388000D01*
X77019000Y-61112000D02*
X77019000Y-57491000D01*
X77059000Y-55009000D02*
X77059000Y-51376000D01*
X77059000Y-61124000D02*
X77059000Y-57491000D01*
X77099000Y-55009000D02*
X77099000Y-51365000D01*
X77099000Y-61135000D02*
X77099000Y-57491000D01*
X77139000Y-55009000D02*
X77139000Y-51353000D01*
X77139000Y-61147000D02*
X77139000Y-57491000D01*
X77179000Y-55009000D02*
X77179000Y-51343000D01*
X77179000Y-61157000D02*
X77179000Y-57491000D01*
X77219000Y-55009000D02*
X77219000Y-51332000D01*
X77219000Y-61168000D02*
X77219000Y-57491000D01*
X77259000Y-61178000D02*
X77259000Y-51322000D01*
X77299000Y-61188000D02*
X77299000Y-51312000D01*
X77339000Y-61197000D02*
X77339000Y-51303000D01*
X77379000Y-61206000D02*
X77379000Y-51294000D01*
X77419000Y-61215000D02*
X77419000Y-51285000D01*
X77459000Y-61224000D02*
X77459000Y-51276000D01*
X77499000Y-61232000D02*
X77499000Y-51268000D01*
X77539000Y-61240000D02*
X77539000Y-51260000D01*
X77579000Y-61247000D02*
X77579000Y-51253000D01*
X77619000Y-61254000D02*
X77619000Y-51246000D01*
X77659000Y-61261000D02*
X77659000Y-51239000D01*
X77699000Y-61268000D02*
X77699000Y-51232000D01*
X77739000Y-61274000D02*
X77739000Y-51226000D01*
X77779000Y-61280000D02*
X77779000Y-51220000D01*
X77820000Y-61285000D02*
X77820000Y-51215000D01*
X77860000Y-61290000D02*
X77860000Y-51210000D01*
X77900000Y-61295000D02*
X77900000Y-51205000D01*
X77940000Y-61300000D02*
X77940000Y-51200000D01*
X77980000Y-61304000D02*
X77980000Y-51196000D01*
X78020000Y-61308000D02*
X78020000Y-51192000D01*
X78060000Y-61312000D02*
X78060000Y-51188000D01*
X78100000Y-61315000D02*
X78100000Y-51185000D01*
X78140000Y-61318000D02*
X78140000Y-51182000D01*
X78180000Y-61320000D02*
X78180000Y-51180000D01*
X78220000Y-61323000D02*
X78220000Y-51177000D01*
X78260000Y-61325000D02*
X78260000Y-51175000D01*
X78300000Y-61327000D02*
X78300000Y-51173000D01*
X78340000Y-61328000D02*
X78340000Y-51172000D01*
X78380000Y-61329000D02*
X78380000Y-51171000D01*
X78420000Y-61330000D02*
X78420000Y-51170000D01*
X78460000Y-61330000D02*
X78460000Y-51170000D01*
X78500000Y-61330000D02*
X78500000Y-51170000D01*
X83620000Y-56250000D02*
G75*
G03X83620000Y-56250000I-5120000J0D01*
G01*
X200710000Y-133008578D02*
X200710000Y-132491422D01*
X199290000Y-133008578D02*
X199290000Y-132491422D01*
X200740000Y-135837221D02*
X200740000Y-136162779D01*
X201760000Y-135837221D02*
X201760000Y-136162779D01*
X248370000Y-84130000D02*
X248370000Y-97370000D01*
X215130000Y-84130000D02*
X215130000Y-97370000D01*
X215130000Y-97370000D02*
X248370000Y-97370000D01*
X215130000Y-84130000D02*
X248370000Y-84130000D01*
X194790000Y-128741422D02*
X194790000Y-129258578D01*
X196210000Y-128741422D02*
X196210000Y-129258578D01*
X102420000Y-114760000D02*
X102420000Y-113300000D01*
X105580000Y-114760000D02*
X105580000Y-112600000D01*
X105580000Y-114760000D02*
X104650000Y-114760000D01*
X102420000Y-114760000D02*
X103350000Y-114760000D01*
X197040000Y-132491422D02*
X197040000Y-133008578D01*
X198460000Y-132491422D02*
X198460000Y-133008578D01*
X194790000Y-132491422D02*
X194790000Y-133008578D01*
X196210000Y-132491422D02*
X196210000Y-133008578D01*
X198010000Y-129412779D02*
X198010000Y-129087221D01*
X196990000Y-129412779D02*
X196990000Y-129087221D01*
X198870000Y-95400000D02*
X197630000Y-95400000D01*
X198870000Y-100100000D02*
X197630000Y-100100000D01*
X196300000Y-100100000D02*
X195950000Y-100100000D01*
X195950000Y-100100000D02*
X195950000Y-95400000D01*
X195950000Y-95400000D02*
X196300000Y-95400000D01*
X196300000Y-100100000D02*
X196300000Y-101350000D01*
X200200000Y-100100000D02*
X200550000Y-100100000D01*
X200550000Y-100100000D02*
X200550000Y-95400000D01*
X200550000Y-95400000D02*
X200200000Y-95400000D01*
X194690000Y-138500000D02*
X194690000Y-141950000D01*
X194690000Y-138500000D02*
X194690000Y-136550000D01*
X199810000Y-138500000D02*
X199810000Y-140450000D01*
X199810000Y-138500000D02*
X199810000Y-136550000D01*
M02*
