G04 #@! TF.GenerationSoftware,KiCad,Pcbnew,5.1.4-e60b266~84~ubuntu18.04.1*
G04 #@! TF.CreationDate,2019-11-06T15:58:43-08:00*
G04 #@! TF.ProjectId,integrated,696e7465-6772-4617-9465-642e6b696361,rev?*
G04 #@! TF.SameCoordinates,Original*
G04 #@! TF.FileFunction,Legend,Bot*
G04 #@! TF.FilePolarity,Positive*
%FSLAX46Y46*%
G04 Gerber Fmt 4.6, Leading zero omitted, Abs format (unit mm)*
G04 Created by KiCad (PCBNEW 5.1.4-e60b266~84~ubuntu18.04.1) date 2019-11-06 15:58:43*
%MOMM*%
%LPD*%
G04 APERTURE LIST*
%ADD10C,0.120000*%
%ADD11C,0.150000*%
G04 APERTURE END LIST*
D10*
X224337221Y-115240000D02*
X224662779Y-115240000D01*
X224337221Y-116260000D02*
X224662779Y-116260000D01*
X227508578Y-136710000D02*
X226991422Y-136710000D01*
X227508578Y-135290000D02*
X226991422Y-135290000D01*
X113241422Y-102790000D02*
X113758578Y-102790000D01*
X113241422Y-104210000D02*
X113758578Y-104210000D01*
X125337221Y-110240000D02*
X125662779Y-110240000D01*
X125337221Y-111260000D02*
X125662779Y-111260000D01*
X114490000Y-123162779D02*
X114490000Y-122837221D01*
X115510000Y-123162779D02*
X115510000Y-122837221D01*
X125412779Y-120510000D02*
X125087221Y-120510000D01*
X125412779Y-119490000D02*
X125087221Y-119490000D01*
X127258578Y-118960000D02*
X126741422Y-118960000D01*
X127258578Y-117540000D02*
X126741422Y-117540000D01*
X123758578Y-118960000D02*
X123241422Y-118960000D01*
X123758578Y-117540000D02*
X123241422Y-117540000D01*
X113241422Y-88040000D02*
X113758578Y-88040000D01*
X113241422Y-89460000D02*
X113758578Y-89460000D01*
X125087221Y-95490000D02*
X125412779Y-95490000D01*
X125087221Y-96510000D02*
X125412779Y-96510000D01*
X113241422Y-73790000D02*
X113758578Y-73790000D01*
X113241422Y-75210000D02*
X113758578Y-75210000D01*
X125337221Y-81240000D02*
X125662779Y-81240000D01*
X125337221Y-82260000D02*
X125662779Y-82260000D01*
X129258578Y-122460000D02*
X128741422Y-122460000D01*
X129258578Y-121040000D02*
X128741422Y-121040000D01*
D11*
X109000000Y-119350000D02*
X109000000Y-119150000D01*
X111500000Y-119350000D02*
X111500000Y-119150000D01*
X111500000Y-118500000D02*
X109000000Y-118500000D01*
X109000000Y-120000000D02*
X111500000Y-120000000D01*
D10*
X129087221Y-104740000D02*
X129412779Y-104740000D01*
X129087221Y-105760000D02*
X129412779Y-105760000D01*
X113510000Y-122837221D02*
X113510000Y-123162779D01*
X112490000Y-122837221D02*
X112490000Y-123162779D01*
X128837221Y-91990000D02*
X129162779Y-91990000D01*
X128837221Y-93010000D02*
X129162779Y-93010000D01*
X128837221Y-77490000D02*
X129162779Y-77490000D01*
X128837221Y-78510000D02*
X129162779Y-78510000D01*
X119750000Y-110560000D02*
X116300000Y-110560000D01*
X119750000Y-110560000D02*
X121700000Y-110560000D01*
X119750000Y-105440000D02*
X117800000Y-105440000D01*
X119750000Y-105440000D02*
X121700000Y-105440000D01*
X119750000Y-96060000D02*
X116300000Y-96060000D01*
X119750000Y-96060000D02*
X121700000Y-96060000D01*
X119750000Y-90940000D02*
X117800000Y-90940000D01*
X119750000Y-90940000D02*
X121700000Y-90940000D01*
X119750000Y-81560000D02*
X116300000Y-81560000D01*
X119750000Y-81560000D02*
X121700000Y-81560000D01*
X119750000Y-76440000D02*
X117800000Y-76440000D01*
X119750000Y-76440000D02*
X121700000Y-76440000D01*
X125758578Y-122460000D02*
X125241422Y-122460000D01*
X125758578Y-121040000D02*
X125241422Y-121040000D01*
X125758578Y-124460000D02*
X125241422Y-124460000D01*
X125758578Y-123040000D02*
X125241422Y-123040000D01*
X114490000Y-108412779D02*
X114490000Y-108087221D01*
X115510000Y-108412779D02*
X115510000Y-108087221D01*
X125662779Y-105760000D02*
X125337221Y-105760000D01*
X125662779Y-104740000D02*
X125337221Y-104740000D01*
X126758578Y-104210000D02*
X126241422Y-104210000D01*
X126758578Y-102790000D02*
X126241422Y-102790000D01*
X123258578Y-104210000D02*
X122741422Y-104210000D01*
X123258578Y-102790000D02*
X122741422Y-102790000D01*
X113241422Y-117540000D02*
X113758578Y-117540000D01*
X113241422Y-118960000D02*
X113758578Y-118960000D01*
X125087221Y-124990000D02*
X125412779Y-124990000D01*
X125087221Y-126010000D02*
X125412779Y-126010000D01*
X114490000Y-93912779D02*
X114490000Y-93587221D01*
X115510000Y-93912779D02*
X115510000Y-93587221D01*
X125412779Y-91010000D02*
X125087221Y-91010000D01*
X125412779Y-89990000D02*
X125087221Y-89990000D01*
X126758578Y-89460000D02*
X126241422Y-89460000D01*
X126758578Y-88040000D02*
X126241422Y-88040000D01*
X123258578Y-89460000D02*
X122741422Y-89460000D01*
X123258578Y-88040000D02*
X122741422Y-88040000D01*
X114490000Y-79412779D02*
X114490000Y-79087221D01*
X115510000Y-79412779D02*
X115510000Y-79087221D01*
X125662779Y-76760000D02*
X125337221Y-76760000D01*
X125662779Y-75740000D02*
X125337221Y-75740000D01*
X127008578Y-75210000D02*
X126491422Y-75210000D01*
X127008578Y-73790000D02*
X126491422Y-73790000D01*
X123508578Y-75210000D02*
X122991422Y-75210000D01*
X123508578Y-73790000D02*
X122991422Y-73790000D01*
X129508578Y-107710000D02*
X128991422Y-107710000D01*
X129508578Y-106290000D02*
X128991422Y-106290000D01*
X129258578Y-94960000D02*
X128741422Y-94960000D01*
X129258578Y-93540000D02*
X128741422Y-93540000D01*
X129258578Y-80710000D02*
X128741422Y-80710000D01*
X129258578Y-79290000D02*
X128741422Y-79290000D01*
D11*
X109000000Y-104600000D02*
X109000000Y-104400000D01*
X111500000Y-104600000D02*
X111500000Y-104400000D01*
X111500000Y-103750000D02*
X109000000Y-103750000D01*
X109000000Y-105250000D02*
X111500000Y-105250000D01*
X109000000Y-89850000D02*
X109000000Y-89650000D01*
X111500000Y-89850000D02*
X111500000Y-89650000D01*
X111500000Y-89000000D02*
X109000000Y-89000000D01*
X109000000Y-90500000D02*
X111500000Y-90500000D01*
X109000000Y-75600000D02*
X109000000Y-75400000D01*
X111500000Y-75600000D02*
X111500000Y-75400000D01*
X111500000Y-74750000D02*
X109000000Y-74750000D01*
X109000000Y-76250000D02*
X111500000Y-76250000D01*
X134500000Y-77500000D02*
X134500000Y-122500000D01*
X143000000Y-75500000D02*
X136500000Y-75500000D01*
X166500000Y-75500000D02*
X160000000Y-75500000D01*
X168500000Y-122500000D02*
X168500000Y-77500000D01*
X160000000Y-124500000D02*
X166500000Y-124500000D01*
X136500000Y-124500000D02*
X143000000Y-124500000D01*
X136500000Y-124500000D02*
G75*
G02X134500000Y-122500000I0J2000000D01*
G01*
X168500000Y-122500000D02*
G75*
G02X166500000Y-124500000I-2000000J0D01*
G01*
X166500000Y-75500000D02*
G75*
G02X168500000Y-77500000I0J-2000000D01*
G01*
X134500000Y-77500000D02*
G75*
G02X136500000Y-75500000I2000000J0D01*
G01*
X160000000Y-68500000D02*
X160000000Y-75500000D01*
X143000000Y-68500000D02*
X160000000Y-68500000D01*
X143000000Y-75500000D02*
X143000000Y-68500000D01*
X160000000Y-131500000D02*
X160000000Y-124500000D01*
X143000000Y-131500000D02*
X160000000Y-131500000D01*
X143000000Y-124500000D02*
X143000000Y-131500000D01*
D10*
X234508578Y-132960000D02*
X233991422Y-132960000D01*
X234508578Y-131540000D02*
X233991422Y-131540000D01*
X231008578Y-132960000D02*
X230491422Y-132960000D01*
X231008578Y-131540000D02*
X230491422Y-131540000D01*
X227508578Y-132960000D02*
X226991422Y-132960000D01*
X227508578Y-131540000D02*
X226991422Y-131540000D01*
X241508578Y-136710000D02*
X240991422Y-136710000D01*
X241508578Y-135290000D02*
X240991422Y-135290000D01*
X238008578Y-136710000D02*
X237491422Y-136710000D01*
X238008578Y-135290000D02*
X237491422Y-135290000D01*
X234508578Y-136710000D02*
X233991422Y-136710000D01*
X234508578Y-135290000D02*
X233991422Y-135290000D01*
X231008578Y-136710000D02*
X230491422Y-136710000D01*
X231008578Y-135290000D02*
X230491422Y-135290000D01*
X113510000Y-108087221D02*
X113510000Y-108412779D01*
X112490000Y-108087221D02*
X112490000Y-108412779D01*
X128837221Y-122990000D02*
X129162779Y-122990000D01*
X128837221Y-124010000D02*
X129162779Y-124010000D01*
X113510000Y-93587221D02*
X113510000Y-93912779D01*
X112490000Y-93587221D02*
X112490000Y-93912779D01*
X113510000Y-79087221D02*
X113510000Y-79412779D01*
X112490000Y-79087221D02*
X112490000Y-79412779D01*
X222190000Y-111000000D02*
X222190000Y-107550000D01*
X222190000Y-111000000D02*
X222190000Y-112950000D01*
X227310000Y-111000000D02*
X227310000Y-109050000D01*
X227310000Y-111000000D02*
X227310000Y-112950000D01*
X119750000Y-125310000D02*
X116300000Y-125310000D01*
X119750000Y-125310000D02*
X121700000Y-125310000D01*
X119750000Y-120190000D02*
X117800000Y-120190000D01*
X119750000Y-120190000D02*
X121700000Y-120190000D01*
X126008578Y-107710000D02*
X125491422Y-107710000D01*
X126008578Y-106290000D02*
X125491422Y-106290000D01*
X126008578Y-109710000D02*
X125491422Y-109710000D01*
X126008578Y-108290000D02*
X125491422Y-108290000D01*
X125758578Y-92960000D02*
X125241422Y-92960000D01*
X125758578Y-91540000D02*
X125241422Y-91540000D01*
X125758578Y-94960000D02*
X125241422Y-94960000D01*
X125758578Y-93540000D02*
X125241422Y-93540000D01*
X125758578Y-78710000D02*
X125241422Y-78710000D01*
X125758578Y-77290000D02*
X125241422Y-77290000D01*
X125758578Y-80710000D02*
X125241422Y-80710000D01*
X125758578Y-79290000D02*
X125241422Y-79290000D01*
X98863748Y-76040000D02*
X101636252Y-76040000D01*
X98863748Y-79460000D02*
X101636252Y-79460000D01*
X98863748Y-71790000D02*
X101636252Y-71790000D01*
X98863748Y-75210000D02*
X101636252Y-75210000D01*
X222040000Y-140008578D02*
X222040000Y-139491422D01*
X223460000Y-140008578D02*
X223460000Y-139491422D01*
X124040000Y-129008578D02*
X124040000Y-128491422D01*
X125460000Y-129008578D02*
X125460000Y-128491422D01*
X126290000Y-129008578D02*
X126290000Y-128491422D01*
X127710000Y-129008578D02*
X127710000Y-128491422D01*
X124040000Y-132758578D02*
X124040000Y-132241422D01*
X125460000Y-132758578D02*
X125460000Y-132241422D01*
X126290000Y-132758578D02*
X126290000Y-132241422D01*
X127710000Y-132758578D02*
X127710000Y-132241422D01*
M02*
