M48
; DRILL file {KiCad 5.1.4-e60b266~84~ubuntu18.04.1} date Wed 06 Nov 2019 03:59:13 PM PST
; FORMAT={-:-/ absolute / inch / decimal}
; #@! TF.CreationDate,2019-11-06T15:59:13-08:00
; #@! TF.GenerationSoftware,Kicad,Pcbnew,5.1.4-e60b266~84~ubuntu18.04.1
FMAT,2
INCH
T1C0.0079
T2C0.0118
T3C0.0157
T4C0.0256
T5C0.0276
T6C0.0394
T7C0.0472
T8C0.0512
T9C0.0551
T10C0.0591
T11C0.0630
T12C0.0669
T13C0.0728
T14C0.0866
T15C0.1299
T16C0.1063
T17C0.1102
T18C0.2362
T19C0.2953
%
G90
G05
T1
X2.6969Y-3.8976
X2.7362Y-3.8976
X2.7559Y-3.9272
X2.8346Y-5.1181
X2.8445Y-3.6457
X2.8445Y-3.6811
X2.8622Y-5.1102
X2.874Y-3.7106
X2.874Y-3.7402
X2.874Y-3.7697
X2.874Y-3.7992
X2.8937Y-4.4488
X2.9075Y-4.9843
X2.9606Y-4.9823
X2.9724Y-4.3937
X2.9724Y-4.5
X2.9823Y-4.6594
X3.0118Y-3.6693
X3.0217Y-4.6594
X3.0531Y-4.4843
X3.0551Y-4.437
X3.0571Y-4.5472
X3.0807Y-4.6555
X3.0827Y-4.5768
X3.0866Y-4.4587
X3.0866Y-4.498
X3.1398Y-3.8976
X3.1732Y-4.4587
X3.1791Y-3.8976
X3.1988Y-3.9272
X3.2146Y-4.5709
X3.2165Y-4.9803
X3.2165Y-5.0197
X3.2677Y-4.7441
X3.2874Y-3.6457
X3.2874Y-3.6811
X3.3071Y-4.2323
X3.3071Y-4.2717
X3.3071Y-4.3504
X3.3071Y-4.3898
X3.3071Y-4.4291
X3.3071Y-4.5079
X3.3071Y-4.5472
X3.3071Y-4.6654
X3.3071Y-4.7047
X3.3169Y-3.7106
X3.3169Y-3.7402
X3.3169Y-3.7697
X3.3169Y-3.7992
X3.3366Y-5.248
X3.3366Y-5.2854
X3.3465Y-4.3898
X3.3465Y-4.5079
X3.3465Y-4.5472
X3.3563Y-5.1004
X3.3563Y-5.1398
X3.3858Y-4.311
X3.3858Y-4.3898
X3.3858Y-4.4291
X3.3858Y-4.5079
X3.3858Y-4.5472
X3.3858Y-4.626
X3.4251Y-4.5077
X3.4252Y-4.1929
X3.4252Y-4.2323
X3.4252Y-4.3898
X3.4252Y-4.4291
X3.4252Y-4.5472
X3.4252Y-4.5866
X3.4252Y-4.7047
X3.4252Y-4.7441
X3.4547Y-3.6693
X3.4646Y-4.3504
X3.4646Y-4.3898
X3.4646Y-4.4291
X3.4646Y-4.5079
X3.4646Y-4.5472
X3.4646Y-4.5866
X3.4941Y-4.9902
X3.4941Y-5.0689
X3.5039Y-4.3504
X3.5039Y-4.3898
X3.5039Y-4.5079
X3.5039Y-4.5472
X3.5039Y-4.5866
X3.5118Y-5.2657
X3.5256Y-4.8996
X3.5306Y-5.1792
X3.5335Y-4.6654
X3.5335Y-5.0295
X3.5418Y-3.7908
X3.5418Y-3.8204
X3.5433Y-4.7028
X3.5728Y-4.9902
X3.5728Y-5.0689
X3.5827Y-4.2323
X3.5827Y-4.2717
X3.5827Y-4.311
X3.5827Y-4.3504
X3.5827Y-4.3898
X3.5827Y-4.4291
X3.5827Y-4.5472
X3.5827Y-4.5866
X3.5827Y-4.6654
X3.5827Y-4.7047
X3.6024Y-3.6516
X3.6024Y-3.8189
X3.6142Y-5.2165
X3.622Y-3.7106
X3.622Y-3.75
X3.622Y-4.3504
X3.622Y-4.3898
X3.622Y-4.4291
X3.622Y-4.5079
X3.622Y-4.5472
X3.622Y-4.5866
X3.6417Y-3.6516
X3.6417Y-3.6811
X3.6417Y-3.7303
X3.6417Y-3.7795
X3.6417Y-3.8189
X3.6417Y-4.75
X3.6516Y-5.2165
X3.6614Y-3.7106
X3.6614Y-3.75
X3.6614Y-4.1929
X3.6614Y-4.2717
X3.6614Y-4.3504
X3.6614Y-4.3898
X3.6614Y-4.4291
X3.6614Y-4.5079
X3.6614Y-4.5472
X3.6614Y-4.5866
X3.6752Y-5.065
X3.6811Y-3.6516
X3.6811Y-3.8189
X3.7008Y-4.3504
X3.7008Y-4.3898
X3.7008Y-4.4291
X3.7008Y-4.5079
X3.7008Y-4.5472
X3.7402Y-4.2323
X3.7402Y-4.3504
X3.7402Y-4.3898
X3.7402Y-4.4291
X3.7402Y-4.7047
X3.748Y-4.9823
X3.7795Y-4.3504
X3.7795Y-4.5079
X3.7795Y-4.5472
X3.7953Y-4.813
X3.7953Y-5.0177
X3.8169Y-4.7421
X3.8189Y-4.4094
X3.8189Y-4.5472
X3.8287Y-4.6063
X3.8568Y-3.7908
X3.8568Y-3.8204
X3.9114Y-3.9134
X3.9173Y-3.6516
X3.9173Y-3.8189
X3.9272Y-3.9409
X3.937Y-3.7106
X3.937Y-3.75
X3.939Y-3.9154
X3.9469Y-4.9409
X3.9567Y-3.6516
X3.9567Y-3.6811
X3.9567Y-3.7303
X3.9567Y-3.7795
X3.9567Y-3.8189
X3.9626Y-4.7717
X3.9764Y-3.7106
X3.9764Y-3.75
X3.9823Y-4.498
X3.9823Y-4.5472
X3.9843Y-4.5965
X3.9961Y-3.6516
X3.9961Y-3.8189
X4.0059Y-4.7756
X4.0453Y-4.7756
X4.1339Y-4.7736
X5.0Y-4.7244
X5.0Y-4.9409
T2
X2.4508Y-5.3406
X2.5394Y-4.0256
X2.5394Y-4.1929
X2.5787Y-4.0256
X2.5787Y-4.1929
X2.6476Y-5.2106
X2.6575Y-4.0256
X2.6575Y-4.124
X2.6575Y-4.1929
X2.6575Y-4.2913
X2.6772Y-3.6811
X2.7165Y-3.6811
X2.7559Y-3.6811
X2.7559Y-5.2106
X2.7657Y-4.4882
X2.7657Y-4.5472
X2.7756Y-4.1634
X2.7756Y-4.2618
X2.8819Y-4.5591
X2.8937Y-3.8681
X2.9331Y-3.8681
X2.9449Y-5.2756
X2.9803Y-5.3228
X2.9921Y-3.9862
X3.0945Y-5.1083
X3.0965Y-5.1969
X3.1299Y-3.6811
X3.1634Y-4.689
X3.1693Y-3.6811
X3.1909Y-4.7205
X3.2067Y-4.1004
X3.2087Y-3.6811
X3.2677Y-4.1929
X3.2677Y-5.128
X3.2677Y-5.2264
X3.3012Y-5.0807
X3.3248Y-5.122
X3.3268Y-4.065
X3.3268Y-4.0945
X3.3268Y-4.124
X3.435Y-4.1299
X3.4803Y-4.1299
X3.5256Y-4.1299
X3.5827Y-4.128
X3.628Y-4.1299
X3.6713Y-4.1299
X3.7205Y-4.126
X3.7283Y-5.1614
X3.7283Y-5.374
X3.7461Y-4.126
X3.7933Y-4.126
X3.811Y-4.1476
X3.8189Y-4.1929
X3.8248Y-4.126
X3.8287Y-4.7028
X3.8307Y-5.374
X3.8425Y-4.6496
X3.874Y-5.2559
X3.874Y-5.315
X3.8878Y-4.1339
X3.8937Y-5.1772
X3.9232Y-5.3346
X3.9232Y-5.374
X3.9252Y-5.0984
X3.9272Y-4.0551
X3.9272Y-4.0945
X3.9665Y-4.1339
X4.0177Y-5.3937
X4.0217Y-5.0827
X4.0256Y-4.4488
X4.0453Y-4.1437
X4.0551Y-4.5669
X4.0591Y-5.1673
X4.061Y-5.3346
X4.065Y-4.124
X4.1083Y-5.0965
X4.1535Y-3.6909
X4.1535Y-3.8484
X4.1732Y-5.0669
X4.2224Y-5.0669
X4.2539Y-5.2165
X4.2815Y-5.3543
X4.3012Y-2.9232
X4.3012Y-3.0217
X4.313Y-3.4823
X4.313Y-3.5846
X4.313Y-4.065
X4.313Y-4.1654
X4.315Y-4.6457
X4.315Y-4.7421
X4.3307Y-5.2441
X4.3701Y-5.315
X4.3819Y-5.4075
X4.3878Y-5.4587
X4.4488Y-3.1929
X4.4488Y-3.7618
X4.4488Y-4.3366
X4.4488Y-4.9213
X4.4567Y-5.4547
X4.4902Y-5.4921
X4.5177Y-5.4567
X4.5276Y-3.0512
X4.5276Y-3.189
X4.5276Y-3.622
X4.5276Y-3.7598
X4.5276Y-4.1929
X4.5276Y-4.3307
X4.5276Y-4.7736
X4.5276Y-4.9114
X4.5453Y-5.4921
X4.5728Y-5.4587
X4.6004Y-5.4921
X4.8622Y-3.7795
X4.8622Y-4.9311
X4.872Y-4.3602
X4.873Y-3.2077
X4.9114Y-4.9902
X5.0Y-3.563
X5.0Y-3.7795
X5.0039Y-3.002
X5.0059Y-4.1437
X5.0079Y-3.2185
X5.0492Y-4.2815
X7.6732Y-5.6713
X7.7165Y-5.6713
X7.8996Y-5.6299
X7.9232Y-5.4331
X7.9606Y-5.3248
X8.0492Y-5.624
X8.0906Y-5.626
X8.7697Y-5.4272
X8.7697Y-5.5768
X8.8681Y-5.2067
X8.8701Y-5.3543
X9.0157Y-3.7205
T3
X4.0157Y-2.1457
X4.0551Y-2.0669
X4.0551Y-2.2244
X4.1339Y-2.0472
X4.1339Y-2.2638
X4.2126Y-2.0669
X4.2126Y-2.2244
X4.252Y-2.1457
X2.0276Y-5.7283
X2.0669Y-5.6496
X2.0669Y-5.8071
X2.1457Y-5.6299
X2.1457Y-5.8465
X2.2244Y-5.6496
X2.2244Y-5.8071
X2.2638Y-5.7283
X9.5472Y-2.1457
X9.5866Y-2.0669
X9.5866Y-2.2244
X9.6654Y-2.0472
X9.6654Y-2.2638
X9.7441Y-2.0669
X9.7441Y-2.2244
X9.7835Y-2.1457
X9.5472Y-5.7283
X9.5866Y-5.6496
X9.5866Y-5.8071
X9.6654Y-5.6299
X9.6654Y-5.8465
X9.7441Y-5.6496
X9.7441Y-5.8071
X9.7835Y-5.7283
X4.0157Y-5.7283
X4.0551Y-5.6496
X4.0551Y-5.8071
X4.1339Y-5.6299
X4.1339Y-5.8465
X4.2126Y-5.6496
X4.2126Y-5.8071
X4.252Y-5.7283
X2.0276Y-2.1457
X2.0669Y-2.0669
X2.0669Y-2.2244
X2.1457Y-2.0472
X2.1457Y-2.2638
X2.2244Y-2.0669
X2.2244Y-2.2244
X2.2638Y-2.1457
T4
X2.5571Y-2.6874
X2.5571Y-3.2874
X2.7559Y-3.2874
X2.7571Y-2.6874
X3.3563Y-2.6874
X3.3563Y-3.2874
X3.4547Y-2.6874
X3.4547Y-3.2874
X3.5531Y-2.6874
T5
X4.4047Y-3.9846
X4.5047Y-3.9846
X4.8047Y-3.9846
X4.9047Y-3.9846
X5.0047Y-3.9846
X4.4047Y-2.8429
X4.5047Y-2.8429
X4.8047Y-2.8429
X4.9047Y-2.8429
X5.0047Y-2.8429
X4.4047Y-4.5654
X4.5047Y-4.5654
X4.8047Y-4.5654
X4.9047Y-4.5654
X5.0047Y-4.5654
X4.4047Y-3.4039
X4.5047Y-3.4039
X4.8047Y-3.4039
X4.9047Y-3.4039
X5.0047Y-3.4039
T6
X2.7756Y-4.7835
X2.8756Y-4.7835
X2.9756Y-4.7835
X3.0756Y-4.7835
X2.0433Y-4.2102
X2.0433Y-4.5102
X2.3449Y-4.2118
X2.3449Y-4.3118
X2.3449Y-4.4118
X2.3449Y-4.5118
X2.0433Y-3.8067
X2.0433Y-4.1067
X2.3449Y-3.8083
X2.3449Y-3.9083
X2.3449Y-4.0083
X2.3449Y-4.1083
X2.9921Y-2.2146
X3.189Y-2.2146
X2.0591Y-4.7835
X2.1591Y-4.7835
X2.2591Y-4.7835
X2.3591Y-4.7835
X2.4591Y-4.7835
X2.5591Y-4.7835
X2.5492Y-2.2146
X2.7461Y-2.2146
X3.435Y-2.2146
X3.6319Y-2.2146
T7
X7.4016Y-2.2638
X7.9921Y-2.2638
X6.1024Y-5.5315
X7.185Y-5.5315
X8.5827Y-3.5728
X9.6654Y-3.5728
X4.8031Y-2.3425
X5.8858Y-2.3425
X8.1594Y-2.2638
X8.75Y-2.2638
X4.813Y-5.5315
X5.8957Y-5.5315
X6.1024Y-2.3425
X7.185Y-2.3425
X2.1801Y-2.602
X2.1801Y-3.002
X2.1801Y-3.402
X3.9813Y-2.602
X3.9813Y-3.402
T8
X5.4606Y-3.3071
X5.4606Y-3.811
X5.4606Y-4.063
X5.4606Y-4.5669
X5.5866Y-3.3071
X5.5866Y-3.811
X5.5866Y-4.063
X5.5866Y-4.5669
X5.8386Y-4.5669
X5.9646Y-3.5591
X5.9646Y-3.685
X5.9646Y-3.811
X5.9646Y-4.063
X6.2165Y-4.5669
X6.3425Y-3.3071
X6.3425Y-3.811
X6.3425Y-3.937
X6.4685Y-3.3071
X6.4685Y-3.811
X6.4685Y-3.937
X6.4685Y-4.4409
X6.4685Y-4.5669
X9.0945Y-2.2441
X9.0945Y-3.1299
T9
X9.4882Y-2.6772
X9.4882Y-2.874
X9.4882Y-3.0709
T10
X2.1555Y-5.1575
T11
X7.4902Y-2.6551
X7.4902Y-3.0929
X7.4902Y-5.0173
X7.4902Y-5.2362
X7.4902Y-5.4551
X7.4902Y-3.4425
X7.4902Y-3.6614
X7.4902Y-3.8803
X7.4902Y-4.2299
X7.4902Y-4.6677
T12
X2.0555Y-5.0575
X2.0555Y-5.2575
X2.2555Y-5.0575
X2.2555Y-5.2575
T13
X7.0177Y-2.9919
X7.0177Y-3.2679
X7.2146Y-2.9919
X7.2146Y-3.2679
X7.0177Y-4.6061
X7.0177Y-4.8821
X7.2146Y-4.6061
X7.2146Y-4.8821
T14
X8.6024Y-4.8917
X9.3898Y-4.8996
T15
X4.1339Y-2.1457
X2.1457Y-5.7283
X9.6654Y-2.1457
X9.6654Y-5.7283
X4.1339Y-5.7283
X2.1457Y-2.1457
T16
X9.0945Y-2.687
T17
X5.4114Y-3.1004
X5.4114Y-4.7736
X6.5177Y-3.1004
X6.5177Y-4.7736
T18
X8.2776Y-5.2362
X8.2776Y-3.6614
X8.2776Y-4.4488
X8.2776Y-2.874
T19
X5.9646Y-2.8937
X5.9646Y-4.9803
T6
G00X6.8996Y-3.6811
M15
G01X6.8996Y-4.1929
M16
G05
G00X7.0768Y-3.6811
M15
G01X7.0768Y-4.1929
M16
G05
T0
M30
