G04 #@! TF.GenerationSoftware,KiCad,Pcbnew,5.0.2-bee76a0~70~ubuntu18.04.1*
G04 #@! TF.CreationDate,2020-06-05T13:56:22-07:00*
G04 #@! TF.ProjectId,secondary_mmc,7365636f-6e64-4617-9279-5f6d6d632e6b,rev?*
G04 #@! TF.SameCoordinates,Original*
G04 #@! TF.FileFunction,Soldermask,Bot*
G04 #@! TF.FilePolarity,Negative*
%FSLAX46Y46*%
G04 Gerber Fmt 4.6, Leading zero omitted, Abs format (unit mm)*
G04 Created by KiCad (PCBNEW 5.0.2-bee76a0~70~ubuntu18.04.1) date Fri 05 Jun 2020 01:56:22 PM PDT*
%MOMM*%
%LPD*%
G01*
G04 APERTURE LIST*
%ADD10C,0.150000*%
%ADD11C,0.100000*%
G04 APERTURE END LIST*
D10*
G36*
X253500000Y-30700000D02*
X256900000Y-30700000D01*
X256900000Y-34300000D01*
X253500000Y-34300000D01*
X253500000Y-30700000D01*
G37*
X253500000Y-30700000D02*
X256900000Y-30700000D01*
X256900000Y-34300000D01*
X253500000Y-34300000D01*
X253500000Y-30700000D01*
G36*
X247700000Y-30700000D02*
X251100000Y-30700000D01*
X251100000Y-34300000D01*
X247700000Y-34300000D01*
X247700000Y-30700000D01*
G37*
X247700000Y-30700000D02*
X251100000Y-30700000D01*
X251100000Y-34300000D01*
X247700000Y-34300000D01*
X247700000Y-30700000D01*
G36*
X241900000Y-30700000D02*
X245300000Y-30700000D01*
X245300000Y-34300000D01*
X241900000Y-34300000D01*
X241900000Y-30700000D01*
G37*
X241900000Y-30700000D02*
X245300000Y-30700000D01*
X245300000Y-34300000D01*
X241900000Y-34300000D01*
X241900000Y-30700000D01*
G36*
X236100000Y-30700000D02*
X239500000Y-30700000D01*
X239500000Y-34300000D01*
X236100000Y-34300000D01*
X236100000Y-30700000D01*
G37*
X236100000Y-30700000D02*
X239500000Y-30700000D01*
X239500000Y-34300000D01*
X236100000Y-34300000D01*
X236100000Y-30700000D01*
G36*
X230300000Y-30700000D02*
X233700000Y-30700000D01*
X233700000Y-34300000D01*
X230300000Y-34300000D01*
X230300000Y-30700000D01*
G37*
X230300000Y-30700000D02*
X233700000Y-30700000D01*
X233700000Y-34300000D01*
X230300000Y-34300000D01*
X230300000Y-30700000D01*
G36*
X224500000Y-30700000D02*
X227900000Y-30700000D01*
X227900000Y-34300000D01*
X224500000Y-34300000D01*
X224500000Y-30700000D01*
G37*
X224500000Y-30700000D02*
X227900000Y-30700000D01*
X227900000Y-34300000D01*
X224500000Y-34300000D01*
X224500000Y-30700000D01*
G36*
X218700000Y-30700000D02*
X222100000Y-30700000D01*
X222100000Y-34300000D01*
X218700000Y-34300000D01*
X218700000Y-30700000D01*
G37*
X218700000Y-30700000D02*
X222100000Y-30700000D01*
X222100000Y-34300000D01*
X218700000Y-34300000D01*
X218700000Y-30700000D01*
G36*
X212900000Y-30700000D02*
X216300000Y-30700000D01*
X216300000Y-34300000D01*
X212900000Y-34300000D01*
X212900000Y-30700000D01*
G37*
X212900000Y-30700000D02*
X216300000Y-30700000D01*
X216300000Y-34300000D01*
X212900000Y-34300000D01*
X212900000Y-30700000D01*
G36*
X207100000Y-30700000D02*
X210500000Y-30700000D01*
X210500000Y-34300000D01*
X207100000Y-34300000D01*
X207100000Y-30700000D01*
G37*
X207100000Y-30700000D02*
X210500000Y-30700000D01*
X210500000Y-34300000D01*
X207100000Y-34300000D01*
X207100000Y-30700000D01*
G36*
X201300000Y-30700000D02*
X204700000Y-30700000D01*
X204700000Y-34300000D01*
X201300000Y-34300000D01*
X201300000Y-30700000D01*
G37*
X201300000Y-30700000D02*
X204700000Y-30700000D01*
X204700000Y-34300000D01*
X201300000Y-34300000D01*
X201300000Y-30700000D01*
G36*
X195500000Y-30700000D02*
X198900000Y-30700000D01*
X198900000Y-34300000D01*
X195500000Y-34300000D01*
X195500000Y-30700000D01*
G37*
X195500000Y-30700000D02*
X198900000Y-30700000D01*
X198900000Y-34300000D01*
X195500000Y-34300000D01*
X195500000Y-30700000D01*
G36*
X189700000Y-30700000D02*
X193100000Y-30700000D01*
X193100000Y-34300000D01*
X189700000Y-34300000D01*
X189700000Y-30700000D01*
G37*
X189700000Y-30700000D02*
X193100000Y-30700000D01*
X193100000Y-34300000D01*
X189700000Y-34300000D01*
X189700000Y-30700000D01*
G36*
X183900000Y-30700000D02*
X187300000Y-30700000D01*
X187300000Y-34300000D01*
X183900000Y-34300000D01*
X183900000Y-30700000D01*
G37*
X183900000Y-30700000D02*
X187300000Y-30700000D01*
X187300000Y-34300000D01*
X183900000Y-34300000D01*
X183900000Y-30700000D01*
G36*
X178100000Y-30700000D02*
X181500000Y-30700000D01*
X181500000Y-34300000D01*
X178100000Y-34300000D01*
X178100000Y-30700000D01*
G37*
X178100000Y-30700000D02*
X181500000Y-30700000D01*
X181500000Y-34300000D01*
X178100000Y-34300000D01*
X178100000Y-30700000D01*
G36*
X172300000Y-30700000D02*
X175700000Y-30700000D01*
X175700000Y-34300000D01*
X172300000Y-34300000D01*
X172300000Y-30700000D01*
G37*
X172300000Y-30700000D02*
X175700000Y-30700000D01*
X175700000Y-34300000D01*
X172300000Y-34300000D01*
X172300000Y-30700000D01*
G36*
X166500000Y-30700000D02*
X169900000Y-30700000D01*
X169900000Y-34300000D01*
X166500000Y-34300000D01*
X166500000Y-30700000D01*
G37*
X166500000Y-30700000D02*
X169900000Y-30700000D01*
X169900000Y-34300000D01*
X166500000Y-34300000D01*
X166500000Y-30700000D01*
G36*
X160700000Y-30700000D02*
X164100000Y-30700000D01*
X164100000Y-34300000D01*
X160700000Y-34300000D01*
X160700000Y-30700000D01*
G37*
X160700000Y-30700000D02*
X164100000Y-30700000D01*
X164100000Y-34300000D01*
X160700000Y-34300000D01*
X160700000Y-30700000D01*
G36*
X154900000Y-30700000D02*
X158300000Y-30700000D01*
X158300000Y-34300000D01*
X154900000Y-34300000D01*
X154900000Y-30700000D01*
G37*
X154900000Y-30700000D02*
X158300000Y-30700000D01*
X158300000Y-34300000D01*
X154900000Y-34300000D01*
X154900000Y-30700000D01*
G36*
X149100000Y-30700000D02*
X152500000Y-30700000D01*
X152500000Y-34300000D01*
X149100000Y-34300000D01*
X149100000Y-30700000D01*
G37*
X149100000Y-30700000D02*
X152500000Y-30700000D01*
X152500000Y-34300000D01*
X149100000Y-34300000D01*
X149100000Y-30700000D01*
G36*
X143300000Y-30700000D02*
X146700000Y-30700000D01*
X146700000Y-34300000D01*
X143300000Y-34300000D01*
X143300000Y-30700000D01*
G37*
X143300000Y-30700000D02*
X146700000Y-30700000D01*
X146700000Y-34300000D01*
X143300000Y-34300000D01*
X143300000Y-30700000D01*
G36*
X137500000Y-30700000D02*
X140900000Y-30700000D01*
X140900000Y-34300000D01*
X137500000Y-34300000D01*
X137500000Y-30700000D01*
G37*
X137500000Y-30700000D02*
X140900000Y-30700000D01*
X140900000Y-34300000D01*
X137500000Y-34300000D01*
X137500000Y-30700000D01*
G36*
X131700000Y-30700000D02*
X135100000Y-30700000D01*
X135100000Y-34300000D01*
X131700000Y-34300000D01*
X131700000Y-30700000D01*
G37*
X131700000Y-30700000D02*
X135100000Y-30700000D01*
X135100000Y-34300000D01*
X131700000Y-34300000D01*
X131700000Y-30700000D01*
G36*
X125900000Y-30700000D02*
X129300000Y-30700000D01*
X129300000Y-34300000D01*
X125900000Y-34300000D01*
X125900000Y-30700000D01*
G37*
X125900000Y-30700000D02*
X129300000Y-30700000D01*
X129300000Y-34300000D01*
X125900000Y-34300000D01*
X125900000Y-30700000D01*
G36*
X120100000Y-30700000D02*
X123500000Y-30700000D01*
X123500000Y-34300000D01*
X120100000Y-34300000D01*
X120100000Y-30700000D01*
G37*
X120100000Y-30700000D02*
X123500000Y-30700000D01*
X123500000Y-34300000D01*
X120100000Y-34300000D01*
X120100000Y-30700000D01*
G36*
X114300000Y-30700000D02*
X117700000Y-30700000D01*
X117700000Y-34300000D01*
X114300000Y-34300000D01*
X114300000Y-30700000D01*
G37*
X114300000Y-30700000D02*
X117700000Y-30700000D01*
X117700000Y-34300000D01*
X114300000Y-34300000D01*
X114300000Y-30700000D01*
G36*
X108500000Y-30700000D02*
X111900000Y-30700000D01*
X111900000Y-34300000D01*
X108500000Y-34300000D01*
X108500000Y-30700000D01*
G37*
X108500000Y-30700000D02*
X111900000Y-30700000D01*
X111900000Y-34300000D01*
X108500000Y-34300000D01*
X108500000Y-30700000D01*
G36*
X102700000Y-30700000D02*
X106100000Y-30700000D01*
X106100000Y-34300000D01*
X102700000Y-34300000D01*
X102700000Y-30700000D01*
G37*
X102700000Y-30700000D02*
X106100000Y-30700000D01*
X106100000Y-34300000D01*
X102700000Y-34300000D01*
X102700000Y-30700000D01*
G36*
X96900000Y-30700000D02*
X100300000Y-30700000D01*
X100300000Y-34300000D01*
X96900000Y-34300000D01*
X96900000Y-30700000D01*
G37*
X96900000Y-30700000D02*
X100300000Y-30700000D01*
X100300000Y-34300000D01*
X96900000Y-34300000D01*
X96900000Y-30700000D01*
G36*
X91100000Y-30700000D02*
X94500000Y-30700000D01*
X94500000Y-34300000D01*
X91100000Y-34300000D01*
X91100000Y-30700000D01*
G37*
X91100000Y-30700000D02*
X94500000Y-30700000D01*
X94500000Y-34300000D01*
X91100000Y-34300000D01*
X91100000Y-30700000D01*
G36*
X85300000Y-30700000D02*
X88700000Y-30700000D01*
X88700000Y-34300000D01*
X85300000Y-34300000D01*
X85300000Y-30700000D01*
G37*
X85300000Y-30700000D02*
X88700000Y-30700000D01*
X88700000Y-34300000D01*
X85300000Y-34300000D01*
X85300000Y-30700000D01*
G36*
X79500000Y-30700000D02*
X82900000Y-30700000D01*
X82900000Y-34300000D01*
X79500000Y-34300000D01*
X79500000Y-30700000D01*
G37*
X79500000Y-30700000D02*
X82900000Y-30700000D01*
X82900000Y-34300000D01*
X79500000Y-34300000D01*
X79500000Y-30700000D01*
G36*
X73700000Y-30700000D02*
X77100000Y-30700000D01*
X77100000Y-34300000D01*
X73700000Y-34300000D01*
X73700000Y-30700000D01*
G37*
X73700000Y-30700000D02*
X77100000Y-30700000D01*
X77100000Y-34300000D01*
X73700000Y-34300000D01*
X73700000Y-30700000D01*
G36*
X67900000Y-30700000D02*
X71300000Y-30700000D01*
X71300000Y-34300000D01*
X67900000Y-34300000D01*
X67900000Y-30700000D01*
G37*
X67900000Y-30700000D02*
X71300000Y-30700000D01*
X71300000Y-34300000D01*
X67900000Y-34300000D01*
X67900000Y-30700000D01*
G36*
X62100000Y-30700000D02*
X65500000Y-30700000D01*
X65500000Y-34300000D01*
X62100000Y-34300000D01*
X62100000Y-30700000D01*
G37*
X62100000Y-30700000D02*
X65500000Y-30700000D01*
X65500000Y-34300000D01*
X62100000Y-34300000D01*
X62100000Y-30700000D01*
G36*
X56300000Y-30700000D02*
X59700000Y-30700000D01*
X59700000Y-34300000D01*
X56300000Y-34300000D01*
X56300000Y-30700000D01*
G37*
X56300000Y-30700000D02*
X59700000Y-30700000D01*
X59700000Y-34300000D01*
X56300000Y-34300000D01*
X56300000Y-30700000D01*
G36*
X50500000Y-30700000D02*
X53900000Y-30700000D01*
X53900000Y-34300000D01*
X50500000Y-34300000D01*
X50500000Y-30700000D01*
G37*
X50500000Y-30700000D02*
X53900000Y-30700000D01*
X53900000Y-34300000D01*
X50500000Y-34300000D01*
X50500000Y-30700000D01*
G36*
X44700000Y-30700000D02*
X48100000Y-30700000D01*
X48100000Y-34300000D01*
X44700000Y-34300000D01*
X44700000Y-30700000D01*
G37*
X44700000Y-30700000D02*
X48100000Y-30700000D01*
X48100000Y-34300000D01*
X44700000Y-34300000D01*
X44700000Y-30700000D01*
G36*
X38900000Y-30700000D02*
X42300000Y-30700000D01*
X42300000Y-34300000D01*
X38900000Y-34300000D01*
X38900000Y-30700000D01*
G37*
X38900000Y-30700000D02*
X42300000Y-30700000D01*
X42300000Y-34300000D01*
X38900000Y-34300000D01*
X38900000Y-30700000D01*
G36*
X33100000Y-30700000D02*
X36500000Y-30700000D01*
X36500000Y-34300000D01*
X33100000Y-34300000D01*
X33100000Y-30700000D01*
G37*
X33100000Y-30700000D02*
X36500000Y-30700000D01*
X36500000Y-34300000D01*
X33100000Y-34300000D01*
X33100000Y-30700000D01*
G36*
X27300000Y-30700000D02*
X30700000Y-30700000D01*
X30700000Y-34300000D01*
X27300000Y-34300000D01*
X27300000Y-30700000D01*
G37*
X27300000Y-30700000D02*
X30700000Y-30700000D01*
X30700000Y-34300000D01*
X27300000Y-34300000D01*
X27300000Y-30700000D01*
G36*
X259200000Y-28500000D02*
X263200000Y-28500000D01*
X263200000Y-36500000D01*
X259200000Y-36500000D01*
X259200000Y-28500000D01*
G37*
X259200000Y-28500000D02*
X263200000Y-28500000D01*
X263200000Y-36500000D01*
X259200000Y-36500000D01*
X259200000Y-28500000D01*
G36*
X21000000Y-28500000D02*
X25000000Y-28500000D01*
X25000000Y-36500000D01*
X21000000Y-36500000D01*
X21000000Y-28500000D01*
G37*
X21000000Y-28500000D02*
X25000000Y-28500000D01*
X25000000Y-36500000D01*
X21000000Y-36500000D01*
X21000000Y-28500000D01*
D11*
G36*
X261495872Y-40365330D02*
X261495874Y-40365331D01*
X261495875Y-40365331D01*
X261556284Y-40390353D01*
X261805252Y-40493479D01*
X262083687Y-40679523D01*
X262320477Y-40916313D01*
X262506521Y-41194748D01*
X262634670Y-41504128D01*
X262700000Y-41832565D01*
X262700000Y-42167435D01*
X262634670Y-42495872D01*
X262506521Y-42805252D01*
X262320477Y-43083687D01*
X262083687Y-43320477D01*
X261805252Y-43506521D01*
X261556284Y-43609647D01*
X261495875Y-43634669D01*
X261495874Y-43634669D01*
X261495872Y-43634670D01*
X261167435Y-43700000D01*
X260832565Y-43700000D01*
X260504128Y-43634670D01*
X260504126Y-43634669D01*
X260504125Y-43634669D01*
X260443716Y-43609647D01*
X260194748Y-43506521D01*
X259916313Y-43320477D01*
X259679523Y-43083687D01*
X259493479Y-42805252D01*
X259365330Y-42495872D01*
X259300000Y-42167435D01*
X259300000Y-41832565D01*
X259365330Y-41504128D01*
X259493479Y-41194748D01*
X259679523Y-40916313D01*
X259916313Y-40679523D01*
X260194748Y-40493479D01*
X260443716Y-40390353D01*
X260504125Y-40365331D01*
X260504126Y-40365331D01*
X260504128Y-40365330D01*
X260832565Y-40300000D01*
X261167435Y-40300000D01*
X261495872Y-40365330D01*
X261495872Y-40365330D01*
G37*
G36*
X23495872Y-40365330D02*
X23495874Y-40365331D01*
X23495875Y-40365331D01*
X23556284Y-40390353D01*
X23805252Y-40493479D01*
X24083687Y-40679523D01*
X24320477Y-40916313D01*
X24506521Y-41194748D01*
X24634670Y-41504128D01*
X24700000Y-41832565D01*
X24700000Y-42167435D01*
X24634670Y-42495872D01*
X24506521Y-42805252D01*
X24320477Y-43083687D01*
X24083687Y-43320477D01*
X23805252Y-43506521D01*
X23556284Y-43609647D01*
X23495875Y-43634669D01*
X23495874Y-43634669D01*
X23495872Y-43634670D01*
X23167435Y-43700000D01*
X22832565Y-43700000D01*
X22504128Y-43634670D01*
X22504126Y-43634669D01*
X22504125Y-43634669D01*
X22443716Y-43609647D01*
X22194748Y-43506521D01*
X21916313Y-43320477D01*
X21679523Y-43083687D01*
X21493479Y-42805252D01*
X21365330Y-42495872D01*
X21300000Y-42167435D01*
X21300000Y-41832565D01*
X21365330Y-41504128D01*
X21493479Y-41194748D01*
X21679523Y-40916313D01*
X21916313Y-40679523D01*
X22194748Y-40493479D01*
X22443716Y-40390353D01*
X22504125Y-40365331D01*
X22504126Y-40365331D01*
X22504128Y-40365330D01*
X22832565Y-40300000D01*
X23167435Y-40300000D01*
X23495872Y-40365330D01*
X23495872Y-40365330D01*
G37*
G36*
X163975507Y-34029637D02*
X164016063Y-34041940D01*
X164053439Y-34061918D01*
X164086198Y-34088802D01*
X164113082Y-34121561D01*
X164133060Y-34158937D01*
X164145363Y-34199493D01*
X164150000Y-34246574D01*
X164150000Y-35028426D01*
X164145363Y-35075507D01*
X164133060Y-35116063D01*
X164113082Y-35153439D01*
X164086198Y-35186198D01*
X164053439Y-35213082D01*
X164016063Y-35233060D01*
X163975507Y-35245363D01*
X163928426Y-35250000D01*
X160871574Y-35250000D01*
X160824493Y-35245363D01*
X160783937Y-35233060D01*
X160746561Y-35213082D01*
X160713802Y-35186198D01*
X160686918Y-35153439D01*
X160666940Y-35116063D01*
X160654637Y-35075507D01*
X160650000Y-35028426D01*
X160650000Y-34246574D01*
X160654637Y-34199493D01*
X160666940Y-34158937D01*
X160686918Y-34121561D01*
X160713802Y-34088802D01*
X160746561Y-34061918D01*
X160783937Y-34041940D01*
X160824493Y-34029637D01*
X160871574Y-34025000D01*
X163928426Y-34025000D01*
X163975507Y-34029637D01*
X163975507Y-34029637D01*
G37*
G36*
X140775507Y-34029637D02*
X140816063Y-34041940D01*
X140853439Y-34061918D01*
X140886198Y-34088802D01*
X140913082Y-34121561D01*
X140933060Y-34158937D01*
X140945363Y-34199493D01*
X140950000Y-34246574D01*
X140950000Y-35028426D01*
X140945363Y-35075507D01*
X140933060Y-35116063D01*
X140913082Y-35153439D01*
X140886198Y-35186198D01*
X140853439Y-35213082D01*
X140816063Y-35233060D01*
X140775507Y-35245363D01*
X140728426Y-35250000D01*
X137671574Y-35250000D01*
X137624493Y-35245363D01*
X137583937Y-35233060D01*
X137546561Y-35213082D01*
X137513802Y-35186198D01*
X137486918Y-35153439D01*
X137466940Y-35116063D01*
X137454637Y-35075507D01*
X137450000Y-35028426D01*
X137450000Y-34246574D01*
X137454637Y-34199493D01*
X137466940Y-34158937D01*
X137486918Y-34121561D01*
X137513802Y-34088802D01*
X137546561Y-34061918D01*
X137583937Y-34041940D01*
X137624493Y-34029637D01*
X137671574Y-34025000D01*
X140728426Y-34025000D01*
X140775507Y-34029637D01*
X140775507Y-34029637D01*
G37*
G36*
X47975507Y-34029637D02*
X48016063Y-34041940D01*
X48053439Y-34061918D01*
X48086198Y-34088802D01*
X48113082Y-34121561D01*
X48133060Y-34158937D01*
X48145363Y-34199493D01*
X48150000Y-34246574D01*
X48150000Y-35028426D01*
X48145363Y-35075507D01*
X48133060Y-35116063D01*
X48113082Y-35153439D01*
X48086198Y-35186198D01*
X48053439Y-35213082D01*
X48016063Y-35233060D01*
X47975507Y-35245363D01*
X47928426Y-35250000D01*
X44871574Y-35250000D01*
X44824493Y-35245363D01*
X44783937Y-35233060D01*
X44746561Y-35213082D01*
X44713802Y-35186198D01*
X44686918Y-35153439D01*
X44666940Y-35116063D01*
X44654637Y-35075507D01*
X44650000Y-35028426D01*
X44650000Y-34246574D01*
X44654637Y-34199493D01*
X44666940Y-34158937D01*
X44686918Y-34121561D01*
X44713802Y-34088802D01*
X44746561Y-34061918D01*
X44783937Y-34041940D01*
X44824493Y-34029637D01*
X44871574Y-34025000D01*
X47928426Y-34025000D01*
X47975507Y-34029637D01*
X47975507Y-34029637D01*
G37*
G36*
X59575507Y-34029637D02*
X59616063Y-34041940D01*
X59653439Y-34061918D01*
X59686198Y-34088802D01*
X59713082Y-34121561D01*
X59733060Y-34158937D01*
X59745363Y-34199493D01*
X59750000Y-34246574D01*
X59750000Y-35028426D01*
X59745363Y-35075507D01*
X59733060Y-35116063D01*
X59713082Y-35153439D01*
X59686198Y-35186198D01*
X59653439Y-35213082D01*
X59616063Y-35233060D01*
X59575507Y-35245363D01*
X59528426Y-35250000D01*
X56471574Y-35250000D01*
X56424493Y-35245363D01*
X56383937Y-35233060D01*
X56346561Y-35213082D01*
X56313802Y-35186198D01*
X56286918Y-35153439D01*
X56266940Y-35116063D01*
X56254637Y-35075507D01*
X56250000Y-35028426D01*
X56250000Y-34246574D01*
X56254637Y-34199493D01*
X56266940Y-34158937D01*
X56286918Y-34121561D01*
X56313802Y-34088802D01*
X56346561Y-34061918D01*
X56383937Y-34041940D01*
X56424493Y-34029637D01*
X56471574Y-34025000D01*
X59528426Y-34025000D01*
X59575507Y-34029637D01*
X59575507Y-34029637D01*
G37*
G36*
X71175507Y-34029637D02*
X71216063Y-34041940D01*
X71253439Y-34061918D01*
X71286198Y-34088802D01*
X71313082Y-34121561D01*
X71333060Y-34158937D01*
X71345363Y-34199493D01*
X71350000Y-34246574D01*
X71350000Y-35028426D01*
X71345363Y-35075507D01*
X71333060Y-35116063D01*
X71313082Y-35153439D01*
X71286198Y-35186198D01*
X71253439Y-35213082D01*
X71216063Y-35233060D01*
X71175507Y-35245363D01*
X71128426Y-35250000D01*
X68071574Y-35250000D01*
X68024493Y-35245363D01*
X67983937Y-35233060D01*
X67946561Y-35213082D01*
X67913802Y-35186198D01*
X67886918Y-35153439D01*
X67866940Y-35116063D01*
X67854637Y-35075507D01*
X67850000Y-35028426D01*
X67850000Y-34246574D01*
X67854637Y-34199493D01*
X67866940Y-34158937D01*
X67886918Y-34121561D01*
X67913802Y-34088802D01*
X67946561Y-34061918D01*
X67983937Y-34041940D01*
X68024493Y-34029637D01*
X68071574Y-34025000D01*
X71128426Y-34025000D01*
X71175507Y-34029637D01*
X71175507Y-34029637D01*
G37*
G36*
X82775507Y-34029637D02*
X82816063Y-34041940D01*
X82853439Y-34061918D01*
X82886198Y-34088802D01*
X82913082Y-34121561D01*
X82933060Y-34158937D01*
X82945363Y-34199493D01*
X82950000Y-34246574D01*
X82950000Y-35028426D01*
X82945363Y-35075507D01*
X82933060Y-35116063D01*
X82913082Y-35153439D01*
X82886198Y-35186198D01*
X82853439Y-35213082D01*
X82816063Y-35233060D01*
X82775507Y-35245363D01*
X82728426Y-35250000D01*
X79671574Y-35250000D01*
X79624493Y-35245363D01*
X79583937Y-35233060D01*
X79546561Y-35213082D01*
X79513802Y-35186198D01*
X79486918Y-35153439D01*
X79466940Y-35116063D01*
X79454637Y-35075507D01*
X79450000Y-35028426D01*
X79450000Y-34246574D01*
X79454637Y-34199493D01*
X79466940Y-34158937D01*
X79486918Y-34121561D01*
X79513802Y-34088802D01*
X79546561Y-34061918D01*
X79583937Y-34041940D01*
X79624493Y-34029637D01*
X79671574Y-34025000D01*
X82728426Y-34025000D01*
X82775507Y-34029637D01*
X82775507Y-34029637D01*
G37*
G36*
X94375507Y-34029637D02*
X94416063Y-34041940D01*
X94453439Y-34061918D01*
X94486198Y-34088802D01*
X94513082Y-34121561D01*
X94533060Y-34158937D01*
X94545363Y-34199493D01*
X94550000Y-34246574D01*
X94550000Y-35028426D01*
X94545363Y-35075507D01*
X94533060Y-35116063D01*
X94513082Y-35153439D01*
X94486198Y-35186198D01*
X94453439Y-35213082D01*
X94416063Y-35233060D01*
X94375507Y-35245363D01*
X94328426Y-35250000D01*
X91271574Y-35250000D01*
X91224493Y-35245363D01*
X91183937Y-35233060D01*
X91146561Y-35213082D01*
X91113802Y-35186198D01*
X91086918Y-35153439D01*
X91066940Y-35116063D01*
X91054637Y-35075507D01*
X91050000Y-35028426D01*
X91050000Y-34246574D01*
X91054637Y-34199493D01*
X91066940Y-34158937D01*
X91086918Y-34121561D01*
X91113802Y-34088802D01*
X91146561Y-34061918D01*
X91183937Y-34041940D01*
X91224493Y-34029637D01*
X91271574Y-34025000D01*
X94328426Y-34025000D01*
X94375507Y-34029637D01*
X94375507Y-34029637D01*
G37*
G36*
X105975507Y-34029637D02*
X106016063Y-34041940D01*
X106053439Y-34061918D01*
X106086198Y-34088802D01*
X106113082Y-34121561D01*
X106133060Y-34158937D01*
X106145363Y-34199493D01*
X106150000Y-34246574D01*
X106150000Y-35028426D01*
X106145363Y-35075507D01*
X106133060Y-35116063D01*
X106113082Y-35153439D01*
X106086198Y-35186198D01*
X106053439Y-35213082D01*
X106016063Y-35233060D01*
X105975507Y-35245363D01*
X105928426Y-35250000D01*
X102871574Y-35250000D01*
X102824493Y-35245363D01*
X102783937Y-35233060D01*
X102746561Y-35213082D01*
X102713802Y-35186198D01*
X102686918Y-35153439D01*
X102666940Y-35116063D01*
X102654637Y-35075507D01*
X102650000Y-35028426D01*
X102650000Y-34246574D01*
X102654637Y-34199493D01*
X102666940Y-34158937D01*
X102686918Y-34121561D01*
X102713802Y-34088802D01*
X102746561Y-34061918D01*
X102783937Y-34041940D01*
X102824493Y-34029637D01*
X102871574Y-34025000D01*
X105928426Y-34025000D01*
X105975507Y-34029637D01*
X105975507Y-34029637D01*
G37*
G36*
X117575507Y-34029637D02*
X117616063Y-34041940D01*
X117653439Y-34061918D01*
X117686198Y-34088802D01*
X117713082Y-34121561D01*
X117733060Y-34158937D01*
X117745363Y-34199493D01*
X117750000Y-34246574D01*
X117750000Y-35028426D01*
X117745363Y-35075507D01*
X117733060Y-35116063D01*
X117713082Y-35153439D01*
X117686198Y-35186198D01*
X117653439Y-35213082D01*
X117616063Y-35233060D01*
X117575507Y-35245363D01*
X117528426Y-35250000D01*
X114471574Y-35250000D01*
X114424493Y-35245363D01*
X114383937Y-35233060D01*
X114346561Y-35213082D01*
X114313802Y-35186198D01*
X114286918Y-35153439D01*
X114266940Y-35116063D01*
X114254637Y-35075507D01*
X114250000Y-35028426D01*
X114250000Y-34246574D01*
X114254637Y-34199493D01*
X114266940Y-34158937D01*
X114286918Y-34121561D01*
X114313802Y-34088802D01*
X114346561Y-34061918D01*
X114383937Y-34041940D01*
X114424493Y-34029637D01*
X114471574Y-34025000D01*
X117528426Y-34025000D01*
X117575507Y-34029637D01*
X117575507Y-34029637D01*
G37*
G36*
X129175507Y-34029637D02*
X129216063Y-34041940D01*
X129253439Y-34061918D01*
X129286198Y-34088802D01*
X129313082Y-34121561D01*
X129333060Y-34158937D01*
X129345363Y-34199493D01*
X129350000Y-34246574D01*
X129350000Y-35028426D01*
X129345363Y-35075507D01*
X129333060Y-35116063D01*
X129313082Y-35153439D01*
X129286198Y-35186198D01*
X129253439Y-35213082D01*
X129216063Y-35233060D01*
X129175507Y-35245363D01*
X129128426Y-35250000D01*
X126071574Y-35250000D01*
X126024493Y-35245363D01*
X125983937Y-35233060D01*
X125946561Y-35213082D01*
X125913802Y-35186198D01*
X125886918Y-35153439D01*
X125866940Y-35116063D01*
X125854637Y-35075507D01*
X125850000Y-35028426D01*
X125850000Y-34246574D01*
X125854637Y-34199493D01*
X125866940Y-34158937D01*
X125886918Y-34121561D01*
X125913802Y-34088802D01*
X125946561Y-34061918D01*
X125983937Y-34041940D01*
X126024493Y-34029637D01*
X126071574Y-34025000D01*
X129128426Y-34025000D01*
X129175507Y-34029637D01*
X129175507Y-34029637D01*
G37*
G36*
X152375507Y-34029637D02*
X152416063Y-34041940D01*
X152453439Y-34061918D01*
X152486198Y-34088802D01*
X152513082Y-34121561D01*
X152533060Y-34158937D01*
X152545363Y-34199493D01*
X152550000Y-34246574D01*
X152550000Y-35028426D01*
X152545363Y-35075507D01*
X152533060Y-35116063D01*
X152513082Y-35153439D01*
X152486198Y-35186198D01*
X152453439Y-35213082D01*
X152416063Y-35233060D01*
X152375507Y-35245363D01*
X152328426Y-35250000D01*
X149271574Y-35250000D01*
X149224493Y-35245363D01*
X149183937Y-35233060D01*
X149146561Y-35213082D01*
X149113802Y-35186198D01*
X149086918Y-35153439D01*
X149066940Y-35116063D01*
X149054637Y-35075507D01*
X149050000Y-35028426D01*
X149050000Y-34246574D01*
X149054637Y-34199493D01*
X149066940Y-34158937D01*
X149086918Y-34121561D01*
X149113802Y-34088802D01*
X149146561Y-34061918D01*
X149183937Y-34041940D01*
X149224493Y-34029637D01*
X149271574Y-34025000D01*
X152328426Y-34025000D01*
X152375507Y-34029637D01*
X152375507Y-34029637D01*
G37*
G36*
X175575507Y-34029637D02*
X175616063Y-34041940D01*
X175653439Y-34061918D01*
X175686198Y-34088802D01*
X175713082Y-34121561D01*
X175733060Y-34158937D01*
X175745363Y-34199493D01*
X175750000Y-34246574D01*
X175750000Y-35028426D01*
X175745363Y-35075507D01*
X175733060Y-35116063D01*
X175713082Y-35153439D01*
X175686198Y-35186198D01*
X175653439Y-35213082D01*
X175616063Y-35233060D01*
X175575507Y-35245363D01*
X175528426Y-35250000D01*
X172471574Y-35250000D01*
X172424493Y-35245363D01*
X172383937Y-35233060D01*
X172346561Y-35213082D01*
X172313802Y-35186198D01*
X172286918Y-35153439D01*
X172266940Y-35116063D01*
X172254637Y-35075507D01*
X172250000Y-35028426D01*
X172250000Y-34246574D01*
X172254637Y-34199493D01*
X172266940Y-34158937D01*
X172286918Y-34121561D01*
X172313802Y-34088802D01*
X172346561Y-34061918D01*
X172383937Y-34041940D01*
X172424493Y-34029637D01*
X172471574Y-34025000D01*
X175528426Y-34025000D01*
X175575507Y-34029637D01*
X175575507Y-34029637D01*
G37*
G36*
X187175507Y-34029637D02*
X187216063Y-34041940D01*
X187253439Y-34061918D01*
X187286198Y-34088802D01*
X187313082Y-34121561D01*
X187333060Y-34158937D01*
X187345363Y-34199493D01*
X187350000Y-34246574D01*
X187350000Y-35028426D01*
X187345363Y-35075507D01*
X187333060Y-35116063D01*
X187313082Y-35153439D01*
X187286198Y-35186198D01*
X187253439Y-35213082D01*
X187216063Y-35233060D01*
X187175507Y-35245363D01*
X187128426Y-35250000D01*
X184071574Y-35250000D01*
X184024493Y-35245363D01*
X183983937Y-35233060D01*
X183946561Y-35213082D01*
X183913802Y-35186198D01*
X183886918Y-35153439D01*
X183866940Y-35116063D01*
X183854637Y-35075507D01*
X183850000Y-35028426D01*
X183850000Y-34246574D01*
X183854637Y-34199493D01*
X183866940Y-34158937D01*
X183886918Y-34121561D01*
X183913802Y-34088802D01*
X183946561Y-34061918D01*
X183983937Y-34041940D01*
X184024493Y-34029637D01*
X184071574Y-34025000D01*
X187128426Y-34025000D01*
X187175507Y-34029637D01*
X187175507Y-34029637D01*
G37*
G36*
X198775507Y-34029637D02*
X198816063Y-34041940D01*
X198853439Y-34061918D01*
X198886198Y-34088802D01*
X198913082Y-34121561D01*
X198933060Y-34158937D01*
X198945363Y-34199493D01*
X198950000Y-34246574D01*
X198950000Y-35028426D01*
X198945363Y-35075507D01*
X198933060Y-35116063D01*
X198913082Y-35153439D01*
X198886198Y-35186198D01*
X198853439Y-35213082D01*
X198816063Y-35233060D01*
X198775507Y-35245363D01*
X198728426Y-35250000D01*
X195671574Y-35250000D01*
X195624493Y-35245363D01*
X195583937Y-35233060D01*
X195546561Y-35213082D01*
X195513802Y-35186198D01*
X195486918Y-35153439D01*
X195466940Y-35116063D01*
X195454637Y-35075507D01*
X195450000Y-35028426D01*
X195450000Y-34246574D01*
X195454637Y-34199493D01*
X195466940Y-34158937D01*
X195486918Y-34121561D01*
X195513802Y-34088802D01*
X195546561Y-34061918D01*
X195583937Y-34041940D01*
X195624493Y-34029637D01*
X195671574Y-34025000D01*
X198728426Y-34025000D01*
X198775507Y-34029637D01*
X198775507Y-34029637D01*
G37*
G36*
X210375507Y-34029637D02*
X210416063Y-34041940D01*
X210453439Y-34061918D01*
X210486198Y-34088802D01*
X210513082Y-34121561D01*
X210533060Y-34158937D01*
X210545363Y-34199493D01*
X210550000Y-34246574D01*
X210550000Y-35028426D01*
X210545363Y-35075507D01*
X210533060Y-35116063D01*
X210513082Y-35153439D01*
X210486198Y-35186198D01*
X210453439Y-35213082D01*
X210416063Y-35233060D01*
X210375507Y-35245363D01*
X210328426Y-35250000D01*
X207271574Y-35250000D01*
X207224493Y-35245363D01*
X207183937Y-35233060D01*
X207146561Y-35213082D01*
X207113802Y-35186198D01*
X207086918Y-35153439D01*
X207066940Y-35116063D01*
X207054637Y-35075507D01*
X207050000Y-35028426D01*
X207050000Y-34246574D01*
X207054637Y-34199493D01*
X207066940Y-34158937D01*
X207086918Y-34121561D01*
X207113802Y-34088802D01*
X207146561Y-34061918D01*
X207183937Y-34041940D01*
X207224493Y-34029637D01*
X207271574Y-34025000D01*
X210328426Y-34025000D01*
X210375507Y-34029637D01*
X210375507Y-34029637D01*
G37*
G36*
X221975507Y-34029637D02*
X222016063Y-34041940D01*
X222053439Y-34061918D01*
X222086198Y-34088802D01*
X222113082Y-34121561D01*
X222133060Y-34158937D01*
X222145363Y-34199493D01*
X222150000Y-34246574D01*
X222150000Y-35028426D01*
X222145363Y-35075507D01*
X222133060Y-35116063D01*
X222113082Y-35153439D01*
X222086198Y-35186198D01*
X222053439Y-35213082D01*
X222016063Y-35233060D01*
X221975507Y-35245363D01*
X221928426Y-35250000D01*
X218871574Y-35250000D01*
X218824493Y-35245363D01*
X218783937Y-35233060D01*
X218746561Y-35213082D01*
X218713802Y-35186198D01*
X218686918Y-35153439D01*
X218666940Y-35116063D01*
X218654637Y-35075507D01*
X218650000Y-35028426D01*
X218650000Y-34246574D01*
X218654637Y-34199493D01*
X218666940Y-34158937D01*
X218686918Y-34121561D01*
X218713802Y-34088802D01*
X218746561Y-34061918D01*
X218783937Y-34041940D01*
X218824493Y-34029637D01*
X218871574Y-34025000D01*
X221928426Y-34025000D01*
X221975507Y-34029637D01*
X221975507Y-34029637D01*
G37*
G36*
X233575507Y-34029637D02*
X233616063Y-34041940D01*
X233653439Y-34061918D01*
X233686198Y-34088802D01*
X233713082Y-34121561D01*
X233733060Y-34158937D01*
X233745363Y-34199493D01*
X233750000Y-34246574D01*
X233750000Y-35028426D01*
X233745363Y-35075507D01*
X233733060Y-35116063D01*
X233713082Y-35153439D01*
X233686198Y-35186198D01*
X233653439Y-35213082D01*
X233616063Y-35233060D01*
X233575507Y-35245363D01*
X233528426Y-35250000D01*
X230471574Y-35250000D01*
X230424493Y-35245363D01*
X230383937Y-35233060D01*
X230346561Y-35213082D01*
X230313802Y-35186198D01*
X230286918Y-35153439D01*
X230266940Y-35116063D01*
X230254637Y-35075507D01*
X230250000Y-35028426D01*
X230250000Y-34246574D01*
X230254637Y-34199493D01*
X230266940Y-34158937D01*
X230286918Y-34121561D01*
X230313802Y-34088802D01*
X230346561Y-34061918D01*
X230383937Y-34041940D01*
X230424493Y-34029637D01*
X230471574Y-34025000D01*
X233528426Y-34025000D01*
X233575507Y-34029637D01*
X233575507Y-34029637D01*
G37*
G36*
X245175507Y-34029637D02*
X245216063Y-34041940D01*
X245253439Y-34061918D01*
X245286198Y-34088802D01*
X245313082Y-34121561D01*
X245333060Y-34158937D01*
X245345363Y-34199493D01*
X245350000Y-34246574D01*
X245350000Y-35028426D01*
X245345363Y-35075507D01*
X245333060Y-35116063D01*
X245313082Y-35153439D01*
X245286198Y-35186198D01*
X245253439Y-35213082D01*
X245216063Y-35233060D01*
X245175507Y-35245363D01*
X245128426Y-35250000D01*
X242071574Y-35250000D01*
X242024493Y-35245363D01*
X241983937Y-35233060D01*
X241946561Y-35213082D01*
X241913802Y-35186198D01*
X241886918Y-35153439D01*
X241866940Y-35116063D01*
X241854637Y-35075507D01*
X241850000Y-35028426D01*
X241850000Y-34246574D01*
X241854637Y-34199493D01*
X241866940Y-34158937D01*
X241886918Y-34121561D01*
X241913802Y-34088802D01*
X241946561Y-34061918D01*
X241983937Y-34041940D01*
X242024493Y-34029637D01*
X242071574Y-34025000D01*
X245128426Y-34025000D01*
X245175507Y-34029637D01*
X245175507Y-34029637D01*
G37*
G36*
X42175507Y-34029637D02*
X42216063Y-34041940D01*
X42253439Y-34061918D01*
X42286198Y-34088802D01*
X42313082Y-34121561D01*
X42333060Y-34158937D01*
X42345363Y-34199493D01*
X42350000Y-34246574D01*
X42350000Y-35028426D01*
X42345363Y-35075507D01*
X42333060Y-35116063D01*
X42313082Y-35153439D01*
X42286198Y-35186198D01*
X42253439Y-35213082D01*
X42216063Y-35233060D01*
X42175507Y-35245363D01*
X42128426Y-35250000D01*
X39071574Y-35250000D01*
X39024493Y-35245363D01*
X38983937Y-35233060D01*
X38946561Y-35213082D01*
X38913802Y-35186198D01*
X38886918Y-35153439D01*
X38866940Y-35116063D01*
X38854637Y-35075507D01*
X38850000Y-35028426D01*
X38850000Y-34246574D01*
X38854637Y-34199493D01*
X38866940Y-34158937D01*
X38886918Y-34121561D01*
X38913802Y-34088802D01*
X38946561Y-34061918D01*
X38983937Y-34041940D01*
X39024493Y-34029637D01*
X39071574Y-34025000D01*
X42128426Y-34025000D01*
X42175507Y-34029637D01*
X42175507Y-34029637D01*
G37*
G36*
X53775507Y-34029637D02*
X53816063Y-34041940D01*
X53853439Y-34061918D01*
X53886198Y-34088802D01*
X53913082Y-34121561D01*
X53933060Y-34158937D01*
X53945363Y-34199493D01*
X53950000Y-34246574D01*
X53950000Y-35028426D01*
X53945363Y-35075507D01*
X53933060Y-35116063D01*
X53913082Y-35153439D01*
X53886198Y-35186198D01*
X53853439Y-35213082D01*
X53816063Y-35233060D01*
X53775507Y-35245363D01*
X53728426Y-35250000D01*
X50671574Y-35250000D01*
X50624493Y-35245363D01*
X50583937Y-35233060D01*
X50546561Y-35213082D01*
X50513802Y-35186198D01*
X50486918Y-35153439D01*
X50466940Y-35116063D01*
X50454637Y-35075507D01*
X50450000Y-35028426D01*
X50450000Y-34246574D01*
X50454637Y-34199493D01*
X50466940Y-34158937D01*
X50486918Y-34121561D01*
X50513802Y-34088802D01*
X50546561Y-34061918D01*
X50583937Y-34041940D01*
X50624493Y-34029637D01*
X50671574Y-34025000D01*
X53728426Y-34025000D01*
X53775507Y-34029637D01*
X53775507Y-34029637D01*
G37*
G36*
X256775507Y-34029637D02*
X256816063Y-34041940D01*
X256853439Y-34061918D01*
X256886198Y-34088802D01*
X256913082Y-34121561D01*
X256933060Y-34158937D01*
X256945363Y-34199493D01*
X256950000Y-34246574D01*
X256950000Y-35028426D01*
X256945363Y-35075507D01*
X256933060Y-35116063D01*
X256913082Y-35153439D01*
X256886198Y-35186198D01*
X256853439Y-35213082D01*
X256816063Y-35233060D01*
X256775507Y-35245363D01*
X256728426Y-35250000D01*
X253671574Y-35250000D01*
X253624493Y-35245363D01*
X253583937Y-35233060D01*
X253546561Y-35213082D01*
X253513802Y-35186198D01*
X253486918Y-35153439D01*
X253466940Y-35116063D01*
X253454637Y-35075507D01*
X253450000Y-35028426D01*
X253450000Y-34246574D01*
X253454637Y-34199493D01*
X253466940Y-34158937D01*
X253486918Y-34121561D01*
X253513802Y-34088802D01*
X253546561Y-34061918D01*
X253583937Y-34041940D01*
X253624493Y-34029637D01*
X253671574Y-34025000D01*
X256728426Y-34025000D01*
X256775507Y-34029637D01*
X256775507Y-34029637D01*
G37*
G36*
X192975507Y-34029637D02*
X193016063Y-34041940D01*
X193053439Y-34061918D01*
X193086198Y-34088802D01*
X193113082Y-34121561D01*
X193133060Y-34158937D01*
X193145363Y-34199493D01*
X193150000Y-34246574D01*
X193150000Y-35028426D01*
X193145363Y-35075507D01*
X193133060Y-35116063D01*
X193113082Y-35153439D01*
X193086198Y-35186198D01*
X193053439Y-35213082D01*
X193016063Y-35233060D01*
X192975507Y-35245363D01*
X192928426Y-35250000D01*
X189871574Y-35250000D01*
X189824493Y-35245363D01*
X189783937Y-35233060D01*
X189746561Y-35213082D01*
X189713802Y-35186198D01*
X189686918Y-35153439D01*
X189666940Y-35116063D01*
X189654637Y-35075507D01*
X189650000Y-35028426D01*
X189650000Y-34246574D01*
X189654637Y-34199493D01*
X189666940Y-34158937D01*
X189686918Y-34121561D01*
X189713802Y-34088802D01*
X189746561Y-34061918D01*
X189783937Y-34041940D01*
X189824493Y-34029637D01*
X189871574Y-34025000D01*
X192928426Y-34025000D01*
X192975507Y-34029637D01*
X192975507Y-34029637D01*
G37*
G36*
X76975507Y-34029637D02*
X77016063Y-34041940D01*
X77053439Y-34061918D01*
X77086198Y-34088802D01*
X77113082Y-34121561D01*
X77133060Y-34158937D01*
X77145363Y-34199493D01*
X77150000Y-34246574D01*
X77150000Y-35028426D01*
X77145363Y-35075507D01*
X77133060Y-35116063D01*
X77113082Y-35153439D01*
X77086198Y-35186198D01*
X77053439Y-35213082D01*
X77016063Y-35233060D01*
X76975507Y-35245363D01*
X76928426Y-35250000D01*
X73871574Y-35250000D01*
X73824493Y-35245363D01*
X73783937Y-35233060D01*
X73746561Y-35213082D01*
X73713802Y-35186198D01*
X73686918Y-35153439D01*
X73666940Y-35116063D01*
X73654637Y-35075507D01*
X73650000Y-35028426D01*
X73650000Y-34246574D01*
X73654637Y-34199493D01*
X73666940Y-34158937D01*
X73686918Y-34121561D01*
X73713802Y-34088802D01*
X73746561Y-34061918D01*
X73783937Y-34041940D01*
X73824493Y-34029637D01*
X73871574Y-34025000D01*
X76928426Y-34025000D01*
X76975507Y-34029637D01*
X76975507Y-34029637D01*
G37*
G36*
X88575507Y-34029637D02*
X88616063Y-34041940D01*
X88653439Y-34061918D01*
X88686198Y-34088802D01*
X88713082Y-34121561D01*
X88733060Y-34158937D01*
X88745363Y-34199493D01*
X88750000Y-34246574D01*
X88750000Y-35028426D01*
X88745363Y-35075507D01*
X88733060Y-35116063D01*
X88713082Y-35153439D01*
X88686198Y-35186198D01*
X88653439Y-35213082D01*
X88616063Y-35233060D01*
X88575507Y-35245363D01*
X88528426Y-35250000D01*
X85471574Y-35250000D01*
X85424493Y-35245363D01*
X85383937Y-35233060D01*
X85346561Y-35213082D01*
X85313802Y-35186198D01*
X85286918Y-35153439D01*
X85266940Y-35116063D01*
X85254637Y-35075507D01*
X85250000Y-35028426D01*
X85250000Y-34246574D01*
X85254637Y-34199493D01*
X85266940Y-34158937D01*
X85286918Y-34121561D01*
X85313802Y-34088802D01*
X85346561Y-34061918D01*
X85383937Y-34041940D01*
X85424493Y-34029637D01*
X85471574Y-34025000D01*
X88528426Y-34025000D01*
X88575507Y-34029637D01*
X88575507Y-34029637D01*
G37*
G36*
X100175507Y-34029637D02*
X100216063Y-34041940D01*
X100253439Y-34061918D01*
X100286198Y-34088802D01*
X100313082Y-34121561D01*
X100333060Y-34158937D01*
X100345363Y-34199493D01*
X100350000Y-34246574D01*
X100350000Y-35028426D01*
X100345363Y-35075507D01*
X100333060Y-35116063D01*
X100313082Y-35153439D01*
X100286198Y-35186198D01*
X100253439Y-35213082D01*
X100216063Y-35233060D01*
X100175507Y-35245363D01*
X100128426Y-35250000D01*
X97071574Y-35250000D01*
X97024493Y-35245363D01*
X96983937Y-35233060D01*
X96946561Y-35213082D01*
X96913802Y-35186198D01*
X96886918Y-35153439D01*
X96866940Y-35116063D01*
X96854637Y-35075507D01*
X96850000Y-35028426D01*
X96850000Y-34246574D01*
X96854637Y-34199493D01*
X96866940Y-34158937D01*
X96886918Y-34121561D01*
X96913802Y-34088802D01*
X96946561Y-34061918D01*
X96983937Y-34041940D01*
X97024493Y-34029637D01*
X97071574Y-34025000D01*
X100128426Y-34025000D01*
X100175507Y-34029637D01*
X100175507Y-34029637D01*
G37*
G36*
X111775507Y-34029637D02*
X111816063Y-34041940D01*
X111853439Y-34061918D01*
X111886198Y-34088802D01*
X111913082Y-34121561D01*
X111933060Y-34158937D01*
X111945363Y-34199493D01*
X111950000Y-34246574D01*
X111950000Y-35028426D01*
X111945363Y-35075507D01*
X111933060Y-35116063D01*
X111913082Y-35153439D01*
X111886198Y-35186198D01*
X111853439Y-35213082D01*
X111816063Y-35233060D01*
X111775507Y-35245363D01*
X111728426Y-35250000D01*
X108671574Y-35250000D01*
X108624493Y-35245363D01*
X108583937Y-35233060D01*
X108546561Y-35213082D01*
X108513802Y-35186198D01*
X108486918Y-35153439D01*
X108466940Y-35116063D01*
X108454637Y-35075507D01*
X108450000Y-35028426D01*
X108450000Y-34246574D01*
X108454637Y-34199493D01*
X108466940Y-34158937D01*
X108486918Y-34121561D01*
X108513802Y-34088802D01*
X108546561Y-34061918D01*
X108583937Y-34041940D01*
X108624493Y-34029637D01*
X108671574Y-34025000D01*
X111728426Y-34025000D01*
X111775507Y-34029637D01*
X111775507Y-34029637D01*
G37*
G36*
X123375507Y-34029637D02*
X123416063Y-34041940D01*
X123453439Y-34061918D01*
X123486198Y-34088802D01*
X123513082Y-34121561D01*
X123533060Y-34158937D01*
X123545363Y-34199493D01*
X123550000Y-34246574D01*
X123550000Y-35028426D01*
X123545363Y-35075507D01*
X123533060Y-35116063D01*
X123513082Y-35153439D01*
X123486198Y-35186198D01*
X123453439Y-35213082D01*
X123416063Y-35233060D01*
X123375507Y-35245363D01*
X123328426Y-35250000D01*
X120271574Y-35250000D01*
X120224493Y-35245363D01*
X120183937Y-35233060D01*
X120146561Y-35213082D01*
X120113802Y-35186198D01*
X120086918Y-35153439D01*
X120066940Y-35116063D01*
X120054637Y-35075507D01*
X120050000Y-35028426D01*
X120050000Y-34246574D01*
X120054637Y-34199493D01*
X120066940Y-34158937D01*
X120086918Y-34121561D01*
X120113802Y-34088802D01*
X120146561Y-34061918D01*
X120183937Y-34041940D01*
X120224493Y-34029637D01*
X120271574Y-34025000D01*
X123328426Y-34025000D01*
X123375507Y-34029637D01*
X123375507Y-34029637D01*
G37*
G36*
X134975507Y-34029637D02*
X135016063Y-34041940D01*
X135053439Y-34061918D01*
X135086198Y-34088802D01*
X135113082Y-34121561D01*
X135133060Y-34158937D01*
X135145363Y-34199493D01*
X135150000Y-34246574D01*
X135150000Y-35028426D01*
X135145363Y-35075507D01*
X135133060Y-35116063D01*
X135113082Y-35153439D01*
X135086198Y-35186198D01*
X135053439Y-35213082D01*
X135016063Y-35233060D01*
X134975507Y-35245363D01*
X134928426Y-35250000D01*
X131871574Y-35250000D01*
X131824493Y-35245363D01*
X131783937Y-35233060D01*
X131746561Y-35213082D01*
X131713802Y-35186198D01*
X131686918Y-35153439D01*
X131666940Y-35116063D01*
X131654637Y-35075507D01*
X131650000Y-35028426D01*
X131650000Y-34246574D01*
X131654637Y-34199493D01*
X131666940Y-34158937D01*
X131686918Y-34121561D01*
X131713802Y-34088802D01*
X131746561Y-34061918D01*
X131783937Y-34041940D01*
X131824493Y-34029637D01*
X131871574Y-34025000D01*
X134928426Y-34025000D01*
X134975507Y-34029637D01*
X134975507Y-34029637D01*
G37*
G36*
X146575507Y-34029637D02*
X146616063Y-34041940D01*
X146653439Y-34061918D01*
X146686198Y-34088802D01*
X146713082Y-34121561D01*
X146733060Y-34158937D01*
X146745363Y-34199493D01*
X146750000Y-34246574D01*
X146750000Y-35028426D01*
X146745363Y-35075507D01*
X146733060Y-35116063D01*
X146713082Y-35153439D01*
X146686198Y-35186198D01*
X146653439Y-35213082D01*
X146616063Y-35233060D01*
X146575507Y-35245363D01*
X146528426Y-35250000D01*
X143471574Y-35250000D01*
X143424493Y-35245363D01*
X143383937Y-35233060D01*
X143346561Y-35213082D01*
X143313802Y-35186198D01*
X143286918Y-35153439D01*
X143266940Y-35116063D01*
X143254637Y-35075507D01*
X143250000Y-35028426D01*
X143250000Y-34246574D01*
X143254637Y-34199493D01*
X143266940Y-34158937D01*
X143286918Y-34121561D01*
X143313802Y-34088802D01*
X143346561Y-34061918D01*
X143383937Y-34041940D01*
X143424493Y-34029637D01*
X143471574Y-34025000D01*
X146528426Y-34025000D01*
X146575507Y-34029637D01*
X146575507Y-34029637D01*
G37*
G36*
X158175507Y-34029637D02*
X158216063Y-34041940D01*
X158253439Y-34061918D01*
X158286198Y-34088802D01*
X158313082Y-34121561D01*
X158333060Y-34158937D01*
X158345363Y-34199493D01*
X158350000Y-34246574D01*
X158350000Y-35028426D01*
X158345363Y-35075507D01*
X158333060Y-35116063D01*
X158313082Y-35153439D01*
X158286198Y-35186198D01*
X158253439Y-35213082D01*
X158216063Y-35233060D01*
X158175507Y-35245363D01*
X158128426Y-35250000D01*
X155071574Y-35250000D01*
X155024493Y-35245363D01*
X154983937Y-35233060D01*
X154946561Y-35213082D01*
X154913802Y-35186198D01*
X154886918Y-35153439D01*
X154866940Y-35116063D01*
X154854637Y-35075507D01*
X154850000Y-35028426D01*
X154850000Y-34246574D01*
X154854637Y-34199493D01*
X154866940Y-34158937D01*
X154886918Y-34121561D01*
X154913802Y-34088802D01*
X154946561Y-34061918D01*
X154983937Y-34041940D01*
X155024493Y-34029637D01*
X155071574Y-34025000D01*
X158128426Y-34025000D01*
X158175507Y-34029637D01*
X158175507Y-34029637D01*
G37*
G36*
X169775507Y-34029637D02*
X169816063Y-34041940D01*
X169853439Y-34061918D01*
X169886198Y-34088802D01*
X169913082Y-34121561D01*
X169933060Y-34158937D01*
X169945363Y-34199493D01*
X169950000Y-34246574D01*
X169950000Y-35028426D01*
X169945363Y-35075507D01*
X169933060Y-35116063D01*
X169913082Y-35153439D01*
X169886198Y-35186198D01*
X169853439Y-35213082D01*
X169816063Y-35233060D01*
X169775507Y-35245363D01*
X169728426Y-35250000D01*
X166671574Y-35250000D01*
X166624493Y-35245363D01*
X166583937Y-35233060D01*
X166546561Y-35213082D01*
X166513802Y-35186198D01*
X166486918Y-35153439D01*
X166466940Y-35116063D01*
X166454637Y-35075507D01*
X166450000Y-35028426D01*
X166450000Y-34246574D01*
X166454637Y-34199493D01*
X166466940Y-34158937D01*
X166486918Y-34121561D01*
X166513802Y-34088802D01*
X166546561Y-34061918D01*
X166583937Y-34041940D01*
X166624493Y-34029637D01*
X166671574Y-34025000D01*
X169728426Y-34025000D01*
X169775507Y-34029637D01*
X169775507Y-34029637D01*
G37*
G36*
X65375507Y-34029637D02*
X65416063Y-34041940D01*
X65453439Y-34061918D01*
X65486198Y-34088802D01*
X65513082Y-34121561D01*
X65533060Y-34158937D01*
X65545363Y-34199493D01*
X65550000Y-34246574D01*
X65550000Y-35028426D01*
X65545363Y-35075507D01*
X65533060Y-35116063D01*
X65513082Y-35153439D01*
X65486198Y-35186198D01*
X65453439Y-35213082D01*
X65416063Y-35233060D01*
X65375507Y-35245363D01*
X65328426Y-35250000D01*
X62271574Y-35250000D01*
X62224493Y-35245363D01*
X62183937Y-35233060D01*
X62146561Y-35213082D01*
X62113802Y-35186198D01*
X62086918Y-35153439D01*
X62066940Y-35116063D01*
X62054637Y-35075507D01*
X62050000Y-35028426D01*
X62050000Y-34246574D01*
X62054637Y-34199493D01*
X62066940Y-34158937D01*
X62086918Y-34121561D01*
X62113802Y-34088802D01*
X62146561Y-34061918D01*
X62183937Y-34041940D01*
X62224493Y-34029637D01*
X62271574Y-34025000D01*
X65328426Y-34025000D01*
X65375507Y-34029637D01*
X65375507Y-34029637D01*
G37*
G36*
X204575507Y-34029637D02*
X204616063Y-34041940D01*
X204653439Y-34061918D01*
X204686198Y-34088802D01*
X204713082Y-34121561D01*
X204733060Y-34158937D01*
X204745363Y-34199493D01*
X204750000Y-34246574D01*
X204750000Y-35028426D01*
X204745363Y-35075507D01*
X204733060Y-35116063D01*
X204713082Y-35153439D01*
X204686198Y-35186198D01*
X204653439Y-35213082D01*
X204616063Y-35233060D01*
X204575507Y-35245363D01*
X204528426Y-35250000D01*
X201471574Y-35250000D01*
X201424493Y-35245363D01*
X201383937Y-35233060D01*
X201346561Y-35213082D01*
X201313802Y-35186198D01*
X201286918Y-35153439D01*
X201266940Y-35116063D01*
X201254637Y-35075507D01*
X201250000Y-35028426D01*
X201250000Y-34246574D01*
X201254637Y-34199493D01*
X201266940Y-34158937D01*
X201286918Y-34121561D01*
X201313802Y-34088802D01*
X201346561Y-34061918D01*
X201383937Y-34041940D01*
X201424493Y-34029637D01*
X201471574Y-34025000D01*
X204528426Y-34025000D01*
X204575507Y-34029637D01*
X204575507Y-34029637D01*
G37*
G36*
X216175507Y-34029637D02*
X216216063Y-34041940D01*
X216253439Y-34061918D01*
X216286198Y-34088802D01*
X216313082Y-34121561D01*
X216333060Y-34158937D01*
X216345363Y-34199493D01*
X216350000Y-34246574D01*
X216350000Y-35028426D01*
X216345363Y-35075507D01*
X216333060Y-35116063D01*
X216313082Y-35153439D01*
X216286198Y-35186198D01*
X216253439Y-35213082D01*
X216216063Y-35233060D01*
X216175507Y-35245363D01*
X216128426Y-35250000D01*
X213071574Y-35250000D01*
X213024493Y-35245363D01*
X212983937Y-35233060D01*
X212946561Y-35213082D01*
X212913802Y-35186198D01*
X212886918Y-35153439D01*
X212866940Y-35116063D01*
X212854637Y-35075507D01*
X212850000Y-35028426D01*
X212850000Y-34246574D01*
X212854637Y-34199493D01*
X212866940Y-34158937D01*
X212886918Y-34121561D01*
X212913802Y-34088802D01*
X212946561Y-34061918D01*
X212983937Y-34041940D01*
X213024493Y-34029637D01*
X213071574Y-34025000D01*
X216128426Y-34025000D01*
X216175507Y-34029637D01*
X216175507Y-34029637D01*
G37*
G36*
X227775507Y-34029637D02*
X227816063Y-34041940D01*
X227853439Y-34061918D01*
X227886198Y-34088802D01*
X227913082Y-34121561D01*
X227933060Y-34158937D01*
X227945363Y-34199493D01*
X227950000Y-34246574D01*
X227950000Y-35028426D01*
X227945363Y-35075507D01*
X227933060Y-35116063D01*
X227913082Y-35153439D01*
X227886198Y-35186198D01*
X227853439Y-35213082D01*
X227816063Y-35233060D01*
X227775507Y-35245363D01*
X227728426Y-35250000D01*
X224671574Y-35250000D01*
X224624493Y-35245363D01*
X224583937Y-35233060D01*
X224546561Y-35213082D01*
X224513802Y-35186198D01*
X224486918Y-35153439D01*
X224466940Y-35116063D01*
X224454637Y-35075507D01*
X224450000Y-35028426D01*
X224450000Y-34246574D01*
X224454637Y-34199493D01*
X224466940Y-34158937D01*
X224486918Y-34121561D01*
X224513802Y-34088802D01*
X224546561Y-34061918D01*
X224583937Y-34041940D01*
X224624493Y-34029637D01*
X224671574Y-34025000D01*
X227728426Y-34025000D01*
X227775507Y-34029637D01*
X227775507Y-34029637D01*
G37*
G36*
X239375507Y-34029637D02*
X239416063Y-34041940D01*
X239453439Y-34061918D01*
X239486198Y-34088802D01*
X239513082Y-34121561D01*
X239533060Y-34158937D01*
X239545363Y-34199493D01*
X239550000Y-34246574D01*
X239550000Y-35028426D01*
X239545363Y-35075507D01*
X239533060Y-35116063D01*
X239513082Y-35153439D01*
X239486198Y-35186198D01*
X239453439Y-35213082D01*
X239416063Y-35233060D01*
X239375507Y-35245363D01*
X239328426Y-35250000D01*
X236271574Y-35250000D01*
X236224493Y-35245363D01*
X236183937Y-35233060D01*
X236146561Y-35213082D01*
X236113802Y-35186198D01*
X236086918Y-35153439D01*
X236066940Y-35116063D01*
X236054637Y-35075507D01*
X236050000Y-35028426D01*
X236050000Y-34246574D01*
X236054637Y-34199493D01*
X236066940Y-34158937D01*
X236086918Y-34121561D01*
X236113802Y-34088802D01*
X236146561Y-34061918D01*
X236183937Y-34041940D01*
X236224493Y-34029637D01*
X236271574Y-34025000D01*
X239328426Y-34025000D01*
X239375507Y-34029637D01*
X239375507Y-34029637D01*
G37*
G36*
X250975507Y-34029637D02*
X251016063Y-34041940D01*
X251053439Y-34061918D01*
X251086198Y-34088802D01*
X251113082Y-34121561D01*
X251133060Y-34158937D01*
X251145363Y-34199493D01*
X251150000Y-34246574D01*
X251150000Y-35028426D01*
X251145363Y-35075507D01*
X251133060Y-35116063D01*
X251113082Y-35153439D01*
X251086198Y-35186198D01*
X251053439Y-35213082D01*
X251016063Y-35233060D01*
X250975507Y-35245363D01*
X250928426Y-35250000D01*
X247871574Y-35250000D01*
X247824493Y-35245363D01*
X247783937Y-35233060D01*
X247746561Y-35213082D01*
X247713802Y-35186198D01*
X247686918Y-35153439D01*
X247666940Y-35116063D01*
X247654637Y-35075507D01*
X247650000Y-35028426D01*
X247650000Y-34246574D01*
X247654637Y-34199493D01*
X247666940Y-34158937D01*
X247686918Y-34121561D01*
X247713802Y-34088802D01*
X247746561Y-34061918D01*
X247783937Y-34041940D01*
X247824493Y-34029637D01*
X247871574Y-34025000D01*
X250928426Y-34025000D01*
X250975507Y-34029637D01*
X250975507Y-34029637D01*
G37*
G36*
X30575507Y-34029637D02*
X30616063Y-34041940D01*
X30653439Y-34061918D01*
X30686198Y-34088802D01*
X30713082Y-34121561D01*
X30733060Y-34158937D01*
X30745363Y-34199493D01*
X30750000Y-34246574D01*
X30750000Y-35028426D01*
X30745363Y-35075507D01*
X30733060Y-35116063D01*
X30713082Y-35153439D01*
X30686198Y-35186198D01*
X30653439Y-35213082D01*
X30616063Y-35233060D01*
X30575507Y-35245363D01*
X30528426Y-35250000D01*
X27471574Y-35250000D01*
X27424493Y-35245363D01*
X27383937Y-35233060D01*
X27346561Y-35213082D01*
X27313802Y-35186198D01*
X27286918Y-35153439D01*
X27266940Y-35116063D01*
X27254637Y-35075507D01*
X27250000Y-35028426D01*
X27250000Y-34246574D01*
X27254637Y-34199493D01*
X27266940Y-34158937D01*
X27286918Y-34121561D01*
X27313802Y-34088802D01*
X27346561Y-34061918D01*
X27383937Y-34041940D01*
X27424493Y-34029637D01*
X27471574Y-34025000D01*
X30528426Y-34025000D01*
X30575507Y-34029637D01*
X30575507Y-34029637D01*
G37*
G36*
X36375507Y-34029637D02*
X36416063Y-34041940D01*
X36453439Y-34061918D01*
X36486198Y-34088802D01*
X36513082Y-34121561D01*
X36533060Y-34158937D01*
X36545363Y-34199493D01*
X36550000Y-34246574D01*
X36550000Y-35028426D01*
X36545363Y-35075507D01*
X36533060Y-35116063D01*
X36513082Y-35153439D01*
X36486198Y-35186198D01*
X36453439Y-35213082D01*
X36416063Y-35233060D01*
X36375507Y-35245363D01*
X36328426Y-35250000D01*
X33271574Y-35250000D01*
X33224493Y-35245363D01*
X33183937Y-35233060D01*
X33146561Y-35213082D01*
X33113802Y-35186198D01*
X33086918Y-35153439D01*
X33066940Y-35116063D01*
X33054637Y-35075507D01*
X33050000Y-35028426D01*
X33050000Y-34246574D01*
X33054637Y-34199493D01*
X33066940Y-34158937D01*
X33086918Y-34121561D01*
X33113802Y-34088802D01*
X33146561Y-34061918D01*
X33183937Y-34041940D01*
X33224493Y-34029637D01*
X33271574Y-34025000D01*
X36328426Y-34025000D01*
X36375507Y-34029637D01*
X36375507Y-34029637D01*
G37*
G36*
X181375507Y-34029637D02*
X181416063Y-34041940D01*
X181453439Y-34061918D01*
X181486198Y-34088802D01*
X181513082Y-34121561D01*
X181533060Y-34158937D01*
X181545363Y-34199493D01*
X181550000Y-34246574D01*
X181550000Y-35028426D01*
X181545363Y-35075507D01*
X181533060Y-35116063D01*
X181513082Y-35153439D01*
X181486198Y-35186198D01*
X181453439Y-35213082D01*
X181416063Y-35233060D01*
X181375507Y-35245363D01*
X181328426Y-35250000D01*
X178271574Y-35250000D01*
X178224493Y-35245363D01*
X178183937Y-35233060D01*
X178146561Y-35213082D01*
X178113802Y-35186198D01*
X178086918Y-35153439D01*
X178066940Y-35116063D01*
X178054637Y-35075507D01*
X178050000Y-35028426D01*
X178050000Y-34246574D01*
X178054637Y-34199493D01*
X178066940Y-34158937D01*
X178086918Y-34121561D01*
X178113802Y-34088802D01*
X178146561Y-34061918D01*
X178183937Y-34041940D01*
X178224493Y-34029637D01*
X178271574Y-34025000D01*
X181328426Y-34025000D01*
X181375507Y-34029637D01*
X181375507Y-34029637D01*
G37*
G36*
X146575507Y-29754637D02*
X146616063Y-29766940D01*
X146653439Y-29786918D01*
X146686198Y-29813802D01*
X146713082Y-29846561D01*
X146733060Y-29883937D01*
X146745363Y-29924493D01*
X146750000Y-29971574D01*
X146750000Y-30753426D01*
X146745363Y-30800507D01*
X146733060Y-30841063D01*
X146713082Y-30878439D01*
X146686198Y-30911198D01*
X146653439Y-30938082D01*
X146616063Y-30958060D01*
X146575507Y-30970363D01*
X146528426Y-30975000D01*
X143471574Y-30975000D01*
X143424493Y-30970363D01*
X143383937Y-30958060D01*
X143346561Y-30938082D01*
X143313802Y-30911198D01*
X143286918Y-30878439D01*
X143266940Y-30841063D01*
X143254637Y-30800507D01*
X143250000Y-30753426D01*
X143250000Y-29971574D01*
X143254637Y-29924493D01*
X143266940Y-29883937D01*
X143286918Y-29846561D01*
X143313802Y-29813802D01*
X143346561Y-29786918D01*
X143383937Y-29766940D01*
X143424493Y-29754637D01*
X143471574Y-29750000D01*
X146528426Y-29750000D01*
X146575507Y-29754637D01*
X146575507Y-29754637D01*
G37*
G36*
X250975507Y-29754637D02*
X251016063Y-29766940D01*
X251053439Y-29786918D01*
X251086198Y-29813802D01*
X251113082Y-29846561D01*
X251133060Y-29883937D01*
X251145363Y-29924493D01*
X251150000Y-29971574D01*
X251150000Y-30753426D01*
X251145363Y-30800507D01*
X251133060Y-30841063D01*
X251113082Y-30878439D01*
X251086198Y-30911198D01*
X251053439Y-30938082D01*
X251016063Y-30958060D01*
X250975507Y-30970363D01*
X250928426Y-30975000D01*
X247871574Y-30975000D01*
X247824493Y-30970363D01*
X247783937Y-30958060D01*
X247746561Y-30938082D01*
X247713802Y-30911198D01*
X247686918Y-30878439D01*
X247666940Y-30841063D01*
X247654637Y-30800507D01*
X247650000Y-30753426D01*
X247650000Y-29971574D01*
X247654637Y-29924493D01*
X247666940Y-29883937D01*
X247686918Y-29846561D01*
X247713802Y-29813802D01*
X247746561Y-29786918D01*
X247783937Y-29766940D01*
X247824493Y-29754637D01*
X247871574Y-29750000D01*
X250928426Y-29750000D01*
X250975507Y-29754637D01*
X250975507Y-29754637D01*
G37*
G36*
X134975507Y-29754637D02*
X135016063Y-29766940D01*
X135053439Y-29786918D01*
X135086198Y-29813802D01*
X135113082Y-29846561D01*
X135133060Y-29883937D01*
X135145363Y-29924493D01*
X135150000Y-29971574D01*
X135150000Y-30753426D01*
X135145363Y-30800507D01*
X135133060Y-30841063D01*
X135113082Y-30878439D01*
X135086198Y-30911198D01*
X135053439Y-30938082D01*
X135016063Y-30958060D01*
X134975507Y-30970363D01*
X134928426Y-30975000D01*
X131871574Y-30975000D01*
X131824493Y-30970363D01*
X131783937Y-30958060D01*
X131746561Y-30938082D01*
X131713802Y-30911198D01*
X131686918Y-30878439D01*
X131666940Y-30841063D01*
X131654637Y-30800507D01*
X131650000Y-30753426D01*
X131650000Y-29971574D01*
X131654637Y-29924493D01*
X131666940Y-29883937D01*
X131686918Y-29846561D01*
X131713802Y-29813802D01*
X131746561Y-29786918D01*
X131783937Y-29766940D01*
X131824493Y-29754637D01*
X131871574Y-29750000D01*
X134928426Y-29750000D01*
X134975507Y-29754637D01*
X134975507Y-29754637D01*
G37*
G36*
X158175507Y-29754637D02*
X158216063Y-29766940D01*
X158253439Y-29786918D01*
X158286198Y-29813802D01*
X158313082Y-29846561D01*
X158333060Y-29883937D01*
X158345363Y-29924493D01*
X158350000Y-29971574D01*
X158350000Y-30753426D01*
X158345363Y-30800507D01*
X158333060Y-30841063D01*
X158313082Y-30878439D01*
X158286198Y-30911198D01*
X158253439Y-30938082D01*
X158216063Y-30958060D01*
X158175507Y-30970363D01*
X158128426Y-30975000D01*
X155071574Y-30975000D01*
X155024493Y-30970363D01*
X154983937Y-30958060D01*
X154946561Y-30938082D01*
X154913802Y-30911198D01*
X154886918Y-30878439D01*
X154866940Y-30841063D01*
X154854637Y-30800507D01*
X154850000Y-30753426D01*
X154850000Y-29971574D01*
X154854637Y-29924493D01*
X154866940Y-29883937D01*
X154886918Y-29846561D01*
X154913802Y-29813802D01*
X154946561Y-29786918D01*
X154983937Y-29766940D01*
X155024493Y-29754637D01*
X155071574Y-29750000D01*
X158128426Y-29750000D01*
X158175507Y-29754637D01*
X158175507Y-29754637D01*
G37*
G36*
X198775507Y-29754637D02*
X198816063Y-29766940D01*
X198853439Y-29786918D01*
X198886198Y-29813802D01*
X198913082Y-29846561D01*
X198933060Y-29883937D01*
X198945363Y-29924493D01*
X198950000Y-29971574D01*
X198950000Y-30753426D01*
X198945363Y-30800507D01*
X198933060Y-30841063D01*
X198913082Y-30878439D01*
X198886198Y-30911198D01*
X198853439Y-30938082D01*
X198816063Y-30958060D01*
X198775507Y-30970363D01*
X198728426Y-30975000D01*
X195671574Y-30975000D01*
X195624493Y-30970363D01*
X195583937Y-30958060D01*
X195546561Y-30938082D01*
X195513802Y-30911198D01*
X195486918Y-30878439D01*
X195466940Y-30841063D01*
X195454637Y-30800507D01*
X195450000Y-30753426D01*
X195450000Y-29971574D01*
X195454637Y-29924493D01*
X195466940Y-29883937D01*
X195486918Y-29846561D01*
X195513802Y-29813802D01*
X195546561Y-29786918D01*
X195583937Y-29766940D01*
X195624493Y-29754637D01*
X195671574Y-29750000D01*
X198728426Y-29750000D01*
X198775507Y-29754637D01*
X198775507Y-29754637D01*
G37*
G36*
X175575507Y-29754637D02*
X175616063Y-29766940D01*
X175653439Y-29786918D01*
X175686198Y-29813802D01*
X175713082Y-29846561D01*
X175733060Y-29883937D01*
X175745363Y-29924493D01*
X175750000Y-29971574D01*
X175750000Y-30753426D01*
X175745363Y-30800507D01*
X175733060Y-30841063D01*
X175713082Y-30878439D01*
X175686198Y-30911198D01*
X175653439Y-30938082D01*
X175616063Y-30958060D01*
X175575507Y-30970363D01*
X175528426Y-30975000D01*
X172471574Y-30975000D01*
X172424493Y-30970363D01*
X172383937Y-30958060D01*
X172346561Y-30938082D01*
X172313802Y-30911198D01*
X172286918Y-30878439D01*
X172266940Y-30841063D01*
X172254637Y-30800507D01*
X172250000Y-30753426D01*
X172250000Y-29971574D01*
X172254637Y-29924493D01*
X172266940Y-29883937D01*
X172286918Y-29846561D01*
X172313802Y-29813802D01*
X172346561Y-29786918D01*
X172383937Y-29766940D01*
X172424493Y-29754637D01*
X172471574Y-29750000D01*
X175528426Y-29750000D01*
X175575507Y-29754637D01*
X175575507Y-29754637D01*
G37*
G36*
X210375507Y-29754637D02*
X210416063Y-29766940D01*
X210453439Y-29786918D01*
X210486198Y-29813802D01*
X210513082Y-29846561D01*
X210533060Y-29883937D01*
X210545363Y-29924493D01*
X210550000Y-29971574D01*
X210550000Y-30753426D01*
X210545363Y-30800507D01*
X210533060Y-30841063D01*
X210513082Y-30878439D01*
X210486198Y-30911198D01*
X210453439Y-30938082D01*
X210416063Y-30958060D01*
X210375507Y-30970363D01*
X210328426Y-30975000D01*
X207271574Y-30975000D01*
X207224493Y-30970363D01*
X207183937Y-30958060D01*
X207146561Y-30938082D01*
X207113802Y-30911198D01*
X207086918Y-30878439D01*
X207066940Y-30841063D01*
X207054637Y-30800507D01*
X207050000Y-30753426D01*
X207050000Y-29971574D01*
X207054637Y-29924493D01*
X207066940Y-29883937D01*
X207086918Y-29846561D01*
X207113802Y-29813802D01*
X207146561Y-29786918D01*
X207183937Y-29766940D01*
X207224493Y-29754637D01*
X207271574Y-29750000D01*
X210328426Y-29750000D01*
X210375507Y-29754637D01*
X210375507Y-29754637D01*
G37*
G36*
X221975507Y-29754637D02*
X222016063Y-29766940D01*
X222053439Y-29786918D01*
X222086198Y-29813802D01*
X222113082Y-29846561D01*
X222133060Y-29883937D01*
X222145363Y-29924493D01*
X222150000Y-29971574D01*
X222150000Y-30753426D01*
X222145363Y-30800507D01*
X222133060Y-30841063D01*
X222113082Y-30878439D01*
X222086198Y-30911198D01*
X222053439Y-30938082D01*
X222016063Y-30958060D01*
X221975507Y-30970363D01*
X221928426Y-30975000D01*
X218871574Y-30975000D01*
X218824493Y-30970363D01*
X218783937Y-30958060D01*
X218746561Y-30938082D01*
X218713802Y-30911198D01*
X218686918Y-30878439D01*
X218666940Y-30841063D01*
X218654637Y-30800507D01*
X218650000Y-30753426D01*
X218650000Y-29971574D01*
X218654637Y-29924493D01*
X218666940Y-29883937D01*
X218686918Y-29846561D01*
X218713802Y-29813802D01*
X218746561Y-29786918D01*
X218783937Y-29766940D01*
X218824493Y-29754637D01*
X218871574Y-29750000D01*
X221928426Y-29750000D01*
X221975507Y-29754637D01*
X221975507Y-29754637D01*
G37*
G36*
X163975507Y-29754637D02*
X164016063Y-29766940D01*
X164053439Y-29786918D01*
X164086198Y-29813802D01*
X164113082Y-29846561D01*
X164133060Y-29883937D01*
X164145363Y-29924493D01*
X164150000Y-29971574D01*
X164150000Y-30753426D01*
X164145363Y-30800507D01*
X164133060Y-30841063D01*
X164113082Y-30878439D01*
X164086198Y-30911198D01*
X164053439Y-30938082D01*
X164016063Y-30958060D01*
X163975507Y-30970363D01*
X163928426Y-30975000D01*
X160871574Y-30975000D01*
X160824493Y-30970363D01*
X160783937Y-30958060D01*
X160746561Y-30938082D01*
X160713802Y-30911198D01*
X160686918Y-30878439D01*
X160666940Y-30841063D01*
X160654637Y-30800507D01*
X160650000Y-30753426D01*
X160650000Y-29971574D01*
X160654637Y-29924493D01*
X160666940Y-29883937D01*
X160686918Y-29846561D01*
X160713802Y-29813802D01*
X160746561Y-29786918D01*
X160783937Y-29766940D01*
X160824493Y-29754637D01*
X160871574Y-29750000D01*
X163928426Y-29750000D01*
X163975507Y-29754637D01*
X163975507Y-29754637D01*
G37*
G36*
X233575507Y-29754637D02*
X233616063Y-29766940D01*
X233653439Y-29786918D01*
X233686198Y-29813802D01*
X233713082Y-29846561D01*
X233733060Y-29883937D01*
X233745363Y-29924493D01*
X233750000Y-29971574D01*
X233750000Y-30753426D01*
X233745363Y-30800507D01*
X233733060Y-30841063D01*
X233713082Y-30878439D01*
X233686198Y-30911198D01*
X233653439Y-30938082D01*
X233616063Y-30958060D01*
X233575507Y-30970363D01*
X233528426Y-30975000D01*
X230471574Y-30975000D01*
X230424493Y-30970363D01*
X230383937Y-30958060D01*
X230346561Y-30938082D01*
X230313802Y-30911198D01*
X230286918Y-30878439D01*
X230266940Y-30841063D01*
X230254637Y-30800507D01*
X230250000Y-30753426D01*
X230250000Y-29971574D01*
X230254637Y-29924493D01*
X230266940Y-29883937D01*
X230286918Y-29846561D01*
X230313802Y-29813802D01*
X230346561Y-29786918D01*
X230383937Y-29766940D01*
X230424493Y-29754637D01*
X230471574Y-29750000D01*
X233528426Y-29750000D01*
X233575507Y-29754637D01*
X233575507Y-29754637D01*
G37*
G36*
X181375507Y-29754637D02*
X181416063Y-29766940D01*
X181453439Y-29786918D01*
X181486198Y-29813802D01*
X181513082Y-29846561D01*
X181533060Y-29883937D01*
X181545363Y-29924493D01*
X181550000Y-29971574D01*
X181550000Y-30753426D01*
X181545363Y-30800507D01*
X181533060Y-30841063D01*
X181513082Y-30878439D01*
X181486198Y-30911198D01*
X181453439Y-30938082D01*
X181416063Y-30958060D01*
X181375507Y-30970363D01*
X181328426Y-30975000D01*
X178271574Y-30975000D01*
X178224493Y-30970363D01*
X178183937Y-30958060D01*
X178146561Y-30938082D01*
X178113802Y-30911198D01*
X178086918Y-30878439D01*
X178066940Y-30841063D01*
X178054637Y-30800507D01*
X178050000Y-30753426D01*
X178050000Y-29971574D01*
X178054637Y-29924493D01*
X178066940Y-29883937D01*
X178086918Y-29846561D01*
X178113802Y-29813802D01*
X178146561Y-29786918D01*
X178183937Y-29766940D01*
X178224493Y-29754637D01*
X178271574Y-29750000D01*
X181328426Y-29750000D01*
X181375507Y-29754637D01*
X181375507Y-29754637D01*
G37*
G36*
X192975507Y-29754637D02*
X193016063Y-29766940D01*
X193053439Y-29786918D01*
X193086198Y-29813802D01*
X193113082Y-29846561D01*
X193133060Y-29883937D01*
X193145363Y-29924493D01*
X193150000Y-29971574D01*
X193150000Y-30753426D01*
X193145363Y-30800507D01*
X193133060Y-30841063D01*
X193113082Y-30878439D01*
X193086198Y-30911198D01*
X193053439Y-30938082D01*
X193016063Y-30958060D01*
X192975507Y-30970363D01*
X192928426Y-30975000D01*
X189871574Y-30975000D01*
X189824493Y-30970363D01*
X189783937Y-30958060D01*
X189746561Y-30938082D01*
X189713802Y-30911198D01*
X189686918Y-30878439D01*
X189666940Y-30841063D01*
X189654637Y-30800507D01*
X189650000Y-30753426D01*
X189650000Y-29971574D01*
X189654637Y-29924493D01*
X189666940Y-29883937D01*
X189686918Y-29846561D01*
X189713802Y-29813802D01*
X189746561Y-29786918D01*
X189783937Y-29766940D01*
X189824493Y-29754637D01*
X189871574Y-29750000D01*
X192928426Y-29750000D01*
X192975507Y-29754637D01*
X192975507Y-29754637D01*
G37*
G36*
X204575507Y-29754637D02*
X204616063Y-29766940D01*
X204653439Y-29786918D01*
X204686198Y-29813802D01*
X204713082Y-29846561D01*
X204733060Y-29883937D01*
X204745363Y-29924493D01*
X204750000Y-29971574D01*
X204750000Y-30753426D01*
X204745363Y-30800507D01*
X204733060Y-30841063D01*
X204713082Y-30878439D01*
X204686198Y-30911198D01*
X204653439Y-30938082D01*
X204616063Y-30958060D01*
X204575507Y-30970363D01*
X204528426Y-30975000D01*
X201471574Y-30975000D01*
X201424493Y-30970363D01*
X201383937Y-30958060D01*
X201346561Y-30938082D01*
X201313802Y-30911198D01*
X201286918Y-30878439D01*
X201266940Y-30841063D01*
X201254637Y-30800507D01*
X201250000Y-30753426D01*
X201250000Y-29971574D01*
X201254637Y-29924493D01*
X201266940Y-29883937D01*
X201286918Y-29846561D01*
X201313802Y-29813802D01*
X201346561Y-29786918D01*
X201383937Y-29766940D01*
X201424493Y-29754637D01*
X201471574Y-29750000D01*
X204528426Y-29750000D01*
X204575507Y-29754637D01*
X204575507Y-29754637D01*
G37*
G36*
X216175507Y-29754637D02*
X216216063Y-29766940D01*
X216253439Y-29786918D01*
X216286198Y-29813802D01*
X216313082Y-29846561D01*
X216333060Y-29883937D01*
X216345363Y-29924493D01*
X216350000Y-29971574D01*
X216350000Y-30753426D01*
X216345363Y-30800507D01*
X216333060Y-30841063D01*
X216313082Y-30878439D01*
X216286198Y-30911198D01*
X216253439Y-30938082D01*
X216216063Y-30958060D01*
X216175507Y-30970363D01*
X216128426Y-30975000D01*
X213071574Y-30975000D01*
X213024493Y-30970363D01*
X212983937Y-30958060D01*
X212946561Y-30938082D01*
X212913802Y-30911198D01*
X212886918Y-30878439D01*
X212866940Y-30841063D01*
X212854637Y-30800507D01*
X212850000Y-30753426D01*
X212850000Y-29971574D01*
X212854637Y-29924493D01*
X212866940Y-29883937D01*
X212886918Y-29846561D01*
X212913802Y-29813802D01*
X212946561Y-29786918D01*
X212983937Y-29766940D01*
X213024493Y-29754637D01*
X213071574Y-29750000D01*
X216128426Y-29750000D01*
X216175507Y-29754637D01*
X216175507Y-29754637D01*
G37*
G36*
X227775507Y-29754637D02*
X227816063Y-29766940D01*
X227853439Y-29786918D01*
X227886198Y-29813802D01*
X227913082Y-29846561D01*
X227933060Y-29883937D01*
X227945363Y-29924493D01*
X227950000Y-29971574D01*
X227950000Y-30753426D01*
X227945363Y-30800507D01*
X227933060Y-30841063D01*
X227913082Y-30878439D01*
X227886198Y-30911198D01*
X227853439Y-30938082D01*
X227816063Y-30958060D01*
X227775507Y-30970363D01*
X227728426Y-30975000D01*
X224671574Y-30975000D01*
X224624493Y-30970363D01*
X224583937Y-30958060D01*
X224546561Y-30938082D01*
X224513802Y-30911198D01*
X224486918Y-30878439D01*
X224466940Y-30841063D01*
X224454637Y-30800507D01*
X224450000Y-30753426D01*
X224450000Y-29971574D01*
X224454637Y-29924493D01*
X224466940Y-29883937D01*
X224486918Y-29846561D01*
X224513802Y-29813802D01*
X224546561Y-29786918D01*
X224583937Y-29766940D01*
X224624493Y-29754637D01*
X224671574Y-29750000D01*
X227728426Y-29750000D01*
X227775507Y-29754637D01*
X227775507Y-29754637D01*
G37*
G36*
X239375507Y-29754637D02*
X239416063Y-29766940D01*
X239453439Y-29786918D01*
X239486198Y-29813802D01*
X239513082Y-29846561D01*
X239533060Y-29883937D01*
X239545363Y-29924493D01*
X239550000Y-29971574D01*
X239550000Y-30753426D01*
X239545363Y-30800507D01*
X239533060Y-30841063D01*
X239513082Y-30878439D01*
X239486198Y-30911198D01*
X239453439Y-30938082D01*
X239416063Y-30958060D01*
X239375507Y-30970363D01*
X239328426Y-30975000D01*
X236271574Y-30975000D01*
X236224493Y-30970363D01*
X236183937Y-30958060D01*
X236146561Y-30938082D01*
X236113802Y-30911198D01*
X236086918Y-30878439D01*
X236066940Y-30841063D01*
X236054637Y-30800507D01*
X236050000Y-30753426D01*
X236050000Y-29971574D01*
X236054637Y-29924493D01*
X236066940Y-29883937D01*
X236086918Y-29846561D01*
X236113802Y-29813802D01*
X236146561Y-29786918D01*
X236183937Y-29766940D01*
X236224493Y-29754637D01*
X236271574Y-29750000D01*
X239328426Y-29750000D01*
X239375507Y-29754637D01*
X239375507Y-29754637D01*
G37*
G36*
X30575507Y-29754637D02*
X30616063Y-29766940D01*
X30653439Y-29786918D01*
X30686198Y-29813802D01*
X30713082Y-29846561D01*
X30733060Y-29883937D01*
X30745363Y-29924493D01*
X30750000Y-29971574D01*
X30750000Y-30753426D01*
X30745363Y-30800507D01*
X30733060Y-30841063D01*
X30713082Y-30878439D01*
X30686198Y-30911198D01*
X30653439Y-30938082D01*
X30616063Y-30958060D01*
X30575507Y-30970363D01*
X30528426Y-30975000D01*
X27471574Y-30975000D01*
X27424493Y-30970363D01*
X27383937Y-30958060D01*
X27346561Y-30938082D01*
X27313802Y-30911198D01*
X27286918Y-30878439D01*
X27266940Y-30841063D01*
X27254637Y-30800507D01*
X27250000Y-30753426D01*
X27250000Y-29971574D01*
X27254637Y-29924493D01*
X27266940Y-29883937D01*
X27286918Y-29846561D01*
X27313802Y-29813802D01*
X27346561Y-29786918D01*
X27383937Y-29766940D01*
X27424493Y-29754637D01*
X27471574Y-29750000D01*
X30528426Y-29750000D01*
X30575507Y-29754637D01*
X30575507Y-29754637D01*
G37*
G36*
X256775507Y-29754637D02*
X256816063Y-29766940D01*
X256853439Y-29786918D01*
X256886198Y-29813802D01*
X256913082Y-29846561D01*
X256933060Y-29883937D01*
X256945363Y-29924493D01*
X256950000Y-29971574D01*
X256950000Y-30753426D01*
X256945363Y-30800507D01*
X256933060Y-30841063D01*
X256913082Y-30878439D01*
X256886198Y-30911198D01*
X256853439Y-30938082D01*
X256816063Y-30958060D01*
X256775507Y-30970363D01*
X256728426Y-30975000D01*
X253671574Y-30975000D01*
X253624493Y-30970363D01*
X253583937Y-30958060D01*
X253546561Y-30938082D01*
X253513802Y-30911198D01*
X253486918Y-30878439D01*
X253466940Y-30841063D01*
X253454637Y-30800507D01*
X253450000Y-30753426D01*
X253450000Y-29971574D01*
X253454637Y-29924493D01*
X253466940Y-29883937D01*
X253486918Y-29846561D01*
X253513802Y-29813802D01*
X253546561Y-29786918D01*
X253583937Y-29766940D01*
X253624493Y-29754637D01*
X253671574Y-29750000D01*
X256728426Y-29750000D01*
X256775507Y-29754637D01*
X256775507Y-29754637D01*
G37*
G36*
X36375507Y-29754637D02*
X36416063Y-29766940D01*
X36453439Y-29786918D01*
X36486198Y-29813802D01*
X36513082Y-29846561D01*
X36533060Y-29883937D01*
X36545363Y-29924493D01*
X36550000Y-29971574D01*
X36550000Y-30753426D01*
X36545363Y-30800507D01*
X36533060Y-30841063D01*
X36513082Y-30878439D01*
X36486198Y-30911198D01*
X36453439Y-30938082D01*
X36416063Y-30958060D01*
X36375507Y-30970363D01*
X36328426Y-30975000D01*
X33271574Y-30975000D01*
X33224493Y-30970363D01*
X33183937Y-30958060D01*
X33146561Y-30938082D01*
X33113802Y-30911198D01*
X33086918Y-30878439D01*
X33066940Y-30841063D01*
X33054637Y-30800507D01*
X33050000Y-30753426D01*
X33050000Y-29971574D01*
X33054637Y-29924493D01*
X33066940Y-29883937D01*
X33086918Y-29846561D01*
X33113802Y-29813802D01*
X33146561Y-29786918D01*
X33183937Y-29766940D01*
X33224493Y-29754637D01*
X33271574Y-29750000D01*
X36328426Y-29750000D01*
X36375507Y-29754637D01*
X36375507Y-29754637D01*
G37*
G36*
X71175507Y-29754637D02*
X71216063Y-29766940D01*
X71253439Y-29786918D01*
X71286198Y-29813802D01*
X71313082Y-29846561D01*
X71333060Y-29883937D01*
X71345363Y-29924493D01*
X71350000Y-29971574D01*
X71350000Y-30753426D01*
X71345363Y-30800507D01*
X71333060Y-30841063D01*
X71313082Y-30878439D01*
X71286198Y-30911198D01*
X71253439Y-30938082D01*
X71216063Y-30958060D01*
X71175507Y-30970363D01*
X71128426Y-30975000D01*
X68071574Y-30975000D01*
X68024493Y-30970363D01*
X67983937Y-30958060D01*
X67946561Y-30938082D01*
X67913802Y-30911198D01*
X67886918Y-30878439D01*
X67866940Y-30841063D01*
X67854637Y-30800507D01*
X67850000Y-30753426D01*
X67850000Y-29971574D01*
X67854637Y-29924493D01*
X67866940Y-29883937D01*
X67886918Y-29846561D01*
X67913802Y-29813802D01*
X67946561Y-29786918D01*
X67983937Y-29766940D01*
X68024493Y-29754637D01*
X68071574Y-29750000D01*
X71128426Y-29750000D01*
X71175507Y-29754637D01*
X71175507Y-29754637D01*
G37*
G36*
X152375507Y-29754637D02*
X152416063Y-29766940D01*
X152453439Y-29786918D01*
X152486198Y-29813802D01*
X152513082Y-29846561D01*
X152533060Y-29883937D01*
X152545363Y-29924493D01*
X152550000Y-29971574D01*
X152550000Y-30753426D01*
X152545363Y-30800507D01*
X152533060Y-30841063D01*
X152513082Y-30878439D01*
X152486198Y-30911198D01*
X152453439Y-30938082D01*
X152416063Y-30958060D01*
X152375507Y-30970363D01*
X152328426Y-30975000D01*
X149271574Y-30975000D01*
X149224493Y-30970363D01*
X149183937Y-30958060D01*
X149146561Y-30938082D01*
X149113802Y-30911198D01*
X149086918Y-30878439D01*
X149066940Y-30841063D01*
X149054637Y-30800507D01*
X149050000Y-30753426D01*
X149050000Y-29971574D01*
X149054637Y-29924493D01*
X149066940Y-29883937D01*
X149086918Y-29846561D01*
X149113802Y-29813802D01*
X149146561Y-29786918D01*
X149183937Y-29766940D01*
X149224493Y-29754637D01*
X149271574Y-29750000D01*
X152328426Y-29750000D01*
X152375507Y-29754637D01*
X152375507Y-29754637D01*
G37*
G36*
X111775507Y-29754637D02*
X111816063Y-29766940D01*
X111853439Y-29786918D01*
X111886198Y-29813802D01*
X111913082Y-29846561D01*
X111933060Y-29883937D01*
X111945363Y-29924493D01*
X111950000Y-29971574D01*
X111950000Y-30753426D01*
X111945363Y-30800507D01*
X111933060Y-30841063D01*
X111913082Y-30878439D01*
X111886198Y-30911198D01*
X111853439Y-30938082D01*
X111816063Y-30958060D01*
X111775507Y-30970363D01*
X111728426Y-30975000D01*
X108671574Y-30975000D01*
X108624493Y-30970363D01*
X108583937Y-30958060D01*
X108546561Y-30938082D01*
X108513802Y-30911198D01*
X108486918Y-30878439D01*
X108466940Y-30841063D01*
X108454637Y-30800507D01*
X108450000Y-30753426D01*
X108450000Y-29971574D01*
X108454637Y-29924493D01*
X108466940Y-29883937D01*
X108486918Y-29846561D01*
X108513802Y-29813802D01*
X108546561Y-29786918D01*
X108583937Y-29766940D01*
X108624493Y-29754637D01*
X108671574Y-29750000D01*
X111728426Y-29750000D01*
X111775507Y-29754637D01*
X111775507Y-29754637D01*
G37*
G36*
X59575507Y-29754637D02*
X59616063Y-29766940D01*
X59653439Y-29786918D01*
X59686198Y-29813802D01*
X59713082Y-29846561D01*
X59733060Y-29883937D01*
X59745363Y-29924493D01*
X59750000Y-29971574D01*
X59750000Y-30753426D01*
X59745363Y-30800507D01*
X59733060Y-30841063D01*
X59713082Y-30878439D01*
X59686198Y-30911198D01*
X59653439Y-30938082D01*
X59616063Y-30958060D01*
X59575507Y-30970363D01*
X59528426Y-30975000D01*
X56471574Y-30975000D01*
X56424493Y-30970363D01*
X56383937Y-30958060D01*
X56346561Y-30938082D01*
X56313802Y-30911198D01*
X56286918Y-30878439D01*
X56266940Y-30841063D01*
X56254637Y-30800507D01*
X56250000Y-30753426D01*
X56250000Y-29971574D01*
X56254637Y-29924493D01*
X56266940Y-29883937D01*
X56286918Y-29846561D01*
X56313802Y-29813802D01*
X56346561Y-29786918D01*
X56383937Y-29766940D01*
X56424493Y-29754637D01*
X56471574Y-29750000D01*
X59528426Y-29750000D01*
X59575507Y-29754637D01*
X59575507Y-29754637D01*
G37*
G36*
X123375507Y-29754637D02*
X123416063Y-29766940D01*
X123453439Y-29786918D01*
X123486198Y-29813802D01*
X123513082Y-29846561D01*
X123533060Y-29883937D01*
X123545363Y-29924493D01*
X123550000Y-29971574D01*
X123550000Y-30753426D01*
X123545363Y-30800507D01*
X123533060Y-30841063D01*
X123513082Y-30878439D01*
X123486198Y-30911198D01*
X123453439Y-30938082D01*
X123416063Y-30958060D01*
X123375507Y-30970363D01*
X123328426Y-30975000D01*
X120271574Y-30975000D01*
X120224493Y-30970363D01*
X120183937Y-30958060D01*
X120146561Y-30938082D01*
X120113802Y-30911198D01*
X120086918Y-30878439D01*
X120066940Y-30841063D01*
X120054637Y-30800507D01*
X120050000Y-30753426D01*
X120050000Y-29971574D01*
X120054637Y-29924493D01*
X120066940Y-29883937D01*
X120086918Y-29846561D01*
X120113802Y-29813802D01*
X120146561Y-29786918D01*
X120183937Y-29766940D01*
X120224493Y-29754637D01*
X120271574Y-29750000D01*
X123328426Y-29750000D01*
X123375507Y-29754637D01*
X123375507Y-29754637D01*
G37*
G36*
X82775507Y-29754637D02*
X82816063Y-29766940D01*
X82853439Y-29786918D01*
X82886198Y-29813802D01*
X82913082Y-29846561D01*
X82933060Y-29883937D01*
X82945363Y-29924493D01*
X82950000Y-29971574D01*
X82950000Y-30753426D01*
X82945363Y-30800507D01*
X82933060Y-30841063D01*
X82913082Y-30878439D01*
X82886198Y-30911198D01*
X82853439Y-30938082D01*
X82816063Y-30958060D01*
X82775507Y-30970363D01*
X82728426Y-30975000D01*
X79671574Y-30975000D01*
X79624493Y-30970363D01*
X79583937Y-30958060D01*
X79546561Y-30938082D01*
X79513802Y-30911198D01*
X79486918Y-30878439D01*
X79466940Y-30841063D01*
X79454637Y-30800507D01*
X79450000Y-30753426D01*
X79450000Y-29971574D01*
X79454637Y-29924493D01*
X79466940Y-29883937D01*
X79486918Y-29846561D01*
X79513802Y-29813802D01*
X79546561Y-29786918D01*
X79583937Y-29766940D01*
X79624493Y-29754637D01*
X79671574Y-29750000D01*
X82728426Y-29750000D01*
X82775507Y-29754637D01*
X82775507Y-29754637D01*
G37*
G36*
X100175507Y-29754637D02*
X100216063Y-29766940D01*
X100253439Y-29786918D01*
X100286198Y-29813802D01*
X100313082Y-29846561D01*
X100333060Y-29883937D01*
X100345363Y-29924493D01*
X100350000Y-29971574D01*
X100350000Y-30753426D01*
X100345363Y-30800507D01*
X100333060Y-30841063D01*
X100313082Y-30878439D01*
X100286198Y-30911198D01*
X100253439Y-30938082D01*
X100216063Y-30958060D01*
X100175507Y-30970363D01*
X100128426Y-30975000D01*
X97071574Y-30975000D01*
X97024493Y-30970363D01*
X96983937Y-30958060D01*
X96946561Y-30938082D01*
X96913802Y-30911198D01*
X96886918Y-30878439D01*
X96866940Y-30841063D01*
X96854637Y-30800507D01*
X96850000Y-30753426D01*
X96850000Y-29971574D01*
X96854637Y-29924493D01*
X96866940Y-29883937D01*
X96886918Y-29846561D01*
X96913802Y-29813802D01*
X96946561Y-29786918D01*
X96983937Y-29766940D01*
X97024493Y-29754637D01*
X97071574Y-29750000D01*
X100128426Y-29750000D01*
X100175507Y-29754637D01*
X100175507Y-29754637D01*
G37*
G36*
X94375507Y-29754637D02*
X94416063Y-29766940D01*
X94453439Y-29786918D01*
X94486198Y-29813802D01*
X94513082Y-29846561D01*
X94533060Y-29883937D01*
X94545363Y-29924493D01*
X94550000Y-29971574D01*
X94550000Y-30753426D01*
X94545363Y-30800507D01*
X94533060Y-30841063D01*
X94513082Y-30878439D01*
X94486198Y-30911198D01*
X94453439Y-30938082D01*
X94416063Y-30958060D01*
X94375507Y-30970363D01*
X94328426Y-30975000D01*
X91271574Y-30975000D01*
X91224493Y-30970363D01*
X91183937Y-30958060D01*
X91146561Y-30938082D01*
X91113802Y-30911198D01*
X91086918Y-30878439D01*
X91066940Y-30841063D01*
X91054637Y-30800507D01*
X91050000Y-30753426D01*
X91050000Y-29971574D01*
X91054637Y-29924493D01*
X91066940Y-29883937D01*
X91086918Y-29846561D01*
X91113802Y-29813802D01*
X91146561Y-29786918D01*
X91183937Y-29766940D01*
X91224493Y-29754637D01*
X91271574Y-29750000D01*
X94328426Y-29750000D01*
X94375507Y-29754637D01*
X94375507Y-29754637D01*
G37*
G36*
X47975507Y-29754637D02*
X48016063Y-29766940D01*
X48053439Y-29786918D01*
X48086198Y-29813802D01*
X48113082Y-29846561D01*
X48133060Y-29883937D01*
X48145363Y-29924493D01*
X48150000Y-29971574D01*
X48150000Y-30753426D01*
X48145363Y-30800507D01*
X48133060Y-30841063D01*
X48113082Y-30878439D01*
X48086198Y-30911198D01*
X48053439Y-30938082D01*
X48016063Y-30958060D01*
X47975507Y-30970363D01*
X47928426Y-30975000D01*
X44871574Y-30975000D01*
X44824493Y-30970363D01*
X44783937Y-30958060D01*
X44746561Y-30938082D01*
X44713802Y-30911198D01*
X44686918Y-30878439D01*
X44666940Y-30841063D01*
X44654637Y-30800507D01*
X44650000Y-30753426D01*
X44650000Y-29971574D01*
X44654637Y-29924493D01*
X44666940Y-29883937D01*
X44686918Y-29846561D01*
X44713802Y-29813802D01*
X44746561Y-29786918D01*
X44783937Y-29766940D01*
X44824493Y-29754637D01*
X44871574Y-29750000D01*
X47928426Y-29750000D01*
X47975507Y-29754637D01*
X47975507Y-29754637D01*
G37*
G36*
X187175507Y-29754637D02*
X187216063Y-29766940D01*
X187253439Y-29786918D01*
X187286198Y-29813802D01*
X187313082Y-29846561D01*
X187333060Y-29883937D01*
X187345363Y-29924493D01*
X187350000Y-29971574D01*
X187350000Y-30753426D01*
X187345363Y-30800507D01*
X187333060Y-30841063D01*
X187313082Y-30878439D01*
X187286198Y-30911198D01*
X187253439Y-30938082D01*
X187216063Y-30958060D01*
X187175507Y-30970363D01*
X187128426Y-30975000D01*
X184071574Y-30975000D01*
X184024493Y-30970363D01*
X183983937Y-30958060D01*
X183946561Y-30938082D01*
X183913802Y-30911198D01*
X183886918Y-30878439D01*
X183866940Y-30841063D01*
X183854637Y-30800507D01*
X183850000Y-30753426D01*
X183850000Y-29971574D01*
X183854637Y-29924493D01*
X183866940Y-29883937D01*
X183886918Y-29846561D01*
X183913802Y-29813802D01*
X183946561Y-29786918D01*
X183983937Y-29766940D01*
X184024493Y-29754637D01*
X184071574Y-29750000D01*
X187128426Y-29750000D01*
X187175507Y-29754637D01*
X187175507Y-29754637D01*
G37*
G36*
X105975507Y-29754637D02*
X106016063Y-29766940D01*
X106053439Y-29786918D01*
X106086198Y-29813802D01*
X106113082Y-29846561D01*
X106133060Y-29883937D01*
X106145363Y-29924493D01*
X106150000Y-29971574D01*
X106150000Y-30753426D01*
X106145363Y-30800507D01*
X106133060Y-30841063D01*
X106113082Y-30878439D01*
X106086198Y-30911198D01*
X106053439Y-30938082D01*
X106016063Y-30958060D01*
X105975507Y-30970363D01*
X105928426Y-30975000D01*
X102871574Y-30975000D01*
X102824493Y-30970363D01*
X102783937Y-30958060D01*
X102746561Y-30938082D01*
X102713802Y-30911198D01*
X102686918Y-30878439D01*
X102666940Y-30841063D01*
X102654637Y-30800507D01*
X102650000Y-30753426D01*
X102650000Y-29971574D01*
X102654637Y-29924493D01*
X102666940Y-29883937D01*
X102686918Y-29846561D01*
X102713802Y-29813802D01*
X102746561Y-29786918D01*
X102783937Y-29766940D01*
X102824493Y-29754637D01*
X102871574Y-29750000D01*
X105928426Y-29750000D01*
X105975507Y-29754637D01*
X105975507Y-29754637D01*
G37*
G36*
X169775507Y-29754637D02*
X169816063Y-29766940D01*
X169853439Y-29786918D01*
X169886198Y-29813802D01*
X169913082Y-29846561D01*
X169933060Y-29883937D01*
X169945363Y-29924493D01*
X169950000Y-29971574D01*
X169950000Y-30753426D01*
X169945363Y-30800507D01*
X169933060Y-30841063D01*
X169913082Y-30878439D01*
X169886198Y-30911198D01*
X169853439Y-30938082D01*
X169816063Y-30958060D01*
X169775507Y-30970363D01*
X169728426Y-30975000D01*
X166671574Y-30975000D01*
X166624493Y-30970363D01*
X166583937Y-30958060D01*
X166546561Y-30938082D01*
X166513802Y-30911198D01*
X166486918Y-30878439D01*
X166466940Y-30841063D01*
X166454637Y-30800507D01*
X166450000Y-30753426D01*
X166450000Y-29971574D01*
X166454637Y-29924493D01*
X166466940Y-29883937D01*
X166486918Y-29846561D01*
X166513802Y-29813802D01*
X166546561Y-29786918D01*
X166583937Y-29766940D01*
X166624493Y-29754637D01*
X166671574Y-29750000D01*
X169728426Y-29750000D01*
X169775507Y-29754637D01*
X169775507Y-29754637D01*
G37*
G36*
X88575507Y-29754637D02*
X88616063Y-29766940D01*
X88653439Y-29786918D01*
X88686198Y-29813802D01*
X88713082Y-29846561D01*
X88733060Y-29883937D01*
X88745363Y-29924493D01*
X88750000Y-29971574D01*
X88750000Y-30753426D01*
X88745363Y-30800507D01*
X88733060Y-30841063D01*
X88713082Y-30878439D01*
X88686198Y-30911198D01*
X88653439Y-30938082D01*
X88616063Y-30958060D01*
X88575507Y-30970363D01*
X88528426Y-30975000D01*
X85471574Y-30975000D01*
X85424493Y-30970363D01*
X85383937Y-30958060D01*
X85346561Y-30938082D01*
X85313802Y-30911198D01*
X85286918Y-30878439D01*
X85266940Y-30841063D01*
X85254637Y-30800507D01*
X85250000Y-30753426D01*
X85250000Y-29971574D01*
X85254637Y-29924493D01*
X85266940Y-29883937D01*
X85286918Y-29846561D01*
X85313802Y-29813802D01*
X85346561Y-29786918D01*
X85383937Y-29766940D01*
X85424493Y-29754637D01*
X85471574Y-29750000D01*
X88528426Y-29750000D01*
X88575507Y-29754637D01*
X88575507Y-29754637D01*
G37*
G36*
X117575507Y-29754637D02*
X117616063Y-29766940D01*
X117653439Y-29786918D01*
X117686198Y-29813802D01*
X117713082Y-29846561D01*
X117733060Y-29883937D01*
X117745363Y-29924493D01*
X117750000Y-29971574D01*
X117750000Y-30753426D01*
X117745363Y-30800507D01*
X117733060Y-30841063D01*
X117713082Y-30878439D01*
X117686198Y-30911198D01*
X117653439Y-30938082D01*
X117616063Y-30958060D01*
X117575507Y-30970363D01*
X117528426Y-30975000D01*
X114471574Y-30975000D01*
X114424493Y-30970363D01*
X114383937Y-30958060D01*
X114346561Y-30938082D01*
X114313802Y-30911198D01*
X114286918Y-30878439D01*
X114266940Y-30841063D01*
X114254637Y-30800507D01*
X114250000Y-30753426D01*
X114250000Y-29971574D01*
X114254637Y-29924493D01*
X114266940Y-29883937D01*
X114286918Y-29846561D01*
X114313802Y-29813802D01*
X114346561Y-29786918D01*
X114383937Y-29766940D01*
X114424493Y-29754637D01*
X114471574Y-29750000D01*
X117528426Y-29750000D01*
X117575507Y-29754637D01*
X117575507Y-29754637D01*
G37*
G36*
X76975507Y-29754637D02*
X77016063Y-29766940D01*
X77053439Y-29786918D01*
X77086198Y-29813802D01*
X77113082Y-29846561D01*
X77133060Y-29883937D01*
X77145363Y-29924493D01*
X77150000Y-29971574D01*
X77150000Y-30753426D01*
X77145363Y-30800507D01*
X77133060Y-30841063D01*
X77113082Y-30878439D01*
X77086198Y-30911198D01*
X77053439Y-30938082D01*
X77016063Y-30958060D01*
X76975507Y-30970363D01*
X76928426Y-30975000D01*
X73871574Y-30975000D01*
X73824493Y-30970363D01*
X73783937Y-30958060D01*
X73746561Y-30938082D01*
X73713802Y-30911198D01*
X73686918Y-30878439D01*
X73666940Y-30841063D01*
X73654637Y-30800507D01*
X73650000Y-30753426D01*
X73650000Y-29971574D01*
X73654637Y-29924493D01*
X73666940Y-29883937D01*
X73686918Y-29846561D01*
X73713802Y-29813802D01*
X73746561Y-29786918D01*
X73783937Y-29766940D01*
X73824493Y-29754637D01*
X73871574Y-29750000D01*
X76928426Y-29750000D01*
X76975507Y-29754637D01*
X76975507Y-29754637D01*
G37*
G36*
X129175507Y-29754637D02*
X129216063Y-29766940D01*
X129253439Y-29786918D01*
X129286198Y-29813802D01*
X129313082Y-29846561D01*
X129333060Y-29883937D01*
X129345363Y-29924493D01*
X129350000Y-29971574D01*
X129350000Y-30753426D01*
X129345363Y-30800507D01*
X129333060Y-30841063D01*
X129313082Y-30878439D01*
X129286198Y-30911198D01*
X129253439Y-30938082D01*
X129216063Y-30958060D01*
X129175507Y-30970363D01*
X129128426Y-30975000D01*
X126071574Y-30975000D01*
X126024493Y-30970363D01*
X125983937Y-30958060D01*
X125946561Y-30938082D01*
X125913802Y-30911198D01*
X125886918Y-30878439D01*
X125866940Y-30841063D01*
X125854637Y-30800507D01*
X125850000Y-30753426D01*
X125850000Y-29971574D01*
X125854637Y-29924493D01*
X125866940Y-29883937D01*
X125886918Y-29846561D01*
X125913802Y-29813802D01*
X125946561Y-29786918D01*
X125983937Y-29766940D01*
X126024493Y-29754637D01*
X126071574Y-29750000D01*
X129128426Y-29750000D01*
X129175507Y-29754637D01*
X129175507Y-29754637D01*
G37*
G36*
X65375507Y-29754637D02*
X65416063Y-29766940D01*
X65453439Y-29786918D01*
X65486198Y-29813802D01*
X65513082Y-29846561D01*
X65533060Y-29883937D01*
X65545363Y-29924493D01*
X65550000Y-29971574D01*
X65550000Y-30753426D01*
X65545363Y-30800507D01*
X65533060Y-30841063D01*
X65513082Y-30878439D01*
X65486198Y-30911198D01*
X65453439Y-30938082D01*
X65416063Y-30958060D01*
X65375507Y-30970363D01*
X65328426Y-30975000D01*
X62271574Y-30975000D01*
X62224493Y-30970363D01*
X62183937Y-30958060D01*
X62146561Y-30938082D01*
X62113802Y-30911198D01*
X62086918Y-30878439D01*
X62066940Y-30841063D01*
X62054637Y-30800507D01*
X62050000Y-30753426D01*
X62050000Y-29971574D01*
X62054637Y-29924493D01*
X62066940Y-29883937D01*
X62086918Y-29846561D01*
X62113802Y-29813802D01*
X62146561Y-29786918D01*
X62183937Y-29766940D01*
X62224493Y-29754637D01*
X62271574Y-29750000D01*
X65328426Y-29750000D01*
X65375507Y-29754637D01*
X65375507Y-29754637D01*
G37*
G36*
X140775507Y-29754637D02*
X140816063Y-29766940D01*
X140853439Y-29786918D01*
X140886198Y-29813802D01*
X140913082Y-29846561D01*
X140933060Y-29883937D01*
X140945363Y-29924493D01*
X140950000Y-29971574D01*
X140950000Y-30753426D01*
X140945363Y-30800507D01*
X140933060Y-30841063D01*
X140913082Y-30878439D01*
X140886198Y-30911198D01*
X140853439Y-30938082D01*
X140816063Y-30958060D01*
X140775507Y-30970363D01*
X140728426Y-30975000D01*
X137671574Y-30975000D01*
X137624493Y-30970363D01*
X137583937Y-30958060D01*
X137546561Y-30938082D01*
X137513802Y-30911198D01*
X137486918Y-30878439D01*
X137466940Y-30841063D01*
X137454637Y-30800507D01*
X137450000Y-30753426D01*
X137450000Y-29971574D01*
X137454637Y-29924493D01*
X137466940Y-29883937D01*
X137486918Y-29846561D01*
X137513802Y-29813802D01*
X137546561Y-29786918D01*
X137583937Y-29766940D01*
X137624493Y-29754637D01*
X137671574Y-29750000D01*
X140728426Y-29750000D01*
X140775507Y-29754637D01*
X140775507Y-29754637D01*
G37*
G36*
X53775507Y-29754637D02*
X53816063Y-29766940D01*
X53853439Y-29786918D01*
X53886198Y-29813802D01*
X53913082Y-29846561D01*
X53933060Y-29883937D01*
X53945363Y-29924493D01*
X53950000Y-29971574D01*
X53950000Y-30753426D01*
X53945363Y-30800507D01*
X53933060Y-30841063D01*
X53913082Y-30878439D01*
X53886198Y-30911198D01*
X53853439Y-30938082D01*
X53816063Y-30958060D01*
X53775507Y-30970363D01*
X53728426Y-30975000D01*
X50671574Y-30975000D01*
X50624493Y-30970363D01*
X50583937Y-30958060D01*
X50546561Y-30938082D01*
X50513802Y-30911198D01*
X50486918Y-30878439D01*
X50466940Y-30841063D01*
X50454637Y-30800507D01*
X50450000Y-30753426D01*
X50450000Y-29971574D01*
X50454637Y-29924493D01*
X50466940Y-29883937D01*
X50486918Y-29846561D01*
X50513802Y-29813802D01*
X50546561Y-29786918D01*
X50583937Y-29766940D01*
X50624493Y-29754637D01*
X50671574Y-29750000D01*
X53728426Y-29750000D01*
X53775507Y-29754637D01*
X53775507Y-29754637D01*
G37*
G36*
X42175507Y-29754637D02*
X42216063Y-29766940D01*
X42253439Y-29786918D01*
X42286198Y-29813802D01*
X42313082Y-29846561D01*
X42333060Y-29883937D01*
X42345363Y-29924493D01*
X42350000Y-29971574D01*
X42350000Y-30753426D01*
X42345363Y-30800507D01*
X42333060Y-30841063D01*
X42313082Y-30878439D01*
X42286198Y-30911198D01*
X42253439Y-30938082D01*
X42216063Y-30958060D01*
X42175507Y-30970363D01*
X42128426Y-30975000D01*
X39071574Y-30975000D01*
X39024493Y-30970363D01*
X38983937Y-30958060D01*
X38946561Y-30938082D01*
X38913802Y-30911198D01*
X38886918Y-30878439D01*
X38866940Y-30841063D01*
X38854637Y-30800507D01*
X38850000Y-30753426D01*
X38850000Y-29971574D01*
X38854637Y-29924493D01*
X38866940Y-29883937D01*
X38886918Y-29846561D01*
X38913802Y-29813802D01*
X38946561Y-29786918D01*
X38983937Y-29766940D01*
X39024493Y-29754637D01*
X39071574Y-29750000D01*
X42128426Y-29750000D01*
X42175507Y-29754637D01*
X42175507Y-29754637D01*
G37*
G36*
X245175507Y-29754637D02*
X245216063Y-29766940D01*
X245253439Y-29786918D01*
X245286198Y-29813802D01*
X245313082Y-29846561D01*
X245333060Y-29883937D01*
X245345363Y-29924493D01*
X245350000Y-29971574D01*
X245350000Y-30753426D01*
X245345363Y-30800507D01*
X245333060Y-30841063D01*
X245313082Y-30878439D01*
X245286198Y-30911198D01*
X245253439Y-30938082D01*
X245216063Y-30958060D01*
X245175507Y-30970363D01*
X245128426Y-30975000D01*
X242071574Y-30975000D01*
X242024493Y-30970363D01*
X241983937Y-30958060D01*
X241946561Y-30938082D01*
X241913802Y-30911198D01*
X241886918Y-30878439D01*
X241866940Y-30841063D01*
X241854637Y-30800507D01*
X241850000Y-30753426D01*
X241850000Y-29971574D01*
X241854637Y-29924493D01*
X241866940Y-29883937D01*
X241886918Y-29846561D01*
X241913802Y-29813802D01*
X241946561Y-29786918D01*
X241983937Y-29766940D01*
X242024493Y-29754637D01*
X242071574Y-29750000D01*
X245128426Y-29750000D01*
X245175507Y-29754637D01*
X245175507Y-29754637D01*
G37*
G36*
X23495872Y-21365330D02*
X23495874Y-21365331D01*
X23495875Y-21365331D01*
X23556284Y-21390353D01*
X23805252Y-21493479D01*
X24083687Y-21679523D01*
X24320477Y-21916313D01*
X24506521Y-22194748D01*
X24634670Y-22504128D01*
X24700000Y-22832565D01*
X24700000Y-23167435D01*
X24634670Y-23495872D01*
X24506521Y-23805252D01*
X24320477Y-24083687D01*
X24083687Y-24320477D01*
X23805252Y-24506521D01*
X23556284Y-24609647D01*
X23495875Y-24634669D01*
X23495874Y-24634669D01*
X23495872Y-24634670D01*
X23167435Y-24700000D01*
X22832565Y-24700000D01*
X22504128Y-24634670D01*
X22504126Y-24634669D01*
X22504125Y-24634669D01*
X22443716Y-24609647D01*
X22194748Y-24506521D01*
X21916313Y-24320477D01*
X21679523Y-24083687D01*
X21493479Y-23805252D01*
X21365330Y-23495872D01*
X21300000Y-23167435D01*
X21300000Y-22832565D01*
X21365330Y-22504128D01*
X21493479Y-22194748D01*
X21679523Y-21916313D01*
X21916313Y-21679523D01*
X22194748Y-21493479D01*
X22443716Y-21390353D01*
X22504125Y-21365331D01*
X22504126Y-21365331D01*
X22504128Y-21365330D01*
X22832565Y-21300000D01*
X23167435Y-21300000D01*
X23495872Y-21365330D01*
X23495872Y-21365330D01*
G37*
G36*
X261495872Y-21365330D02*
X261495874Y-21365331D01*
X261495875Y-21365331D01*
X261556284Y-21390353D01*
X261805252Y-21493479D01*
X262083687Y-21679523D01*
X262320477Y-21916313D01*
X262506521Y-22194748D01*
X262634670Y-22504128D01*
X262700000Y-22832565D01*
X262700000Y-23167435D01*
X262634670Y-23495872D01*
X262506521Y-23805252D01*
X262320477Y-24083687D01*
X262083687Y-24320477D01*
X261805252Y-24506521D01*
X261556284Y-24609647D01*
X261495875Y-24634669D01*
X261495874Y-24634669D01*
X261495872Y-24634670D01*
X261167435Y-24700000D01*
X260832565Y-24700000D01*
X260504128Y-24634670D01*
X260504126Y-24634669D01*
X260504125Y-24634669D01*
X260443716Y-24609647D01*
X260194748Y-24506521D01*
X259916313Y-24320477D01*
X259679523Y-24083687D01*
X259493479Y-23805252D01*
X259365330Y-23495872D01*
X259300000Y-23167435D01*
X259300000Y-22832565D01*
X259365330Y-22504128D01*
X259493479Y-22194748D01*
X259679523Y-21916313D01*
X259916313Y-21679523D01*
X260194748Y-21493479D01*
X260443716Y-21390353D01*
X260504125Y-21365331D01*
X260504126Y-21365331D01*
X260504128Y-21365330D01*
X260832565Y-21300000D01*
X261167435Y-21300000D01*
X261495872Y-21365330D01*
X261495872Y-21365330D01*
G37*
M02*
