M48
;DRILL file {KiCad 5.0.2-bee76a0~70~ubuntu18.04.1} date Fri 05 Jun 2020 01:56:25 PM PDT
;FORMAT={-:-/ absolute / inch / decimal}
FMAT,2
INCH,TZ
T1C0.0157
T2C0.1299
%
G90
G05
T1
X0.8465Y-1.1535
X0.8465Y-1.2795
X0.8465Y-1.4055
X0.9646Y-1.1535
X0.9646Y-1.2795
X0.9646Y-1.4055
X1.1417Y-1.1417
X1.1417Y-1.4173
X1.3701Y-1.1417
X1.3701Y-1.4173
X1.5984Y-1.1417
X1.5984Y-1.4173
X1.8268Y-1.1417
X1.8268Y-1.4173
X2.0551Y-1.1417
X2.0551Y-1.4173
X2.2835Y-1.1417
X2.2835Y-1.4173
X2.5118Y-1.1417
X2.5118Y-1.4173
X2.7402Y-1.1417
X2.7402Y-1.4173
X2.9685Y-1.1417
X2.9685Y-1.4173
X3.1969Y-1.1417
X3.1969Y-1.4173
X3.4252Y-1.1417
X3.4252Y-1.4173
X3.6535Y-1.1417
X3.6535Y-1.4173
X3.8819Y-1.1417
X3.8819Y-1.4173
X4.1102Y-1.1417
X4.1102Y-1.4173
X4.3386Y-1.1417
X4.3386Y-1.4173
X4.5669Y-1.1417
X4.5669Y-1.4173
X4.7953Y-1.1417
X4.7953Y-1.4173
X5.0236Y-1.1417
X5.0236Y-1.4173
X5.252Y-1.1417
X5.252Y-1.4173
X5.4803Y-1.1417
X5.4803Y-1.4173
X5.7087Y-1.1417
X5.7087Y-1.4173
X5.937Y-1.1417
X5.937Y-1.4173
X6.1654Y-1.1417
X6.1654Y-1.4173
X6.3937Y-1.1417
X6.3937Y-1.4173
X6.622Y-1.1417
X6.622Y-1.4173
X6.8504Y-1.1417
X6.8504Y-1.4173
X7.0787Y-1.1417
X7.0787Y-1.4173
X7.3071Y-1.1417
X7.3071Y-1.4173
X7.5354Y-1.1417
X7.5354Y-1.4173
X7.7638Y-1.1417
X7.7638Y-1.4173
X7.9921Y-1.1417
X7.9921Y-1.4173
X8.2205Y-1.1417
X8.2205Y-1.4173
X8.4488Y-1.1417
X8.4488Y-1.4173
X8.6772Y-1.1417
X8.6772Y-1.4173
X8.9055Y-1.1417
X8.9055Y-1.4173
X9.1339Y-1.1417
X9.1339Y-1.4173
X9.3622Y-1.1417
X9.3622Y-1.4173
X9.5906Y-1.1417
X9.5906Y-1.4173
X9.8189Y-1.1417
X9.8189Y-1.4173
X10.0472Y-1.1417
X10.0472Y-1.4173
X10.2244Y-1.1535
X10.2244Y-1.2795
X10.2244Y-1.4055
X10.3425Y-1.1535
X10.3425Y-1.2795
X10.3425Y-1.4055
T2
X10.2756Y-0.9055
X10.2756Y-1.6535
X0.9055Y-0.9055
X0.9055Y-1.6535
T0
M30
