G04 #@! TF.GenerationSoftware,KiCad,Pcbnew,5.0.2-bee76a0~70~ubuntu18.04.1*
G04 #@! TF.CreationDate,2020-06-05T13:56:22-07:00*
G04 #@! TF.ProjectId,secondary_mmc,7365636f-6e64-4617-9279-5f6d6d632e6b,rev?*
G04 #@! TF.SameCoordinates,Original*
G04 #@! TF.FileFunction,Copper,L1,Top*
G04 #@! TF.FilePolarity,Positive*
%FSLAX46Y46*%
G04 Gerber Fmt 4.6, Leading zero omitted, Abs format (unit mm)*
G04 Created by KiCad (PCBNEW 5.0.2-bee76a0~70~ubuntu18.04.1) date Fri 05 Jun 2020 01:56:22 PM PDT*
%MOMM*%
%LPD*%
G01*
G04 APERTURE LIST*
G04 #@! TA.AperFunction,Conductor*
%ADD10C,0.100000*%
G04 #@! TD*
G04 #@! TA.AperFunction,SMDPad,CuDef*
%ADD11C,1.125000*%
G04 #@! TD*
G04 #@! TA.AperFunction,ViaPad*
%ADD12C,0.800000*%
G04 #@! TD*
G04 #@! TA.AperFunction,Conductor*
%ADD13C,0.800000*%
G04 #@! TD*
G04 #@! TA.AperFunction,Conductor*
%ADD14C,0.254000*%
G04 #@! TD*
G04 APERTURE END LIST*
D10*
G04 #@! TO.N,/-*
G04 #@! TO.C,C1001*
G36*
X256674505Y-34076204D02*
X256698773Y-34079804D01*
X256722572Y-34085765D01*
X256745671Y-34094030D01*
X256767850Y-34104520D01*
X256788893Y-34117132D01*
X256808599Y-34131747D01*
X256826777Y-34148223D01*
X256843253Y-34166401D01*
X256857868Y-34186107D01*
X256870480Y-34207150D01*
X256880970Y-34229329D01*
X256889235Y-34252428D01*
X256895196Y-34276227D01*
X256898796Y-34300495D01*
X256900000Y-34324999D01*
X256900000Y-34950001D01*
X256898796Y-34974505D01*
X256895196Y-34998773D01*
X256889235Y-35022572D01*
X256880970Y-35045671D01*
X256870480Y-35067850D01*
X256857868Y-35088893D01*
X256843253Y-35108599D01*
X256826777Y-35126777D01*
X256808599Y-35143253D01*
X256788893Y-35157868D01*
X256767850Y-35170480D01*
X256745671Y-35180970D01*
X256722572Y-35189235D01*
X256698773Y-35195196D01*
X256674505Y-35198796D01*
X256650001Y-35200000D01*
X253749999Y-35200000D01*
X253725495Y-35198796D01*
X253701227Y-35195196D01*
X253677428Y-35189235D01*
X253654329Y-35180970D01*
X253632150Y-35170480D01*
X253611107Y-35157868D01*
X253591401Y-35143253D01*
X253573223Y-35126777D01*
X253556747Y-35108599D01*
X253542132Y-35088893D01*
X253529520Y-35067850D01*
X253519030Y-35045671D01*
X253510765Y-35022572D01*
X253504804Y-34998773D01*
X253501204Y-34974505D01*
X253500000Y-34950001D01*
X253500000Y-34324999D01*
X253501204Y-34300495D01*
X253504804Y-34276227D01*
X253510765Y-34252428D01*
X253519030Y-34229329D01*
X253529520Y-34207150D01*
X253542132Y-34186107D01*
X253556747Y-34166401D01*
X253573223Y-34148223D01*
X253591401Y-34131747D01*
X253611107Y-34117132D01*
X253632150Y-34104520D01*
X253654329Y-34094030D01*
X253677428Y-34085765D01*
X253701227Y-34079804D01*
X253725495Y-34076204D01*
X253749999Y-34075000D01*
X256650001Y-34075000D01*
X256674505Y-34076204D01*
X256674505Y-34076204D01*
G37*
D11*
G04 #@! TD*
G04 #@! TO.P,C1001,2*
G04 #@! TO.N,/-*
X255200000Y-34637500D03*
D10*
G04 #@! TO.N,/+*
G04 #@! TO.C,C1001*
G36*
X256674505Y-29801204D02*
X256698773Y-29804804D01*
X256722572Y-29810765D01*
X256745671Y-29819030D01*
X256767850Y-29829520D01*
X256788893Y-29842132D01*
X256808599Y-29856747D01*
X256826777Y-29873223D01*
X256843253Y-29891401D01*
X256857868Y-29911107D01*
X256870480Y-29932150D01*
X256880970Y-29954329D01*
X256889235Y-29977428D01*
X256895196Y-30001227D01*
X256898796Y-30025495D01*
X256900000Y-30049999D01*
X256900000Y-30675001D01*
X256898796Y-30699505D01*
X256895196Y-30723773D01*
X256889235Y-30747572D01*
X256880970Y-30770671D01*
X256870480Y-30792850D01*
X256857868Y-30813893D01*
X256843253Y-30833599D01*
X256826777Y-30851777D01*
X256808599Y-30868253D01*
X256788893Y-30882868D01*
X256767850Y-30895480D01*
X256745671Y-30905970D01*
X256722572Y-30914235D01*
X256698773Y-30920196D01*
X256674505Y-30923796D01*
X256650001Y-30925000D01*
X253749999Y-30925000D01*
X253725495Y-30923796D01*
X253701227Y-30920196D01*
X253677428Y-30914235D01*
X253654329Y-30905970D01*
X253632150Y-30895480D01*
X253611107Y-30882868D01*
X253591401Y-30868253D01*
X253573223Y-30851777D01*
X253556747Y-30833599D01*
X253542132Y-30813893D01*
X253529520Y-30792850D01*
X253519030Y-30770671D01*
X253510765Y-30747572D01*
X253504804Y-30723773D01*
X253501204Y-30699505D01*
X253500000Y-30675001D01*
X253500000Y-30049999D01*
X253501204Y-30025495D01*
X253504804Y-30001227D01*
X253510765Y-29977428D01*
X253519030Y-29954329D01*
X253529520Y-29932150D01*
X253542132Y-29911107D01*
X253556747Y-29891401D01*
X253573223Y-29873223D01*
X253591401Y-29856747D01*
X253611107Y-29842132D01*
X253632150Y-29829520D01*
X253654329Y-29819030D01*
X253677428Y-29810765D01*
X253701227Y-29804804D01*
X253725495Y-29801204D01*
X253749999Y-29800000D01*
X256650001Y-29800000D01*
X256674505Y-29801204D01*
X256674505Y-29801204D01*
G37*
D11*
G04 #@! TD*
G04 #@! TO.P,C1001,1*
G04 #@! TO.N,/+*
X255200000Y-30362500D03*
D10*
G04 #@! TO.N,N/C*
G04 #@! TO.C,REF\002A\002A*
G36*
X250874505Y-29801204D02*
X250898773Y-29804804D01*
X250922572Y-29810765D01*
X250945671Y-29819030D01*
X250967850Y-29829520D01*
X250988893Y-29842132D01*
X251008599Y-29856747D01*
X251026777Y-29873223D01*
X251043253Y-29891401D01*
X251057868Y-29911107D01*
X251070480Y-29932150D01*
X251080970Y-29954329D01*
X251089235Y-29977428D01*
X251095196Y-30001227D01*
X251098796Y-30025495D01*
X251100000Y-30049999D01*
X251100000Y-30675001D01*
X251098796Y-30699505D01*
X251095196Y-30723773D01*
X251089235Y-30747572D01*
X251080970Y-30770671D01*
X251070480Y-30792850D01*
X251057868Y-30813893D01*
X251043253Y-30833599D01*
X251026777Y-30851777D01*
X251008599Y-30868253D01*
X250988893Y-30882868D01*
X250967850Y-30895480D01*
X250945671Y-30905970D01*
X250922572Y-30914235D01*
X250898773Y-30920196D01*
X250874505Y-30923796D01*
X250850001Y-30925000D01*
X247949999Y-30925000D01*
X247925495Y-30923796D01*
X247901227Y-30920196D01*
X247877428Y-30914235D01*
X247854329Y-30905970D01*
X247832150Y-30895480D01*
X247811107Y-30882868D01*
X247791401Y-30868253D01*
X247773223Y-30851777D01*
X247756747Y-30833599D01*
X247742132Y-30813893D01*
X247729520Y-30792850D01*
X247719030Y-30770671D01*
X247710765Y-30747572D01*
X247704804Y-30723773D01*
X247701204Y-30699505D01*
X247700000Y-30675001D01*
X247700000Y-30049999D01*
X247701204Y-30025495D01*
X247704804Y-30001227D01*
X247710765Y-29977428D01*
X247719030Y-29954329D01*
X247729520Y-29932150D01*
X247742132Y-29911107D01*
X247756747Y-29891401D01*
X247773223Y-29873223D01*
X247791401Y-29856747D01*
X247811107Y-29842132D01*
X247832150Y-29829520D01*
X247854329Y-29819030D01*
X247877428Y-29810765D01*
X247901227Y-29804804D01*
X247925495Y-29801204D01*
X247949999Y-29800000D01*
X250850001Y-29800000D01*
X250874505Y-29801204D01*
X250874505Y-29801204D01*
G37*
D11*
G04 #@! TD*
G04 #@! TO.P,REF\002A\002A,2*
G04 #@! TO.N,N/C*
X249400000Y-30362500D03*
D10*
G04 #@! TO.N,N/C*
G04 #@! TO.C,REF\002A\002A*
G36*
X250874505Y-34076204D02*
X250898773Y-34079804D01*
X250922572Y-34085765D01*
X250945671Y-34094030D01*
X250967850Y-34104520D01*
X250988893Y-34117132D01*
X251008599Y-34131747D01*
X251026777Y-34148223D01*
X251043253Y-34166401D01*
X251057868Y-34186107D01*
X251070480Y-34207150D01*
X251080970Y-34229329D01*
X251089235Y-34252428D01*
X251095196Y-34276227D01*
X251098796Y-34300495D01*
X251100000Y-34324999D01*
X251100000Y-34950001D01*
X251098796Y-34974505D01*
X251095196Y-34998773D01*
X251089235Y-35022572D01*
X251080970Y-35045671D01*
X251070480Y-35067850D01*
X251057868Y-35088893D01*
X251043253Y-35108599D01*
X251026777Y-35126777D01*
X251008599Y-35143253D01*
X250988893Y-35157868D01*
X250967850Y-35170480D01*
X250945671Y-35180970D01*
X250922572Y-35189235D01*
X250898773Y-35195196D01*
X250874505Y-35198796D01*
X250850001Y-35200000D01*
X247949999Y-35200000D01*
X247925495Y-35198796D01*
X247901227Y-35195196D01*
X247877428Y-35189235D01*
X247854329Y-35180970D01*
X247832150Y-35170480D01*
X247811107Y-35157868D01*
X247791401Y-35143253D01*
X247773223Y-35126777D01*
X247756747Y-35108599D01*
X247742132Y-35088893D01*
X247729520Y-35067850D01*
X247719030Y-35045671D01*
X247710765Y-35022572D01*
X247704804Y-34998773D01*
X247701204Y-34974505D01*
X247700000Y-34950001D01*
X247700000Y-34324999D01*
X247701204Y-34300495D01*
X247704804Y-34276227D01*
X247710765Y-34252428D01*
X247719030Y-34229329D01*
X247729520Y-34207150D01*
X247742132Y-34186107D01*
X247756747Y-34166401D01*
X247773223Y-34148223D01*
X247791401Y-34131747D01*
X247811107Y-34117132D01*
X247832150Y-34104520D01*
X247854329Y-34094030D01*
X247877428Y-34085765D01*
X247901227Y-34079804D01*
X247925495Y-34076204D01*
X247949999Y-34075000D01*
X250850001Y-34075000D01*
X250874505Y-34076204D01*
X250874505Y-34076204D01*
G37*
D11*
G04 #@! TD*
G04 #@! TO.P,REF\002A\002A,1*
G04 #@! TO.N,N/C*
X249400000Y-34637500D03*
D10*
G04 #@! TO.N,N/C*
G04 #@! TO.C,REF\002A\002A*
G36*
X239274505Y-29801204D02*
X239298773Y-29804804D01*
X239322572Y-29810765D01*
X239345671Y-29819030D01*
X239367850Y-29829520D01*
X239388893Y-29842132D01*
X239408599Y-29856747D01*
X239426777Y-29873223D01*
X239443253Y-29891401D01*
X239457868Y-29911107D01*
X239470480Y-29932150D01*
X239480970Y-29954329D01*
X239489235Y-29977428D01*
X239495196Y-30001227D01*
X239498796Y-30025495D01*
X239500000Y-30049999D01*
X239500000Y-30675001D01*
X239498796Y-30699505D01*
X239495196Y-30723773D01*
X239489235Y-30747572D01*
X239480970Y-30770671D01*
X239470480Y-30792850D01*
X239457868Y-30813893D01*
X239443253Y-30833599D01*
X239426777Y-30851777D01*
X239408599Y-30868253D01*
X239388893Y-30882868D01*
X239367850Y-30895480D01*
X239345671Y-30905970D01*
X239322572Y-30914235D01*
X239298773Y-30920196D01*
X239274505Y-30923796D01*
X239250001Y-30925000D01*
X236349999Y-30925000D01*
X236325495Y-30923796D01*
X236301227Y-30920196D01*
X236277428Y-30914235D01*
X236254329Y-30905970D01*
X236232150Y-30895480D01*
X236211107Y-30882868D01*
X236191401Y-30868253D01*
X236173223Y-30851777D01*
X236156747Y-30833599D01*
X236142132Y-30813893D01*
X236129520Y-30792850D01*
X236119030Y-30770671D01*
X236110765Y-30747572D01*
X236104804Y-30723773D01*
X236101204Y-30699505D01*
X236100000Y-30675001D01*
X236100000Y-30049999D01*
X236101204Y-30025495D01*
X236104804Y-30001227D01*
X236110765Y-29977428D01*
X236119030Y-29954329D01*
X236129520Y-29932150D01*
X236142132Y-29911107D01*
X236156747Y-29891401D01*
X236173223Y-29873223D01*
X236191401Y-29856747D01*
X236211107Y-29842132D01*
X236232150Y-29829520D01*
X236254329Y-29819030D01*
X236277428Y-29810765D01*
X236301227Y-29804804D01*
X236325495Y-29801204D01*
X236349999Y-29800000D01*
X239250001Y-29800000D01*
X239274505Y-29801204D01*
X239274505Y-29801204D01*
G37*
D11*
G04 #@! TD*
G04 #@! TO.P,REF\002A\002A,2*
G04 #@! TO.N,N/C*
X237800000Y-30362500D03*
D10*
G04 #@! TO.N,N/C*
G04 #@! TO.C,REF\002A\002A*
G36*
X239274505Y-34076204D02*
X239298773Y-34079804D01*
X239322572Y-34085765D01*
X239345671Y-34094030D01*
X239367850Y-34104520D01*
X239388893Y-34117132D01*
X239408599Y-34131747D01*
X239426777Y-34148223D01*
X239443253Y-34166401D01*
X239457868Y-34186107D01*
X239470480Y-34207150D01*
X239480970Y-34229329D01*
X239489235Y-34252428D01*
X239495196Y-34276227D01*
X239498796Y-34300495D01*
X239500000Y-34324999D01*
X239500000Y-34950001D01*
X239498796Y-34974505D01*
X239495196Y-34998773D01*
X239489235Y-35022572D01*
X239480970Y-35045671D01*
X239470480Y-35067850D01*
X239457868Y-35088893D01*
X239443253Y-35108599D01*
X239426777Y-35126777D01*
X239408599Y-35143253D01*
X239388893Y-35157868D01*
X239367850Y-35170480D01*
X239345671Y-35180970D01*
X239322572Y-35189235D01*
X239298773Y-35195196D01*
X239274505Y-35198796D01*
X239250001Y-35200000D01*
X236349999Y-35200000D01*
X236325495Y-35198796D01*
X236301227Y-35195196D01*
X236277428Y-35189235D01*
X236254329Y-35180970D01*
X236232150Y-35170480D01*
X236211107Y-35157868D01*
X236191401Y-35143253D01*
X236173223Y-35126777D01*
X236156747Y-35108599D01*
X236142132Y-35088893D01*
X236129520Y-35067850D01*
X236119030Y-35045671D01*
X236110765Y-35022572D01*
X236104804Y-34998773D01*
X236101204Y-34974505D01*
X236100000Y-34950001D01*
X236100000Y-34324999D01*
X236101204Y-34300495D01*
X236104804Y-34276227D01*
X236110765Y-34252428D01*
X236119030Y-34229329D01*
X236129520Y-34207150D01*
X236142132Y-34186107D01*
X236156747Y-34166401D01*
X236173223Y-34148223D01*
X236191401Y-34131747D01*
X236211107Y-34117132D01*
X236232150Y-34104520D01*
X236254329Y-34094030D01*
X236277428Y-34085765D01*
X236301227Y-34079804D01*
X236325495Y-34076204D01*
X236349999Y-34075000D01*
X239250001Y-34075000D01*
X239274505Y-34076204D01*
X239274505Y-34076204D01*
G37*
D11*
G04 #@! TD*
G04 #@! TO.P,REF\002A\002A,1*
G04 #@! TO.N,N/C*
X237800000Y-34637500D03*
D10*
G04 #@! TO.N,N/C*
G04 #@! TO.C,REF\002A\002A*
G36*
X227674505Y-29801204D02*
X227698773Y-29804804D01*
X227722572Y-29810765D01*
X227745671Y-29819030D01*
X227767850Y-29829520D01*
X227788893Y-29842132D01*
X227808599Y-29856747D01*
X227826777Y-29873223D01*
X227843253Y-29891401D01*
X227857868Y-29911107D01*
X227870480Y-29932150D01*
X227880970Y-29954329D01*
X227889235Y-29977428D01*
X227895196Y-30001227D01*
X227898796Y-30025495D01*
X227900000Y-30049999D01*
X227900000Y-30675001D01*
X227898796Y-30699505D01*
X227895196Y-30723773D01*
X227889235Y-30747572D01*
X227880970Y-30770671D01*
X227870480Y-30792850D01*
X227857868Y-30813893D01*
X227843253Y-30833599D01*
X227826777Y-30851777D01*
X227808599Y-30868253D01*
X227788893Y-30882868D01*
X227767850Y-30895480D01*
X227745671Y-30905970D01*
X227722572Y-30914235D01*
X227698773Y-30920196D01*
X227674505Y-30923796D01*
X227650001Y-30925000D01*
X224749999Y-30925000D01*
X224725495Y-30923796D01*
X224701227Y-30920196D01*
X224677428Y-30914235D01*
X224654329Y-30905970D01*
X224632150Y-30895480D01*
X224611107Y-30882868D01*
X224591401Y-30868253D01*
X224573223Y-30851777D01*
X224556747Y-30833599D01*
X224542132Y-30813893D01*
X224529520Y-30792850D01*
X224519030Y-30770671D01*
X224510765Y-30747572D01*
X224504804Y-30723773D01*
X224501204Y-30699505D01*
X224500000Y-30675001D01*
X224500000Y-30049999D01*
X224501204Y-30025495D01*
X224504804Y-30001227D01*
X224510765Y-29977428D01*
X224519030Y-29954329D01*
X224529520Y-29932150D01*
X224542132Y-29911107D01*
X224556747Y-29891401D01*
X224573223Y-29873223D01*
X224591401Y-29856747D01*
X224611107Y-29842132D01*
X224632150Y-29829520D01*
X224654329Y-29819030D01*
X224677428Y-29810765D01*
X224701227Y-29804804D01*
X224725495Y-29801204D01*
X224749999Y-29800000D01*
X227650001Y-29800000D01*
X227674505Y-29801204D01*
X227674505Y-29801204D01*
G37*
D11*
G04 #@! TD*
G04 #@! TO.P,REF\002A\002A,2*
G04 #@! TO.N,N/C*
X226200000Y-30362500D03*
D10*
G04 #@! TO.N,N/C*
G04 #@! TO.C,REF\002A\002A*
G36*
X227674505Y-34076204D02*
X227698773Y-34079804D01*
X227722572Y-34085765D01*
X227745671Y-34094030D01*
X227767850Y-34104520D01*
X227788893Y-34117132D01*
X227808599Y-34131747D01*
X227826777Y-34148223D01*
X227843253Y-34166401D01*
X227857868Y-34186107D01*
X227870480Y-34207150D01*
X227880970Y-34229329D01*
X227889235Y-34252428D01*
X227895196Y-34276227D01*
X227898796Y-34300495D01*
X227900000Y-34324999D01*
X227900000Y-34950001D01*
X227898796Y-34974505D01*
X227895196Y-34998773D01*
X227889235Y-35022572D01*
X227880970Y-35045671D01*
X227870480Y-35067850D01*
X227857868Y-35088893D01*
X227843253Y-35108599D01*
X227826777Y-35126777D01*
X227808599Y-35143253D01*
X227788893Y-35157868D01*
X227767850Y-35170480D01*
X227745671Y-35180970D01*
X227722572Y-35189235D01*
X227698773Y-35195196D01*
X227674505Y-35198796D01*
X227650001Y-35200000D01*
X224749999Y-35200000D01*
X224725495Y-35198796D01*
X224701227Y-35195196D01*
X224677428Y-35189235D01*
X224654329Y-35180970D01*
X224632150Y-35170480D01*
X224611107Y-35157868D01*
X224591401Y-35143253D01*
X224573223Y-35126777D01*
X224556747Y-35108599D01*
X224542132Y-35088893D01*
X224529520Y-35067850D01*
X224519030Y-35045671D01*
X224510765Y-35022572D01*
X224504804Y-34998773D01*
X224501204Y-34974505D01*
X224500000Y-34950001D01*
X224500000Y-34324999D01*
X224501204Y-34300495D01*
X224504804Y-34276227D01*
X224510765Y-34252428D01*
X224519030Y-34229329D01*
X224529520Y-34207150D01*
X224542132Y-34186107D01*
X224556747Y-34166401D01*
X224573223Y-34148223D01*
X224591401Y-34131747D01*
X224611107Y-34117132D01*
X224632150Y-34104520D01*
X224654329Y-34094030D01*
X224677428Y-34085765D01*
X224701227Y-34079804D01*
X224725495Y-34076204D01*
X224749999Y-34075000D01*
X227650001Y-34075000D01*
X227674505Y-34076204D01*
X227674505Y-34076204D01*
G37*
D11*
G04 #@! TD*
G04 #@! TO.P,REF\002A\002A,1*
G04 #@! TO.N,N/C*
X226200000Y-34637500D03*
D10*
G04 #@! TO.N,N/C*
G04 #@! TO.C,REF\002A\002A*
G36*
X216074505Y-29801204D02*
X216098773Y-29804804D01*
X216122572Y-29810765D01*
X216145671Y-29819030D01*
X216167850Y-29829520D01*
X216188893Y-29842132D01*
X216208599Y-29856747D01*
X216226777Y-29873223D01*
X216243253Y-29891401D01*
X216257868Y-29911107D01*
X216270480Y-29932150D01*
X216280970Y-29954329D01*
X216289235Y-29977428D01*
X216295196Y-30001227D01*
X216298796Y-30025495D01*
X216300000Y-30049999D01*
X216300000Y-30675001D01*
X216298796Y-30699505D01*
X216295196Y-30723773D01*
X216289235Y-30747572D01*
X216280970Y-30770671D01*
X216270480Y-30792850D01*
X216257868Y-30813893D01*
X216243253Y-30833599D01*
X216226777Y-30851777D01*
X216208599Y-30868253D01*
X216188893Y-30882868D01*
X216167850Y-30895480D01*
X216145671Y-30905970D01*
X216122572Y-30914235D01*
X216098773Y-30920196D01*
X216074505Y-30923796D01*
X216050001Y-30925000D01*
X213149999Y-30925000D01*
X213125495Y-30923796D01*
X213101227Y-30920196D01*
X213077428Y-30914235D01*
X213054329Y-30905970D01*
X213032150Y-30895480D01*
X213011107Y-30882868D01*
X212991401Y-30868253D01*
X212973223Y-30851777D01*
X212956747Y-30833599D01*
X212942132Y-30813893D01*
X212929520Y-30792850D01*
X212919030Y-30770671D01*
X212910765Y-30747572D01*
X212904804Y-30723773D01*
X212901204Y-30699505D01*
X212900000Y-30675001D01*
X212900000Y-30049999D01*
X212901204Y-30025495D01*
X212904804Y-30001227D01*
X212910765Y-29977428D01*
X212919030Y-29954329D01*
X212929520Y-29932150D01*
X212942132Y-29911107D01*
X212956747Y-29891401D01*
X212973223Y-29873223D01*
X212991401Y-29856747D01*
X213011107Y-29842132D01*
X213032150Y-29829520D01*
X213054329Y-29819030D01*
X213077428Y-29810765D01*
X213101227Y-29804804D01*
X213125495Y-29801204D01*
X213149999Y-29800000D01*
X216050001Y-29800000D01*
X216074505Y-29801204D01*
X216074505Y-29801204D01*
G37*
D11*
G04 #@! TD*
G04 #@! TO.P,REF\002A\002A,2*
G04 #@! TO.N,N/C*
X214600000Y-30362500D03*
D10*
G04 #@! TO.N,N/C*
G04 #@! TO.C,REF\002A\002A*
G36*
X216074505Y-34076204D02*
X216098773Y-34079804D01*
X216122572Y-34085765D01*
X216145671Y-34094030D01*
X216167850Y-34104520D01*
X216188893Y-34117132D01*
X216208599Y-34131747D01*
X216226777Y-34148223D01*
X216243253Y-34166401D01*
X216257868Y-34186107D01*
X216270480Y-34207150D01*
X216280970Y-34229329D01*
X216289235Y-34252428D01*
X216295196Y-34276227D01*
X216298796Y-34300495D01*
X216300000Y-34324999D01*
X216300000Y-34950001D01*
X216298796Y-34974505D01*
X216295196Y-34998773D01*
X216289235Y-35022572D01*
X216280970Y-35045671D01*
X216270480Y-35067850D01*
X216257868Y-35088893D01*
X216243253Y-35108599D01*
X216226777Y-35126777D01*
X216208599Y-35143253D01*
X216188893Y-35157868D01*
X216167850Y-35170480D01*
X216145671Y-35180970D01*
X216122572Y-35189235D01*
X216098773Y-35195196D01*
X216074505Y-35198796D01*
X216050001Y-35200000D01*
X213149999Y-35200000D01*
X213125495Y-35198796D01*
X213101227Y-35195196D01*
X213077428Y-35189235D01*
X213054329Y-35180970D01*
X213032150Y-35170480D01*
X213011107Y-35157868D01*
X212991401Y-35143253D01*
X212973223Y-35126777D01*
X212956747Y-35108599D01*
X212942132Y-35088893D01*
X212929520Y-35067850D01*
X212919030Y-35045671D01*
X212910765Y-35022572D01*
X212904804Y-34998773D01*
X212901204Y-34974505D01*
X212900000Y-34950001D01*
X212900000Y-34324999D01*
X212901204Y-34300495D01*
X212904804Y-34276227D01*
X212910765Y-34252428D01*
X212919030Y-34229329D01*
X212929520Y-34207150D01*
X212942132Y-34186107D01*
X212956747Y-34166401D01*
X212973223Y-34148223D01*
X212991401Y-34131747D01*
X213011107Y-34117132D01*
X213032150Y-34104520D01*
X213054329Y-34094030D01*
X213077428Y-34085765D01*
X213101227Y-34079804D01*
X213125495Y-34076204D01*
X213149999Y-34075000D01*
X216050001Y-34075000D01*
X216074505Y-34076204D01*
X216074505Y-34076204D01*
G37*
D11*
G04 #@! TD*
G04 #@! TO.P,REF\002A\002A,1*
G04 #@! TO.N,N/C*
X214600000Y-34637500D03*
D10*
G04 #@! TO.N,N/C*
G04 #@! TO.C,REF\002A\002A*
G36*
X204474505Y-29801204D02*
X204498773Y-29804804D01*
X204522572Y-29810765D01*
X204545671Y-29819030D01*
X204567850Y-29829520D01*
X204588893Y-29842132D01*
X204608599Y-29856747D01*
X204626777Y-29873223D01*
X204643253Y-29891401D01*
X204657868Y-29911107D01*
X204670480Y-29932150D01*
X204680970Y-29954329D01*
X204689235Y-29977428D01*
X204695196Y-30001227D01*
X204698796Y-30025495D01*
X204700000Y-30049999D01*
X204700000Y-30675001D01*
X204698796Y-30699505D01*
X204695196Y-30723773D01*
X204689235Y-30747572D01*
X204680970Y-30770671D01*
X204670480Y-30792850D01*
X204657868Y-30813893D01*
X204643253Y-30833599D01*
X204626777Y-30851777D01*
X204608599Y-30868253D01*
X204588893Y-30882868D01*
X204567850Y-30895480D01*
X204545671Y-30905970D01*
X204522572Y-30914235D01*
X204498773Y-30920196D01*
X204474505Y-30923796D01*
X204450001Y-30925000D01*
X201549999Y-30925000D01*
X201525495Y-30923796D01*
X201501227Y-30920196D01*
X201477428Y-30914235D01*
X201454329Y-30905970D01*
X201432150Y-30895480D01*
X201411107Y-30882868D01*
X201391401Y-30868253D01*
X201373223Y-30851777D01*
X201356747Y-30833599D01*
X201342132Y-30813893D01*
X201329520Y-30792850D01*
X201319030Y-30770671D01*
X201310765Y-30747572D01*
X201304804Y-30723773D01*
X201301204Y-30699505D01*
X201300000Y-30675001D01*
X201300000Y-30049999D01*
X201301204Y-30025495D01*
X201304804Y-30001227D01*
X201310765Y-29977428D01*
X201319030Y-29954329D01*
X201329520Y-29932150D01*
X201342132Y-29911107D01*
X201356747Y-29891401D01*
X201373223Y-29873223D01*
X201391401Y-29856747D01*
X201411107Y-29842132D01*
X201432150Y-29829520D01*
X201454329Y-29819030D01*
X201477428Y-29810765D01*
X201501227Y-29804804D01*
X201525495Y-29801204D01*
X201549999Y-29800000D01*
X204450001Y-29800000D01*
X204474505Y-29801204D01*
X204474505Y-29801204D01*
G37*
D11*
G04 #@! TD*
G04 #@! TO.P,REF\002A\002A,2*
G04 #@! TO.N,N/C*
X203000000Y-30362500D03*
D10*
G04 #@! TO.N,N/C*
G04 #@! TO.C,REF\002A\002A*
G36*
X204474505Y-34076204D02*
X204498773Y-34079804D01*
X204522572Y-34085765D01*
X204545671Y-34094030D01*
X204567850Y-34104520D01*
X204588893Y-34117132D01*
X204608599Y-34131747D01*
X204626777Y-34148223D01*
X204643253Y-34166401D01*
X204657868Y-34186107D01*
X204670480Y-34207150D01*
X204680970Y-34229329D01*
X204689235Y-34252428D01*
X204695196Y-34276227D01*
X204698796Y-34300495D01*
X204700000Y-34324999D01*
X204700000Y-34950001D01*
X204698796Y-34974505D01*
X204695196Y-34998773D01*
X204689235Y-35022572D01*
X204680970Y-35045671D01*
X204670480Y-35067850D01*
X204657868Y-35088893D01*
X204643253Y-35108599D01*
X204626777Y-35126777D01*
X204608599Y-35143253D01*
X204588893Y-35157868D01*
X204567850Y-35170480D01*
X204545671Y-35180970D01*
X204522572Y-35189235D01*
X204498773Y-35195196D01*
X204474505Y-35198796D01*
X204450001Y-35200000D01*
X201549999Y-35200000D01*
X201525495Y-35198796D01*
X201501227Y-35195196D01*
X201477428Y-35189235D01*
X201454329Y-35180970D01*
X201432150Y-35170480D01*
X201411107Y-35157868D01*
X201391401Y-35143253D01*
X201373223Y-35126777D01*
X201356747Y-35108599D01*
X201342132Y-35088893D01*
X201329520Y-35067850D01*
X201319030Y-35045671D01*
X201310765Y-35022572D01*
X201304804Y-34998773D01*
X201301204Y-34974505D01*
X201300000Y-34950001D01*
X201300000Y-34324999D01*
X201301204Y-34300495D01*
X201304804Y-34276227D01*
X201310765Y-34252428D01*
X201319030Y-34229329D01*
X201329520Y-34207150D01*
X201342132Y-34186107D01*
X201356747Y-34166401D01*
X201373223Y-34148223D01*
X201391401Y-34131747D01*
X201411107Y-34117132D01*
X201432150Y-34104520D01*
X201454329Y-34094030D01*
X201477428Y-34085765D01*
X201501227Y-34079804D01*
X201525495Y-34076204D01*
X201549999Y-34075000D01*
X204450001Y-34075000D01*
X204474505Y-34076204D01*
X204474505Y-34076204D01*
G37*
D11*
G04 #@! TD*
G04 #@! TO.P,REF\002A\002A,1*
G04 #@! TO.N,N/C*
X203000000Y-34637500D03*
D10*
G04 #@! TO.N,N/C*
G04 #@! TO.C,REF\002A\002A*
G36*
X192874505Y-29801204D02*
X192898773Y-29804804D01*
X192922572Y-29810765D01*
X192945671Y-29819030D01*
X192967850Y-29829520D01*
X192988893Y-29842132D01*
X193008599Y-29856747D01*
X193026777Y-29873223D01*
X193043253Y-29891401D01*
X193057868Y-29911107D01*
X193070480Y-29932150D01*
X193080970Y-29954329D01*
X193089235Y-29977428D01*
X193095196Y-30001227D01*
X193098796Y-30025495D01*
X193100000Y-30049999D01*
X193100000Y-30675001D01*
X193098796Y-30699505D01*
X193095196Y-30723773D01*
X193089235Y-30747572D01*
X193080970Y-30770671D01*
X193070480Y-30792850D01*
X193057868Y-30813893D01*
X193043253Y-30833599D01*
X193026777Y-30851777D01*
X193008599Y-30868253D01*
X192988893Y-30882868D01*
X192967850Y-30895480D01*
X192945671Y-30905970D01*
X192922572Y-30914235D01*
X192898773Y-30920196D01*
X192874505Y-30923796D01*
X192850001Y-30925000D01*
X189949999Y-30925000D01*
X189925495Y-30923796D01*
X189901227Y-30920196D01*
X189877428Y-30914235D01*
X189854329Y-30905970D01*
X189832150Y-30895480D01*
X189811107Y-30882868D01*
X189791401Y-30868253D01*
X189773223Y-30851777D01*
X189756747Y-30833599D01*
X189742132Y-30813893D01*
X189729520Y-30792850D01*
X189719030Y-30770671D01*
X189710765Y-30747572D01*
X189704804Y-30723773D01*
X189701204Y-30699505D01*
X189700000Y-30675001D01*
X189700000Y-30049999D01*
X189701204Y-30025495D01*
X189704804Y-30001227D01*
X189710765Y-29977428D01*
X189719030Y-29954329D01*
X189729520Y-29932150D01*
X189742132Y-29911107D01*
X189756747Y-29891401D01*
X189773223Y-29873223D01*
X189791401Y-29856747D01*
X189811107Y-29842132D01*
X189832150Y-29829520D01*
X189854329Y-29819030D01*
X189877428Y-29810765D01*
X189901227Y-29804804D01*
X189925495Y-29801204D01*
X189949999Y-29800000D01*
X192850001Y-29800000D01*
X192874505Y-29801204D01*
X192874505Y-29801204D01*
G37*
D11*
G04 #@! TD*
G04 #@! TO.P,REF\002A\002A,2*
G04 #@! TO.N,N/C*
X191400000Y-30362500D03*
D10*
G04 #@! TO.N,N/C*
G04 #@! TO.C,REF\002A\002A*
G36*
X192874505Y-34076204D02*
X192898773Y-34079804D01*
X192922572Y-34085765D01*
X192945671Y-34094030D01*
X192967850Y-34104520D01*
X192988893Y-34117132D01*
X193008599Y-34131747D01*
X193026777Y-34148223D01*
X193043253Y-34166401D01*
X193057868Y-34186107D01*
X193070480Y-34207150D01*
X193080970Y-34229329D01*
X193089235Y-34252428D01*
X193095196Y-34276227D01*
X193098796Y-34300495D01*
X193100000Y-34324999D01*
X193100000Y-34950001D01*
X193098796Y-34974505D01*
X193095196Y-34998773D01*
X193089235Y-35022572D01*
X193080970Y-35045671D01*
X193070480Y-35067850D01*
X193057868Y-35088893D01*
X193043253Y-35108599D01*
X193026777Y-35126777D01*
X193008599Y-35143253D01*
X192988893Y-35157868D01*
X192967850Y-35170480D01*
X192945671Y-35180970D01*
X192922572Y-35189235D01*
X192898773Y-35195196D01*
X192874505Y-35198796D01*
X192850001Y-35200000D01*
X189949999Y-35200000D01*
X189925495Y-35198796D01*
X189901227Y-35195196D01*
X189877428Y-35189235D01*
X189854329Y-35180970D01*
X189832150Y-35170480D01*
X189811107Y-35157868D01*
X189791401Y-35143253D01*
X189773223Y-35126777D01*
X189756747Y-35108599D01*
X189742132Y-35088893D01*
X189729520Y-35067850D01*
X189719030Y-35045671D01*
X189710765Y-35022572D01*
X189704804Y-34998773D01*
X189701204Y-34974505D01*
X189700000Y-34950001D01*
X189700000Y-34324999D01*
X189701204Y-34300495D01*
X189704804Y-34276227D01*
X189710765Y-34252428D01*
X189719030Y-34229329D01*
X189729520Y-34207150D01*
X189742132Y-34186107D01*
X189756747Y-34166401D01*
X189773223Y-34148223D01*
X189791401Y-34131747D01*
X189811107Y-34117132D01*
X189832150Y-34104520D01*
X189854329Y-34094030D01*
X189877428Y-34085765D01*
X189901227Y-34079804D01*
X189925495Y-34076204D01*
X189949999Y-34075000D01*
X192850001Y-34075000D01*
X192874505Y-34076204D01*
X192874505Y-34076204D01*
G37*
D11*
G04 #@! TD*
G04 #@! TO.P,REF\002A\002A,1*
G04 #@! TO.N,N/C*
X191400000Y-34637500D03*
D10*
G04 #@! TO.N,N/C*
G04 #@! TO.C,REF\002A\002A*
G36*
X181274505Y-29801204D02*
X181298773Y-29804804D01*
X181322572Y-29810765D01*
X181345671Y-29819030D01*
X181367850Y-29829520D01*
X181388893Y-29842132D01*
X181408599Y-29856747D01*
X181426777Y-29873223D01*
X181443253Y-29891401D01*
X181457868Y-29911107D01*
X181470480Y-29932150D01*
X181480970Y-29954329D01*
X181489235Y-29977428D01*
X181495196Y-30001227D01*
X181498796Y-30025495D01*
X181500000Y-30049999D01*
X181500000Y-30675001D01*
X181498796Y-30699505D01*
X181495196Y-30723773D01*
X181489235Y-30747572D01*
X181480970Y-30770671D01*
X181470480Y-30792850D01*
X181457868Y-30813893D01*
X181443253Y-30833599D01*
X181426777Y-30851777D01*
X181408599Y-30868253D01*
X181388893Y-30882868D01*
X181367850Y-30895480D01*
X181345671Y-30905970D01*
X181322572Y-30914235D01*
X181298773Y-30920196D01*
X181274505Y-30923796D01*
X181250001Y-30925000D01*
X178349999Y-30925000D01*
X178325495Y-30923796D01*
X178301227Y-30920196D01*
X178277428Y-30914235D01*
X178254329Y-30905970D01*
X178232150Y-30895480D01*
X178211107Y-30882868D01*
X178191401Y-30868253D01*
X178173223Y-30851777D01*
X178156747Y-30833599D01*
X178142132Y-30813893D01*
X178129520Y-30792850D01*
X178119030Y-30770671D01*
X178110765Y-30747572D01*
X178104804Y-30723773D01*
X178101204Y-30699505D01*
X178100000Y-30675001D01*
X178100000Y-30049999D01*
X178101204Y-30025495D01*
X178104804Y-30001227D01*
X178110765Y-29977428D01*
X178119030Y-29954329D01*
X178129520Y-29932150D01*
X178142132Y-29911107D01*
X178156747Y-29891401D01*
X178173223Y-29873223D01*
X178191401Y-29856747D01*
X178211107Y-29842132D01*
X178232150Y-29829520D01*
X178254329Y-29819030D01*
X178277428Y-29810765D01*
X178301227Y-29804804D01*
X178325495Y-29801204D01*
X178349999Y-29800000D01*
X181250001Y-29800000D01*
X181274505Y-29801204D01*
X181274505Y-29801204D01*
G37*
D11*
G04 #@! TD*
G04 #@! TO.P,REF\002A\002A,2*
G04 #@! TO.N,N/C*
X179800000Y-30362500D03*
D10*
G04 #@! TO.N,N/C*
G04 #@! TO.C,REF\002A\002A*
G36*
X181274505Y-34076204D02*
X181298773Y-34079804D01*
X181322572Y-34085765D01*
X181345671Y-34094030D01*
X181367850Y-34104520D01*
X181388893Y-34117132D01*
X181408599Y-34131747D01*
X181426777Y-34148223D01*
X181443253Y-34166401D01*
X181457868Y-34186107D01*
X181470480Y-34207150D01*
X181480970Y-34229329D01*
X181489235Y-34252428D01*
X181495196Y-34276227D01*
X181498796Y-34300495D01*
X181500000Y-34324999D01*
X181500000Y-34950001D01*
X181498796Y-34974505D01*
X181495196Y-34998773D01*
X181489235Y-35022572D01*
X181480970Y-35045671D01*
X181470480Y-35067850D01*
X181457868Y-35088893D01*
X181443253Y-35108599D01*
X181426777Y-35126777D01*
X181408599Y-35143253D01*
X181388893Y-35157868D01*
X181367850Y-35170480D01*
X181345671Y-35180970D01*
X181322572Y-35189235D01*
X181298773Y-35195196D01*
X181274505Y-35198796D01*
X181250001Y-35200000D01*
X178349999Y-35200000D01*
X178325495Y-35198796D01*
X178301227Y-35195196D01*
X178277428Y-35189235D01*
X178254329Y-35180970D01*
X178232150Y-35170480D01*
X178211107Y-35157868D01*
X178191401Y-35143253D01*
X178173223Y-35126777D01*
X178156747Y-35108599D01*
X178142132Y-35088893D01*
X178129520Y-35067850D01*
X178119030Y-35045671D01*
X178110765Y-35022572D01*
X178104804Y-34998773D01*
X178101204Y-34974505D01*
X178100000Y-34950001D01*
X178100000Y-34324999D01*
X178101204Y-34300495D01*
X178104804Y-34276227D01*
X178110765Y-34252428D01*
X178119030Y-34229329D01*
X178129520Y-34207150D01*
X178142132Y-34186107D01*
X178156747Y-34166401D01*
X178173223Y-34148223D01*
X178191401Y-34131747D01*
X178211107Y-34117132D01*
X178232150Y-34104520D01*
X178254329Y-34094030D01*
X178277428Y-34085765D01*
X178301227Y-34079804D01*
X178325495Y-34076204D01*
X178349999Y-34075000D01*
X181250001Y-34075000D01*
X181274505Y-34076204D01*
X181274505Y-34076204D01*
G37*
D11*
G04 #@! TD*
G04 #@! TO.P,REF\002A\002A,1*
G04 #@! TO.N,N/C*
X179800000Y-34637500D03*
D10*
G04 #@! TO.N,N/C*
G04 #@! TO.C,REF\002A\002A*
G36*
X169674505Y-29801204D02*
X169698773Y-29804804D01*
X169722572Y-29810765D01*
X169745671Y-29819030D01*
X169767850Y-29829520D01*
X169788893Y-29842132D01*
X169808599Y-29856747D01*
X169826777Y-29873223D01*
X169843253Y-29891401D01*
X169857868Y-29911107D01*
X169870480Y-29932150D01*
X169880970Y-29954329D01*
X169889235Y-29977428D01*
X169895196Y-30001227D01*
X169898796Y-30025495D01*
X169900000Y-30049999D01*
X169900000Y-30675001D01*
X169898796Y-30699505D01*
X169895196Y-30723773D01*
X169889235Y-30747572D01*
X169880970Y-30770671D01*
X169870480Y-30792850D01*
X169857868Y-30813893D01*
X169843253Y-30833599D01*
X169826777Y-30851777D01*
X169808599Y-30868253D01*
X169788893Y-30882868D01*
X169767850Y-30895480D01*
X169745671Y-30905970D01*
X169722572Y-30914235D01*
X169698773Y-30920196D01*
X169674505Y-30923796D01*
X169650001Y-30925000D01*
X166749999Y-30925000D01*
X166725495Y-30923796D01*
X166701227Y-30920196D01*
X166677428Y-30914235D01*
X166654329Y-30905970D01*
X166632150Y-30895480D01*
X166611107Y-30882868D01*
X166591401Y-30868253D01*
X166573223Y-30851777D01*
X166556747Y-30833599D01*
X166542132Y-30813893D01*
X166529520Y-30792850D01*
X166519030Y-30770671D01*
X166510765Y-30747572D01*
X166504804Y-30723773D01*
X166501204Y-30699505D01*
X166500000Y-30675001D01*
X166500000Y-30049999D01*
X166501204Y-30025495D01*
X166504804Y-30001227D01*
X166510765Y-29977428D01*
X166519030Y-29954329D01*
X166529520Y-29932150D01*
X166542132Y-29911107D01*
X166556747Y-29891401D01*
X166573223Y-29873223D01*
X166591401Y-29856747D01*
X166611107Y-29842132D01*
X166632150Y-29829520D01*
X166654329Y-29819030D01*
X166677428Y-29810765D01*
X166701227Y-29804804D01*
X166725495Y-29801204D01*
X166749999Y-29800000D01*
X169650001Y-29800000D01*
X169674505Y-29801204D01*
X169674505Y-29801204D01*
G37*
D11*
G04 #@! TD*
G04 #@! TO.P,REF\002A\002A,2*
G04 #@! TO.N,N/C*
X168200000Y-30362500D03*
D10*
G04 #@! TO.N,N/C*
G04 #@! TO.C,REF\002A\002A*
G36*
X169674505Y-34076204D02*
X169698773Y-34079804D01*
X169722572Y-34085765D01*
X169745671Y-34094030D01*
X169767850Y-34104520D01*
X169788893Y-34117132D01*
X169808599Y-34131747D01*
X169826777Y-34148223D01*
X169843253Y-34166401D01*
X169857868Y-34186107D01*
X169870480Y-34207150D01*
X169880970Y-34229329D01*
X169889235Y-34252428D01*
X169895196Y-34276227D01*
X169898796Y-34300495D01*
X169900000Y-34324999D01*
X169900000Y-34950001D01*
X169898796Y-34974505D01*
X169895196Y-34998773D01*
X169889235Y-35022572D01*
X169880970Y-35045671D01*
X169870480Y-35067850D01*
X169857868Y-35088893D01*
X169843253Y-35108599D01*
X169826777Y-35126777D01*
X169808599Y-35143253D01*
X169788893Y-35157868D01*
X169767850Y-35170480D01*
X169745671Y-35180970D01*
X169722572Y-35189235D01*
X169698773Y-35195196D01*
X169674505Y-35198796D01*
X169650001Y-35200000D01*
X166749999Y-35200000D01*
X166725495Y-35198796D01*
X166701227Y-35195196D01*
X166677428Y-35189235D01*
X166654329Y-35180970D01*
X166632150Y-35170480D01*
X166611107Y-35157868D01*
X166591401Y-35143253D01*
X166573223Y-35126777D01*
X166556747Y-35108599D01*
X166542132Y-35088893D01*
X166529520Y-35067850D01*
X166519030Y-35045671D01*
X166510765Y-35022572D01*
X166504804Y-34998773D01*
X166501204Y-34974505D01*
X166500000Y-34950001D01*
X166500000Y-34324999D01*
X166501204Y-34300495D01*
X166504804Y-34276227D01*
X166510765Y-34252428D01*
X166519030Y-34229329D01*
X166529520Y-34207150D01*
X166542132Y-34186107D01*
X166556747Y-34166401D01*
X166573223Y-34148223D01*
X166591401Y-34131747D01*
X166611107Y-34117132D01*
X166632150Y-34104520D01*
X166654329Y-34094030D01*
X166677428Y-34085765D01*
X166701227Y-34079804D01*
X166725495Y-34076204D01*
X166749999Y-34075000D01*
X169650001Y-34075000D01*
X169674505Y-34076204D01*
X169674505Y-34076204D01*
G37*
D11*
G04 #@! TD*
G04 #@! TO.P,REF\002A\002A,1*
G04 #@! TO.N,N/C*
X168200000Y-34637500D03*
D10*
G04 #@! TO.N,N/C*
G04 #@! TO.C,REF\002A\002A*
G36*
X158074505Y-29801204D02*
X158098773Y-29804804D01*
X158122572Y-29810765D01*
X158145671Y-29819030D01*
X158167850Y-29829520D01*
X158188893Y-29842132D01*
X158208599Y-29856747D01*
X158226777Y-29873223D01*
X158243253Y-29891401D01*
X158257868Y-29911107D01*
X158270480Y-29932150D01*
X158280970Y-29954329D01*
X158289235Y-29977428D01*
X158295196Y-30001227D01*
X158298796Y-30025495D01*
X158300000Y-30049999D01*
X158300000Y-30675001D01*
X158298796Y-30699505D01*
X158295196Y-30723773D01*
X158289235Y-30747572D01*
X158280970Y-30770671D01*
X158270480Y-30792850D01*
X158257868Y-30813893D01*
X158243253Y-30833599D01*
X158226777Y-30851777D01*
X158208599Y-30868253D01*
X158188893Y-30882868D01*
X158167850Y-30895480D01*
X158145671Y-30905970D01*
X158122572Y-30914235D01*
X158098773Y-30920196D01*
X158074505Y-30923796D01*
X158050001Y-30925000D01*
X155149999Y-30925000D01*
X155125495Y-30923796D01*
X155101227Y-30920196D01*
X155077428Y-30914235D01*
X155054329Y-30905970D01*
X155032150Y-30895480D01*
X155011107Y-30882868D01*
X154991401Y-30868253D01*
X154973223Y-30851777D01*
X154956747Y-30833599D01*
X154942132Y-30813893D01*
X154929520Y-30792850D01*
X154919030Y-30770671D01*
X154910765Y-30747572D01*
X154904804Y-30723773D01*
X154901204Y-30699505D01*
X154900000Y-30675001D01*
X154900000Y-30049999D01*
X154901204Y-30025495D01*
X154904804Y-30001227D01*
X154910765Y-29977428D01*
X154919030Y-29954329D01*
X154929520Y-29932150D01*
X154942132Y-29911107D01*
X154956747Y-29891401D01*
X154973223Y-29873223D01*
X154991401Y-29856747D01*
X155011107Y-29842132D01*
X155032150Y-29829520D01*
X155054329Y-29819030D01*
X155077428Y-29810765D01*
X155101227Y-29804804D01*
X155125495Y-29801204D01*
X155149999Y-29800000D01*
X158050001Y-29800000D01*
X158074505Y-29801204D01*
X158074505Y-29801204D01*
G37*
D11*
G04 #@! TD*
G04 #@! TO.P,REF\002A\002A,2*
G04 #@! TO.N,N/C*
X156600000Y-30362500D03*
D10*
G04 #@! TO.N,N/C*
G04 #@! TO.C,REF\002A\002A*
G36*
X158074505Y-34076204D02*
X158098773Y-34079804D01*
X158122572Y-34085765D01*
X158145671Y-34094030D01*
X158167850Y-34104520D01*
X158188893Y-34117132D01*
X158208599Y-34131747D01*
X158226777Y-34148223D01*
X158243253Y-34166401D01*
X158257868Y-34186107D01*
X158270480Y-34207150D01*
X158280970Y-34229329D01*
X158289235Y-34252428D01*
X158295196Y-34276227D01*
X158298796Y-34300495D01*
X158300000Y-34324999D01*
X158300000Y-34950001D01*
X158298796Y-34974505D01*
X158295196Y-34998773D01*
X158289235Y-35022572D01*
X158280970Y-35045671D01*
X158270480Y-35067850D01*
X158257868Y-35088893D01*
X158243253Y-35108599D01*
X158226777Y-35126777D01*
X158208599Y-35143253D01*
X158188893Y-35157868D01*
X158167850Y-35170480D01*
X158145671Y-35180970D01*
X158122572Y-35189235D01*
X158098773Y-35195196D01*
X158074505Y-35198796D01*
X158050001Y-35200000D01*
X155149999Y-35200000D01*
X155125495Y-35198796D01*
X155101227Y-35195196D01*
X155077428Y-35189235D01*
X155054329Y-35180970D01*
X155032150Y-35170480D01*
X155011107Y-35157868D01*
X154991401Y-35143253D01*
X154973223Y-35126777D01*
X154956747Y-35108599D01*
X154942132Y-35088893D01*
X154929520Y-35067850D01*
X154919030Y-35045671D01*
X154910765Y-35022572D01*
X154904804Y-34998773D01*
X154901204Y-34974505D01*
X154900000Y-34950001D01*
X154900000Y-34324999D01*
X154901204Y-34300495D01*
X154904804Y-34276227D01*
X154910765Y-34252428D01*
X154919030Y-34229329D01*
X154929520Y-34207150D01*
X154942132Y-34186107D01*
X154956747Y-34166401D01*
X154973223Y-34148223D01*
X154991401Y-34131747D01*
X155011107Y-34117132D01*
X155032150Y-34104520D01*
X155054329Y-34094030D01*
X155077428Y-34085765D01*
X155101227Y-34079804D01*
X155125495Y-34076204D01*
X155149999Y-34075000D01*
X158050001Y-34075000D01*
X158074505Y-34076204D01*
X158074505Y-34076204D01*
G37*
D11*
G04 #@! TD*
G04 #@! TO.P,REF\002A\002A,1*
G04 #@! TO.N,N/C*
X156600000Y-34637500D03*
D10*
G04 #@! TO.N,N/C*
G04 #@! TO.C,REF\002A\002A*
G36*
X146474505Y-29801204D02*
X146498773Y-29804804D01*
X146522572Y-29810765D01*
X146545671Y-29819030D01*
X146567850Y-29829520D01*
X146588893Y-29842132D01*
X146608599Y-29856747D01*
X146626777Y-29873223D01*
X146643253Y-29891401D01*
X146657868Y-29911107D01*
X146670480Y-29932150D01*
X146680970Y-29954329D01*
X146689235Y-29977428D01*
X146695196Y-30001227D01*
X146698796Y-30025495D01*
X146700000Y-30049999D01*
X146700000Y-30675001D01*
X146698796Y-30699505D01*
X146695196Y-30723773D01*
X146689235Y-30747572D01*
X146680970Y-30770671D01*
X146670480Y-30792850D01*
X146657868Y-30813893D01*
X146643253Y-30833599D01*
X146626777Y-30851777D01*
X146608599Y-30868253D01*
X146588893Y-30882868D01*
X146567850Y-30895480D01*
X146545671Y-30905970D01*
X146522572Y-30914235D01*
X146498773Y-30920196D01*
X146474505Y-30923796D01*
X146450001Y-30925000D01*
X143549999Y-30925000D01*
X143525495Y-30923796D01*
X143501227Y-30920196D01*
X143477428Y-30914235D01*
X143454329Y-30905970D01*
X143432150Y-30895480D01*
X143411107Y-30882868D01*
X143391401Y-30868253D01*
X143373223Y-30851777D01*
X143356747Y-30833599D01*
X143342132Y-30813893D01*
X143329520Y-30792850D01*
X143319030Y-30770671D01*
X143310765Y-30747572D01*
X143304804Y-30723773D01*
X143301204Y-30699505D01*
X143300000Y-30675001D01*
X143300000Y-30049999D01*
X143301204Y-30025495D01*
X143304804Y-30001227D01*
X143310765Y-29977428D01*
X143319030Y-29954329D01*
X143329520Y-29932150D01*
X143342132Y-29911107D01*
X143356747Y-29891401D01*
X143373223Y-29873223D01*
X143391401Y-29856747D01*
X143411107Y-29842132D01*
X143432150Y-29829520D01*
X143454329Y-29819030D01*
X143477428Y-29810765D01*
X143501227Y-29804804D01*
X143525495Y-29801204D01*
X143549999Y-29800000D01*
X146450001Y-29800000D01*
X146474505Y-29801204D01*
X146474505Y-29801204D01*
G37*
D11*
G04 #@! TD*
G04 #@! TO.P,REF\002A\002A,2*
G04 #@! TO.N,N/C*
X145000000Y-30362500D03*
D10*
G04 #@! TO.N,N/C*
G04 #@! TO.C,REF\002A\002A*
G36*
X146474505Y-34076204D02*
X146498773Y-34079804D01*
X146522572Y-34085765D01*
X146545671Y-34094030D01*
X146567850Y-34104520D01*
X146588893Y-34117132D01*
X146608599Y-34131747D01*
X146626777Y-34148223D01*
X146643253Y-34166401D01*
X146657868Y-34186107D01*
X146670480Y-34207150D01*
X146680970Y-34229329D01*
X146689235Y-34252428D01*
X146695196Y-34276227D01*
X146698796Y-34300495D01*
X146700000Y-34324999D01*
X146700000Y-34950001D01*
X146698796Y-34974505D01*
X146695196Y-34998773D01*
X146689235Y-35022572D01*
X146680970Y-35045671D01*
X146670480Y-35067850D01*
X146657868Y-35088893D01*
X146643253Y-35108599D01*
X146626777Y-35126777D01*
X146608599Y-35143253D01*
X146588893Y-35157868D01*
X146567850Y-35170480D01*
X146545671Y-35180970D01*
X146522572Y-35189235D01*
X146498773Y-35195196D01*
X146474505Y-35198796D01*
X146450001Y-35200000D01*
X143549999Y-35200000D01*
X143525495Y-35198796D01*
X143501227Y-35195196D01*
X143477428Y-35189235D01*
X143454329Y-35180970D01*
X143432150Y-35170480D01*
X143411107Y-35157868D01*
X143391401Y-35143253D01*
X143373223Y-35126777D01*
X143356747Y-35108599D01*
X143342132Y-35088893D01*
X143329520Y-35067850D01*
X143319030Y-35045671D01*
X143310765Y-35022572D01*
X143304804Y-34998773D01*
X143301204Y-34974505D01*
X143300000Y-34950001D01*
X143300000Y-34324999D01*
X143301204Y-34300495D01*
X143304804Y-34276227D01*
X143310765Y-34252428D01*
X143319030Y-34229329D01*
X143329520Y-34207150D01*
X143342132Y-34186107D01*
X143356747Y-34166401D01*
X143373223Y-34148223D01*
X143391401Y-34131747D01*
X143411107Y-34117132D01*
X143432150Y-34104520D01*
X143454329Y-34094030D01*
X143477428Y-34085765D01*
X143501227Y-34079804D01*
X143525495Y-34076204D01*
X143549999Y-34075000D01*
X146450001Y-34075000D01*
X146474505Y-34076204D01*
X146474505Y-34076204D01*
G37*
D11*
G04 #@! TD*
G04 #@! TO.P,REF\002A\002A,1*
G04 #@! TO.N,N/C*
X145000000Y-34637500D03*
D10*
G04 #@! TO.N,N/C*
G04 #@! TO.C,REF\002A\002A*
G36*
X134874505Y-29801204D02*
X134898773Y-29804804D01*
X134922572Y-29810765D01*
X134945671Y-29819030D01*
X134967850Y-29829520D01*
X134988893Y-29842132D01*
X135008599Y-29856747D01*
X135026777Y-29873223D01*
X135043253Y-29891401D01*
X135057868Y-29911107D01*
X135070480Y-29932150D01*
X135080970Y-29954329D01*
X135089235Y-29977428D01*
X135095196Y-30001227D01*
X135098796Y-30025495D01*
X135100000Y-30049999D01*
X135100000Y-30675001D01*
X135098796Y-30699505D01*
X135095196Y-30723773D01*
X135089235Y-30747572D01*
X135080970Y-30770671D01*
X135070480Y-30792850D01*
X135057868Y-30813893D01*
X135043253Y-30833599D01*
X135026777Y-30851777D01*
X135008599Y-30868253D01*
X134988893Y-30882868D01*
X134967850Y-30895480D01*
X134945671Y-30905970D01*
X134922572Y-30914235D01*
X134898773Y-30920196D01*
X134874505Y-30923796D01*
X134850001Y-30925000D01*
X131949999Y-30925000D01*
X131925495Y-30923796D01*
X131901227Y-30920196D01*
X131877428Y-30914235D01*
X131854329Y-30905970D01*
X131832150Y-30895480D01*
X131811107Y-30882868D01*
X131791401Y-30868253D01*
X131773223Y-30851777D01*
X131756747Y-30833599D01*
X131742132Y-30813893D01*
X131729520Y-30792850D01*
X131719030Y-30770671D01*
X131710765Y-30747572D01*
X131704804Y-30723773D01*
X131701204Y-30699505D01*
X131700000Y-30675001D01*
X131700000Y-30049999D01*
X131701204Y-30025495D01*
X131704804Y-30001227D01*
X131710765Y-29977428D01*
X131719030Y-29954329D01*
X131729520Y-29932150D01*
X131742132Y-29911107D01*
X131756747Y-29891401D01*
X131773223Y-29873223D01*
X131791401Y-29856747D01*
X131811107Y-29842132D01*
X131832150Y-29829520D01*
X131854329Y-29819030D01*
X131877428Y-29810765D01*
X131901227Y-29804804D01*
X131925495Y-29801204D01*
X131949999Y-29800000D01*
X134850001Y-29800000D01*
X134874505Y-29801204D01*
X134874505Y-29801204D01*
G37*
D11*
G04 #@! TD*
G04 #@! TO.P,REF\002A\002A,2*
G04 #@! TO.N,N/C*
X133400000Y-30362500D03*
D10*
G04 #@! TO.N,N/C*
G04 #@! TO.C,REF\002A\002A*
G36*
X134874505Y-34076204D02*
X134898773Y-34079804D01*
X134922572Y-34085765D01*
X134945671Y-34094030D01*
X134967850Y-34104520D01*
X134988893Y-34117132D01*
X135008599Y-34131747D01*
X135026777Y-34148223D01*
X135043253Y-34166401D01*
X135057868Y-34186107D01*
X135070480Y-34207150D01*
X135080970Y-34229329D01*
X135089235Y-34252428D01*
X135095196Y-34276227D01*
X135098796Y-34300495D01*
X135100000Y-34324999D01*
X135100000Y-34950001D01*
X135098796Y-34974505D01*
X135095196Y-34998773D01*
X135089235Y-35022572D01*
X135080970Y-35045671D01*
X135070480Y-35067850D01*
X135057868Y-35088893D01*
X135043253Y-35108599D01*
X135026777Y-35126777D01*
X135008599Y-35143253D01*
X134988893Y-35157868D01*
X134967850Y-35170480D01*
X134945671Y-35180970D01*
X134922572Y-35189235D01*
X134898773Y-35195196D01*
X134874505Y-35198796D01*
X134850001Y-35200000D01*
X131949999Y-35200000D01*
X131925495Y-35198796D01*
X131901227Y-35195196D01*
X131877428Y-35189235D01*
X131854329Y-35180970D01*
X131832150Y-35170480D01*
X131811107Y-35157868D01*
X131791401Y-35143253D01*
X131773223Y-35126777D01*
X131756747Y-35108599D01*
X131742132Y-35088893D01*
X131729520Y-35067850D01*
X131719030Y-35045671D01*
X131710765Y-35022572D01*
X131704804Y-34998773D01*
X131701204Y-34974505D01*
X131700000Y-34950001D01*
X131700000Y-34324999D01*
X131701204Y-34300495D01*
X131704804Y-34276227D01*
X131710765Y-34252428D01*
X131719030Y-34229329D01*
X131729520Y-34207150D01*
X131742132Y-34186107D01*
X131756747Y-34166401D01*
X131773223Y-34148223D01*
X131791401Y-34131747D01*
X131811107Y-34117132D01*
X131832150Y-34104520D01*
X131854329Y-34094030D01*
X131877428Y-34085765D01*
X131901227Y-34079804D01*
X131925495Y-34076204D01*
X131949999Y-34075000D01*
X134850001Y-34075000D01*
X134874505Y-34076204D01*
X134874505Y-34076204D01*
G37*
D11*
G04 #@! TD*
G04 #@! TO.P,REF\002A\002A,1*
G04 #@! TO.N,N/C*
X133400000Y-34637500D03*
D10*
G04 #@! TO.N,N/C*
G04 #@! TO.C,REF\002A\002A*
G36*
X123274505Y-29801204D02*
X123298773Y-29804804D01*
X123322572Y-29810765D01*
X123345671Y-29819030D01*
X123367850Y-29829520D01*
X123388893Y-29842132D01*
X123408599Y-29856747D01*
X123426777Y-29873223D01*
X123443253Y-29891401D01*
X123457868Y-29911107D01*
X123470480Y-29932150D01*
X123480970Y-29954329D01*
X123489235Y-29977428D01*
X123495196Y-30001227D01*
X123498796Y-30025495D01*
X123500000Y-30049999D01*
X123500000Y-30675001D01*
X123498796Y-30699505D01*
X123495196Y-30723773D01*
X123489235Y-30747572D01*
X123480970Y-30770671D01*
X123470480Y-30792850D01*
X123457868Y-30813893D01*
X123443253Y-30833599D01*
X123426777Y-30851777D01*
X123408599Y-30868253D01*
X123388893Y-30882868D01*
X123367850Y-30895480D01*
X123345671Y-30905970D01*
X123322572Y-30914235D01*
X123298773Y-30920196D01*
X123274505Y-30923796D01*
X123250001Y-30925000D01*
X120349999Y-30925000D01*
X120325495Y-30923796D01*
X120301227Y-30920196D01*
X120277428Y-30914235D01*
X120254329Y-30905970D01*
X120232150Y-30895480D01*
X120211107Y-30882868D01*
X120191401Y-30868253D01*
X120173223Y-30851777D01*
X120156747Y-30833599D01*
X120142132Y-30813893D01*
X120129520Y-30792850D01*
X120119030Y-30770671D01*
X120110765Y-30747572D01*
X120104804Y-30723773D01*
X120101204Y-30699505D01*
X120100000Y-30675001D01*
X120100000Y-30049999D01*
X120101204Y-30025495D01*
X120104804Y-30001227D01*
X120110765Y-29977428D01*
X120119030Y-29954329D01*
X120129520Y-29932150D01*
X120142132Y-29911107D01*
X120156747Y-29891401D01*
X120173223Y-29873223D01*
X120191401Y-29856747D01*
X120211107Y-29842132D01*
X120232150Y-29829520D01*
X120254329Y-29819030D01*
X120277428Y-29810765D01*
X120301227Y-29804804D01*
X120325495Y-29801204D01*
X120349999Y-29800000D01*
X123250001Y-29800000D01*
X123274505Y-29801204D01*
X123274505Y-29801204D01*
G37*
D11*
G04 #@! TD*
G04 #@! TO.P,REF\002A\002A,2*
G04 #@! TO.N,N/C*
X121800000Y-30362500D03*
D10*
G04 #@! TO.N,N/C*
G04 #@! TO.C,REF\002A\002A*
G36*
X123274505Y-34076204D02*
X123298773Y-34079804D01*
X123322572Y-34085765D01*
X123345671Y-34094030D01*
X123367850Y-34104520D01*
X123388893Y-34117132D01*
X123408599Y-34131747D01*
X123426777Y-34148223D01*
X123443253Y-34166401D01*
X123457868Y-34186107D01*
X123470480Y-34207150D01*
X123480970Y-34229329D01*
X123489235Y-34252428D01*
X123495196Y-34276227D01*
X123498796Y-34300495D01*
X123500000Y-34324999D01*
X123500000Y-34950001D01*
X123498796Y-34974505D01*
X123495196Y-34998773D01*
X123489235Y-35022572D01*
X123480970Y-35045671D01*
X123470480Y-35067850D01*
X123457868Y-35088893D01*
X123443253Y-35108599D01*
X123426777Y-35126777D01*
X123408599Y-35143253D01*
X123388893Y-35157868D01*
X123367850Y-35170480D01*
X123345671Y-35180970D01*
X123322572Y-35189235D01*
X123298773Y-35195196D01*
X123274505Y-35198796D01*
X123250001Y-35200000D01*
X120349999Y-35200000D01*
X120325495Y-35198796D01*
X120301227Y-35195196D01*
X120277428Y-35189235D01*
X120254329Y-35180970D01*
X120232150Y-35170480D01*
X120211107Y-35157868D01*
X120191401Y-35143253D01*
X120173223Y-35126777D01*
X120156747Y-35108599D01*
X120142132Y-35088893D01*
X120129520Y-35067850D01*
X120119030Y-35045671D01*
X120110765Y-35022572D01*
X120104804Y-34998773D01*
X120101204Y-34974505D01*
X120100000Y-34950001D01*
X120100000Y-34324999D01*
X120101204Y-34300495D01*
X120104804Y-34276227D01*
X120110765Y-34252428D01*
X120119030Y-34229329D01*
X120129520Y-34207150D01*
X120142132Y-34186107D01*
X120156747Y-34166401D01*
X120173223Y-34148223D01*
X120191401Y-34131747D01*
X120211107Y-34117132D01*
X120232150Y-34104520D01*
X120254329Y-34094030D01*
X120277428Y-34085765D01*
X120301227Y-34079804D01*
X120325495Y-34076204D01*
X120349999Y-34075000D01*
X123250001Y-34075000D01*
X123274505Y-34076204D01*
X123274505Y-34076204D01*
G37*
D11*
G04 #@! TD*
G04 #@! TO.P,REF\002A\002A,1*
G04 #@! TO.N,N/C*
X121800000Y-34637500D03*
D10*
G04 #@! TO.N,N/C*
G04 #@! TO.C,REF\002A\002A*
G36*
X111674505Y-29801204D02*
X111698773Y-29804804D01*
X111722572Y-29810765D01*
X111745671Y-29819030D01*
X111767850Y-29829520D01*
X111788893Y-29842132D01*
X111808599Y-29856747D01*
X111826777Y-29873223D01*
X111843253Y-29891401D01*
X111857868Y-29911107D01*
X111870480Y-29932150D01*
X111880970Y-29954329D01*
X111889235Y-29977428D01*
X111895196Y-30001227D01*
X111898796Y-30025495D01*
X111900000Y-30049999D01*
X111900000Y-30675001D01*
X111898796Y-30699505D01*
X111895196Y-30723773D01*
X111889235Y-30747572D01*
X111880970Y-30770671D01*
X111870480Y-30792850D01*
X111857868Y-30813893D01*
X111843253Y-30833599D01*
X111826777Y-30851777D01*
X111808599Y-30868253D01*
X111788893Y-30882868D01*
X111767850Y-30895480D01*
X111745671Y-30905970D01*
X111722572Y-30914235D01*
X111698773Y-30920196D01*
X111674505Y-30923796D01*
X111650001Y-30925000D01*
X108749999Y-30925000D01*
X108725495Y-30923796D01*
X108701227Y-30920196D01*
X108677428Y-30914235D01*
X108654329Y-30905970D01*
X108632150Y-30895480D01*
X108611107Y-30882868D01*
X108591401Y-30868253D01*
X108573223Y-30851777D01*
X108556747Y-30833599D01*
X108542132Y-30813893D01*
X108529520Y-30792850D01*
X108519030Y-30770671D01*
X108510765Y-30747572D01*
X108504804Y-30723773D01*
X108501204Y-30699505D01*
X108500000Y-30675001D01*
X108500000Y-30049999D01*
X108501204Y-30025495D01*
X108504804Y-30001227D01*
X108510765Y-29977428D01*
X108519030Y-29954329D01*
X108529520Y-29932150D01*
X108542132Y-29911107D01*
X108556747Y-29891401D01*
X108573223Y-29873223D01*
X108591401Y-29856747D01*
X108611107Y-29842132D01*
X108632150Y-29829520D01*
X108654329Y-29819030D01*
X108677428Y-29810765D01*
X108701227Y-29804804D01*
X108725495Y-29801204D01*
X108749999Y-29800000D01*
X111650001Y-29800000D01*
X111674505Y-29801204D01*
X111674505Y-29801204D01*
G37*
D11*
G04 #@! TD*
G04 #@! TO.P,REF\002A\002A,2*
G04 #@! TO.N,N/C*
X110200000Y-30362500D03*
D10*
G04 #@! TO.N,N/C*
G04 #@! TO.C,REF\002A\002A*
G36*
X111674505Y-34076204D02*
X111698773Y-34079804D01*
X111722572Y-34085765D01*
X111745671Y-34094030D01*
X111767850Y-34104520D01*
X111788893Y-34117132D01*
X111808599Y-34131747D01*
X111826777Y-34148223D01*
X111843253Y-34166401D01*
X111857868Y-34186107D01*
X111870480Y-34207150D01*
X111880970Y-34229329D01*
X111889235Y-34252428D01*
X111895196Y-34276227D01*
X111898796Y-34300495D01*
X111900000Y-34324999D01*
X111900000Y-34950001D01*
X111898796Y-34974505D01*
X111895196Y-34998773D01*
X111889235Y-35022572D01*
X111880970Y-35045671D01*
X111870480Y-35067850D01*
X111857868Y-35088893D01*
X111843253Y-35108599D01*
X111826777Y-35126777D01*
X111808599Y-35143253D01*
X111788893Y-35157868D01*
X111767850Y-35170480D01*
X111745671Y-35180970D01*
X111722572Y-35189235D01*
X111698773Y-35195196D01*
X111674505Y-35198796D01*
X111650001Y-35200000D01*
X108749999Y-35200000D01*
X108725495Y-35198796D01*
X108701227Y-35195196D01*
X108677428Y-35189235D01*
X108654329Y-35180970D01*
X108632150Y-35170480D01*
X108611107Y-35157868D01*
X108591401Y-35143253D01*
X108573223Y-35126777D01*
X108556747Y-35108599D01*
X108542132Y-35088893D01*
X108529520Y-35067850D01*
X108519030Y-35045671D01*
X108510765Y-35022572D01*
X108504804Y-34998773D01*
X108501204Y-34974505D01*
X108500000Y-34950001D01*
X108500000Y-34324999D01*
X108501204Y-34300495D01*
X108504804Y-34276227D01*
X108510765Y-34252428D01*
X108519030Y-34229329D01*
X108529520Y-34207150D01*
X108542132Y-34186107D01*
X108556747Y-34166401D01*
X108573223Y-34148223D01*
X108591401Y-34131747D01*
X108611107Y-34117132D01*
X108632150Y-34104520D01*
X108654329Y-34094030D01*
X108677428Y-34085765D01*
X108701227Y-34079804D01*
X108725495Y-34076204D01*
X108749999Y-34075000D01*
X111650001Y-34075000D01*
X111674505Y-34076204D01*
X111674505Y-34076204D01*
G37*
D11*
G04 #@! TD*
G04 #@! TO.P,REF\002A\002A,1*
G04 #@! TO.N,N/C*
X110200000Y-34637500D03*
D10*
G04 #@! TO.N,N/C*
G04 #@! TO.C,REF\002A\002A*
G36*
X100074505Y-29801204D02*
X100098773Y-29804804D01*
X100122572Y-29810765D01*
X100145671Y-29819030D01*
X100167850Y-29829520D01*
X100188893Y-29842132D01*
X100208599Y-29856747D01*
X100226777Y-29873223D01*
X100243253Y-29891401D01*
X100257868Y-29911107D01*
X100270480Y-29932150D01*
X100280970Y-29954329D01*
X100289235Y-29977428D01*
X100295196Y-30001227D01*
X100298796Y-30025495D01*
X100300000Y-30049999D01*
X100300000Y-30675001D01*
X100298796Y-30699505D01*
X100295196Y-30723773D01*
X100289235Y-30747572D01*
X100280970Y-30770671D01*
X100270480Y-30792850D01*
X100257868Y-30813893D01*
X100243253Y-30833599D01*
X100226777Y-30851777D01*
X100208599Y-30868253D01*
X100188893Y-30882868D01*
X100167850Y-30895480D01*
X100145671Y-30905970D01*
X100122572Y-30914235D01*
X100098773Y-30920196D01*
X100074505Y-30923796D01*
X100050001Y-30925000D01*
X97149999Y-30925000D01*
X97125495Y-30923796D01*
X97101227Y-30920196D01*
X97077428Y-30914235D01*
X97054329Y-30905970D01*
X97032150Y-30895480D01*
X97011107Y-30882868D01*
X96991401Y-30868253D01*
X96973223Y-30851777D01*
X96956747Y-30833599D01*
X96942132Y-30813893D01*
X96929520Y-30792850D01*
X96919030Y-30770671D01*
X96910765Y-30747572D01*
X96904804Y-30723773D01*
X96901204Y-30699505D01*
X96900000Y-30675001D01*
X96900000Y-30049999D01*
X96901204Y-30025495D01*
X96904804Y-30001227D01*
X96910765Y-29977428D01*
X96919030Y-29954329D01*
X96929520Y-29932150D01*
X96942132Y-29911107D01*
X96956747Y-29891401D01*
X96973223Y-29873223D01*
X96991401Y-29856747D01*
X97011107Y-29842132D01*
X97032150Y-29829520D01*
X97054329Y-29819030D01*
X97077428Y-29810765D01*
X97101227Y-29804804D01*
X97125495Y-29801204D01*
X97149999Y-29800000D01*
X100050001Y-29800000D01*
X100074505Y-29801204D01*
X100074505Y-29801204D01*
G37*
D11*
G04 #@! TD*
G04 #@! TO.P,REF\002A\002A,2*
G04 #@! TO.N,N/C*
X98600000Y-30362500D03*
D10*
G04 #@! TO.N,N/C*
G04 #@! TO.C,REF\002A\002A*
G36*
X100074505Y-34076204D02*
X100098773Y-34079804D01*
X100122572Y-34085765D01*
X100145671Y-34094030D01*
X100167850Y-34104520D01*
X100188893Y-34117132D01*
X100208599Y-34131747D01*
X100226777Y-34148223D01*
X100243253Y-34166401D01*
X100257868Y-34186107D01*
X100270480Y-34207150D01*
X100280970Y-34229329D01*
X100289235Y-34252428D01*
X100295196Y-34276227D01*
X100298796Y-34300495D01*
X100300000Y-34324999D01*
X100300000Y-34950001D01*
X100298796Y-34974505D01*
X100295196Y-34998773D01*
X100289235Y-35022572D01*
X100280970Y-35045671D01*
X100270480Y-35067850D01*
X100257868Y-35088893D01*
X100243253Y-35108599D01*
X100226777Y-35126777D01*
X100208599Y-35143253D01*
X100188893Y-35157868D01*
X100167850Y-35170480D01*
X100145671Y-35180970D01*
X100122572Y-35189235D01*
X100098773Y-35195196D01*
X100074505Y-35198796D01*
X100050001Y-35200000D01*
X97149999Y-35200000D01*
X97125495Y-35198796D01*
X97101227Y-35195196D01*
X97077428Y-35189235D01*
X97054329Y-35180970D01*
X97032150Y-35170480D01*
X97011107Y-35157868D01*
X96991401Y-35143253D01*
X96973223Y-35126777D01*
X96956747Y-35108599D01*
X96942132Y-35088893D01*
X96929520Y-35067850D01*
X96919030Y-35045671D01*
X96910765Y-35022572D01*
X96904804Y-34998773D01*
X96901204Y-34974505D01*
X96900000Y-34950001D01*
X96900000Y-34324999D01*
X96901204Y-34300495D01*
X96904804Y-34276227D01*
X96910765Y-34252428D01*
X96919030Y-34229329D01*
X96929520Y-34207150D01*
X96942132Y-34186107D01*
X96956747Y-34166401D01*
X96973223Y-34148223D01*
X96991401Y-34131747D01*
X97011107Y-34117132D01*
X97032150Y-34104520D01*
X97054329Y-34094030D01*
X97077428Y-34085765D01*
X97101227Y-34079804D01*
X97125495Y-34076204D01*
X97149999Y-34075000D01*
X100050001Y-34075000D01*
X100074505Y-34076204D01*
X100074505Y-34076204D01*
G37*
D11*
G04 #@! TD*
G04 #@! TO.P,REF\002A\002A,1*
G04 #@! TO.N,N/C*
X98600000Y-34637500D03*
D10*
G04 #@! TO.N,N/C*
G04 #@! TO.C,REF\002A\002A*
G36*
X88474505Y-29801204D02*
X88498773Y-29804804D01*
X88522572Y-29810765D01*
X88545671Y-29819030D01*
X88567850Y-29829520D01*
X88588893Y-29842132D01*
X88608599Y-29856747D01*
X88626777Y-29873223D01*
X88643253Y-29891401D01*
X88657868Y-29911107D01*
X88670480Y-29932150D01*
X88680970Y-29954329D01*
X88689235Y-29977428D01*
X88695196Y-30001227D01*
X88698796Y-30025495D01*
X88700000Y-30049999D01*
X88700000Y-30675001D01*
X88698796Y-30699505D01*
X88695196Y-30723773D01*
X88689235Y-30747572D01*
X88680970Y-30770671D01*
X88670480Y-30792850D01*
X88657868Y-30813893D01*
X88643253Y-30833599D01*
X88626777Y-30851777D01*
X88608599Y-30868253D01*
X88588893Y-30882868D01*
X88567850Y-30895480D01*
X88545671Y-30905970D01*
X88522572Y-30914235D01*
X88498773Y-30920196D01*
X88474505Y-30923796D01*
X88450001Y-30925000D01*
X85549999Y-30925000D01*
X85525495Y-30923796D01*
X85501227Y-30920196D01*
X85477428Y-30914235D01*
X85454329Y-30905970D01*
X85432150Y-30895480D01*
X85411107Y-30882868D01*
X85391401Y-30868253D01*
X85373223Y-30851777D01*
X85356747Y-30833599D01*
X85342132Y-30813893D01*
X85329520Y-30792850D01*
X85319030Y-30770671D01*
X85310765Y-30747572D01*
X85304804Y-30723773D01*
X85301204Y-30699505D01*
X85300000Y-30675001D01*
X85300000Y-30049999D01*
X85301204Y-30025495D01*
X85304804Y-30001227D01*
X85310765Y-29977428D01*
X85319030Y-29954329D01*
X85329520Y-29932150D01*
X85342132Y-29911107D01*
X85356747Y-29891401D01*
X85373223Y-29873223D01*
X85391401Y-29856747D01*
X85411107Y-29842132D01*
X85432150Y-29829520D01*
X85454329Y-29819030D01*
X85477428Y-29810765D01*
X85501227Y-29804804D01*
X85525495Y-29801204D01*
X85549999Y-29800000D01*
X88450001Y-29800000D01*
X88474505Y-29801204D01*
X88474505Y-29801204D01*
G37*
D11*
G04 #@! TD*
G04 #@! TO.P,REF\002A\002A,2*
G04 #@! TO.N,N/C*
X87000000Y-30362500D03*
D10*
G04 #@! TO.N,N/C*
G04 #@! TO.C,REF\002A\002A*
G36*
X88474505Y-34076204D02*
X88498773Y-34079804D01*
X88522572Y-34085765D01*
X88545671Y-34094030D01*
X88567850Y-34104520D01*
X88588893Y-34117132D01*
X88608599Y-34131747D01*
X88626777Y-34148223D01*
X88643253Y-34166401D01*
X88657868Y-34186107D01*
X88670480Y-34207150D01*
X88680970Y-34229329D01*
X88689235Y-34252428D01*
X88695196Y-34276227D01*
X88698796Y-34300495D01*
X88700000Y-34324999D01*
X88700000Y-34950001D01*
X88698796Y-34974505D01*
X88695196Y-34998773D01*
X88689235Y-35022572D01*
X88680970Y-35045671D01*
X88670480Y-35067850D01*
X88657868Y-35088893D01*
X88643253Y-35108599D01*
X88626777Y-35126777D01*
X88608599Y-35143253D01*
X88588893Y-35157868D01*
X88567850Y-35170480D01*
X88545671Y-35180970D01*
X88522572Y-35189235D01*
X88498773Y-35195196D01*
X88474505Y-35198796D01*
X88450001Y-35200000D01*
X85549999Y-35200000D01*
X85525495Y-35198796D01*
X85501227Y-35195196D01*
X85477428Y-35189235D01*
X85454329Y-35180970D01*
X85432150Y-35170480D01*
X85411107Y-35157868D01*
X85391401Y-35143253D01*
X85373223Y-35126777D01*
X85356747Y-35108599D01*
X85342132Y-35088893D01*
X85329520Y-35067850D01*
X85319030Y-35045671D01*
X85310765Y-35022572D01*
X85304804Y-34998773D01*
X85301204Y-34974505D01*
X85300000Y-34950001D01*
X85300000Y-34324999D01*
X85301204Y-34300495D01*
X85304804Y-34276227D01*
X85310765Y-34252428D01*
X85319030Y-34229329D01*
X85329520Y-34207150D01*
X85342132Y-34186107D01*
X85356747Y-34166401D01*
X85373223Y-34148223D01*
X85391401Y-34131747D01*
X85411107Y-34117132D01*
X85432150Y-34104520D01*
X85454329Y-34094030D01*
X85477428Y-34085765D01*
X85501227Y-34079804D01*
X85525495Y-34076204D01*
X85549999Y-34075000D01*
X88450001Y-34075000D01*
X88474505Y-34076204D01*
X88474505Y-34076204D01*
G37*
D11*
G04 #@! TD*
G04 #@! TO.P,REF\002A\002A,1*
G04 #@! TO.N,N/C*
X87000000Y-34637500D03*
D10*
G04 #@! TO.N,N/C*
G04 #@! TO.C,REF\002A\002A*
G36*
X76874505Y-29801204D02*
X76898773Y-29804804D01*
X76922572Y-29810765D01*
X76945671Y-29819030D01*
X76967850Y-29829520D01*
X76988893Y-29842132D01*
X77008599Y-29856747D01*
X77026777Y-29873223D01*
X77043253Y-29891401D01*
X77057868Y-29911107D01*
X77070480Y-29932150D01*
X77080970Y-29954329D01*
X77089235Y-29977428D01*
X77095196Y-30001227D01*
X77098796Y-30025495D01*
X77100000Y-30049999D01*
X77100000Y-30675001D01*
X77098796Y-30699505D01*
X77095196Y-30723773D01*
X77089235Y-30747572D01*
X77080970Y-30770671D01*
X77070480Y-30792850D01*
X77057868Y-30813893D01*
X77043253Y-30833599D01*
X77026777Y-30851777D01*
X77008599Y-30868253D01*
X76988893Y-30882868D01*
X76967850Y-30895480D01*
X76945671Y-30905970D01*
X76922572Y-30914235D01*
X76898773Y-30920196D01*
X76874505Y-30923796D01*
X76850001Y-30925000D01*
X73949999Y-30925000D01*
X73925495Y-30923796D01*
X73901227Y-30920196D01*
X73877428Y-30914235D01*
X73854329Y-30905970D01*
X73832150Y-30895480D01*
X73811107Y-30882868D01*
X73791401Y-30868253D01*
X73773223Y-30851777D01*
X73756747Y-30833599D01*
X73742132Y-30813893D01*
X73729520Y-30792850D01*
X73719030Y-30770671D01*
X73710765Y-30747572D01*
X73704804Y-30723773D01*
X73701204Y-30699505D01*
X73700000Y-30675001D01*
X73700000Y-30049999D01*
X73701204Y-30025495D01*
X73704804Y-30001227D01*
X73710765Y-29977428D01*
X73719030Y-29954329D01*
X73729520Y-29932150D01*
X73742132Y-29911107D01*
X73756747Y-29891401D01*
X73773223Y-29873223D01*
X73791401Y-29856747D01*
X73811107Y-29842132D01*
X73832150Y-29829520D01*
X73854329Y-29819030D01*
X73877428Y-29810765D01*
X73901227Y-29804804D01*
X73925495Y-29801204D01*
X73949999Y-29800000D01*
X76850001Y-29800000D01*
X76874505Y-29801204D01*
X76874505Y-29801204D01*
G37*
D11*
G04 #@! TD*
G04 #@! TO.P,REF\002A\002A,2*
G04 #@! TO.N,N/C*
X75400000Y-30362500D03*
D10*
G04 #@! TO.N,N/C*
G04 #@! TO.C,REF\002A\002A*
G36*
X76874505Y-34076204D02*
X76898773Y-34079804D01*
X76922572Y-34085765D01*
X76945671Y-34094030D01*
X76967850Y-34104520D01*
X76988893Y-34117132D01*
X77008599Y-34131747D01*
X77026777Y-34148223D01*
X77043253Y-34166401D01*
X77057868Y-34186107D01*
X77070480Y-34207150D01*
X77080970Y-34229329D01*
X77089235Y-34252428D01*
X77095196Y-34276227D01*
X77098796Y-34300495D01*
X77100000Y-34324999D01*
X77100000Y-34950001D01*
X77098796Y-34974505D01*
X77095196Y-34998773D01*
X77089235Y-35022572D01*
X77080970Y-35045671D01*
X77070480Y-35067850D01*
X77057868Y-35088893D01*
X77043253Y-35108599D01*
X77026777Y-35126777D01*
X77008599Y-35143253D01*
X76988893Y-35157868D01*
X76967850Y-35170480D01*
X76945671Y-35180970D01*
X76922572Y-35189235D01*
X76898773Y-35195196D01*
X76874505Y-35198796D01*
X76850001Y-35200000D01*
X73949999Y-35200000D01*
X73925495Y-35198796D01*
X73901227Y-35195196D01*
X73877428Y-35189235D01*
X73854329Y-35180970D01*
X73832150Y-35170480D01*
X73811107Y-35157868D01*
X73791401Y-35143253D01*
X73773223Y-35126777D01*
X73756747Y-35108599D01*
X73742132Y-35088893D01*
X73729520Y-35067850D01*
X73719030Y-35045671D01*
X73710765Y-35022572D01*
X73704804Y-34998773D01*
X73701204Y-34974505D01*
X73700000Y-34950001D01*
X73700000Y-34324999D01*
X73701204Y-34300495D01*
X73704804Y-34276227D01*
X73710765Y-34252428D01*
X73719030Y-34229329D01*
X73729520Y-34207150D01*
X73742132Y-34186107D01*
X73756747Y-34166401D01*
X73773223Y-34148223D01*
X73791401Y-34131747D01*
X73811107Y-34117132D01*
X73832150Y-34104520D01*
X73854329Y-34094030D01*
X73877428Y-34085765D01*
X73901227Y-34079804D01*
X73925495Y-34076204D01*
X73949999Y-34075000D01*
X76850001Y-34075000D01*
X76874505Y-34076204D01*
X76874505Y-34076204D01*
G37*
D11*
G04 #@! TD*
G04 #@! TO.P,REF\002A\002A,1*
G04 #@! TO.N,N/C*
X75400000Y-34637500D03*
D10*
G04 #@! TO.N,N/C*
G04 #@! TO.C,REF\002A\002A*
G36*
X65274505Y-29801204D02*
X65298773Y-29804804D01*
X65322572Y-29810765D01*
X65345671Y-29819030D01*
X65367850Y-29829520D01*
X65388893Y-29842132D01*
X65408599Y-29856747D01*
X65426777Y-29873223D01*
X65443253Y-29891401D01*
X65457868Y-29911107D01*
X65470480Y-29932150D01*
X65480970Y-29954329D01*
X65489235Y-29977428D01*
X65495196Y-30001227D01*
X65498796Y-30025495D01*
X65500000Y-30049999D01*
X65500000Y-30675001D01*
X65498796Y-30699505D01*
X65495196Y-30723773D01*
X65489235Y-30747572D01*
X65480970Y-30770671D01*
X65470480Y-30792850D01*
X65457868Y-30813893D01*
X65443253Y-30833599D01*
X65426777Y-30851777D01*
X65408599Y-30868253D01*
X65388893Y-30882868D01*
X65367850Y-30895480D01*
X65345671Y-30905970D01*
X65322572Y-30914235D01*
X65298773Y-30920196D01*
X65274505Y-30923796D01*
X65250001Y-30925000D01*
X62349999Y-30925000D01*
X62325495Y-30923796D01*
X62301227Y-30920196D01*
X62277428Y-30914235D01*
X62254329Y-30905970D01*
X62232150Y-30895480D01*
X62211107Y-30882868D01*
X62191401Y-30868253D01*
X62173223Y-30851777D01*
X62156747Y-30833599D01*
X62142132Y-30813893D01*
X62129520Y-30792850D01*
X62119030Y-30770671D01*
X62110765Y-30747572D01*
X62104804Y-30723773D01*
X62101204Y-30699505D01*
X62100000Y-30675001D01*
X62100000Y-30049999D01*
X62101204Y-30025495D01*
X62104804Y-30001227D01*
X62110765Y-29977428D01*
X62119030Y-29954329D01*
X62129520Y-29932150D01*
X62142132Y-29911107D01*
X62156747Y-29891401D01*
X62173223Y-29873223D01*
X62191401Y-29856747D01*
X62211107Y-29842132D01*
X62232150Y-29829520D01*
X62254329Y-29819030D01*
X62277428Y-29810765D01*
X62301227Y-29804804D01*
X62325495Y-29801204D01*
X62349999Y-29800000D01*
X65250001Y-29800000D01*
X65274505Y-29801204D01*
X65274505Y-29801204D01*
G37*
D11*
G04 #@! TD*
G04 #@! TO.P,REF\002A\002A,2*
G04 #@! TO.N,N/C*
X63800000Y-30362500D03*
D10*
G04 #@! TO.N,N/C*
G04 #@! TO.C,REF\002A\002A*
G36*
X65274505Y-34076204D02*
X65298773Y-34079804D01*
X65322572Y-34085765D01*
X65345671Y-34094030D01*
X65367850Y-34104520D01*
X65388893Y-34117132D01*
X65408599Y-34131747D01*
X65426777Y-34148223D01*
X65443253Y-34166401D01*
X65457868Y-34186107D01*
X65470480Y-34207150D01*
X65480970Y-34229329D01*
X65489235Y-34252428D01*
X65495196Y-34276227D01*
X65498796Y-34300495D01*
X65500000Y-34324999D01*
X65500000Y-34950001D01*
X65498796Y-34974505D01*
X65495196Y-34998773D01*
X65489235Y-35022572D01*
X65480970Y-35045671D01*
X65470480Y-35067850D01*
X65457868Y-35088893D01*
X65443253Y-35108599D01*
X65426777Y-35126777D01*
X65408599Y-35143253D01*
X65388893Y-35157868D01*
X65367850Y-35170480D01*
X65345671Y-35180970D01*
X65322572Y-35189235D01*
X65298773Y-35195196D01*
X65274505Y-35198796D01*
X65250001Y-35200000D01*
X62349999Y-35200000D01*
X62325495Y-35198796D01*
X62301227Y-35195196D01*
X62277428Y-35189235D01*
X62254329Y-35180970D01*
X62232150Y-35170480D01*
X62211107Y-35157868D01*
X62191401Y-35143253D01*
X62173223Y-35126777D01*
X62156747Y-35108599D01*
X62142132Y-35088893D01*
X62129520Y-35067850D01*
X62119030Y-35045671D01*
X62110765Y-35022572D01*
X62104804Y-34998773D01*
X62101204Y-34974505D01*
X62100000Y-34950001D01*
X62100000Y-34324999D01*
X62101204Y-34300495D01*
X62104804Y-34276227D01*
X62110765Y-34252428D01*
X62119030Y-34229329D01*
X62129520Y-34207150D01*
X62142132Y-34186107D01*
X62156747Y-34166401D01*
X62173223Y-34148223D01*
X62191401Y-34131747D01*
X62211107Y-34117132D01*
X62232150Y-34104520D01*
X62254329Y-34094030D01*
X62277428Y-34085765D01*
X62301227Y-34079804D01*
X62325495Y-34076204D01*
X62349999Y-34075000D01*
X65250001Y-34075000D01*
X65274505Y-34076204D01*
X65274505Y-34076204D01*
G37*
D11*
G04 #@! TD*
G04 #@! TO.P,REF\002A\002A,1*
G04 #@! TO.N,N/C*
X63800000Y-34637500D03*
D10*
G04 #@! TO.N,N/C*
G04 #@! TO.C,REF\002A\002A*
G36*
X53674505Y-29801204D02*
X53698773Y-29804804D01*
X53722572Y-29810765D01*
X53745671Y-29819030D01*
X53767850Y-29829520D01*
X53788893Y-29842132D01*
X53808599Y-29856747D01*
X53826777Y-29873223D01*
X53843253Y-29891401D01*
X53857868Y-29911107D01*
X53870480Y-29932150D01*
X53880970Y-29954329D01*
X53889235Y-29977428D01*
X53895196Y-30001227D01*
X53898796Y-30025495D01*
X53900000Y-30049999D01*
X53900000Y-30675001D01*
X53898796Y-30699505D01*
X53895196Y-30723773D01*
X53889235Y-30747572D01*
X53880970Y-30770671D01*
X53870480Y-30792850D01*
X53857868Y-30813893D01*
X53843253Y-30833599D01*
X53826777Y-30851777D01*
X53808599Y-30868253D01*
X53788893Y-30882868D01*
X53767850Y-30895480D01*
X53745671Y-30905970D01*
X53722572Y-30914235D01*
X53698773Y-30920196D01*
X53674505Y-30923796D01*
X53650001Y-30925000D01*
X50749999Y-30925000D01*
X50725495Y-30923796D01*
X50701227Y-30920196D01*
X50677428Y-30914235D01*
X50654329Y-30905970D01*
X50632150Y-30895480D01*
X50611107Y-30882868D01*
X50591401Y-30868253D01*
X50573223Y-30851777D01*
X50556747Y-30833599D01*
X50542132Y-30813893D01*
X50529520Y-30792850D01*
X50519030Y-30770671D01*
X50510765Y-30747572D01*
X50504804Y-30723773D01*
X50501204Y-30699505D01*
X50500000Y-30675001D01*
X50500000Y-30049999D01*
X50501204Y-30025495D01*
X50504804Y-30001227D01*
X50510765Y-29977428D01*
X50519030Y-29954329D01*
X50529520Y-29932150D01*
X50542132Y-29911107D01*
X50556747Y-29891401D01*
X50573223Y-29873223D01*
X50591401Y-29856747D01*
X50611107Y-29842132D01*
X50632150Y-29829520D01*
X50654329Y-29819030D01*
X50677428Y-29810765D01*
X50701227Y-29804804D01*
X50725495Y-29801204D01*
X50749999Y-29800000D01*
X53650001Y-29800000D01*
X53674505Y-29801204D01*
X53674505Y-29801204D01*
G37*
D11*
G04 #@! TD*
G04 #@! TO.P,REF\002A\002A,2*
G04 #@! TO.N,N/C*
X52200000Y-30362500D03*
D10*
G04 #@! TO.N,N/C*
G04 #@! TO.C,REF\002A\002A*
G36*
X53674505Y-34076204D02*
X53698773Y-34079804D01*
X53722572Y-34085765D01*
X53745671Y-34094030D01*
X53767850Y-34104520D01*
X53788893Y-34117132D01*
X53808599Y-34131747D01*
X53826777Y-34148223D01*
X53843253Y-34166401D01*
X53857868Y-34186107D01*
X53870480Y-34207150D01*
X53880970Y-34229329D01*
X53889235Y-34252428D01*
X53895196Y-34276227D01*
X53898796Y-34300495D01*
X53900000Y-34324999D01*
X53900000Y-34950001D01*
X53898796Y-34974505D01*
X53895196Y-34998773D01*
X53889235Y-35022572D01*
X53880970Y-35045671D01*
X53870480Y-35067850D01*
X53857868Y-35088893D01*
X53843253Y-35108599D01*
X53826777Y-35126777D01*
X53808599Y-35143253D01*
X53788893Y-35157868D01*
X53767850Y-35170480D01*
X53745671Y-35180970D01*
X53722572Y-35189235D01*
X53698773Y-35195196D01*
X53674505Y-35198796D01*
X53650001Y-35200000D01*
X50749999Y-35200000D01*
X50725495Y-35198796D01*
X50701227Y-35195196D01*
X50677428Y-35189235D01*
X50654329Y-35180970D01*
X50632150Y-35170480D01*
X50611107Y-35157868D01*
X50591401Y-35143253D01*
X50573223Y-35126777D01*
X50556747Y-35108599D01*
X50542132Y-35088893D01*
X50529520Y-35067850D01*
X50519030Y-35045671D01*
X50510765Y-35022572D01*
X50504804Y-34998773D01*
X50501204Y-34974505D01*
X50500000Y-34950001D01*
X50500000Y-34324999D01*
X50501204Y-34300495D01*
X50504804Y-34276227D01*
X50510765Y-34252428D01*
X50519030Y-34229329D01*
X50529520Y-34207150D01*
X50542132Y-34186107D01*
X50556747Y-34166401D01*
X50573223Y-34148223D01*
X50591401Y-34131747D01*
X50611107Y-34117132D01*
X50632150Y-34104520D01*
X50654329Y-34094030D01*
X50677428Y-34085765D01*
X50701227Y-34079804D01*
X50725495Y-34076204D01*
X50749999Y-34075000D01*
X53650001Y-34075000D01*
X53674505Y-34076204D01*
X53674505Y-34076204D01*
G37*
D11*
G04 #@! TD*
G04 #@! TO.P,REF\002A\002A,1*
G04 #@! TO.N,N/C*
X52200000Y-34637500D03*
D10*
G04 #@! TO.N,N/C*
G04 #@! TO.C,REF\002A\002A*
G36*
X42074505Y-29801204D02*
X42098773Y-29804804D01*
X42122572Y-29810765D01*
X42145671Y-29819030D01*
X42167850Y-29829520D01*
X42188893Y-29842132D01*
X42208599Y-29856747D01*
X42226777Y-29873223D01*
X42243253Y-29891401D01*
X42257868Y-29911107D01*
X42270480Y-29932150D01*
X42280970Y-29954329D01*
X42289235Y-29977428D01*
X42295196Y-30001227D01*
X42298796Y-30025495D01*
X42300000Y-30049999D01*
X42300000Y-30675001D01*
X42298796Y-30699505D01*
X42295196Y-30723773D01*
X42289235Y-30747572D01*
X42280970Y-30770671D01*
X42270480Y-30792850D01*
X42257868Y-30813893D01*
X42243253Y-30833599D01*
X42226777Y-30851777D01*
X42208599Y-30868253D01*
X42188893Y-30882868D01*
X42167850Y-30895480D01*
X42145671Y-30905970D01*
X42122572Y-30914235D01*
X42098773Y-30920196D01*
X42074505Y-30923796D01*
X42050001Y-30925000D01*
X39149999Y-30925000D01*
X39125495Y-30923796D01*
X39101227Y-30920196D01*
X39077428Y-30914235D01*
X39054329Y-30905970D01*
X39032150Y-30895480D01*
X39011107Y-30882868D01*
X38991401Y-30868253D01*
X38973223Y-30851777D01*
X38956747Y-30833599D01*
X38942132Y-30813893D01*
X38929520Y-30792850D01*
X38919030Y-30770671D01*
X38910765Y-30747572D01*
X38904804Y-30723773D01*
X38901204Y-30699505D01*
X38900000Y-30675001D01*
X38900000Y-30049999D01*
X38901204Y-30025495D01*
X38904804Y-30001227D01*
X38910765Y-29977428D01*
X38919030Y-29954329D01*
X38929520Y-29932150D01*
X38942132Y-29911107D01*
X38956747Y-29891401D01*
X38973223Y-29873223D01*
X38991401Y-29856747D01*
X39011107Y-29842132D01*
X39032150Y-29829520D01*
X39054329Y-29819030D01*
X39077428Y-29810765D01*
X39101227Y-29804804D01*
X39125495Y-29801204D01*
X39149999Y-29800000D01*
X42050001Y-29800000D01*
X42074505Y-29801204D01*
X42074505Y-29801204D01*
G37*
D11*
G04 #@! TD*
G04 #@! TO.P,REF\002A\002A,2*
G04 #@! TO.N,N/C*
X40600000Y-30362500D03*
D10*
G04 #@! TO.N,N/C*
G04 #@! TO.C,REF\002A\002A*
G36*
X42074505Y-34076204D02*
X42098773Y-34079804D01*
X42122572Y-34085765D01*
X42145671Y-34094030D01*
X42167850Y-34104520D01*
X42188893Y-34117132D01*
X42208599Y-34131747D01*
X42226777Y-34148223D01*
X42243253Y-34166401D01*
X42257868Y-34186107D01*
X42270480Y-34207150D01*
X42280970Y-34229329D01*
X42289235Y-34252428D01*
X42295196Y-34276227D01*
X42298796Y-34300495D01*
X42300000Y-34324999D01*
X42300000Y-34950001D01*
X42298796Y-34974505D01*
X42295196Y-34998773D01*
X42289235Y-35022572D01*
X42280970Y-35045671D01*
X42270480Y-35067850D01*
X42257868Y-35088893D01*
X42243253Y-35108599D01*
X42226777Y-35126777D01*
X42208599Y-35143253D01*
X42188893Y-35157868D01*
X42167850Y-35170480D01*
X42145671Y-35180970D01*
X42122572Y-35189235D01*
X42098773Y-35195196D01*
X42074505Y-35198796D01*
X42050001Y-35200000D01*
X39149999Y-35200000D01*
X39125495Y-35198796D01*
X39101227Y-35195196D01*
X39077428Y-35189235D01*
X39054329Y-35180970D01*
X39032150Y-35170480D01*
X39011107Y-35157868D01*
X38991401Y-35143253D01*
X38973223Y-35126777D01*
X38956747Y-35108599D01*
X38942132Y-35088893D01*
X38929520Y-35067850D01*
X38919030Y-35045671D01*
X38910765Y-35022572D01*
X38904804Y-34998773D01*
X38901204Y-34974505D01*
X38900000Y-34950001D01*
X38900000Y-34324999D01*
X38901204Y-34300495D01*
X38904804Y-34276227D01*
X38910765Y-34252428D01*
X38919030Y-34229329D01*
X38929520Y-34207150D01*
X38942132Y-34186107D01*
X38956747Y-34166401D01*
X38973223Y-34148223D01*
X38991401Y-34131747D01*
X39011107Y-34117132D01*
X39032150Y-34104520D01*
X39054329Y-34094030D01*
X39077428Y-34085765D01*
X39101227Y-34079804D01*
X39125495Y-34076204D01*
X39149999Y-34075000D01*
X42050001Y-34075000D01*
X42074505Y-34076204D01*
X42074505Y-34076204D01*
G37*
D11*
G04 #@! TD*
G04 #@! TO.P,REF\002A\002A,1*
G04 #@! TO.N,N/C*
X40600000Y-34637500D03*
D10*
G04 #@! TO.N,N/C*
G04 #@! TO.C,REF\002A\002A*
G36*
X245074505Y-34076204D02*
X245098773Y-34079804D01*
X245122572Y-34085765D01*
X245145671Y-34094030D01*
X245167850Y-34104520D01*
X245188893Y-34117132D01*
X245208599Y-34131747D01*
X245226777Y-34148223D01*
X245243253Y-34166401D01*
X245257868Y-34186107D01*
X245270480Y-34207150D01*
X245280970Y-34229329D01*
X245289235Y-34252428D01*
X245295196Y-34276227D01*
X245298796Y-34300495D01*
X245300000Y-34324999D01*
X245300000Y-34950001D01*
X245298796Y-34974505D01*
X245295196Y-34998773D01*
X245289235Y-35022572D01*
X245280970Y-35045671D01*
X245270480Y-35067850D01*
X245257868Y-35088893D01*
X245243253Y-35108599D01*
X245226777Y-35126777D01*
X245208599Y-35143253D01*
X245188893Y-35157868D01*
X245167850Y-35170480D01*
X245145671Y-35180970D01*
X245122572Y-35189235D01*
X245098773Y-35195196D01*
X245074505Y-35198796D01*
X245050001Y-35200000D01*
X242149999Y-35200000D01*
X242125495Y-35198796D01*
X242101227Y-35195196D01*
X242077428Y-35189235D01*
X242054329Y-35180970D01*
X242032150Y-35170480D01*
X242011107Y-35157868D01*
X241991401Y-35143253D01*
X241973223Y-35126777D01*
X241956747Y-35108599D01*
X241942132Y-35088893D01*
X241929520Y-35067850D01*
X241919030Y-35045671D01*
X241910765Y-35022572D01*
X241904804Y-34998773D01*
X241901204Y-34974505D01*
X241900000Y-34950001D01*
X241900000Y-34324999D01*
X241901204Y-34300495D01*
X241904804Y-34276227D01*
X241910765Y-34252428D01*
X241919030Y-34229329D01*
X241929520Y-34207150D01*
X241942132Y-34186107D01*
X241956747Y-34166401D01*
X241973223Y-34148223D01*
X241991401Y-34131747D01*
X242011107Y-34117132D01*
X242032150Y-34104520D01*
X242054329Y-34094030D01*
X242077428Y-34085765D01*
X242101227Y-34079804D01*
X242125495Y-34076204D01*
X242149999Y-34075000D01*
X245050001Y-34075000D01*
X245074505Y-34076204D01*
X245074505Y-34076204D01*
G37*
D11*
G04 #@! TD*
G04 #@! TO.P,REF\002A\002A,1*
G04 #@! TO.N,N/C*
X243600000Y-34637500D03*
D10*
G04 #@! TO.N,N/C*
G04 #@! TO.C,REF\002A\002A*
G36*
X245074505Y-29801204D02*
X245098773Y-29804804D01*
X245122572Y-29810765D01*
X245145671Y-29819030D01*
X245167850Y-29829520D01*
X245188893Y-29842132D01*
X245208599Y-29856747D01*
X245226777Y-29873223D01*
X245243253Y-29891401D01*
X245257868Y-29911107D01*
X245270480Y-29932150D01*
X245280970Y-29954329D01*
X245289235Y-29977428D01*
X245295196Y-30001227D01*
X245298796Y-30025495D01*
X245300000Y-30049999D01*
X245300000Y-30675001D01*
X245298796Y-30699505D01*
X245295196Y-30723773D01*
X245289235Y-30747572D01*
X245280970Y-30770671D01*
X245270480Y-30792850D01*
X245257868Y-30813893D01*
X245243253Y-30833599D01*
X245226777Y-30851777D01*
X245208599Y-30868253D01*
X245188893Y-30882868D01*
X245167850Y-30895480D01*
X245145671Y-30905970D01*
X245122572Y-30914235D01*
X245098773Y-30920196D01*
X245074505Y-30923796D01*
X245050001Y-30925000D01*
X242149999Y-30925000D01*
X242125495Y-30923796D01*
X242101227Y-30920196D01*
X242077428Y-30914235D01*
X242054329Y-30905970D01*
X242032150Y-30895480D01*
X242011107Y-30882868D01*
X241991401Y-30868253D01*
X241973223Y-30851777D01*
X241956747Y-30833599D01*
X241942132Y-30813893D01*
X241929520Y-30792850D01*
X241919030Y-30770671D01*
X241910765Y-30747572D01*
X241904804Y-30723773D01*
X241901204Y-30699505D01*
X241900000Y-30675001D01*
X241900000Y-30049999D01*
X241901204Y-30025495D01*
X241904804Y-30001227D01*
X241910765Y-29977428D01*
X241919030Y-29954329D01*
X241929520Y-29932150D01*
X241942132Y-29911107D01*
X241956747Y-29891401D01*
X241973223Y-29873223D01*
X241991401Y-29856747D01*
X242011107Y-29842132D01*
X242032150Y-29829520D01*
X242054329Y-29819030D01*
X242077428Y-29810765D01*
X242101227Y-29804804D01*
X242125495Y-29801204D01*
X242149999Y-29800000D01*
X245050001Y-29800000D01*
X245074505Y-29801204D01*
X245074505Y-29801204D01*
G37*
D11*
G04 #@! TD*
G04 #@! TO.P,REF\002A\002A,2*
G04 #@! TO.N,N/C*
X243600000Y-30362500D03*
D10*
G04 #@! TO.N,N/C*
G04 #@! TO.C,REF\002A\002A*
G36*
X233474505Y-34076204D02*
X233498773Y-34079804D01*
X233522572Y-34085765D01*
X233545671Y-34094030D01*
X233567850Y-34104520D01*
X233588893Y-34117132D01*
X233608599Y-34131747D01*
X233626777Y-34148223D01*
X233643253Y-34166401D01*
X233657868Y-34186107D01*
X233670480Y-34207150D01*
X233680970Y-34229329D01*
X233689235Y-34252428D01*
X233695196Y-34276227D01*
X233698796Y-34300495D01*
X233700000Y-34324999D01*
X233700000Y-34950001D01*
X233698796Y-34974505D01*
X233695196Y-34998773D01*
X233689235Y-35022572D01*
X233680970Y-35045671D01*
X233670480Y-35067850D01*
X233657868Y-35088893D01*
X233643253Y-35108599D01*
X233626777Y-35126777D01*
X233608599Y-35143253D01*
X233588893Y-35157868D01*
X233567850Y-35170480D01*
X233545671Y-35180970D01*
X233522572Y-35189235D01*
X233498773Y-35195196D01*
X233474505Y-35198796D01*
X233450001Y-35200000D01*
X230549999Y-35200000D01*
X230525495Y-35198796D01*
X230501227Y-35195196D01*
X230477428Y-35189235D01*
X230454329Y-35180970D01*
X230432150Y-35170480D01*
X230411107Y-35157868D01*
X230391401Y-35143253D01*
X230373223Y-35126777D01*
X230356747Y-35108599D01*
X230342132Y-35088893D01*
X230329520Y-35067850D01*
X230319030Y-35045671D01*
X230310765Y-35022572D01*
X230304804Y-34998773D01*
X230301204Y-34974505D01*
X230300000Y-34950001D01*
X230300000Y-34324999D01*
X230301204Y-34300495D01*
X230304804Y-34276227D01*
X230310765Y-34252428D01*
X230319030Y-34229329D01*
X230329520Y-34207150D01*
X230342132Y-34186107D01*
X230356747Y-34166401D01*
X230373223Y-34148223D01*
X230391401Y-34131747D01*
X230411107Y-34117132D01*
X230432150Y-34104520D01*
X230454329Y-34094030D01*
X230477428Y-34085765D01*
X230501227Y-34079804D01*
X230525495Y-34076204D01*
X230549999Y-34075000D01*
X233450001Y-34075000D01*
X233474505Y-34076204D01*
X233474505Y-34076204D01*
G37*
D11*
G04 #@! TD*
G04 #@! TO.P,REF\002A\002A,1*
G04 #@! TO.N,N/C*
X232000000Y-34637500D03*
D10*
G04 #@! TO.N,N/C*
G04 #@! TO.C,REF\002A\002A*
G36*
X233474505Y-29801204D02*
X233498773Y-29804804D01*
X233522572Y-29810765D01*
X233545671Y-29819030D01*
X233567850Y-29829520D01*
X233588893Y-29842132D01*
X233608599Y-29856747D01*
X233626777Y-29873223D01*
X233643253Y-29891401D01*
X233657868Y-29911107D01*
X233670480Y-29932150D01*
X233680970Y-29954329D01*
X233689235Y-29977428D01*
X233695196Y-30001227D01*
X233698796Y-30025495D01*
X233700000Y-30049999D01*
X233700000Y-30675001D01*
X233698796Y-30699505D01*
X233695196Y-30723773D01*
X233689235Y-30747572D01*
X233680970Y-30770671D01*
X233670480Y-30792850D01*
X233657868Y-30813893D01*
X233643253Y-30833599D01*
X233626777Y-30851777D01*
X233608599Y-30868253D01*
X233588893Y-30882868D01*
X233567850Y-30895480D01*
X233545671Y-30905970D01*
X233522572Y-30914235D01*
X233498773Y-30920196D01*
X233474505Y-30923796D01*
X233450001Y-30925000D01*
X230549999Y-30925000D01*
X230525495Y-30923796D01*
X230501227Y-30920196D01*
X230477428Y-30914235D01*
X230454329Y-30905970D01*
X230432150Y-30895480D01*
X230411107Y-30882868D01*
X230391401Y-30868253D01*
X230373223Y-30851777D01*
X230356747Y-30833599D01*
X230342132Y-30813893D01*
X230329520Y-30792850D01*
X230319030Y-30770671D01*
X230310765Y-30747572D01*
X230304804Y-30723773D01*
X230301204Y-30699505D01*
X230300000Y-30675001D01*
X230300000Y-30049999D01*
X230301204Y-30025495D01*
X230304804Y-30001227D01*
X230310765Y-29977428D01*
X230319030Y-29954329D01*
X230329520Y-29932150D01*
X230342132Y-29911107D01*
X230356747Y-29891401D01*
X230373223Y-29873223D01*
X230391401Y-29856747D01*
X230411107Y-29842132D01*
X230432150Y-29829520D01*
X230454329Y-29819030D01*
X230477428Y-29810765D01*
X230501227Y-29804804D01*
X230525495Y-29801204D01*
X230549999Y-29800000D01*
X233450001Y-29800000D01*
X233474505Y-29801204D01*
X233474505Y-29801204D01*
G37*
D11*
G04 #@! TD*
G04 #@! TO.P,REF\002A\002A,2*
G04 #@! TO.N,N/C*
X232000000Y-30362500D03*
D10*
G04 #@! TO.N,N/C*
G04 #@! TO.C,REF\002A\002A*
G36*
X221874505Y-34076204D02*
X221898773Y-34079804D01*
X221922572Y-34085765D01*
X221945671Y-34094030D01*
X221967850Y-34104520D01*
X221988893Y-34117132D01*
X222008599Y-34131747D01*
X222026777Y-34148223D01*
X222043253Y-34166401D01*
X222057868Y-34186107D01*
X222070480Y-34207150D01*
X222080970Y-34229329D01*
X222089235Y-34252428D01*
X222095196Y-34276227D01*
X222098796Y-34300495D01*
X222100000Y-34324999D01*
X222100000Y-34950001D01*
X222098796Y-34974505D01*
X222095196Y-34998773D01*
X222089235Y-35022572D01*
X222080970Y-35045671D01*
X222070480Y-35067850D01*
X222057868Y-35088893D01*
X222043253Y-35108599D01*
X222026777Y-35126777D01*
X222008599Y-35143253D01*
X221988893Y-35157868D01*
X221967850Y-35170480D01*
X221945671Y-35180970D01*
X221922572Y-35189235D01*
X221898773Y-35195196D01*
X221874505Y-35198796D01*
X221850001Y-35200000D01*
X218949999Y-35200000D01*
X218925495Y-35198796D01*
X218901227Y-35195196D01*
X218877428Y-35189235D01*
X218854329Y-35180970D01*
X218832150Y-35170480D01*
X218811107Y-35157868D01*
X218791401Y-35143253D01*
X218773223Y-35126777D01*
X218756747Y-35108599D01*
X218742132Y-35088893D01*
X218729520Y-35067850D01*
X218719030Y-35045671D01*
X218710765Y-35022572D01*
X218704804Y-34998773D01*
X218701204Y-34974505D01*
X218700000Y-34950001D01*
X218700000Y-34324999D01*
X218701204Y-34300495D01*
X218704804Y-34276227D01*
X218710765Y-34252428D01*
X218719030Y-34229329D01*
X218729520Y-34207150D01*
X218742132Y-34186107D01*
X218756747Y-34166401D01*
X218773223Y-34148223D01*
X218791401Y-34131747D01*
X218811107Y-34117132D01*
X218832150Y-34104520D01*
X218854329Y-34094030D01*
X218877428Y-34085765D01*
X218901227Y-34079804D01*
X218925495Y-34076204D01*
X218949999Y-34075000D01*
X221850001Y-34075000D01*
X221874505Y-34076204D01*
X221874505Y-34076204D01*
G37*
D11*
G04 #@! TD*
G04 #@! TO.P,REF\002A\002A,1*
G04 #@! TO.N,N/C*
X220400000Y-34637500D03*
D10*
G04 #@! TO.N,N/C*
G04 #@! TO.C,REF\002A\002A*
G36*
X221874505Y-29801204D02*
X221898773Y-29804804D01*
X221922572Y-29810765D01*
X221945671Y-29819030D01*
X221967850Y-29829520D01*
X221988893Y-29842132D01*
X222008599Y-29856747D01*
X222026777Y-29873223D01*
X222043253Y-29891401D01*
X222057868Y-29911107D01*
X222070480Y-29932150D01*
X222080970Y-29954329D01*
X222089235Y-29977428D01*
X222095196Y-30001227D01*
X222098796Y-30025495D01*
X222100000Y-30049999D01*
X222100000Y-30675001D01*
X222098796Y-30699505D01*
X222095196Y-30723773D01*
X222089235Y-30747572D01*
X222080970Y-30770671D01*
X222070480Y-30792850D01*
X222057868Y-30813893D01*
X222043253Y-30833599D01*
X222026777Y-30851777D01*
X222008599Y-30868253D01*
X221988893Y-30882868D01*
X221967850Y-30895480D01*
X221945671Y-30905970D01*
X221922572Y-30914235D01*
X221898773Y-30920196D01*
X221874505Y-30923796D01*
X221850001Y-30925000D01*
X218949999Y-30925000D01*
X218925495Y-30923796D01*
X218901227Y-30920196D01*
X218877428Y-30914235D01*
X218854329Y-30905970D01*
X218832150Y-30895480D01*
X218811107Y-30882868D01*
X218791401Y-30868253D01*
X218773223Y-30851777D01*
X218756747Y-30833599D01*
X218742132Y-30813893D01*
X218729520Y-30792850D01*
X218719030Y-30770671D01*
X218710765Y-30747572D01*
X218704804Y-30723773D01*
X218701204Y-30699505D01*
X218700000Y-30675001D01*
X218700000Y-30049999D01*
X218701204Y-30025495D01*
X218704804Y-30001227D01*
X218710765Y-29977428D01*
X218719030Y-29954329D01*
X218729520Y-29932150D01*
X218742132Y-29911107D01*
X218756747Y-29891401D01*
X218773223Y-29873223D01*
X218791401Y-29856747D01*
X218811107Y-29842132D01*
X218832150Y-29829520D01*
X218854329Y-29819030D01*
X218877428Y-29810765D01*
X218901227Y-29804804D01*
X218925495Y-29801204D01*
X218949999Y-29800000D01*
X221850001Y-29800000D01*
X221874505Y-29801204D01*
X221874505Y-29801204D01*
G37*
D11*
G04 #@! TD*
G04 #@! TO.P,REF\002A\002A,2*
G04 #@! TO.N,N/C*
X220400000Y-30362500D03*
D10*
G04 #@! TO.N,N/C*
G04 #@! TO.C,REF\002A\002A*
G36*
X210274505Y-34076204D02*
X210298773Y-34079804D01*
X210322572Y-34085765D01*
X210345671Y-34094030D01*
X210367850Y-34104520D01*
X210388893Y-34117132D01*
X210408599Y-34131747D01*
X210426777Y-34148223D01*
X210443253Y-34166401D01*
X210457868Y-34186107D01*
X210470480Y-34207150D01*
X210480970Y-34229329D01*
X210489235Y-34252428D01*
X210495196Y-34276227D01*
X210498796Y-34300495D01*
X210500000Y-34324999D01*
X210500000Y-34950001D01*
X210498796Y-34974505D01*
X210495196Y-34998773D01*
X210489235Y-35022572D01*
X210480970Y-35045671D01*
X210470480Y-35067850D01*
X210457868Y-35088893D01*
X210443253Y-35108599D01*
X210426777Y-35126777D01*
X210408599Y-35143253D01*
X210388893Y-35157868D01*
X210367850Y-35170480D01*
X210345671Y-35180970D01*
X210322572Y-35189235D01*
X210298773Y-35195196D01*
X210274505Y-35198796D01*
X210250001Y-35200000D01*
X207349999Y-35200000D01*
X207325495Y-35198796D01*
X207301227Y-35195196D01*
X207277428Y-35189235D01*
X207254329Y-35180970D01*
X207232150Y-35170480D01*
X207211107Y-35157868D01*
X207191401Y-35143253D01*
X207173223Y-35126777D01*
X207156747Y-35108599D01*
X207142132Y-35088893D01*
X207129520Y-35067850D01*
X207119030Y-35045671D01*
X207110765Y-35022572D01*
X207104804Y-34998773D01*
X207101204Y-34974505D01*
X207100000Y-34950001D01*
X207100000Y-34324999D01*
X207101204Y-34300495D01*
X207104804Y-34276227D01*
X207110765Y-34252428D01*
X207119030Y-34229329D01*
X207129520Y-34207150D01*
X207142132Y-34186107D01*
X207156747Y-34166401D01*
X207173223Y-34148223D01*
X207191401Y-34131747D01*
X207211107Y-34117132D01*
X207232150Y-34104520D01*
X207254329Y-34094030D01*
X207277428Y-34085765D01*
X207301227Y-34079804D01*
X207325495Y-34076204D01*
X207349999Y-34075000D01*
X210250001Y-34075000D01*
X210274505Y-34076204D01*
X210274505Y-34076204D01*
G37*
D11*
G04 #@! TD*
G04 #@! TO.P,REF\002A\002A,1*
G04 #@! TO.N,N/C*
X208800000Y-34637500D03*
D10*
G04 #@! TO.N,N/C*
G04 #@! TO.C,REF\002A\002A*
G36*
X210274505Y-29801204D02*
X210298773Y-29804804D01*
X210322572Y-29810765D01*
X210345671Y-29819030D01*
X210367850Y-29829520D01*
X210388893Y-29842132D01*
X210408599Y-29856747D01*
X210426777Y-29873223D01*
X210443253Y-29891401D01*
X210457868Y-29911107D01*
X210470480Y-29932150D01*
X210480970Y-29954329D01*
X210489235Y-29977428D01*
X210495196Y-30001227D01*
X210498796Y-30025495D01*
X210500000Y-30049999D01*
X210500000Y-30675001D01*
X210498796Y-30699505D01*
X210495196Y-30723773D01*
X210489235Y-30747572D01*
X210480970Y-30770671D01*
X210470480Y-30792850D01*
X210457868Y-30813893D01*
X210443253Y-30833599D01*
X210426777Y-30851777D01*
X210408599Y-30868253D01*
X210388893Y-30882868D01*
X210367850Y-30895480D01*
X210345671Y-30905970D01*
X210322572Y-30914235D01*
X210298773Y-30920196D01*
X210274505Y-30923796D01*
X210250001Y-30925000D01*
X207349999Y-30925000D01*
X207325495Y-30923796D01*
X207301227Y-30920196D01*
X207277428Y-30914235D01*
X207254329Y-30905970D01*
X207232150Y-30895480D01*
X207211107Y-30882868D01*
X207191401Y-30868253D01*
X207173223Y-30851777D01*
X207156747Y-30833599D01*
X207142132Y-30813893D01*
X207129520Y-30792850D01*
X207119030Y-30770671D01*
X207110765Y-30747572D01*
X207104804Y-30723773D01*
X207101204Y-30699505D01*
X207100000Y-30675001D01*
X207100000Y-30049999D01*
X207101204Y-30025495D01*
X207104804Y-30001227D01*
X207110765Y-29977428D01*
X207119030Y-29954329D01*
X207129520Y-29932150D01*
X207142132Y-29911107D01*
X207156747Y-29891401D01*
X207173223Y-29873223D01*
X207191401Y-29856747D01*
X207211107Y-29842132D01*
X207232150Y-29829520D01*
X207254329Y-29819030D01*
X207277428Y-29810765D01*
X207301227Y-29804804D01*
X207325495Y-29801204D01*
X207349999Y-29800000D01*
X210250001Y-29800000D01*
X210274505Y-29801204D01*
X210274505Y-29801204D01*
G37*
D11*
G04 #@! TD*
G04 #@! TO.P,REF\002A\002A,2*
G04 #@! TO.N,N/C*
X208800000Y-30362500D03*
D10*
G04 #@! TO.N,N/C*
G04 #@! TO.C,REF\002A\002A*
G36*
X198674505Y-34076204D02*
X198698773Y-34079804D01*
X198722572Y-34085765D01*
X198745671Y-34094030D01*
X198767850Y-34104520D01*
X198788893Y-34117132D01*
X198808599Y-34131747D01*
X198826777Y-34148223D01*
X198843253Y-34166401D01*
X198857868Y-34186107D01*
X198870480Y-34207150D01*
X198880970Y-34229329D01*
X198889235Y-34252428D01*
X198895196Y-34276227D01*
X198898796Y-34300495D01*
X198900000Y-34324999D01*
X198900000Y-34950001D01*
X198898796Y-34974505D01*
X198895196Y-34998773D01*
X198889235Y-35022572D01*
X198880970Y-35045671D01*
X198870480Y-35067850D01*
X198857868Y-35088893D01*
X198843253Y-35108599D01*
X198826777Y-35126777D01*
X198808599Y-35143253D01*
X198788893Y-35157868D01*
X198767850Y-35170480D01*
X198745671Y-35180970D01*
X198722572Y-35189235D01*
X198698773Y-35195196D01*
X198674505Y-35198796D01*
X198650001Y-35200000D01*
X195749999Y-35200000D01*
X195725495Y-35198796D01*
X195701227Y-35195196D01*
X195677428Y-35189235D01*
X195654329Y-35180970D01*
X195632150Y-35170480D01*
X195611107Y-35157868D01*
X195591401Y-35143253D01*
X195573223Y-35126777D01*
X195556747Y-35108599D01*
X195542132Y-35088893D01*
X195529520Y-35067850D01*
X195519030Y-35045671D01*
X195510765Y-35022572D01*
X195504804Y-34998773D01*
X195501204Y-34974505D01*
X195500000Y-34950001D01*
X195500000Y-34324999D01*
X195501204Y-34300495D01*
X195504804Y-34276227D01*
X195510765Y-34252428D01*
X195519030Y-34229329D01*
X195529520Y-34207150D01*
X195542132Y-34186107D01*
X195556747Y-34166401D01*
X195573223Y-34148223D01*
X195591401Y-34131747D01*
X195611107Y-34117132D01*
X195632150Y-34104520D01*
X195654329Y-34094030D01*
X195677428Y-34085765D01*
X195701227Y-34079804D01*
X195725495Y-34076204D01*
X195749999Y-34075000D01*
X198650001Y-34075000D01*
X198674505Y-34076204D01*
X198674505Y-34076204D01*
G37*
D11*
G04 #@! TD*
G04 #@! TO.P,REF\002A\002A,1*
G04 #@! TO.N,N/C*
X197200000Y-34637500D03*
D10*
G04 #@! TO.N,N/C*
G04 #@! TO.C,REF\002A\002A*
G36*
X198674505Y-29801204D02*
X198698773Y-29804804D01*
X198722572Y-29810765D01*
X198745671Y-29819030D01*
X198767850Y-29829520D01*
X198788893Y-29842132D01*
X198808599Y-29856747D01*
X198826777Y-29873223D01*
X198843253Y-29891401D01*
X198857868Y-29911107D01*
X198870480Y-29932150D01*
X198880970Y-29954329D01*
X198889235Y-29977428D01*
X198895196Y-30001227D01*
X198898796Y-30025495D01*
X198900000Y-30049999D01*
X198900000Y-30675001D01*
X198898796Y-30699505D01*
X198895196Y-30723773D01*
X198889235Y-30747572D01*
X198880970Y-30770671D01*
X198870480Y-30792850D01*
X198857868Y-30813893D01*
X198843253Y-30833599D01*
X198826777Y-30851777D01*
X198808599Y-30868253D01*
X198788893Y-30882868D01*
X198767850Y-30895480D01*
X198745671Y-30905970D01*
X198722572Y-30914235D01*
X198698773Y-30920196D01*
X198674505Y-30923796D01*
X198650001Y-30925000D01*
X195749999Y-30925000D01*
X195725495Y-30923796D01*
X195701227Y-30920196D01*
X195677428Y-30914235D01*
X195654329Y-30905970D01*
X195632150Y-30895480D01*
X195611107Y-30882868D01*
X195591401Y-30868253D01*
X195573223Y-30851777D01*
X195556747Y-30833599D01*
X195542132Y-30813893D01*
X195529520Y-30792850D01*
X195519030Y-30770671D01*
X195510765Y-30747572D01*
X195504804Y-30723773D01*
X195501204Y-30699505D01*
X195500000Y-30675001D01*
X195500000Y-30049999D01*
X195501204Y-30025495D01*
X195504804Y-30001227D01*
X195510765Y-29977428D01*
X195519030Y-29954329D01*
X195529520Y-29932150D01*
X195542132Y-29911107D01*
X195556747Y-29891401D01*
X195573223Y-29873223D01*
X195591401Y-29856747D01*
X195611107Y-29842132D01*
X195632150Y-29829520D01*
X195654329Y-29819030D01*
X195677428Y-29810765D01*
X195701227Y-29804804D01*
X195725495Y-29801204D01*
X195749999Y-29800000D01*
X198650001Y-29800000D01*
X198674505Y-29801204D01*
X198674505Y-29801204D01*
G37*
D11*
G04 #@! TD*
G04 #@! TO.P,REF\002A\002A,2*
G04 #@! TO.N,N/C*
X197200000Y-30362500D03*
D10*
G04 #@! TO.N,N/C*
G04 #@! TO.C,REF\002A\002A*
G36*
X187074505Y-34076204D02*
X187098773Y-34079804D01*
X187122572Y-34085765D01*
X187145671Y-34094030D01*
X187167850Y-34104520D01*
X187188893Y-34117132D01*
X187208599Y-34131747D01*
X187226777Y-34148223D01*
X187243253Y-34166401D01*
X187257868Y-34186107D01*
X187270480Y-34207150D01*
X187280970Y-34229329D01*
X187289235Y-34252428D01*
X187295196Y-34276227D01*
X187298796Y-34300495D01*
X187300000Y-34324999D01*
X187300000Y-34950001D01*
X187298796Y-34974505D01*
X187295196Y-34998773D01*
X187289235Y-35022572D01*
X187280970Y-35045671D01*
X187270480Y-35067850D01*
X187257868Y-35088893D01*
X187243253Y-35108599D01*
X187226777Y-35126777D01*
X187208599Y-35143253D01*
X187188893Y-35157868D01*
X187167850Y-35170480D01*
X187145671Y-35180970D01*
X187122572Y-35189235D01*
X187098773Y-35195196D01*
X187074505Y-35198796D01*
X187050001Y-35200000D01*
X184149999Y-35200000D01*
X184125495Y-35198796D01*
X184101227Y-35195196D01*
X184077428Y-35189235D01*
X184054329Y-35180970D01*
X184032150Y-35170480D01*
X184011107Y-35157868D01*
X183991401Y-35143253D01*
X183973223Y-35126777D01*
X183956747Y-35108599D01*
X183942132Y-35088893D01*
X183929520Y-35067850D01*
X183919030Y-35045671D01*
X183910765Y-35022572D01*
X183904804Y-34998773D01*
X183901204Y-34974505D01*
X183900000Y-34950001D01*
X183900000Y-34324999D01*
X183901204Y-34300495D01*
X183904804Y-34276227D01*
X183910765Y-34252428D01*
X183919030Y-34229329D01*
X183929520Y-34207150D01*
X183942132Y-34186107D01*
X183956747Y-34166401D01*
X183973223Y-34148223D01*
X183991401Y-34131747D01*
X184011107Y-34117132D01*
X184032150Y-34104520D01*
X184054329Y-34094030D01*
X184077428Y-34085765D01*
X184101227Y-34079804D01*
X184125495Y-34076204D01*
X184149999Y-34075000D01*
X187050001Y-34075000D01*
X187074505Y-34076204D01*
X187074505Y-34076204D01*
G37*
D11*
G04 #@! TD*
G04 #@! TO.P,REF\002A\002A,1*
G04 #@! TO.N,N/C*
X185600000Y-34637500D03*
D10*
G04 #@! TO.N,N/C*
G04 #@! TO.C,REF\002A\002A*
G36*
X187074505Y-29801204D02*
X187098773Y-29804804D01*
X187122572Y-29810765D01*
X187145671Y-29819030D01*
X187167850Y-29829520D01*
X187188893Y-29842132D01*
X187208599Y-29856747D01*
X187226777Y-29873223D01*
X187243253Y-29891401D01*
X187257868Y-29911107D01*
X187270480Y-29932150D01*
X187280970Y-29954329D01*
X187289235Y-29977428D01*
X187295196Y-30001227D01*
X187298796Y-30025495D01*
X187300000Y-30049999D01*
X187300000Y-30675001D01*
X187298796Y-30699505D01*
X187295196Y-30723773D01*
X187289235Y-30747572D01*
X187280970Y-30770671D01*
X187270480Y-30792850D01*
X187257868Y-30813893D01*
X187243253Y-30833599D01*
X187226777Y-30851777D01*
X187208599Y-30868253D01*
X187188893Y-30882868D01*
X187167850Y-30895480D01*
X187145671Y-30905970D01*
X187122572Y-30914235D01*
X187098773Y-30920196D01*
X187074505Y-30923796D01*
X187050001Y-30925000D01*
X184149999Y-30925000D01*
X184125495Y-30923796D01*
X184101227Y-30920196D01*
X184077428Y-30914235D01*
X184054329Y-30905970D01*
X184032150Y-30895480D01*
X184011107Y-30882868D01*
X183991401Y-30868253D01*
X183973223Y-30851777D01*
X183956747Y-30833599D01*
X183942132Y-30813893D01*
X183929520Y-30792850D01*
X183919030Y-30770671D01*
X183910765Y-30747572D01*
X183904804Y-30723773D01*
X183901204Y-30699505D01*
X183900000Y-30675001D01*
X183900000Y-30049999D01*
X183901204Y-30025495D01*
X183904804Y-30001227D01*
X183910765Y-29977428D01*
X183919030Y-29954329D01*
X183929520Y-29932150D01*
X183942132Y-29911107D01*
X183956747Y-29891401D01*
X183973223Y-29873223D01*
X183991401Y-29856747D01*
X184011107Y-29842132D01*
X184032150Y-29829520D01*
X184054329Y-29819030D01*
X184077428Y-29810765D01*
X184101227Y-29804804D01*
X184125495Y-29801204D01*
X184149999Y-29800000D01*
X187050001Y-29800000D01*
X187074505Y-29801204D01*
X187074505Y-29801204D01*
G37*
D11*
G04 #@! TD*
G04 #@! TO.P,REF\002A\002A,2*
G04 #@! TO.N,N/C*
X185600000Y-30362500D03*
D10*
G04 #@! TO.N,N/C*
G04 #@! TO.C,REF\002A\002A*
G36*
X175474505Y-34076204D02*
X175498773Y-34079804D01*
X175522572Y-34085765D01*
X175545671Y-34094030D01*
X175567850Y-34104520D01*
X175588893Y-34117132D01*
X175608599Y-34131747D01*
X175626777Y-34148223D01*
X175643253Y-34166401D01*
X175657868Y-34186107D01*
X175670480Y-34207150D01*
X175680970Y-34229329D01*
X175689235Y-34252428D01*
X175695196Y-34276227D01*
X175698796Y-34300495D01*
X175700000Y-34324999D01*
X175700000Y-34950001D01*
X175698796Y-34974505D01*
X175695196Y-34998773D01*
X175689235Y-35022572D01*
X175680970Y-35045671D01*
X175670480Y-35067850D01*
X175657868Y-35088893D01*
X175643253Y-35108599D01*
X175626777Y-35126777D01*
X175608599Y-35143253D01*
X175588893Y-35157868D01*
X175567850Y-35170480D01*
X175545671Y-35180970D01*
X175522572Y-35189235D01*
X175498773Y-35195196D01*
X175474505Y-35198796D01*
X175450001Y-35200000D01*
X172549999Y-35200000D01*
X172525495Y-35198796D01*
X172501227Y-35195196D01*
X172477428Y-35189235D01*
X172454329Y-35180970D01*
X172432150Y-35170480D01*
X172411107Y-35157868D01*
X172391401Y-35143253D01*
X172373223Y-35126777D01*
X172356747Y-35108599D01*
X172342132Y-35088893D01*
X172329520Y-35067850D01*
X172319030Y-35045671D01*
X172310765Y-35022572D01*
X172304804Y-34998773D01*
X172301204Y-34974505D01*
X172300000Y-34950001D01*
X172300000Y-34324999D01*
X172301204Y-34300495D01*
X172304804Y-34276227D01*
X172310765Y-34252428D01*
X172319030Y-34229329D01*
X172329520Y-34207150D01*
X172342132Y-34186107D01*
X172356747Y-34166401D01*
X172373223Y-34148223D01*
X172391401Y-34131747D01*
X172411107Y-34117132D01*
X172432150Y-34104520D01*
X172454329Y-34094030D01*
X172477428Y-34085765D01*
X172501227Y-34079804D01*
X172525495Y-34076204D01*
X172549999Y-34075000D01*
X175450001Y-34075000D01*
X175474505Y-34076204D01*
X175474505Y-34076204D01*
G37*
D11*
G04 #@! TD*
G04 #@! TO.P,REF\002A\002A,1*
G04 #@! TO.N,N/C*
X174000000Y-34637500D03*
D10*
G04 #@! TO.N,N/C*
G04 #@! TO.C,REF\002A\002A*
G36*
X175474505Y-29801204D02*
X175498773Y-29804804D01*
X175522572Y-29810765D01*
X175545671Y-29819030D01*
X175567850Y-29829520D01*
X175588893Y-29842132D01*
X175608599Y-29856747D01*
X175626777Y-29873223D01*
X175643253Y-29891401D01*
X175657868Y-29911107D01*
X175670480Y-29932150D01*
X175680970Y-29954329D01*
X175689235Y-29977428D01*
X175695196Y-30001227D01*
X175698796Y-30025495D01*
X175700000Y-30049999D01*
X175700000Y-30675001D01*
X175698796Y-30699505D01*
X175695196Y-30723773D01*
X175689235Y-30747572D01*
X175680970Y-30770671D01*
X175670480Y-30792850D01*
X175657868Y-30813893D01*
X175643253Y-30833599D01*
X175626777Y-30851777D01*
X175608599Y-30868253D01*
X175588893Y-30882868D01*
X175567850Y-30895480D01*
X175545671Y-30905970D01*
X175522572Y-30914235D01*
X175498773Y-30920196D01*
X175474505Y-30923796D01*
X175450001Y-30925000D01*
X172549999Y-30925000D01*
X172525495Y-30923796D01*
X172501227Y-30920196D01*
X172477428Y-30914235D01*
X172454329Y-30905970D01*
X172432150Y-30895480D01*
X172411107Y-30882868D01*
X172391401Y-30868253D01*
X172373223Y-30851777D01*
X172356747Y-30833599D01*
X172342132Y-30813893D01*
X172329520Y-30792850D01*
X172319030Y-30770671D01*
X172310765Y-30747572D01*
X172304804Y-30723773D01*
X172301204Y-30699505D01*
X172300000Y-30675001D01*
X172300000Y-30049999D01*
X172301204Y-30025495D01*
X172304804Y-30001227D01*
X172310765Y-29977428D01*
X172319030Y-29954329D01*
X172329520Y-29932150D01*
X172342132Y-29911107D01*
X172356747Y-29891401D01*
X172373223Y-29873223D01*
X172391401Y-29856747D01*
X172411107Y-29842132D01*
X172432150Y-29829520D01*
X172454329Y-29819030D01*
X172477428Y-29810765D01*
X172501227Y-29804804D01*
X172525495Y-29801204D01*
X172549999Y-29800000D01*
X175450001Y-29800000D01*
X175474505Y-29801204D01*
X175474505Y-29801204D01*
G37*
D11*
G04 #@! TD*
G04 #@! TO.P,REF\002A\002A,2*
G04 #@! TO.N,N/C*
X174000000Y-30362500D03*
D10*
G04 #@! TO.N,N/C*
G04 #@! TO.C,REF\002A\002A*
G36*
X163874505Y-34076204D02*
X163898773Y-34079804D01*
X163922572Y-34085765D01*
X163945671Y-34094030D01*
X163967850Y-34104520D01*
X163988893Y-34117132D01*
X164008599Y-34131747D01*
X164026777Y-34148223D01*
X164043253Y-34166401D01*
X164057868Y-34186107D01*
X164070480Y-34207150D01*
X164080970Y-34229329D01*
X164089235Y-34252428D01*
X164095196Y-34276227D01*
X164098796Y-34300495D01*
X164100000Y-34324999D01*
X164100000Y-34950001D01*
X164098796Y-34974505D01*
X164095196Y-34998773D01*
X164089235Y-35022572D01*
X164080970Y-35045671D01*
X164070480Y-35067850D01*
X164057868Y-35088893D01*
X164043253Y-35108599D01*
X164026777Y-35126777D01*
X164008599Y-35143253D01*
X163988893Y-35157868D01*
X163967850Y-35170480D01*
X163945671Y-35180970D01*
X163922572Y-35189235D01*
X163898773Y-35195196D01*
X163874505Y-35198796D01*
X163850001Y-35200000D01*
X160949999Y-35200000D01*
X160925495Y-35198796D01*
X160901227Y-35195196D01*
X160877428Y-35189235D01*
X160854329Y-35180970D01*
X160832150Y-35170480D01*
X160811107Y-35157868D01*
X160791401Y-35143253D01*
X160773223Y-35126777D01*
X160756747Y-35108599D01*
X160742132Y-35088893D01*
X160729520Y-35067850D01*
X160719030Y-35045671D01*
X160710765Y-35022572D01*
X160704804Y-34998773D01*
X160701204Y-34974505D01*
X160700000Y-34950001D01*
X160700000Y-34324999D01*
X160701204Y-34300495D01*
X160704804Y-34276227D01*
X160710765Y-34252428D01*
X160719030Y-34229329D01*
X160729520Y-34207150D01*
X160742132Y-34186107D01*
X160756747Y-34166401D01*
X160773223Y-34148223D01*
X160791401Y-34131747D01*
X160811107Y-34117132D01*
X160832150Y-34104520D01*
X160854329Y-34094030D01*
X160877428Y-34085765D01*
X160901227Y-34079804D01*
X160925495Y-34076204D01*
X160949999Y-34075000D01*
X163850001Y-34075000D01*
X163874505Y-34076204D01*
X163874505Y-34076204D01*
G37*
D11*
G04 #@! TD*
G04 #@! TO.P,REF\002A\002A,1*
G04 #@! TO.N,N/C*
X162400000Y-34637500D03*
D10*
G04 #@! TO.N,N/C*
G04 #@! TO.C,REF\002A\002A*
G36*
X163874505Y-29801204D02*
X163898773Y-29804804D01*
X163922572Y-29810765D01*
X163945671Y-29819030D01*
X163967850Y-29829520D01*
X163988893Y-29842132D01*
X164008599Y-29856747D01*
X164026777Y-29873223D01*
X164043253Y-29891401D01*
X164057868Y-29911107D01*
X164070480Y-29932150D01*
X164080970Y-29954329D01*
X164089235Y-29977428D01*
X164095196Y-30001227D01*
X164098796Y-30025495D01*
X164100000Y-30049999D01*
X164100000Y-30675001D01*
X164098796Y-30699505D01*
X164095196Y-30723773D01*
X164089235Y-30747572D01*
X164080970Y-30770671D01*
X164070480Y-30792850D01*
X164057868Y-30813893D01*
X164043253Y-30833599D01*
X164026777Y-30851777D01*
X164008599Y-30868253D01*
X163988893Y-30882868D01*
X163967850Y-30895480D01*
X163945671Y-30905970D01*
X163922572Y-30914235D01*
X163898773Y-30920196D01*
X163874505Y-30923796D01*
X163850001Y-30925000D01*
X160949999Y-30925000D01*
X160925495Y-30923796D01*
X160901227Y-30920196D01*
X160877428Y-30914235D01*
X160854329Y-30905970D01*
X160832150Y-30895480D01*
X160811107Y-30882868D01*
X160791401Y-30868253D01*
X160773223Y-30851777D01*
X160756747Y-30833599D01*
X160742132Y-30813893D01*
X160729520Y-30792850D01*
X160719030Y-30770671D01*
X160710765Y-30747572D01*
X160704804Y-30723773D01*
X160701204Y-30699505D01*
X160700000Y-30675001D01*
X160700000Y-30049999D01*
X160701204Y-30025495D01*
X160704804Y-30001227D01*
X160710765Y-29977428D01*
X160719030Y-29954329D01*
X160729520Y-29932150D01*
X160742132Y-29911107D01*
X160756747Y-29891401D01*
X160773223Y-29873223D01*
X160791401Y-29856747D01*
X160811107Y-29842132D01*
X160832150Y-29829520D01*
X160854329Y-29819030D01*
X160877428Y-29810765D01*
X160901227Y-29804804D01*
X160925495Y-29801204D01*
X160949999Y-29800000D01*
X163850001Y-29800000D01*
X163874505Y-29801204D01*
X163874505Y-29801204D01*
G37*
D11*
G04 #@! TD*
G04 #@! TO.P,REF\002A\002A,2*
G04 #@! TO.N,N/C*
X162400000Y-30362500D03*
D10*
G04 #@! TO.N,N/C*
G04 #@! TO.C,REF\002A\002A*
G36*
X152274505Y-34076204D02*
X152298773Y-34079804D01*
X152322572Y-34085765D01*
X152345671Y-34094030D01*
X152367850Y-34104520D01*
X152388893Y-34117132D01*
X152408599Y-34131747D01*
X152426777Y-34148223D01*
X152443253Y-34166401D01*
X152457868Y-34186107D01*
X152470480Y-34207150D01*
X152480970Y-34229329D01*
X152489235Y-34252428D01*
X152495196Y-34276227D01*
X152498796Y-34300495D01*
X152500000Y-34324999D01*
X152500000Y-34950001D01*
X152498796Y-34974505D01*
X152495196Y-34998773D01*
X152489235Y-35022572D01*
X152480970Y-35045671D01*
X152470480Y-35067850D01*
X152457868Y-35088893D01*
X152443253Y-35108599D01*
X152426777Y-35126777D01*
X152408599Y-35143253D01*
X152388893Y-35157868D01*
X152367850Y-35170480D01*
X152345671Y-35180970D01*
X152322572Y-35189235D01*
X152298773Y-35195196D01*
X152274505Y-35198796D01*
X152250001Y-35200000D01*
X149349999Y-35200000D01*
X149325495Y-35198796D01*
X149301227Y-35195196D01*
X149277428Y-35189235D01*
X149254329Y-35180970D01*
X149232150Y-35170480D01*
X149211107Y-35157868D01*
X149191401Y-35143253D01*
X149173223Y-35126777D01*
X149156747Y-35108599D01*
X149142132Y-35088893D01*
X149129520Y-35067850D01*
X149119030Y-35045671D01*
X149110765Y-35022572D01*
X149104804Y-34998773D01*
X149101204Y-34974505D01*
X149100000Y-34950001D01*
X149100000Y-34324999D01*
X149101204Y-34300495D01*
X149104804Y-34276227D01*
X149110765Y-34252428D01*
X149119030Y-34229329D01*
X149129520Y-34207150D01*
X149142132Y-34186107D01*
X149156747Y-34166401D01*
X149173223Y-34148223D01*
X149191401Y-34131747D01*
X149211107Y-34117132D01*
X149232150Y-34104520D01*
X149254329Y-34094030D01*
X149277428Y-34085765D01*
X149301227Y-34079804D01*
X149325495Y-34076204D01*
X149349999Y-34075000D01*
X152250001Y-34075000D01*
X152274505Y-34076204D01*
X152274505Y-34076204D01*
G37*
D11*
G04 #@! TD*
G04 #@! TO.P,REF\002A\002A,1*
G04 #@! TO.N,N/C*
X150800000Y-34637500D03*
D10*
G04 #@! TO.N,N/C*
G04 #@! TO.C,REF\002A\002A*
G36*
X152274505Y-29801204D02*
X152298773Y-29804804D01*
X152322572Y-29810765D01*
X152345671Y-29819030D01*
X152367850Y-29829520D01*
X152388893Y-29842132D01*
X152408599Y-29856747D01*
X152426777Y-29873223D01*
X152443253Y-29891401D01*
X152457868Y-29911107D01*
X152470480Y-29932150D01*
X152480970Y-29954329D01*
X152489235Y-29977428D01*
X152495196Y-30001227D01*
X152498796Y-30025495D01*
X152500000Y-30049999D01*
X152500000Y-30675001D01*
X152498796Y-30699505D01*
X152495196Y-30723773D01*
X152489235Y-30747572D01*
X152480970Y-30770671D01*
X152470480Y-30792850D01*
X152457868Y-30813893D01*
X152443253Y-30833599D01*
X152426777Y-30851777D01*
X152408599Y-30868253D01*
X152388893Y-30882868D01*
X152367850Y-30895480D01*
X152345671Y-30905970D01*
X152322572Y-30914235D01*
X152298773Y-30920196D01*
X152274505Y-30923796D01*
X152250001Y-30925000D01*
X149349999Y-30925000D01*
X149325495Y-30923796D01*
X149301227Y-30920196D01*
X149277428Y-30914235D01*
X149254329Y-30905970D01*
X149232150Y-30895480D01*
X149211107Y-30882868D01*
X149191401Y-30868253D01*
X149173223Y-30851777D01*
X149156747Y-30833599D01*
X149142132Y-30813893D01*
X149129520Y-30792850D01*
X149119030Y-30770671D01*
X149110765Y-30747572D01*
X149104804Y-30723773D01*
X149101204Y-30699505D01*
X149100000Y-30675001D01*
X149100000Y-30049999D01*
X149101204Y-30025495D01*
X149104804Y-30001227D01*
X149110765Y-29977428D01*
X149119030Y-29954329D01*
X149129520Y-29932150D01*
X149142132Y-29911107D01*
X149156747Y-29891401D01*
X149173223Y-29873223D01*
X149191401Y-29856747D01*
X149211107Y-29842132D01*
X149232150Y-29829520D01*
X149254329Y-29819030D01*
X149277428Y-29810765D01*
X149301227Y-29804804D01*
X149325495Y-29801204D01*
X149349999Y-29800000D01*
X152250001Y-29800000D01*
X152274505Y-29801204D01*
X152274505Y-29801204D01*
G37*
D11*
G04 #@! TD*
G04 #@! TO.P,REF\002A\002A,2*
G04 #@! TO.N,N/C*
X150800000Y-30362500D03*
D10*
G04 #@! TO.N,N/C*
G04 #@! TO.C,REF\002A\002A*
G36*
X140674505Y-34076204D02*
X140698773Y-34079804D01*
X140722572Y-34085765D01*
X140745671Y-34094030D01*
X140767850Y-34104520D01*
X140788893Y-34117132D01*
X140808599Y-34131747D01*
X140826777Y-34148223D01*
X140843253Y-34166401D01*
X140857868Y-34186107D01*
X140870480Y-34207150D01*
X140880970Y-34229329D01*
X140889235Y-34252428D01*
X140895196Y-34276227D01*
X140898796Y-34300495D01*
X140900000Y-34324999D01*
X140900000Y-34950001D01*
X140898796Y-34974505D01*
X140895196Y-34998773D01*
X140889235Y-35022572D01*
X140880970Y-35045671D01*
X140870480Y-35067850D01*
X140857868Y-35088893D01*
X140843253Y-35108599D01*
X140826777Y-35126777D01*
X140808599Y-35143253D01*
X140788893Y-35157868D01*
X140767850Y-35170480D01*
X140745671Y-35180970D01*
X140722572Y-35189235D01*
X140698773Y-35195196D01*
X140674505Y-35198796D01*
X140650001Y-35200000D01*
X137749999Y-35200000D01*
X137725495Y-35198796D01*
X137701227Y-35195196D01*
X137677428Y-35189235D01*
X137654329Y-35180970D01*
X137632150Y-35170480D01*
X137611107Y-35157868D01*
X137591401Y-35143253D01*
X137573223Y-35126777D01*
X137556747Y-35108599D01*
X137542132Y-35088893D01*
X137529520Y-35067850D01*
X137519030Y-35045671D01*
X137510765Y-35022572D01*
X137504804Y-34998773D01*
X137501204Y-34974505D01*
X137500000Y-34950001D01*
X137500000Y-34324999D01*
X137501204Y-34300495D01*
X137504804Y-34276227D01*
X137510765Y-34252428D01*
X137519030Y-34229329D01*
X137529520Y-34207150D01*
X137542132Y-34186107D01*
X137556747Y-34166401D01*
X137573223Y-34148223D01*
X137591401Y-34131747D01*
X137611107Y-34117132D01*
X137632150Y-34104520D01*
X137654329Y-34094030D01*
X137677428Y-34085765D01*
X137701227Y-34079804D01*
X137725495Y-34076204D01*
X137749999Y-34075000D01*
X140650001Y-34075000D01*
X140674505Y-34076204D01*
X140674505Y-34076204D01*
G37*
D11*
G04 #@! TD*
G04 #@! TO.P,REF\002A\002A,1*
G04 #@! TO.N,N/C*
X139200000Y-34637500D03*
D10*
G04 #@! TO.N,N/C*
G04 #@! TO.C,REF\002A\002A*
G36*
X140674505Y-29801204D02*
X140698773Y-29804804D01*
X140722572Y-29810765D01*
X140745671Y-29819030D01*
X140767850Y-29829520D01*
X140788893Y-29842132D01*
X140808599Y-29856747D01*
X140826777Y-29873223D01*
X140843253Y-29891401D01*
X140857868Y-29911107D01*
X140870480Y-29932150D01*
X140880970Y-29954329D01*
X140889235Y-29977428D01*
X140895196Y-30001227D01*
X140898796Y-30025495D01*
X140900000Y-30049999D01*
X140900000Y-30675001D01*
X140898796Y-30699505D01*
X140895196Y-30723773D01*
X140889235Y-30747572D01*
X140880970Y-30770671D01*
X140870480Y-30792850D01*
X140857868Y-30813893D01*
X140843253Y-30833599D01*
X140826777Y-30851777D01*
X140808599Y-30868253D01*
X140788893Y-30882868D01*
X140767850Y-30895480D01*
X140745671Y-30905970D01*
X140722572Y-30914235D01*
X140698773Y-30920196D01*
X140674505Y-30923796D01*
X140650001Y-30925000D01*
X137749999Y-30925000D01*
X137725495Y-30923796D01*
X137701227Y-30920196D01*
X137677428Y-30914235D01*
X137654329Y-30905970D01*
X137632150Y-30895480D01*
X137611107Y-30882868D01*
X137591401Y-30868253D01*
X137573223Y-30851777D01*
X137556747Y-30833599D01*
X137542132Y-30813893D01*
X137529520Y-30792850D01*
X137519030Y-30770671D01*
X137510765Y-30747572D01*
X137504804Y-30723773D01*
X137501204Y-30699505D01*
X137500000Y-30675001D01*
X137500000Y-30049999D01*
X137501204Y-30025495D01*
X137504804Y-30001227D01*
X137510765Y-29977428D01*
X137519030Y-29954329D01*
X137529520Y-29932150D01*
X137542132Y-29911107D01*
X137556747Y-29891401D01*
X137573223Y-29873223D01*
X137591401Y-29856747D01*
X137611107Y-29842132D01*
X137632150Y-29829520D01*
X137654329Y-29819030D01*
X137677428Y-29810765D01*
X137701227Y-29804804D01*
X137725495Y-29801204D01*
X137749999Y-29800000D01*
X140650001Y-29800000D01*
X140674505Y-29801204D01*
X140674505Y-29801204D01*
G37*
D11*
G04 #@! TD*
G04 #@! TO.P,REF\002A\002A,2*
G04 #@! TO.N,N/C*
X139200000Y-30362500D03*
D10*
G04 #@! TO.N,N/C*
G04 #@! TO.C,REF\002A\002A*
G36*
X129074505Y-34076204D02*
X129098773Y-34079804D01*
X129122572Y-34085765D01*
X129145671Y-34094030D01*
X129167850Y-34104520D01*
X129188893Y-34117132D01*
X129208599Y-34131747D01*
X129226777Y-34148223D01*
X129243253Y-34166401D01*
X129257868Y-34186107D01*
X129270480Y-34207150D01*
X129280970Y-34229329D01*
X129289235Y-34252428D01*
X129295196Y-34276227D01*
X129298796Y-34300495D01*
X129300000Y-34324999D01*
X129300000Y-34950001D01*
X129298796Y-34974505D01*
X129295196Y-34998773D01*
X129289235Y-35022572D01*
X129280970Y-35045671D01*
X129270480Y-35067850D01*
X129257868Y-35088893D01*
X129243253Y-35108599D01*
X129226777Y-35126777D01*
X129208599Y-35143253D01*
X129188893Y-35157868D01*
X129167850Y-35170480D01*
X129145671Y-35180970D01*
X129122572Y-35189235D01*
X129098773Y-35195196D01*
X129074505Y-35198796D01*
X129050001Y-35200000D01*
X126149999Y-35200000D01*
X126125495Y-35198796D01*
X126101227Y-35195196D01*
X126077428Y-35189235D01*
X126054329Y-35180970D01*
X126032150Y-35170480D01*
X126011107Y-35157868D01*
X125991401Y-35143253D01*
X125973223Y-35126777D01*
X125956747Y-35108599D01*
X125942132Y-35088893D01*
X125929520Y-35067850D01*
X125919030Y-35045671D01*
X125910765Y-35022572D01*
X125904804Y-34998773D01*
X125901204Y-34974505D01*
X125900000Y-34950001D01*
X125900000Y-34324999D01*
X125901204Y-34300495D01*
X125904804Y-34276227D01*
X125910765Y-34252428D01*
X125919030Y-34229329D01*
X125929520Y-34207150D01*
X125942132Y-34186107D01*
X125956747Y-34166401D01*
X125973223Y-34148223D01*
X125991401Y-34131747D01*
X126011107Y-34117132D01*
X126032150Y-34104520D01*
X126054329Y-34094030D01*
X126077428Y-34085765D01*
X126101227Y-34079804D01*
X126125495Y-34076204D01*
X126149999Y-34075000D01*
X129050001Y-34075000D01*
X129074505Y-34076204D01*
X129074505Y-34076204D01*
G37*
D11*
G04 #@! TD*
G04 #@! TO.P,REF\002A\002A,1*
G04 #@! TO.N,N/C*
X127600000Y-34637500D03*
D10*
G04 #@! TO.N,N/C*
G04 #@! TO.C,REF\002A\002A*
G36*
X129074505Y-29801204D02*
X129098773Y-29804804D01*
X129122572Y-29810765D01*
X129145671Y-29819030D01*
X129167850Y-29829520D01*
X129188893Y-29842132D01*
X129208599Y-29856747D01*
X129226777Y-29873223D01*
X129243253Y-29891401D01*
X129257868Y-29911107D01*
X129270480Y-29932150D01*
X129280970Y-29954329D01*
X129289235Y-29977428D01*
X129295196Y-30001227D01*
X129298796Y-30025495D01*
X129300000Y-30049999D01*
X129300000Y-30675001D01*
X129298796Y-30699505D01*
X129295196Y-30723773D01*
X129289235Y-30747572D01*
X129280970Y-30770671D01*
X129270480Y-30792850D01*
X129257868Y-30813893D01*
X129243253Y-30833599D01*
X129226777Y-30851777D01*
X129208599Y-30868253D01*
X129188893Y-30882868D01*
X129167850Y-30895480D01*
X129145671Y-30905970D01*
X129122572Y-30914235D01*
X129098773Y-30920196D01*
X129074505Y-30923796D01*
X129050001Y-30925000D01*
X126149999Y-30925000D01*
X126125495Y-30923796D01*
X126101227Y-30920196D01*
X126077428Y-30914235D01*
X126054329Y-30905970D01*
X126032150Y-30895480D01*
X126011107Y-30882868D01*
X125991401Y-30868253D01*
X125973223Y-30851777D01*
X125956747Y-30833599D01*
X125942132Y-30813893D01*
X125929520Y-30792850D01*
X125919030Y-30770671D01*
X125910765Y-30747572D01*
X125904804Y-30723773D01*
X125901204Y-30699505D01*
X125900000Y-30675001D01*
X125900000Y-30049999D01*
X125901204Y-30025495D01*
X125904804Y-30001227D01*
X125910765Y-29977428D01*
X125919030Y-29954329D01*
X125929520Y-29932150D01*
X125942132Y-29911107D01*
X125956747Y-29891401D01*
X125973223Y-29873223D01*
X125991401Y-29856747D01*
X126011107Y-29842132D01*
X126032150Y-29829520D01*
X126054329Y-29819030D01*
X126077428Y-29810765D01*
X126101227Y-29804804D01*
X126125495Y-29801204D01*
X126149999Y-29800000D01*
X129050001Y-29800000D01*
X129074505Y-29801204D01*
X129074505Y-29801204D01*
G37*
D11*
G04 #@! TD*
G04 #@! TO.P,REF\002A\002A,2*
G04 #@! TO.N,N/C*
X127600000Y-30362500D03*
D10*
G04 #@! TO.N,N/C*
G04 #@! TO.C,REF\002A\002A*
G36*
X117474505Y-34076204D02*
X117498773Y-34079804D01*
X117522572Y-34085765D01*
X117545671Y-34094030D01*
X117567850Y-34104520D01*
X117588893Y-34117132D01*
X117608599Y-34131747D01*
X117626777Y-34148223D01*
X117643253Y-34166401D01*
X117657868Y-34186107D01*
X117670480Y-34207150D01*
X117680970Y-34229329D01*
X117689235Y-34252428D01*
X117695196Y-34276227D01*
X117698796Y-34300495D01*
X117700000Y-34324999D01*
X117700000Y-34950001D01*
X117698796Y-34974505D01*
X117695196Y-34998773D01*
X117689235Y-35022572D01*
X117680970Y-35045671D01*
X117670480Y-35067850D01*
X117657868Y-35088893D01*
X117643253Y-35108599D01*
X117626777Y-35126777D01*
X117608599Y-35143253D01*
X117588893Y-35157868D01*
X117567850Y-35170480D01*
X117545671Y-35180970D01*
X117522572Y-35189235D01*
X117498773Y-35195196D01*
X117474505Y-35198796D01*
X117450001Y-35200000D01*
X114549999Y-35200000D01*
X114525495Y-35198796D01*
X114501227Y-35195196D01*
X114477428Y-35189235D01*
X114454329Y-35180970D01*
X114432150Y-35170480D01*
X114411107Y-35157868D01*
X114391401Y-35143253D01*
X114373223Y-35126777D01*
X114356747Y-35108599D01*
X114342132Y-35088893D01*
X114329520Y-35067850D01*
X114319030Y-35045671D01*
X114310765Y-35022572D01*
X114304804Y-34998773D01*
X114301204Y-34974505D01*
X114300000Y-34950001D01*
X114300000Y-34324999D01*
X114301204Y-34300495D01*
X114304804Y-34276227D01*
X114310765Y-34252428D01*
X114319030Y-34229329D01*
X114329520Y-34207150D01*
X114342132Y-34186107D01*
X114356747Y-34166401D01*
X114373223Y-34148223D01*
X114391401Y-34131747D01*
X114411107Y-34117132D01*
X114432150Y-34104520D01*
X114454329Y-34094030D01*
X114477428Y-34085765D01*
X114501227Y-34079804D01*
X114525495Y-34076204D01*
X114549999Y-34075000D01*
X117450001Y-34075000D01*
X117474505Y-34076204D01*
X117474505Y-34076204D01*
G37*
D11*
G04 #@! TD*
G04 #@! TO.P,REF\002A\002A,1*
G04 #@! TO.N,N/C*
X116000000Y-34637500D03*
D10*
G04 #@! TO.N,N/C*
G04 #@! TO.C,REF\002A\002A*
G36*
X117474505Y-29801204D02*
X117498773Y-29804804D01*
X117522572Y-29810765D01*
X117545671Y-29819030D01*
X117567850Y-29829520D01*
X117588893Y-29842132D01*
X117608599Y-29856747D01*
X117626777Y-29873223D01*
X117643253Y-29891401D01*
X117657868Y-29911107D01*
X117670480Y-29932150D01*
X117680970Y-29954329D01*
X117689235Y-29977428D01*
X117695196Y-30001227D01*
X117698796Y-30025495D01*
X117700000Y-30049999D01*
X117700000Y-30675001D01*
X117698796Y-30699505D01*
X117695196Y-30723773D01*
X117689235Y-30747572D01*
X117680970Y-30770671D01*
X117670480Y-30792850D01*
X117657868Y-30813893D01*
X117643253Y-30833599D01*
X117626777Y-30851777D01*
X117608599Y-30868253D01*
X117588893Y-30882868D01*
X117567850Y-30895480D01*
X117545671Y-30905970D01*
X117522572Y-30914235D01*
X117498773Y-30920196D01*
X117474505Y-30923796D01*
X117450001Y-30925000D01*
X114549999Y-30925000D01*
X114525495Y-30923796D01*
X114501227Y-30920196D01*
X114477428Y-30914235D01*
X114454329Y-30905970D01*
X114432150Y-30895480D01*
X114411107Y-30882868D01*
X114391401Y-30868253D01*
X114373223Y-30851777D01*
X114356747Y-30833599D01*
X114342132Y-30813893D01*
X114329520Y-30792850D01*
X114319030Y-30770671D01*
X114310765Y-30747572D01*
X114304804Y-30723773D01*
X114301204Y-30699505D01*
X114300000Y-30675001D01*
X114300000Y-30049999D01*
X114301204Y-30025495D01*
X114304804Y-30001227D01*
X114310765Y-29977428D01*
X114319030Y-29954329D01*
X114329520Y-29932150D01*
X114342132Y-29911107D01*
X114356747Y-29891401D01*
X114373223Y-29873223D01*
X114391401Y-29856747D01*
X114411107Y-29842132D01*
X114432150Y-29829520D01*
X114454329Y-29819030D01*
X114477428Y-29810765D01*
X114501227Y-29804804D01*
X114525495Y-29801204D01*
X114549999Y-29800000D01*
X117450001Y-29800000D01*
X117474505Y-29801204D01*
X117474505Y-29801204D01*
G37*
D11*
G04 #@! TD*
G04 #@! TO.P,REF\002A\002A,2*
G04 #@! TO.N,N/C*
X116000000Y-30362500D03*
D10*
G04 #@! TO.N,N/C*
G04 #@! TO.C,REF\002A\002A*
G36*
X105874505Y-34076204D02*
X105898773Y-34079804D01*
X105922572Y-34085765D01*
X105945671Y-34094030D01*
X105967850Y-34104520D01*
X105988893Y-34117132D01*
X106008599Y-34131747D01*
X106026777Y-34148223D01*
X106043253Y-34166401D01*
X106057868Y-34186107D01*
X106070480Y-34207150D01*
X106080970Y-34229329D01*
X106089235Y-34252428D01*
X106095196Y-34276227D01*
X106098796Y-34300495D01*
X106100000Y-34324999D01*
X106100000Y-34950001D01*
X106098796Y-34974505D01*
X106095196Y-34998773D01*
X106089235Y-35022572D01*
X106080970Y-35045671D01*
X106070480Y-35067850D01*
X106057868Y-35088893D01*
X106043253Y-35108599D01*
X106026777Y-35126777D01*
X106008599Y-35143253D01*
X105988893Y-35157868D01*
X105967850Y-35170480D01*
X105945671Y-35180970D01*
X105922572Y-35189235D01*
X105898773Y-35195196D01*
X105874505Y-35198796D01*
X105850001Y-35200000D01*
X102949999Y-35200000D01*
X102925495Y-35198796D01*
X102901227Y-35195196D01*
X102877428Y-35189235D01*
X102854329Y-35180970D01*
X102832150Y-35170480D01*
X102811107Y-35157868D01*
X102791401Y-35143253D01*
X102773223Y-35126777D01*
X102756747Y-35108599D01*
X102742132Y-35088893D01*
X102729520Y-35067850D01*
X102719030Y-35045671D01*
X102710765Y-35022572D01*
X102704804Y-34998773D01*
X102701204Y-34974505D01*
X102700000Y-34950001D01*
X102700000Y-34324999D01*
X102701204Y-34300495D01*
X102704804Y-34276227D01*
X102710765Y-34252428D01*
X102719030Y-34229329D01*
X102729520Y-34207150D01*
X102742132Y-34186107D01*
X102756747Y-34166401D01*
X102773223Y-34148223D01*
X102791401Y-34131747D01*
X102811107Y-34117132D01*
X102832150Y-34104520D01*
X102854329Y-34094030D01*
X102877428Y-34085765D01*
X102901227Y-34079804D01*
X102925495Y-34076204D01*
X102949999Y-34075000D01*
X105850001Y-34075000D01*
X105874505Y-34076204D01*
X105874505Y-34076204D01*
G37*
D11*
G04 #@! TD*
G04 #@! TO.P,REF\002A\002A,1*
G04 #@! TO.N,N/C*
X104400000Y-34637500D03*
D10*
G04 #@! TO.N,N/C*
G04 #@! TO.C,REF\002A\002A*
G36*
X105874505Y-29801204D02*
X105898773Y-29804804D01*
X105922572Y-29810765D01*
X105945671Y-29819030D01*
X105967850Y-29829520D01*
X105988893Y-29842132D01*
X106008599Y-29856747D01*
X106026777Y-29873223D01*
X106043253Y-29891401D01*
X106057868Y-29911107D01*
X106070480Y-29932150D01*
X106080970Y-29954329D01*
X106089235Y-29977428D01*
X106095196Y-30001227D01*
X106098796Y-30025495D01*
X106100000Y-30049999D01*
X106100000Y-30675001D01*
X106098796Y-30699505D01*
X106095196Y-30723773D01*
X106089235Y-30747572D01*
X106080970Y-30770671D01*
X106070480Y-30792850D01*
X106057868Y-30813893D01*
X106043253Y-30833599D01*
X106026777Y-30851777D01*
X106008599Y-30868253D01*
X105988893Y-30882868D01*
X105967850Y-30895480D01*
X105945671Y-30905970D01*
X105922572Y-30914235D01*
X105898773Y-30920196D01*
X105874505Y-30923796D01*
X105850001Y-30925000D01*
X102949999Y-30925000D01*
X102925495Y-30923796D01*
X102901227Y-30920196D01*
X102877428Y-30914235D01*
X102854329Y-30905970D01*
X102832150Y-30895480D01*
X102811107Y-30882868D01*
X102791401Y-30868253D01*
X102773223Y-30851777D01*
X102756747Y-30833599D01*
X102742132Y-30813893D01*
X102729520Y-30792850D01*
X102719030Y-30770671D01*
X102710765Y-30747572D01*
X102704804Y-30723773D01*
X102701204Y-30699505D01*
X102700000Y-30675001D01*
X102700000Y-30049999D01*
X102701204Y-30025495D01*
X102704804Y-30001227D01*
X102710765Y-29977428D01*
X102719030Y-29954329D01*
X102729520Y-29932150D01*
X102742132Y-29911107D01*
X102756747Y-29891401D01*
X102773223Y-29873223D01*
X102791401Y-29856747D01*
X102811107Y-29842132D01*
X102832150Y-29829520D01*
X102854329Y-29819030D01*
X102877428Y-29810765D01*
X102901227Y-29804804D01*
X102925495Y-29801204D01*
X102949999Y-29800000D01*
X105850001Y-29800000D01*
X105874505Y-29801204D01*
X105874505Y-29801204D01*
G37*
D11*
G04 #@! TD*
G04 #@! TO.P,REF\002A\002A,2*
G04 #@! TO.N,N/C*
X104400000Y-30362500D03*
D10*
G04 #@! TO.N,N/C*
G04 #@! TO.C,REF\002A\002A*
G36*
X94274505Y-34076204D02*
X94298773Y-34079804D01*
X94322572Y-34085765D01*
X94345671Y-34094030D01*
X94367850Y-34104520D01*
X94388893Y-34117132D01*
X94408599Y-34131747D01*
X94426777Y-34148223D01*
X94443253Y-34166401D01*
X94457868Y-34186107D01*
X94470480Y-34207150D01*
X94480970Y-34229329D01*
X94489235Y-34252428D01*
X94495196Y-34276227D01*
X94498796Y-34300495D01*
X94500000Y-34324999D01*
X94500000Y-34950001D01*
X94498796Y-34974505D01*
X94495196Y-34998773D01*
X94489235Y-35022572D01*
X94480970Y-35045671D01*
X94470480Y-35067850D01*
X94457868Y-35088893D01*
X94443253Y-35108599D01*
X94426777Y-35126777D01*
X94408599Y-35143253D01*
X94388893Y-35157868D01*
X94367850Y-35170480D01*
X94345671Y-35180970D01*
X94322572Y-35189235D01*
X94298773Y-35195196D01*
X94274505Y-35198796D01*
X94250001Y-35200000D01*
X91349999Y-35200000D01*
X91325495Y-35198796D01*
X91301227Y-35195196D01*
X91277428Y-35189235D01*
X91254329Y-35180970D01*
X91232150Y-35170480D01*
X91211107Y-35157868D01*
X91191401Y-35143253D01*
X91173223Y-35126777D01*
X91156747Y-35108599D01*
X91142132Y-35088893D01*
X91129520Y-35067850D01*
X91119030Y-35045671D01*
X91110765Y-35022572D01*
X91104804Y-34998773D01*
X91101204Y-34974505D01*
X91100000Y-34950001D01*
X91100000Y-34324999D01*
X91101204Y-34300495D01*
X91104804Y-34276227D01*
X91110765Y-34252428D01*
X91119030Y-34229329D01*
X91129520Y-34207150D01*
X91142132Y-34186107D01*
X91156747Y-34166401D01*
X91173223Y-34148223D01*
X91191401Y-34131747D01*
X91211107Y-34117132D01*
X91232150Y-34104520D01*
X91254329Y-34094030D01*
X91277428Y-34085765D01*
X91301227Y-34079804D01*
X91325495Y-34076204D01*
X91349999Y-34075000D01*
X94250001Y-34075000D01*
X94274505Y-34076204D01*
X94274505Y-34076204D01*
G37*
D11*
G04 #@! TD*
G04 #@! TO.P,REF\002A\002A,1*
G04 #@! TO.N,N/C*
X92800000Y-34637500D03*
D10*
G04 #@! TO.N,N/C*
G04 #@! TO.C,REF\002A\002A*
G36*
X94274505Y-29801204D02*
X94298773Y-29804804D01*
X94322572Y-29810765D01*
X94345671Y-29819030D01*
X94367850Y-29829520D01*
X94388893Y-29842132D01*
X94408599Y-29856747D01*
X94426777Y-29873223D01*
X94443253Y-29891401D01*
X94457868Y-29911107D01*
X94470480Y-29932150D01*
X94480970Y-29954329D01*
X94489235Y-29977428D01*
X94495196Y-30001227D01*
X94498796Y-30025495D01*
X94500000Y-30049999D01*
X94500000Y-30675001D01*
X94498796Y-30699505D01*
X94495196Y-30723773D01*
X94489235Y-30747572D01*
X94480970Y-30770671D01*
X94470480Y-30792850D01*
X94457868Y-30813893D01*
X94443253Y-30833599D01*
X94426777Y-30851777D01*
X94408599Y-30868253D01*
X94388893Y-30882868D01*
X94367850Y-30895480D01*
X94345671Y-30905970D01*
X94322572Y-30914235D01*
X94298773Y-30920196D01*
X94274505Y-30923796D01*
X94250001Y-30925000D01*
X91349999Y-30925000D01*
X91325495Y-30923796D01*
X91301227Y-30920196D01*
X91277428Y-30914235D01*
X91254329Y-30905970D01*
X91232150Y-30895480D01*
X91211107Y-30882868D01*
X91191401Y-30868253D01*
X91173223Y-30851777D01*
X91156747Y-30833599D01*
X91142132Y-30813893D01*
X91129520Y-30792850D01*
X91119030Y-30770671D01*
X91110765Y-30747572D01*
X91104804Y-30723773D01*
X91101204Y-30699505D01*
X91100000Y-30675001D01*
X91100000Y-30049999D01*
X91101204Y-30025495D01*
X91104804Y-30001227D01*
X91110765Y-29977428D01*
X91119030Y-29954329D01*
X91129520Y-29932150D01*
X91142132Y-29911107D01*
X91156747Y-29891401D01*
X91173223Y-29873223D01*
X91191401Y-29856747D01*
X91211107Y-29842132D01*
X91232150Y-29829520D01*
X91254329Y-29819030D01*
X91277428Y-29810765D01*
X91301227Y-29804804D01*
X91325495Y-29801204D01*
X91349999Y-29800000D01*
X94250001Y-29800000D01*
X94274505Y-29801204D01*
X94274505Y-29801204D01*
G37*
D11*
G04 #@! TD*
G04 #@! TO.P,REF\002A\002A,2*
G04 #@! TO.N,N/C*
X92800000Y-30362500D03*
D10*
G04 #@! TO.N,N/C*
G04 #@! TO.C,REF\002A\002A*
G36*
X82674505Y-34076204D02*
X82698773Y-34079804D01*
X82722572Y-34085765D01*
X82745671Y-34094030D01*
X82767850Y-34104520D01*
X82788893Y-34117132D01*
X82808599Y-34131747D01*
X82826777Y-34148223D01*
X82843253Y-34166401D01*
X82857868Y-34186107D01*
X82870480Y-34207150D01*
X82880970Y-34229329D01*
X82889235Y-34252428D01*
X82895196Y-34276227D01*
X82898796Y-34300495D01*
X82900000Y-34324999D01*
X82900000Y-34950001D01*
X82898796Y-34974505D01*
X82895196Y-34998773D01*
X82889235Y-35022572D01*
X82880970Y-35045671D01*
X82870480Y-35067850D01*
X82857868Y-35088893D01*
X82843253Y-35108599D01*
X82826777Y-35126777D01*
X82808599Y-35143253D01*
X82788893Y-35157868D01*
X82767850Y-35170480D01*
X82745671Y-35180970D01*
X82722572Y-35189235D01*
X82698773Y-35195196D01*
X82674505Y-35198796D01*
X82650001Y-35200000D01*
X79749999Y-35200000D01*
X79725495Y-35198796D01*
X79701227Y-35195196D01*
X79677428Y-35189235D01*
X79654329Y-35180970D01*
X79632150Y-35170480D01*
X79611107Y-35157868D01*
X79591401Y-35143253D01*
X79573223Y-35126777D01*
X79556747Y-35108599D01*
X79542132Y-35088893D01*
X79529520Y-35067850D01*
X79519030Y-35045671D01*
X79510765Y-35022572D01*
X79504804Y-34998773D01*
X79501204Y-34974505D01*
X79500000Y-34950001D01*
X79500000Y-34324999D01*
X79501204Y-34300495D01*
X79504804Y-34276227D01*
X79510765Y-34252428D01*
X79519030Y-34229329D01*
X79529520Y-34207150D01*
X79542132Y-34186107D01*
X79556747Y-34166401D01*
X79573223Y-34148223D01*
X79591401Y-34131747D01*
X79611107Y-34117132D01*
X79632150Y-34104520D01*
X79654329Y-34094030D01*
X79677428Y-34085765D01*
X79701227Y-34079804D01*
X79725495Y-34076204D01*
X79749999Y-34075000D01*
X82650001Y-34075000D01*
X82674505Y-34076204D01*
X82674505Y-34076204D01*
G37*
D11*
G04 #@! TD*
G04 #@! TO.P,REF\002A\002A,1*
G04 #@! TO.N,N/C*
X81200000Y-34637500D03*
D10*
G04 #@! TO.N,N/C*
G04 #@! TO.C,REF\002A\002A*
G36*
X82674505Y-29801204D02*
X82698773Y-29804804D01*
X82722572Y-29810765D01*
X82745671Y-29819030D01*
X82767850Y-29829520D01*
X82788893Y-29842132D01*
X82808599Y-29856747D01*
X82826777Y-29873223D01*
X82843253Y-29891401D01*
X82857868Y-29911107D01*
X82870480Y-29932150D01*
X82880970Y-29954329D01*
X82889235Y-29977428D01*
X82895196Y-30001227D01*
X82898796Y-30025495D01*
X82900000Y-30049999D01*
X82900000Y-30675001D01*
X82898796Y-30699505D01*
X82895196Y-30723773D01*
X82889235Y-30747572D01*
X82880970Y-30770671D01*
X82870480Y-30792850D01*
X82857868Y-30813893D01*
X82843253Y-30833599D01*
X82826777Y-30851777D01*
X82808599Y-30868253D01*
X82788893Y-30882868D01*
X82767850Y-30895480D01*
X82745671Y-30905970D01*
X82722572Y-30914235D01*
X82698773Y-30920196D01*
X82674505Y-30923796D01*
X82650001Y-30925000D01*
X79749999Y-30925000D01*
X79725495Y-30923796D01*
X79701227Y-30920196D01*
X79677428Y-30914235D01*
X79654329Y-30905970D01*
X79632150Y-30895480D01*
X79611107Y-30882868D01*
X79591401Y-30868253D01*
X79573223Y-30851777D01*
X79556747Y-30833599D01*
X79542132Y-30813893D01*
X79529520Y-30792850D01*
X79519030Y-30770671D01*
X79510765Y-30747572D01*
X79504804Y-30723773D01*
X79501204Y-30699505D01*
X79500000Y-30675001D01*
X79500000Y-30049999D01*
X79501204Y-30025495D01*
X79504804Y-30001227D01*
X79510765Y-29977428D01*
X79519030Y-29954329D01*
X79529520Y-29932150D01*
X79542132Y-29911107D01*
X79556747Y-29891401D01*
X79573223Y-29873223D01*
X79591401Y-29856747D01*
X79611107Y-29842132D01*
X79632150Y-29829520D01*
X79654329Y-29819030D01*
X79677428Y-29810765D01*
X79701227Y-29804804D01*
X79725495Y-29801204D01*
X79749999Y-29800000D01*
X82650001Y-29800000D01*
X82674505Y-29801204D01*
X82674505Y-29801204D01*
G37*
D11*
G04 #@! TD*
G04 #@! TO.P,REF\002A\002A,2*
G04 #@! TO.N,N/C*
X81200000Y-30362500D03*
D10*
G04 #@! TO.N,N/C*
G04 #@! TO.C,REF\002A\002A*
G36*
X71074505Y-34076204D02*
X71098773Y-34079804D01*
X71122572Y-34085765D01*
X71145671Y-34094030D01*
X71167850Y-34104520D01*
X71188893Y-34117132D01*
X71208599Y-34131747D01*
X71226777Y-34148223D01*
X71243253Y-34166401D01*
X71257868Y-34186107D01*
X71270480Y-34207150D01*
X71280970Y-34229329D01*
X71289235Y-34252428D01*
X71295196Y-34276227D01*
X71298796Y-34300495D01*
X71300000Y-34324999D01*
X71300000Y-34950001D01*
X71298796Y-34974505D01*
X71295196Y-34998773D01*
X71289235Y-35022572D01*
X71280970Y-35045671D01*
X71270480Y-35067850D01*
X71257868Y-35088893D01*
X71243253Y-35108599D01*
X71226777Y-35126777D01*
X71208599Y-35143253D01*
X71188893Y-35157868D01*
X71167850Y-35170480D01*
X71145671Y-35180970D01*
X71122572Y-35189235D01*
X71098773Y-35195196D01*
X71074505Y-35198796D01*
X71050001Y-35200000D01*
X68149999Y-35200000D01*
X68125495Y-35198796D01*
X68101227Y-35195196D01*
X68077428Y-35189235D01*
X68054329Y-35180970D01*
X68032150Y-35170480D01*
X68011107Y-35157868D01*
X67991401Y-35143253D01*
X67973223Y-35126777D01*
X67956747Y-35108599D01*
X67942132Y-35088893D01*
X67929520Y-35067850D01*
X67919030Y-35045671D01*
X67910765Y-35022572D01*
X67904804Y-34998773D01*
X67901204Y-34974505D01*
X67900000Y-34950001D01*
X67900000Y-34324999D01*
X67901204Y-34300495D01*
X67904804Y-34276227D01*
X67910765Y-34252428D01*
X67919030Y-34229329D01*
X67929520Y-34207150D01*
X67942132Y-34186107D01*
X67956747Y-34166401D01*
X67973223Y-34148223D01*
X67991401Y-34131747D01*
X68011107Y-34117132D01*
X68032150Y-34104520D01*
X68054329Y-34094030D01*
X68077428Y-34085765D01*
X68101227Y-34079804D01*
X68125495Y-34076204D01*
X68149999Y-34075000D01*
X71050001Y-34075000D01*
X71074505Y-34076204D01*
X71074505Y-34076204D01*
G37*
D11*
G04 #@! TD*
G04 #@! TO.P,REF\002A\002A,1*
G04 #@! TO.N,N/C*
X69600000Y-34637500D03*
D10*
G04 #@! TO.N,N/C*
G04 #@! TO.C,REF\002A\002A*
G36*
X71074505Y-29801204D02*
X71098773Y-29804804D01*
X71122572Y-29810765D01*
X71145671Y-29819030D01*
X71167850Y-29829520D01*
X71188893Y-29842132D01*
X71208599Y-29856747D01*
X71226777Y-29873223D01*
X71243253Y-29891401D01*
X71257868Y-29911107D01*
X71270480Y-29932150D01*
X71280970Y-29954329D01*
X71289235Y-29977428D01*
X71295196Y-30001227D01*
X71298796Y-30025495D01*
X71300000Y-30049999D01*
X71300000Y-30675001D01*
X71298796Y-30699505D01*
X71295196Y-30723773D01*
X71289235Y-30747572D01*
X71280970Y-30770671D01*
X71270480Y-30792850D01*
X71257868Y-30813893D01*
X71243253Y-30833599D01*
X71226777Y-30851777D01*
X71208599Y-30868253D01*
X71188893Y-30882868D01*
X71167850Y-30895480D01*
X71145671Y-30905970D01*
X71122572Y-30914235D01*
X71098773Y-30920196D01*
X71074505Y-30923796D01*
X71050001Y-30925000D01*
X68149999Y-30925000D01*
X68125495Y-30923796D01*
X68101227Y-30920196D01*
X68077428Y-30914235D01*
X68054329Y-30905970D01*
X68032150Y-30895480D01*
X68011107Y-30882868D01*
X67991401Y-30868253D01*
X67973223Y-30851777D01*
X67956747Y-30833599D01*
X67942132Y-30813893D01*
X67929520Y-30792850D01*
X67919030Y-30770671D01*
X67910765Y-30747572D01*
X67904804Y-30723773D01*
X67901204Y-30699505D01*
X67900000Y-30675001D01*
X67900000Y-30049999D01*
X67901204Y-30025495D01*
X67904804Y-30001227D01*
X67910765Y-29977428D01*
X67919030Y-29954329D01*
X67929520Y-29932150D01*
X67942132Y-29911107D01*
X67956747Y-29891401D01*
X67973223Y-29873223D01*
X67991401Y-29856747D01*
X68011107Y-29842132D01*
X68032150Y-29829520D01*
X68054329Y-29819030D01*
X68077428Y-29810765D01*
X68101227Y-29804804D01*
X68125495Y-29801204D01*
X68149999Y-29800000D01*
X71050001Y-29800000D01*
X71074505Y-29801204D01*
X71074505Y-29801204D01*
G37*
D11*
G04 #@! TD*
G04 #@! TO.P,REF\002A\002A,2*
G04 #@! TO.N,N/C*
X69600000Y-30362500D03*
D10*
G04 #@! TO.N,N/C*
G04 #@! TO.C,REF\002A\002A*
G36*
X59474505Y-34076204D02*
X59498773Y-34079804D01*
X59522572Y-34085765D01*
X59545671Y-34094030D01*
X59567850Y-34104520D01*
X59588893Y-34117132D01*
X59608599Y-34131747D01*
X59626777Y-34148223D01*
X59643253Y-34166401D01*
X59657868Y-34186107D01*
X59670480Y-34207150D01*
X59680970Y-34229329D01*
X59689235Y-34252428D01*
X59695196Y-34276227D01*
X59698796Y-34300495D01*
X59700000Y-34324999D01*
X59700000Y-34950001D01*
X59698796Y-34974505D01*
X59695196Y-34998773D01*
X59689235Y-35022572D01*
X59680970Y-35045671D01*
X59670480Y-35067850D01*
X59657868Y-35088893D01*
X59643253Y-35108599D01*
X59626777Y-35126777D01*
X59608599Y-35143253D01*
X59588893Y-35157868D01*
X59567850Y-35170480D01*
X59545671Y-35180970D01*
X59522572Y-35189235D01*
X59498773Y-35195196D01*
X59474505Y-35198796D01*
X59450001Y-35200000D01*
X56549999Y-35200000D01*
X56525495Y-35198796D01*
X56501227Y-35195196D01*
X56477428Y-35189235D01*
X56454329Y-35180970D01*
X56432150Y-35170480D01*
X56411107Y-35157868D01*
X56391401Y-35143253D01*
X56373223Y-35126777D01*
X56356747Y-35108599D01*
X56342132Y-35088893D01*
X56329520Y-35067850D01*
X56319030Y-35045671D01*
X56310765Y-35022572D01*
X56304804Y-34998773D01*
X56301204Y-34974505D01*
X56300000Y-34950001D01*
X56300000Y-34324999D01*
X56301204Y-34300495D01*
X56304804Y-34276227D01*
X56310765Y-34252428D01*
X56319030Y-34229329D01*
X56329520Y-34207150D01*
X56342132Y-34186107D01*
X56356747Y-34166401D01*
X56373223Y-34148223D01*
X56391401Y-34131747D01*
X56411107Y-34117132D01*
X56432150Y-34104520D01*
X56454329Y-34094030D01*
X56477428Y-34085765D01*
X56501227Y-34079804D01*
X56525495Y-34076204D01*
X56549999Y-34075000D01*
X59450001Y-34075000D01*
X59474505Y-34076204D01*
X59474505Y-34076204D01*
G37*
D11*
G04 #@! TD*
G04 #@! TO.P,REF\002A\002A,1*
G04 #@! TO.N,N/C*
X58000000Y-34637500D03*
D10*
G04 #@! TO.N,N/C*
G04 #@! TO.C,REF\002A\002A*
G36*
X59474505Y-29801204D02*
X59498773Y-29804804D01*
X59522572Y-29810765D01*
X59545671Y-29819030D01*
X59567850Y-29829520D01*
X59588893Y-29842132D01*
X59608599Y-29856747D01*
X59626777Y-29873223D01*
X59643253Y-29891401D01*
X59657868Y-29911107D01*
X59670480Y-29932150D01*
X59680970Y-29954329D01*
X59689235Y-29977428D01*
X59695196Y-30001227D01*
X59698796Y-30025495D01*
X59700000Y-30049999D01*
X59700000Y-30675001D01*
X59698796Y-30699505D01*
X59695196Y-30723773D01*
X59689235Y-30747572D01*
X59680970Y-30770671D01*
X59670480Y-30792850D01*
X59657868Y-30813893D01*
X59643253Y-30833599D01*
X59626777Y-30851777D01*
X59608599Y-30868253D01*
X59588893Y-30882868D01*
X59567850Y-30895480D01*
X59545671Y-30905970D01*
X59522572Y-30914235D01*
X59498773Y-30920196D01*
X59474505Y-30923796D01*
X59450001Y-30925000D01*
X56549999Y-30925000D01*
X56525495Y-30923796D01*
X56501227Y-30920196D01*
X56477428Y-30914235D01*
X56454329Y-30905970D01*
X56432150Y-30895480D01*
X56411107Y-30882868D01*
X56391401Y-30868253D01*
X56373223Y-30851777D01*
X56356747Y-30833599D01*
X56342132Y-30813893D01*
X56329520Y-30792850D01*
X56319030Y-30770671D01*
X56310765Y-30747572D01*
X56304804Y-30723773D01*
X56301204Y-30699505D01*
X56300000Y-30675001D01*
X56300000Y-30049999D01*
X56301204Y-30025495D01*
X56304804Y-30001227D01*
X56310765Y-29977428D01*
X56319030Y-29954329D01*
X56329520Y-29932150D01*
X56342132Y-29911107D01*
X56356747Y-29891401D01*
X56373223Y-29873223D01*
X56391401Y-29856747D01*
X56411107Y-29842132D01*
X56432150Y-29829520D01*
X56454329Y-29819030D01*
X56477428Y-29810765D01*
X56501227Y-29804804D01*
X56525495Y-29801204D01*
X56549999Y-29800000D01*
X59450001Y-29800000D01*
X59474505Y-29801204D01*
X59474505Y-29801204D01*
G37*
D11*
G04 #@! TD*
G04 #@! TO.P,REF\002A\002A,2*
G04 #@! TO.N,N/C*
X58000000Y-30362500D03*
D10*
G04 #@! TO.N,N/C*
G04 #@! TO.C,REF\002A\002A*
G36*
X47874505Y-34076204D02*
X47898773Y-34079804D01*
X47922572Y-34085765D01*
X47945671Y-34094030D01*
X47967850Y-34104520D01*
X47988893Y-34117132D01*
X48008599Y-34131747D01*
X48026777Y-34148223D01*
X48043253Y-34166401D01*
X48057868Y-34186107D01*
X48070480Y-34207150D01*
X48080970Y-34229329D01*
X48089235Y-34252428D01*
X48095196Y-34276227D01*
X48098796Y-34300495D01*
X48100000Y-34324999D01*
X48100000Y-34950001D01*
X48098796Y-34974505D01*
X48095196Y-34998773D01*
X48089235Y-35022572D01*
X48080970Y-35045671D01*
X48070480Y-35067850D01*
X48057868Y-35088893D01*
X48043253Y-35108599D01*
X48026777Y-35126777D01*
X48008599Y-35143253D01*
X47988893Y-35157868D01*
X47967850Y-35170480D01*
X47945671Y-35180970D01*
X47922572Y-35189235D01*
X47898773Y-35195196D01*
X47874505Y-35198796D01*
X47850001Y-35200000D01*
X44949999Y-35200000D01*
X44925495Y-35198796D01*
X44901227Y-35195196D01*
X44877428Y-35189235D01*
X44854329Y-35180970D01*
X44832150Y-35170480D01*
X44811107Y-35157868D01*
X44791401Y-35143253D01*
X44773223Y-35126777D01*
X44756747Y-35108599D01*
X44742132Y-35088893D01*
X44729520Y-35067850D01*
X44719030Y-35045671D01*
X44710765Y-35022572D01*
X44704804Y-34998773D01*
X44701204Y-34974505D01*
X44700000Y-34950001D01*
X44700000Y-34324999D01*
X44701204Y-34300495D01*
X44704804Y-34276227D01*
X44710765Y-34252428D01*
X44719030Y-34229329D01*
X44729520Y-34207150D01*
X44742132Y-34186107D01*
X44756747Y-34166401D01*
X44773223Y-34148223D01*
X44791401Y-34131747D01*
X44811107Y-34117132D01*
X44832150Y-34104520D01*
X44854329Y-34094030D01*
X44877428Y-34085765D01*
X44901227Y-34079804D01*
X44925495Y-34076204D01*
X44949999Y-34075000D01*
X47850001Y-34075000D01*
X47874505Y-34076204D01*
X47874505Y-34076204D01*
G37*
D11*
G04 #@! TD*
G04 #@! TO.P,REF\002A\002A,1*
G04 #@! TO.N,N/C*
X46400000Y-34637500D03*
D10*
G04 #@! TO.N,N/C*
G04 #@! TO.C,REF\002A\002A*
G36*
X47874505Y-29801204D02*
X47898773Y-29804804D01*
X47922572Y-29810765D01*
X47945671Y-29819030D01*
X47967850Y-29829520D01*
X47988893Y-29842132D01*
X48008599Y-29856747D01*
X48026777Y-29873223D01*
X48043253Y-29891401D01*
X48057868Y-29911107D01*
X48070480Y-29932150D01*
X48080970Y-29954329D01*
X48089235Y-29977428D01*
X48095196Y-30001227D01*
X48098796Y-30025495D01*
X48100000Y-30049999D01*
X48100000Y-30675001D01*
X48098796Y-30699505D01*
X48095196Y-30723773D01*
X48089235Y-30747572D01*
X48080970Y-30770671D01*
X48070480Y-30792850D01*
X48057868Y-30813893D01*
X48043253Y-30833599D01*
X48026777Y-30851777D01*
X48008599Y-30868253D01*
X47988893Y-30882868D01*
X47967850Y-30895480D01*
X47945671Y-30905970D01*
X47922572Y-30914235D01*
X47898773Y-30920196D01*
X47874505Y-30923796D01*
X47850001Y-30925000D01*
X44949999Y-30925000D01*
X44925495Y-30923796D01*
X44901227Y-30920196D01*
X44877428Y-30914235D01*
X44854329Y-30905970D01*
X44832150Y-30895480D01*
X44811107Y-30882868D01*
X44791401Y-30868253D01*
X44773223Y-30851777D01*
X44756747Y-30833599D01*
X44742132Y-30813893D01*
X44729520Y-30792850D01*
X44719030Y-30770671D01*
X44710765Y-30747572D01*
X44704804Y-30723773D01*
X44701204Y-30699505D01*
X44700000Y-30675001D01*
X44700000Y-30049999D01*
X44701204Y-30025495D01*
X44704804Y-30001227D01*
X44710765Y-29977428D01*
X44719030Y-29954329D01*
X44729520Y-29932150D01*
X44742132Y-29911107D01*
X44756747Y-29891401D01*
X44773223Y-29873223D01*
X44791401Y-29856747D01*
X44811107Y-29842132D01*
X44832150Y-29829520D01*
X44854329Y-29819030D01*
X44877428Y-29810765D01*
X44901227Y-29804804D01*
X44925495Y-29801204D01*
X44949999Y-29800000D01*
X47850001Y-29800000D01*
X47874505Y-29801204D01*
X47874505Y-29801204D01*
G37*
D11*
G04 #@! TD*
G04 #@! TO.P,REF\002A\002A,2*
G04 #@! TO.N,N/C*
X46400000Y-30362500D03*
D10*
G04 #@! TO.N,N/C*
G04 #@! TO.C,REF\002A\002A*
G36*
X36274505Y-29801204D02*
X36298773Y-29804804D01*
X36322572Y-29810765D01*
X36345671Y-29819030D01*
X36367850Y-29829520D01*
X36388893Y-29842132D01*
X36408599Y-29856747D01*
X36426777Y-29873223D01*
X36443253Y-29891401D01*
X36457868Y-29911107D01*
X36470480Y-29932150D01*
X36480970Y-29954329D01*
X36489235Y-29977428D01*
X36495196Y-30001227D01*
X36498796Y-30025495D01*
X36500000Y-30049999D01*
X36500000Y-30675001D01*
X36498796Y-30699505D01*
X36495196Y-30723773D01*
X36489235Y-30747572D01*
X36480970Y-30770671D01*
X36470480Y-30792850D01*
X36457868Y-30813893D01*
X36443253Y-30833599D01*
X36426777Y-30851777D01*
X36408599Y-30868253D01*
X36388893Y-30882868D01*
X36367850Y-30895480D01*
X36345671Y-30905970D01*
X36322572Y-30914235D01*
X36298773Y-30920196D01*
X36274505Y-30923796D01*
X36250001Y-30925000D01*
X33349999Y-30925000D01*
X33325495Y-30923796D01*
X33301227Y-30920196D01*
X33277428Y-30914235D01*
X33254329Y-30905970D01*
X33232150Y-30895480D01*
X33211107Y-30882868D01*
X33191401Y-30868253D01*
X33173223Y-30851777D01*
X33156747Y-30833599D01*
X33142132Y-30813893D01*
X33129520Y-30792850D01*
X33119030Y-30770671D01*
X33110765Y-30747572D01*
X33104804Y-30723773D01*
X33101204Y-30699505D01*
X33100000Y-30675001D01*
X33100000Y-30049999D01*
X33101204Y-30025495D01*
X33104804Y-30001227D01*
X33110765Y-29977428D01*
X33119030Y-29954329D01*
X33129520Y-29932150D01*
X33142132Y-29911107D01*
X33156747Y-29891401D01*
X33173223Y-29873223D01*
X33191401Y-29856747D01*
X33211107Y-29842132D01*
X33232150Y-29829520D01*
X33254329Y-29819030D01*
X33277428Y-29810765D01*
X33301227Y-29804804D01*
X33325495Y-29801204D01*
X33349999Y-29800000D01*
X36250001Y-29800000D01*
X36274505Y-29801204D01*
X36274505Y-29801204D01*
G37*
D11*
G04 #@! TD*
G04 #@! TO.P,REF\002A\002A,2*
G04 #@! TO.N,N/C*
X34800000Y-30362500D03*
D10*
G04 #@! TO.N,N/C*
G04 #@! TO.C,REF\002A\002A*
G36*
X36274505Y-34076204D02*
X36298773Y-34079804D01*
X36322572Y-34085765D01*
X36345671Y-34094030D01*
X36367850Y-34104520D01*
X36388893Y-34117132D01*
X36408599Y-34131747D01*
X36426777Y-34148223D01*
X36443253Y-34166401D01*
X36457868Y-34186107D01*
X36470480Y-34207150D01*
X36480970Y-34229329D01*
X36489235Y-34252428D01*
X36495196Y-34276227D01*
X36498796Y-34300495D01*
X36500000Y-34324999D01*
X36500000Y-34950001D01*
X36498796Y-34974505D01*
X36495196Y-34998773D01*
X36489235Y-35022572D01*
X36480970Y-35045671D01*
X36470480Y-35067850D01*
X36457868Y-35088893D01*
X36443253Y-35108599D01*
X36426777Y-35126777D01*
X36408599Y-35143253D01*
X36388893Y-35157868D01*
X36367850Y-35170480D01*
X36345671Y-35180970D01*
X36322572Y-35189235D01*
X36298773Y-35195196D01*
X36274505Y-35198796D01*
X36250001Y-35200000D01*
X33349999Y-35200000D01*
X33325495Y-35198796D01*
X33301227Y-35195196D01*
X33277428Y-35189235D01*
X33254329Y-35180970D01*
X33232150Y-35170480D01*
X33211107Y-35157868D01*
X33191401Y-35143253D01*
X33173223Y-35126777D01*
X33156747Y-35108599D01*
X33142132Y-35088893D01*
X33129520Y-35067850D01*
X33119030Y-35045671D01*
X33110765Y-35022572D01*
X33104804Y-34998773D01*
X33101204Y-34974505D01*
X33100000Y-34950001D01*
X33100000Y-34324999D01*
X33101204Y-34300495D01*
X33104804Y-34276227D01*
X33110765Y-34252428D01*
X33119030Y-34229329D01*
X33129520Y-34207150D01*
X33142132Y-34186107D01*
X33156747Y-34166401D01*
X33173223Y-34148223D01*
X33191401Y-34131747D01*
X33211107Y-34117132D01*
X33232150Y-34104520D01*
X33254329Y-34094030D01*
X33277428Y-34085765D01*
X33301227Y-34079804D01*
X33325495Y-34076204D01*
X33349999Y-34075000D01*
X36250001Y-34075000D01*
X36274505Y-34076204D01*
X36274505Y-34076204D01*
G37*
D11*
G04 #@! TD*
G04 #@! TO.P,REF\002A\002A,1*
G04 #@! TO.N,N/C*
X34800000Y-34637500D03*
D10*
G04 #@! TO.N,/+*
G04 #@! TO.C,C1001*
G36*
X30474505Y-34076204D02*
X30498773Y-34079804D01*
X30522572Y-34085765D01*
X30545671Y-34094030D01*
X30567850Y-34104520D01*
X30588893Y-34117132D01*
X30608599Y-34131747D01*
X30626777Y-34148223D01*
X30643253Y-34166401D01*
X30657868Y-34186107D01*
X30670480Y-34207150D01*
X30680970Y-34229329D01*
X30689235Y-34252428D01*
X30695196Y-34276227D01*
X30698796Y-34300495D01*
X30700000Y-34324999D01*
X30700000Y-34950001D01*
X30698796Y-34974505D01*
X30695196Y-34998773D01*
X30689235Y-35022572D01*
X30680970Y-35045671D01*
X30670480Y-35067850D01*
X30657868Y-35088893D01*
X30643253Y-35108599D01*
X30626777Y-35126777D01*
X30608599Y-35143253D01*
X30588893Y-35157868D01*
X30567850Y-35170480D01*
X30545671Y-35180970D01*
X30522572Y-35189235D01*
X30498773Y-35195196D01*
X30474505Y-35198796D01*
X30450001Y-35200000D01*
X27549999Y-35200000D01*
X27525495Y-35198796D01*
X27501227Y-35195196D01*
X27477428Y-35189235D01*
X27454329Y-35180970D01*
X27432150Y-35170480D01*
X27411107Y-35157868D01*
X27391401Y-35143253D01*
X27373223Y-35126777D01*
X27356747Y-35108599D01*
X27342132Y-35088893D01*
X27329520Y-35067850D01*
X27319030Y-35045671D01*
X27310765Y-35022572D01*
X27304804Y-34998773D01*
X27301204Y-34974505D01*
X27300000Y-34950001D01*
X27300000Y-34324999D01*
X27301204Y-34300495D01*
X27304804Y-34276227D01*
X27310765Y-34252428D01*
X27319030Y-34229329D01*
X27329520Y-34207150D01*
X27342132Y-34186107D01*
X27356747Y-34166401D01*
X27373223Y-34148223D01*
X27391401Y-34131747D01*
X27411107Y-34117132D01*
X27432150Y-34104520D01*
X27454329Y-34094030D01*
X27477428Y-34085765D01*
X27501227Y-34079804D01*
X27525495Y-34076204D01*
X27549999Y-34075000D01*
X30450001Y-34075000D01*
X30474505Y-34076204D01*
X30474505Y-34076204D01*
G37*
D11*
G04 #@! TD*
G04 #@! TO.P,C1001,1*
G04 #@! TO.N,/+*
X29000000Y-34637500D03*
D10*
G04 #@! TO.N,/-*
G04 #@! TO.C,C1001*
G36*
X30474505Y-29801204D02*
X30498773Y-29804804D01*
X30522572Y-29810765D01*
X30545671Y-29819030D01*
X30567850Y-29829520D01*
X30588893Y-29842132D01*
X30608599Y-29856747D01*
X30626777Y-29873223D01*
X30643253Y-29891401D01*
X30657868Y-29911107D01*
X30670480Y-29932150D01*
X30680970Y-29954329D01*
X30689235Y-29977428D01*
X30695196Y-30001227D01*
X30698796Y-30025495D01*
X30700000Y-30049999D01*
X30700000Y-30675001D01*
X30698796Y-30699505D01*
X30695196Y-30723773D01*
X30689235Y-30747572D01*
X30680970Y-30770671D01*
X30670480Y-30792850D01*
X30657868Y-30813893D01*
X30643253Y-30833599D01*
X30626777Y-30851777D01*
X30608599Y-30868253D01*
X30588893Y-30882868D01*
X30567850Y-30895480D01*
X30545671Y-30905970D01*
X30522572Y-30914235D01*
X30498773Y-30920196D01*
X30474505Y-30923796D01*
X30450001Y-30925000D01*
X27549999Y-30925000D01*
X27525495Y-30923796D01*
X27501227Y-30920196D01*
X27477428Y-30914235D01*
X27454329Y-30905970D01*
X27432150Y-30895480D01*
X27411107Y-30882868D01*
X27391401Y-30868253D01*
X27373223Y-30851777D01*
X27356747Y-30833599D01*
X27342132Y-30813893D01*
X27329520Y-30792850D01*
X27319030Y-30770671D01*
X27310765Y-30747572D01*
X27304804Y-30723773D01*
X27301204Y-30699505D01*
X27300000Y-30675001D01*
X27300000Y-30049999D01*
X27301204Y-30025495D01*
X27304804Y-30001227D01*
X27310765Y-29977428D01*
X27319030Y-29954329D01*
X27329520Y-29932150D01*
X27342132Y-29911107D01*
X27356747Y-29891401D01*
X27373223Y-29873223D01*
X27391401Y-29856747D01*
X27411107Y-29842132D01*
X27432150Y-29829520D01*
X27454329Y-29819030D01*
X27477428Y-29810765D01*
X27501227Y-29804804D01*
X27525495Y-29801204D01*
X27549999Y-29800000D01*
X30450001Y-29800000D01*
X30474505Y-29801204D01*
X30474505Y-29801204D01*
G37*
D11*
G04 #@! TD*
G04 #@! TO.P,C1001,2*
G04 #@! TO.N,/-*
X29000000Y-30362500D03*
D12*
G04 #@! TO.N,*
X29000000Y-29000000D03*
X34800000Y-29000000D03*
X34800000Y-36000000D03*
X40600000Y-29000000D03*
X52200000Y-29000000D03*
X63800000Y-29000000D03*
X75400000Y-29000000D03*
X87000000Y-29000000D03*
X98600000Y-29000000D03*
X110200000Y-29000000D03*
X121800000Y-29000000D03*
X133400000Y-29000000D03*
X145000000Y-29000000D03*
X156600000Y-29000000D03*
X168200000Y-29000000D03*
X179800000Y-29000000D03*
X191400000Y-29000000D03*
X203000000Y-29000000D03*
X214600000Y-29000000D03*
X226200000Y-29000000D03*
X237800000Y-29000000D03*
X249400000Y-29000000D03*
X46400000Y-36000000D03*
X58000000Y-36000000D03*
X69600000Y-36000000D03*
X81200000Y-36000000D03*
X92800000Y-36000000D03*
X104400000Y-36000000D03*
X116000000Y-36000000D03*
X127600000Y-36000000D03*
X139200000Y-36000000D03*
X150800000Y-36000000D03*
X162400000Y-36000000D03*
X174000000Y-36000000D03*
X185600000Y-36000000D03*
X197200000Y-36000000D03*
X208800000Y-36000000D03*
X220400000Y-36000000D03*
X232000000Y-36000000D03*
X243600000Y-36000000D03*
G04 #@! TO.N,/-*
X255200000Y-36000000D03*
G04 #@! TO.N,*
X46400000Y-29000000D03*
X58000000Y-29000000D03*
X69600000Y-29000000D03*
X81200000Y-29000000D03*
X92800000Y-29000000D03*
X104400000Y-29000000D03*
X116000000Y-29000000D03*
X127600000Y-29000000D03*
X139200000Y-29000000D03*
X150800000Y-29000000D03*
X162400000Y-29000000D03*
X174000000Y-29000000D03*
X185600000Y-29000000D03*
X197200000Y-29000000D03*
X208800000Y-29000000D03*
X220400000Y-29000000D03*
X232000000Y-29000000D03*
X243600000Y-29000000D03*
X255200000Y-29000000D03*
X40600000Y-36000000D03*
X52200000Y-36000000D03*
X63800000Y-36000000D03*
X75400000Y-36000000D03*
X87000000Y-36000000D03*
X98600000Y-36000000D03*
X110200000Y-36000000D03*
X121800000Y-36000000D03*
X133400000Y-36000000D03*
X145000000Y-36000000D03*
X156600000Y-36000000D03*
X168200000Y-36000000D03*
X179800000Y-36000000D03*
X191400000Y-36000000D03*
X203000000Y-36000000D03*
X214600000Y-36000000D03*
X226200000Y-36000000D03*
X237800000Y-36000000D03*
X249400000Y-36000000D03*
G04 #@! TO.N,/+*
X29000000Y-36000000D03*
X21500000Y-29300000D03*
X24500000Y-29300000D03*
X21500000Y-35700000D03*
X24500000Y-35700000D03*
X24500000Y-32500000D03*
X21500000Y-32500000D03*
G04 #@! TO.N,/-*
X262700000Y-35700000D03*
X259700000Y-32500000D03*
X262700000Y-29300000D03*
X259700000Y-35700000D03*
X262700000Y-32500000D03*
X259700000Y-29300000D03*
G04 #@! TD*
D13*
G04 #@! TO.N,*
X29000000Y-30362500D02*
X29000000Y-29000000D01*
X29000000Y-30362500D02*
X34800000Y-30362500D01*
X34800000Y-30362500D02*
X34800000Y-29000000D01*
X34800000Y-36000000D02*
X34800000Y-34637500D01*
X34800000Y-34637500D02*
X40600000Y-34637500D01*
X40600000Y-36000000D02*
X40600000Y-34637500D01*
X52200000Y-36000000D02*
X52200000Y-34637500D01*
X63800000Y-36000000D02*
X63800000Y-34637500D01*
X75400000Y-36000000D02*
X75400000Y-34637500D01*
X87000000Y-36000000D02*
X87000000Y-34637500D01*
X98600000Y-36000000D02*
X98600000Y-34637500D01*
X110200000Y-36000000D02*
X110200000Y-34637500D01*
X121800000Y-36000000D02*
X121800000Y-34637500D01*
X133400000Y-36000000D02*
X133400000Y-34637500D01*
X145000000Y-36000000D02*
X145000000Y-34637500D01*
X156600000Y-36000000D02*
X156600000Y-34637500D01*
X168200000Y-36000000D02*
X168200000Y-34637500D01*
X179800000Y-36000000D02*
X179800000Y-34637500D01*
X191400000Y-36000000D02*
X191400000Y-34637500D01*
X203000000Y-36000000D02*
X203000000Y-34637500D01*
X214600000Y-36000000D02*
X214600000Y-34637500D01*
X226200000Y-36000000D02*
X226200000Y-34637500D01*
X237800000Y-36000000D02*
X237800000Y-34637500D01*
X249400000Y-36000000D02*
X249400000Y-34637500D01*
X46400000Y-36000000D02*
X46400000Y-34637500D01*
X58000000Y-36000000D02*
X58000000Y-34637500D01*
X69600000Y-36000000D02*
X69600000Y-34637500D01*
X81200000Y-36000000D02*
X81200000Y-34637500D01*
X92800000Y-36000000D02*
X92800000Y-34637500D01*
X104400000Y-36000000D02*
X104400000Y-34637500D01*
X116000000Y-36000000D02*
X116000000Y-34637500D01*
X127600000Y-36000000D02*
X127600000Y-34637500D01*
X139200000Y-36000000D02*
X139200000Y-34637500D01*
X150800000Y-36000000D02*
X150800000Y-34637500D01*
X162400000Y-36000000D02*
X162400000Y-34637500D01*
X174000000Y-36000000D02*
X174000000Y-34637500D01*
X185600000Y-36000000D02*
X185600000Y-34637500D01*
X197200000Y-36000000D02*
X197200000Y-34637500D01*
X208800000Y-36000000D02*
X208800000Y-34637500D01*
X220400000Y-36000000D02*
X220400000Y-34637500D01*
X232000000Y-36000000D02*
X232000000Y-34637500D01*
X243600000Y-36000000D02*
X243600000Y-34637500D01*
G04 #@! TO.N,/-*
X255200000Y-36000000D02*
X255200000Y-34637500D01*
G04 #@! TO.N,*
X40600000Y-30362500D02*
X40600000Y-29000000D01*
X52200000Y-30362500D02*
X52200000Y-29000000D01*
X63800000Y-30362500D02*
X63800000Y-29000000D01*
X75400000Y-30362500D02*
X75400000Y-29000000D01*
X87000000Y-30362500D02*
X87000000Y-29000000D01*
X98600000Y-30362500D02*
X98600000Y-29000000D01*
X110200000Y-30362500D02*
X110200000Y-29000000D01*
X121800000Y-30362500D02*
X121800000Y-29000000D01*
X133400000Y-30362500D02*
X133400000Y-29000000D01*
X145000000Y-30362500D02*
X145000000Y-29000000D01*
X156600000Y-30362500D02*
X156600000Y-29000000D01*
X168200000Y-30362500D02*
X168200000Y-29000000D01*
X179800000Y-30362500D02*
X179800000Y-29000000D01*
X191400000Y-30362500D02*
X191400000Y-29000000D01*
X203000000Y-30362500D02*
X203000000Y-29000000D01*
X214600000Y-30362500D02*
X214600000Y-29000000D01*
X226200000Y-30362500D02*
X226200000Y-29000000D01*
X237800000Y-30362500D02*
X237800000Y-29000000D01*
X249400000Y-30362500D02*
X249400000Y-29000000D01*
X40600000Y-30362500D02*
X46400000Y-30362500D01*
X52200000Y-30362500D02*
X58000000Y-30362500D01*
X63800000Y-30362500D02*
X69600000Y-30362500D01*
X75400000Y-30362500D02*
X81200000Y-30362500D01*
X87000000Y-30362500D02*
X92800000Y-30362500D01*
X98600000Y-30362500D02*
X104400000Y-30362500D01*
X110200000Y-30362500D02*
X116000000Y-30362500D01*
X121800000Y-30362500D02*
X127600000Y-30362500D01*
X133400000Y-30362500D02*
X139200000Y-30362500D01*
X145000000Y-30362500D02*
X150800000Y-30362500D01*
X156600000Y-30362500D02*
X162400000Y-30362500D01*
X168200000Y-30362500D02*
X174000000Y-30362500D01*
X179800000Y-30362500D02*
X185600000Y-30362500D01*
X191400000Y-30362500D02*
X197200000Y-30362500D01*
X203000000Y-30362500D02*
X208800000Y-30362500D01*
X214600000Y-30362500D02*
X220400000Y-30362500D01*
X226200000Y-30362500D02*
X232000000Y-30362500D01*
X237800000Y-30362500D02*
X243600000Y-30362500D01*
X249400000Y-30362500D02*
X255200000Y-30362500D01*
X46400000Y-34637500D02*
X52200000Y-34637500D01*
X58000000Y-34637500D02*
X63800000Y-34637500D01*
X69600000Y-34637500D02*
X75400000Y-34637500D01*
X81200000Y-34637500D02*
X87000000Y-34637500D01*
X92800000Y-34637500D02*
X98600000Y-34637500D01*
X104400000Y-34637500D02*
X110200000Y-34637500D01*
X116000000Y-34637500D02*
X121800000Y-34637500D01*
X127600000Y-34637500D02*
X133400000Y-34637500D01*
X139200000Y-34637500D02*
X145000000Y-34637500D01*
X150800000Y-34637500D02*
X156600000Y-34637500D01*
X162400000Y-34637500D02*
X168200000Y-34637500D01*
X174000000Y-34637500D02*
X179800000Y-34637500D01*
X185600000Y-34637500D02*
X191400000Y-34637500D01*
X197200000Y-34637500D02*
X203000000Y-34637500D01*
X208800000Y-34637500D02*
X214600000Y-34637500D01*
X220400000Y-34637500D02*
X226200000Y-34637500D01*
X232000000Y-34637500D02*
X237800000Y-34637500D01*
X243600000Y-34637500D02*
X249400000Y-34637500D01*
X46400000Y-30362500D02*
X46400000Y-29000000D01*
X58000000Y-30362500D02*
X58000000Y-29000000D01*
X69600000Y-30362500D02*
X69600000Y-29000000D01*
X81200000Y-30362500D02*
X81200000Y-29000000D01*
X92800000Y-30362500D02*
X92800000Y-29000000D01*
X104400000Y-30362500D02*
X104400000Y-29000000D01*
X116000000Y-30362500D02*
X116000000Y-29000000D01*
X127600000Y-30362500D02*
X127600000Y-29000000D01*
X139200000Y-30362500D02*
X139200000Y-29000000D01*
X150800000Y-30362500D02*
X150800000Y-29000000D01*
X162400000Y-30362500D02*
X162400000Y-29000000D01*
X174000000Y-30362500D02*
X174000000Y-29000000D01*
X185600000Y-30362500D02*
X185600000Y-29000000D01*
X197200000Y-30362500D02*
X197200000Y-29000000D01*
X208800000Y-30362500D02*
X208800000Y-29000000D01*
X220400000Y-30362500D02*
X220400000Y-29000000D01*
X232000000Y-30362500D02*
X232000000Y-29000000D01*
X243600000Y-30362500D02*
X243600000Y-29000000D01*
X255200000Y-30362500D02*
X255200000Y-29000000D01*
G04 #@! TO.N,/+*
X29000000Y-34637500D02*
X23437500Y-34637500D01*
X29000000Y-34637500D02*
X29000000Y-36000000D01*
G04 #@! TO.N,/-*
X255200000Y-34637500D02*
X259962500Y-34637500D01*
G04 #@! TD*
D14*
G04 #@! TO.N,/+*
G36*
X24333130Y-28695752D02*
X24615545Y-28884455D01*
X24804248Y-29166870D01*
X24873000Y-29512509D01*
X24873000Y-35487491D01*
X24804248Y-35833130D01*
X24615545Y-36115545D01*
X24333130Y-36304248D01*
X23987491Y-36373000D01*
X22012509Y-36373000D01*
X21666870Y-36304248D01*
X21384455Y-36115545D01*
X21195752Y-35833130D01*
X21127000Y-35487491D01*
X21127000Y-29512509D01*
X21195752Y-29166870D01*
X21384455Y-28884455D01*
X21666870Y-28695752D01*
X22012509Y-28627000D01*
X23987491Y-28627000D01*
X24333130Y-28695752D01*
X24333130Y-28695752D01*
G37*
X24333130Y-28695752D02*
X24615545Y-28884455D01*
X24804248Y-29166870D01*
X24873000Y-29512509D01*
X24873000Y-35487491D01*
X24804248Y-35833130D01*
X24615545Y-36115545D01*
X24333130Y-36304248D01*
X23987491Y-36373000D01*
X22012509Y-36373000D01*
X21666870Y-36304248D01*
X21384455Y-36115545D01*
X21195752Y-35833130D01*
X21127000Y-35487491D01*
X21127000Y-29512509D01*
X21195752Y-29166870D01*
X21384455Y-28884455D01*
X21666870Y-28695752D01*
X22012509Y-28627000D01*
X23987491Y-28627000D01*
X24333130Y-28695752D01*
G04 #@! TO.N,/-*
G36*
X262533130Y-28695752D02*
X262815545Y-28884455D01*
X263004248Y-29166870D01*
X263073000Y-29512509D01*
X263073000Y-35487491D01*
X263004248Y-35833130D01*
X262815545Y-36115545D01*
X262533130Y-36304248D01*
X262187491Y-36373000D01*
X260212509Y-36373000D01*
X259866870Y-36304248D01*
X259584455Y-36115545D01*
X259395752Y-35833130D01*
X259327000Y-35487491D01*
X259327000Y-29512509D01*
X259395752Y-29166870D01*
X259584455Y-28884455D01*
X259866870Y-28695752D01*
X260212509Y-28627000D01*
X262187491Y-28627000D01*
X262533130Y-28695752D01*
X262533130Y-28695752D01*
G37*
X262533130Y-28695752D02*
X262815545Y-28884455D01*
X263004248Y-29166870D01*
X263073000Y-29512509D01*
X263073000Y-35487491D01*
X263004248Y-35833130D01*
X262815545Y-36115545D01*
X262533130Y-36304248D01*
X262187491Y-36373000D01*
X260212509Y-36373000D01*
X259866870Y-36304248D01*
X259584455Y-36115545D01*
X259395752Y-35833130D01*
X259327000Y-35487491D01*
X259327000Y-29512509D01*
X259395752Y-29166870D01*
X259584455Y-28884455D01*
X259866870Y-28695752D01*
X260212509Y-28627000D01*
X262187491Y-28627000D01*
X262533130Y-28695752D01*
G04 #@! TD*
M02*
