G04 #@! TF.GenerationSoftware,KiCad,Pcbnew,5.0.2-bee76a0~70~ubuntu18.04.1*
G04 #@! TF.CreationDate,2020-06-05T13:56:22-07:00*
G04 #@! TF.ProjectId,secondary_mmc,7365636f-6e64-4617-9279-5f6d6d632e6b,rev?*
G04 #@! TF.SameCoordinates,Original*
G04 #@! TF.FileFunction,Legend,Bot*
G04 #@! TF.FilePolarity,Positive*
%FSLAX46Y46*%
G04 Gerber Fmt 4.6, Leading zero omitted, Abs format (unit mm)*
G04 Created by KiCad (PCBNEW 5.0.2-bee76a0~70~ubuntu18.04.1) date Fri 05 Jun 2020 01:56:22 PM PDT*
%MOMM*%
%LPD*%
G01*
G04 APERTURE LIST*
%ADD10C,0.120000*%
G04 APERTURE END LIST*
D10*
G04 #@! TO.C,C1001*
X253490000Y-31113748D02*
X253490000Y-33886252D01*
X256910000Y-31113748D02*
X256910000Y-33886252D01*
X27290000Y-33886252D02*
X27290000Y-31113748D01*
X30710000Y-33886252D02*
X30710000Y-31113748D01*
G04 #@! TO.C,REF\002A\002A*
X247690000Y-33886252D02*
X247690000Y-31113748D01*
X251110000Y-33886252D02*
X251110000Y-31113748D01*
X236090000Y-33886252D02*
X236090000Y-31113748D01*
X239510000Y-33886252D02*
X239510000Y-31113748D01*
X224490000Y-33886252D02*
X224490000Y-31113748D01*
X227910000Y-33886252D02*
X227910000Y-31113748D01*
X212890000Y-33886252D02*
X212890000Y-31113748D01*
X216310000Y-33886252D02*
X216310000Y-31113748D01*
X201290000Y-33886252D02*
X201290000Y-31113748D01*
X204710000Y-33886252D02*
X204710000Y-31113748D01*
X189690000Y-33886252D02*
X189690000Y-31113748D01*
X193110000Y-33886252D02*
X193110000Y-31113748D01*
X178090000Y-33886252D02*
X178090000Y-31113748D01*
X181510000Y-33886252D02*
X181510000Y-31113748D01*
X166490000Y-33886252D02*
X166490000Y-31113748D01*
X169910000Y-33886252D02*
X169910000Y-31113748D01*
X154890000Y-33886252D02*
X154890000Y-31113748D01*
X158310000Y-33886252D02*
X158310000Y-31113748D01*
X143290000Y-33886252D02*
X143290000Y-31113748D01*
X146710000Y-33886252D02*
X146710000Y-31113748D01*
X131690000Y-33886252D02*
X131690000Y-31113748D01*
X135110000Y-33886252D02*
X135110000Y-31113748D01*
X120090000Y-33886252D02*
X120090000Y-31113748D01*
X123510000Y-33886252D02*
X123510000Y-31113748D01*
X108490000Y-33886252D02*
X108490000Y-31113748D01*
X111910000Y-33886252D02*
X111910000Y-31113748D01*
X96890000Y-33886252D02*
X96890000Y-31113748D01*
X100310000Y-33886252D02*
X100310000Y-31113748D01*
X85290000Y-33886252D02*
X85290000Y-31113748D01*
X88710000Y-33886252D02*
X88710000Y-31113748D01*
X73690000Y-33886252D02*
X73690000Y-31113748D01*
X77110000Y-33886252D02*
X77110000Y-31113748D01*
X62090000Y-33886252D02*
X62090000Y-31113748D01*
X65510000Y-33886252D02*
X65510000Y-31113748D01*
X50490000Y-33886252D02*
X50490000Y-31113748D01*
X53910000Y-33886252D02*
X53910000Y-31113748D01*
X38890000Y-33886252D02*
X38890000Y-31113748D01*
X42310000Y-33886252D02*
X42310000Y-31113748D01*
X241890000Y-33886252D02*
X241890000Y-31113748D01*
X245310000Y-33886252D02*
X245310000Y-31113748D01*
X230290000Y-33886252D02*
X230290000Y-31113748D01*
X233710000Y-33886252D02*
X233710000Y-31113748D01*
X218690000Y-33886252D02*
X218690000Y-31113748D01*
X222110000Y-33886252D02*
X222110000Y-31113748D01*
X207090000Y-33886252D02*
X207090000Y-31113748D01*
X210510000Y-33886252D02*
X210510000Y-31113748D01*
X195490000Y-33886252D02*
X195490000Y-31113748D01*
X198910000Y-33886252D02*
X198910000Y-31113748D01*
X183890000Y-33886252D02*
X183890000Y-31113748D01*
X187310000Y-33886252D02*
X187310000Y-31113748D01*
X172290000Y-33886252D02*
X172290000Y-31113748D01*
X175710000Y-33886252D02*
X175710000Y-31113748D01*
X160690000Y-33886252D02*
X160690000Y-31113748D01*
X164110000Y-33886252D02*
X164110000Y-31113748D01*
X149090000Y-33886252D02*
X149090000Y-31113748D01*
X152510000Y-33886252D02*
X152510000Y-31113748D01*
X137490000Y-33886252D02*
X137490000Y-31113748D01*
X140910000Y-33886252D02*
X140910000Y-31113748D01*
X125890000Y-33886252D02*
X125890000Y-31113748D01*
X129310000Y-33886252D02*
X129310000Y-31113748D01*
X114290000Y-33886252D02*
X114290000Y-31113748D01*
X117710000Y-33886252D02*
X117710000Y-31113748D01*
X102690000Y-33886252D02*
X102690000Y-31113748D01*
X106110000Y-33886252D02*
X106110000Y-31113748D01*
X91090000Y-33886252D02*
X91090000Y-31113748D01*
X94510000Y-33886252D02*
X94510000Y-31113748D01*
X79490000Y-33886252D02*
X79490000Y-31113748D01*
X82910000Y-33886252D02*
X82910000Y-31113748D01*
X67890000Y-33886252D02*
X67890000Y-31113748D01*
X71310000Y-33886252D02*
X71310000Y-31113748D01*
X56290000Y-33886252D02*
X56290000Y-31113748D01*
X59710000Y-33886252D02*
X59710000Y-31113748D01*
X44690000Y-33886252D02*
X44690000Y-31113748D01*
X48110000Y-33886252D02*
X48110000Y-31113748D01*
X36510000Y-33886252D02*
X36510000Y-31113748D01*
X33090000Y-33886252D02*
X33090000Y-31113748D01*
G04 #@! TD*
M02*
