G04 #@! TF.GenerationSoftware,KiCad,Pcbnew,5.0.2-bee76a0~70~ubuntu18.04.1*
G04 #@! TF.CreationDate,2020-06-05T13:56:22-07:00*
G04 #@! TF.ProjectId,secondary_mmc,7365636f-6e64-4617-9279-5f6d6d632e6b,rev?*
G04 #@! TF.SameCoordinates,Original*
G04 #@! TF.FileFunction,Profile,NP*
%FSLAX46Y46*%
G04 Gerber Fmt 4.6, Leading zero omitted, Abs format (unit mm)*
G04 Created by KiCad (PCBNEW 5.0.2-bee76a0~70~ubuntu18.04.1) date Fri 05 Jun 2020 01:56:22 PM PDT*
%MOMM*%
%LPD*%
G01*
G04 APERTURE LIST*
%ADD10C,0.100000*%
%ADD11C,0.150000*%
G04 APERTURE END LIST*
D10*
X251500000Y-31700000D02*
X251500000Y-38600000D01*
X239900000Y-31700000D02*
X239900000Y-38600000D01*
X228300000Y-31700000D02*
X228300000Y-38600000D01*
X216700000Y-31700000D02*
X216700000Y-38600000D01*
X205100000Y-31700000D02*
X205100000Y-38600000D01*
X193500000Y-31700000D02*
X193500000Y-38600000D01*
X181900000Y-31700000D02*
X181900000Y-38600000D01*
X170300000Y-31700000D02*
X170300000Y-38600000D01*
X158700000Y-31700000D02*
X158700000Y-38600000D01*
X147100000Y-31700000D02*
X147100000Y-38600000D01*
X135500000Y-31700000D02*
X135500000Y-38600000D01*
X123900000Y-31700000D02*
X123900000Y-38600000D01*
X112300000Y-31700000D02*
X112300000Y-38600000D01*
X100700000Y-31700000D02*
X100700000Y-38600000D01*
X89100000Y-31700000D02*
X89100000Y-38600000D01*
X77500000Y-31700000D02*
X77500000Y-38600000D01*
X65900000Y-31700000D02*
X65900000Y-38600000D01*
X54300000Y-31700000D02*
X54300000Y-38600000D01*
X42700000Y-31700000D02*
X42700000Y-38600000D01*
X253100000Y-31700000D02*
X251500000Y-31700000D01*
X241500000Y-31700000D02*
X239900000Y-31700000D01*
X229900000Y-31700000D02*
X228300000Y-31700000D01*
X218300000Y-31700000D02*
X216700000Y-31700000D01*
X206700000Y-31700000D02*
X205100000Y-31700000D01*
X195100000Y-31700000D02*
X193500000Y-31700000D01*
X183500000Y-31700000D02*
X181900000Y-31700000D01*
X171900000Y-31700000D02*
X170300000Y-31700000D01*
X160300000Y-31700000D02*
X158700000Y-31700000D01*
X148700000Y-31700000D02*
X147100000Y-31700000D01*
X137100000Y-31700000D02*
X135500000Y-31700000D01*
X125500000Y-31700000D02*
X123900000Y-31700000D01*
X113900000Y-31700000D02*
X112300000Y-31700000D01*
X102300000Y-31700000D02*
X100700000Y-31700000D01*
X90700000Y-31700000D02*
X89100000Y-31700000D01*
X79100000Y-31700000D02*
X77500000Y-31700000D01*
X67500000Y-31700000D02*
X65900000Y-31700000D01*
X55900000Y-31700000D02*
X54300000Y-31700000D01*
X44300000Y-31700000D02*
X42700000Y-31700000D01*
X251500000Y-38600000D02*
X253100000Y-38600000D01*
X239900000Y-38600000D02*
X241500000Y-38600000D01*
X228300000Y-38600000D02*
X229900000Y-38600000D01*
X216700000Y-38600000D02*
X218300000Y-38600000D01*
X205100000Y-38600000D02*
X206700000Y-38600000D01*
X193500000Y-38600000D02*
X195100000Y-38600000D01*
X181900000Y-38600000D02*
X183500000Y-38600000D01*
X170300000Y-38600000D02*
X171900000Y-38600000D01*
X158700000Y-38600000D02*
X160300000Y-38600000D01*
X147100000Y-38600000D02*
X148700000Y-38600000D01*
X135500000Y-38600000D02*
X137100000Y-38600000D01*
X123900000Y-38600000D02*
X125500000Y-38600000D01*
X112300000Y-38600000D02*
X113900000Y-38600000D01*
X100700000Y-38600000D02*
X102300000Y-38600000D01*
X89100000Y-38600000D02*
X90700000Y-38600000D01*
X77500000Y-38600000D02*
X79100000Y-38600000D01*
X65900000Y-38600000D02*
X67500000Y-38600000D01*
X54300000Y-38600000D02*
X55900000Y-38600000D01*
X42700000Y-38600000D02*
X44300000Y-38600000D01*
X258900000Y-26400000D02*
X257300000Y-26400000D01*
X247300000Y-26400000D02*
X245700000Y-26400000D01*
X235700000Y-26400000D02*
X234100000Y-26400000D01*
X224100000Y-26400000D02*
X222500000Y-26400000D01*
X212500000Y-26400000D02*
X210900000Y-26400000D01*
X200900000Y-26400000D02*
X199300000Y-26400000D01*
X189300000Y-26400000D02*
X187700000Y-26400000D01*
X177700000Y-26400000D02*
X176100000Y-26400000D01*
X166100000Y-26400000D02*
X164500000Y-26400000D01*
X154500000Y-26400000D02*
X152900000Y-26400000D01*
X142900000Y-26400000D02*
X141300000Y-26400000D01*
X131300000Y-26400000D02*
X129700000Y-26400000D01*
X119700000Y-26400000D02*
X118100000Y-26400000D01*
X108100000Y-26400000D02*
X106500000Y-26400000D01*
X96500000Y-26400000D02*
X94900000Y-26400000D01*
X84900000Y-26400000D02*
X83300000Y-26400000D01*
X73300000Y-26400000D02*
X71700000Y-26400000D01*
X61700000Y-26400000D02*
X60100000Y-26400000D01*
X50100000Y-26400000D02*
X48500000Y-26400000D01*
X38500000Y-26400000D02*
X36900000Y-26400000D01*
X257300000Y-33300000D02*
X258900000Y-33300000D01*
X245700000Y-33300000D02*
X247300000Y-33300000D01*
X234100000Y-33300000D02*
X235700000Y-33300000D01*
X222500000Y-33300000D02*
X224100000Y-33300000D01*
X210900000Y-33300000D02*
X212500000Y-33300000D01*
X199300000Y-33300000D02*
X200900000Y-33300000D01*
X187700000Y-33300000D02*
X189300000Y-33300000D01*
X176100000Y-33300000D02*
X177700000Y-33300000D01*
X164500000Y-33300000D02*
X166100000Y-33300000D01*
X152900000Y-33300000D02*
X154500000Y-33300000D01*
X141300000Y-33300000D02*
X142900000Y-33300000D01*
X129700000Y-33300000D02*
X131300000Y-33300000D01*
X118100000Y-33300000D02*
X119700000Y-33300000D01*
X106500000Y-33300000D02*
X108100000Y-33300000D01*
X94900000Y-33300000D02*
X96500000Y-33300000D01*
X83300000Y-33300000D02*
X84900000Y-33300000D01*
X71700000Y-33300000D02*
X73300000Y-33300000D01*
X60100000Y-33300000D02*
X61700000Y-33300000D01*
X48500000Y-33300000D02*
X50100000Y-33300000D01*
X36900000Y-33300000D02*
X38500000Y-33300000D01*
X257300000Y-26400000D02*
X257300000Y-33300000D01*
X245700000Y-26400000D02*
X245700000Y-33300000D01*
X234100000Y-26400000D02*
X234100000Y-33300000D01*
X222500000Y-26400000D02*
X222500000Y-33300000D01*
X210900000Y-26400000D02*
X210900000Y-33300000D01*
X199300000Y-26400000D02*
X199300000Y-33300000D01*
X187700000Y-26400000D02*
X187700000Y-33300000D01*
X176100000Y-26400000D02*
X176100000Y-33300000D01*
X164500000Y-26400000D02*
X164500000Y-33300000D01*
X152900000Y-26400000D02*
X152900000Y-33300000D01*
X141300000Y-26400000D02*
X141300000Y-33300000D01*
X129700000Y-26400000D02*
X129700000Y-33300000D01*
X118100000Y-26400000D02*
X118100000Y-33300000D01*
X106500000Y-26400000D02*
X106500000Y-33300000D01*
X94900000Y-26400000D02*
X94900000Y-33300000D01*
X83300000Y-26400000D02*
X83300000Y-33300000D01*
X71700000Y-26400000D02*
X71700000Y-33300000D01*
X60100000Y-26400000D02*
X60100000Y-33300000D01*
X48500000Y-26400000D02*
X48500000Y-33300000D01*
X36900000Y-26400000D02*
X36900000Y-33300000D01*
X253100000Y-38600000D02*
X253100000Y-31700000D01*
X241500000Y-38600000D02*
X241500000Y-31700000D01*
X229900000Y-38600000D02*
X229900000Y-31700000D01*
X218300000Y-38600000D02*
X218300000Y-31700000D01*
X206700000Y-38600000D02*
X206700000Y-31700000D01*
X195100000Y-38600000D02*
X195100000Y-31700000D01*
X183500000Y-38600000D02*
X183500000Y-31700000D01*
X171900000Y-38600000D02*
X171900000Y-31700000D01*
X160300000Y-38600000D02*
X160300000Y-31700000D01*
X148700000Y-38600000D02*
X148700000Y-31700000D01*
X137100000Y-38600000D02*
X137100000Y-31700000D01*
X125500000Y-38600000D02*
X125500000Y-31700000D01*
X113900000Y-38600000D02*
X113900000Y-31700000D01*
X102300000Y-38600000D02*
X102300000Y-31700000D01*
X90700000Y-38600000D02*
X90700000Y-31700000D01*
X79100000Y-38600000D02*
X79100000Y-31700000D01*
X67500000Y-38600000D02*
X67500000Y-31700000D01*
X55900000Y-38600000D02*
X55900000Y-31700000D01*
X44300000Y-38600000D02*
X44300000Y-31700000D01*
X258900000Y-33300000D02*
X258900000Y-26400000D01*
X247300000Y-33300000D02*
X247300000Y-26400000D01*
X235700000Y-33300000D02*
X235700000Y-26400000D01*
X224100000Y-33300000D02*
X224100000Y-26400000D01*
X212500000Y-33300000D02*
X212500000Y-26400000D01*
X200900000Y-33300000D02*
X200900000Y-26400000D01*
X189300000Y-33300000D02*
X189300000Y-26400000D01*
X177700000Y-33300000D02*
X177700000Y-26400000D01*
X166100000Y-33300000D02*
X166100000Y-26400000D01*
X154500000Y-33300000D02*
X154500000Y-26400000D01*
X142900000Y-33300000D02*
X142900000Y-26400000D01*
X131300000Y-33300000D02*
X131300000Y-26400000D01*
X119700000Y-33300000D02*
X119700000Y-26400000D01*
X108100000Y-33300000D02*
X108100000Y-26400000D01*
X96500000Y-33300000D02*
X96500000Y-26400000D01*
X84900000Y-33300000D02*
X84900000Y-26400000D01*
X73300000Y-33300000D02*
X73300000Y-26400000D01*
X61700000Y-33300000D02*
X61700000Y-26400000D01*
X50100000Y-33300000D02*
X50100000Y-26400000D01*
X38500000Y-33300000D02*
X38500000Y-26400000D01*
X26900000Y-26400000D02*
X25300000Y-26400000D01*
X26900000Y-33300000D02*
X26900000Y-26400000D01*
X25300000Y-33300000D02*
X26900000Y-33300000D01*
X25300000Y-26400000D02*
X25300000Y-33300000D01*
X32700000Y-31700000D02*
X31100000Y-31700000D01*
X32700000Y-38600000D02*
X32700000Y-31700000D01*
X31100000Y-38600000D02*
X32700000Y-38600000D01*
X31100000Y-31700000D02*
X31100000Y-38600000D01*
D11*
X265000000Y-20000000D02*
X19000000Y-20000000D01*
X265000000Y-45000000D02*
X265000000Y-20000000D01*
X19000000Y-45000000D02*
X265000000Y-45000000D01*
X19000000Y-20000000D02*
X19000000Y-45000000D01*
M02*
